<svg width="9" height="9" viewBox="0 0 9 9" fill="none" xmlns="http://www.w3.org/2000/svg">
    <g clip-path="url(#clip0_103_75)">
        <path d="M7.46481 8.06247C9.16136 6.75594 9.50821 3.95908 8.22034 2.05519C7.53418 1.04122 6.58562 0.399441 5.40181 0.158966C3.83797 -0.156561 2.47621 0.306008 1.19588 1.48694C0.791722 1.03509 0.404155 0.600092 0 0.148245V3.46588H3.26491C3.28753 3.43218 3.31166 3.39695 3.33428 3.36326C2.9241 2.99412 2.51391 2.62498 2.10523 2.25738C3.40968 0.889581 5.45157 0.855884 6.82842 2.1716C8.10271 3.38929 8.40131 5.56123 6.75302 7.24608C6.98978 7.51719 7.22805 7.79136 7.46481 8.06247Z" fill="white"/>
        <path d="M7.46481 8.06246C7.22805 7.79135 6.98978 7.51718 6.75302 7.24607C8.40131 5.55968 8.10271 3.38928 6.82842 2.17159C5.45157 0.855871 3.40968 0.8911 2.10523 2.25736C2.51391 2.62497 2.9241 2.99411 3.33428 3.36324C3.31166 3.39694 3.28753 3.43217 3.26491 3.46586H0V0.148232C0.404155 0.600079 0.791722 1.03661 1.19588 1.48846C2.47621 0.305995 3.83797 -0.156574 5.40181 0.158953C6.58562 0.397896 7.53418 1.03967 8.22034 2.05518C9.50821 3.9606 9.16136 6.75593 7.46481 8.06246Z" fill="#2271B1"/>
    </g>
    <defs>
        <clipPath id="clip0_103_75">
            <rect width="9" height="8" fill="white" transform="translate(0 0.0625)"/>
        </clipPath>
    </defs>
</svg>