<?xml version="1.0" encoding="utf-8"?>
<!-- Generator: Adobe Illustrator 25.2.1, SVG Export Plug-In . SVG Version: 6.00 Build 0)  -->
<svg version="1.1" id="Warstwa_2" xmlns="http://www.w3.org/2000/svg" xmlns:xlink="http://www.w3.org/1999/xlink" x="0px" y="0px"
	 viewBox="0 0 20.1200008 15.96" style="enable-background:new 0 0 20.1200008 15.96;" xml:space="preserve">
<style type="text/css">
	.st0{fill:#6A39E4;}
</style>
<path class="st0" d="M12.4941406,8.5898438h6.4648438c0.4970703,0,0.9003906-0.402832,0.9003906-0.8999023
	s-0.4033203-0.8999023-0.9003906-0.8999023h-6.4648438c-0.4970703,0-0.9003906,0.402832-0.9003906,0.8999023
	S11.9970703,8.5898438,12.4941406,8.5898438z M16.6328125,12.1074219c0.4970703,0,0.9003906-0.4033203,0.9003906-0.9003906
	s-0.4033203-0.9003906-0.9003906-0.9003906h-4.5605469c-0.6101685-0.7996826-1.3875732-1.4359131-2.263916-1.8774414
	c0.999939-0.843689,1.6496582-2.0898438,1.6496582-3.4975586c0-2.5336914-2.0615234-4.5952148-4.5957031-4.5952148
	S2.2666016,2.3979492,2.2666016,4.9316406c0,1.4099731,0.6517334,2.6578369,1.65448,3.5015259
	c-2.1370239,1.0799561-3.6090698,3.2913208-3.6090698,5.8451538c0,0.1728516,0.0068359,0.3447266,0.0195312,0.5136719
	c0.0361328,0.4726562,0.4306641,0.8320312,0.8964844,0.8320312c0.0229492,0,0.0463867-0.0009766,0.0698242-0.0029297
	c0.4956055-0.0380859,0.8666992-0.4707031,0.8286133-0.9658203c-0.0097656-0.1240234-0.0146484-0.2509766-0.0146484-0.3769531
	c0-2.6201172,2.1313477-4.7509766,4.7504883-4.7509766c1.5800781,0,3.0532227,0.7832031,3.9672852,2.1347656L10.8959961,11.75
	c0.1704102,0.2246094,0.4360352,0.3574219,0.7182617,0.3574219H16.6328125z M6.8623047,7.7275391
	c-1.5415039,0-2.7958984-1.2543945-2.7958984-2.7958984s1.2543945-2.7954102,2.7958984-2.7954102
	s2.7958984,1.2539062,2.7958984,2.7954102S8.4038086,7.7275391,6.8623047,7.7275391z M18.9589844,13.8232422h-6.4648438
	c-0.4970703,0-0.9003906,0.4033203-0.9003906,0.9003906s0.4033203,0.9003906,0.9003906,0.9003906h6.4648438
	c0.4970703,0,0.9003906-0.4033203,0.9003906-0.9003906S19.4560547,13.8232422,18.9589844,13.8232422z"/>
</svg>
