<?xml version="1.0" encoding="utf-8"?>
<!-- Generator: Adobe Illustrator 25.1.0, SVG Export Plug-In . SVG Version: 6.00 Build 0)  -->
<svg version="1.1" id="Warstwa_2" xmlns="http://www.w3.org/2000/svg" xmlns:xlink="http://www.w3.org/1999/xlink" x="0px" y="0px"
	 viewBox="0 0 20.12 15.96" enable-background="new 0 0 20.12 15.96" xml:space="preserve">
<path fill="#6A39E4" d="M16.93,7.1c-0.5,0-0.9,0.4-0.9,0.9c0,3.35-2.73,6.08-6.08,6.08c-3.35,0-6.08-2.73-6.08-6.08
	s2.73-6.08,6.08-6.08c0.6,0,1.2,0.09,1.77,0.26c0.48,0.15,0.98-0.13,1.12-0.6c0.14-0.48-0.12-0.98-0.6-1.12
	c-0.74-0.22-1.51-0.34-2.29-0.34C5.6,0.11,2.06,3.65,2.06,8c0,4.35,3.54,7.89,7.88,7.89s7.88-3.54,7.88-7.89
	C17.83,7.5,17.42,7.1,16.93,7.1z M7.73,6.39c-0.32-0.38-0.89-0.42-1.27-0.1c-0.38,0.32-0.42,0.89-0.1,1.27l2.5,2.94
	c0.17,0.2,0.41,0.31,0.67,0.32c0,0,0.01,0,0.01,0c0.25,0,0.5-0.11,0.67-0.3l6.19-6.84c0.33-0.37,0.3-0.94-0.06-1.27
	c-0.37-0.33-0.94-0.31-1.27,0.06l-5.5,6.08L7.73,6.39z"/>
</svg>
