<?xml version="1.0" encoding="utf-8"?>
<svg version="1.1" id="Warstwa_1" xmlns="http://www.w3.org/2000/svg" xmlns:xlink="http://www.w3.org/1999/xlink" x="0px" y="0px"
	 viewBox="0 0 20.1200008 15.96" style="enable-background:new 0 0 20.1200008 15.96;" xml:space="preserve">
<path fill="#6A39E4" d="M18.8649902,5.7070312c-0.3491211-0.4321289-0.8681641-0.6801758-1.4238281-0.6801758h-2.210144
	l-2.4917603-4.1699219c-0.2539062-0.4272461-0.8085938-0.5668945-1.234375-0.3110352
	c-0.4267578,0.2548828-0.5654297,0.8076172-0.3105469,1.2338867l3.4560547,5.7836914
	c0.1679688,0.2822266,0.4667969,0.4384766,0.7734375,0.4384766c0.1572266,0,0.3164062-0.0410156,0.4609375-0.1274414
	c0.3677979-0.2196655,0.5039673-0.6572876,0.3762817-1.0478516h1.1801147l-1.1591797,5.5258789
	c-0.1611328,0.7480469-0.8330078,1.2900391-1.5976562,1.2900391H10.0625h-0.0026855H5.4379883
	c-0.7646484,0-1.4365234-0.5419922-1.5976562-1.2900391L2.6811523,6.8266602H3.864502
	c-0.1277466,0.3908081,0.0088501,0.828125,0.376709,1.0478516c0.1445312,0.0864258,0.3037109,0.1274414,0.4604492,0.1274414
	c0.3066406,0,0.6049805-0.15625,0.7734375-0.4384766l3.4550781-5.7836914
	c0.2548828-0.4267578,0.1157227-0.9790039-0.3110352-1.2338867C8.1928711,0.2919922,7.640625,0.4311523,7.3852539,0.8569336
	L4.8942261,5.0268555H2.6811523c-0.5556641,0-1.074707,0.2480469-1.4238281,0.6801758
	C0.9082031,6.1396484,0.7753906,6.6992188,0.8925781,7.2426758l1.1879883,5.4897461
	c0.3393555,1.5712891,1.7509766,2.7109375,3.3574219,2.7109375h4.6218262H10.0625h4.6218262
	c1.6064453,0,3.0180664-1.1396484,3.3574219-2.7109375l1.1879883-5.4897461
	C19.3469238,6.6992188,19.2141113,6.1396484,18.8649902,5.7070312z M7.1000977,9
	c0,0.4970703,0.402832,0.9003906,0.8999023,0.9003906h1.1000977V11c0,0.4970703,0.402832,0.9003906,0.8999023,0.9003906
	S10.8999023,11.4970703,10.8999023,11V9.9003906H12c0.4970703,0,0.9003906-0.4033203,0.9003906-0.9003906
	S12.4970703,8.1000977,12,8.1000977h-1.1000977V7c0-0.4970703-0.402832-0.8999023-0.8999023-0.8999023
	S9.1000977,6.5029297,9.1000977,7v1.1000977H8C7.5029297,8.1000977,7.1000977,8.5029297,7.1000977,9z"/>
</svg>
