<svg xmlns="http://www.w3.org/2000/svg" width="47" height="47" viewBox="0 0 47 47"><defs><style>.a{fill:#a2b0c1;}.b{fill:#6a39e4;}</style></defs><g transform="translate(-221 -1491)"><path class="a" d="M23.5,0A23.5,23.5,0,1,1,0,23.5,23.5,23.5,0,0,1,23.5,0Z" transform="translate(221 1491)"/><path class="b" d="M23.5,2a21.506,21.506,0,0,0-8.368,41.311A21.506,21.506,0,0,0,31.868,3.689,21.364,21.364,0,0,0,23.5,2m0-2A23.5,23.5,0,1,1,0,23.5,23.5,23.5,0,0,1,23.5,0Z" transform="translate(221 1491)"/></g></svg>