<svg xmlns="http://www.w3.org/2000/svg" width="47" height="47" viewBox="0 0 47 47"><defs><style>.a{fill:#a2b0c1;}.b{fill:#6a39e4;}</style></defs><g transform="translate(-277 -1492)"><path class="a" d="M18.5,0A18.5,18.5,0,1,1,0,18.5,18.5,18.5,0,0,1,18.5,0Z" transform="translate(282 1497)"/><path class="b" d="M23.5,2a21.506,21.506,0,0,0-8.368,41.311A21.493,21.493,0,0,0,45,23.5,21.276,21.276,0,0,0,38.72,8.314a22.361,22.361,0,0,0-6.958-4.655A21.185,21.185,0,0,0,23.5,2m0-2A23.59,23.59,0,0,1,40.117,6.883,23.265,23.265,0,0,1,47,23.5,23.5,23.5,0,1,1,23.5,0Z" transform="translate(277 1492)"/></g></svg>