<svg xmlns="http://www.w3.org/2000/svg" width="45" height="45" viewBox="0 0 45 45"><defs><style>.a{fill:#a2b0c1;}.b{fill:#6a39e4;}.c{fill:#fff;}</style></defs><g transform="translate(-393 -1492)"><rect class="a" width="45" height="45" rx="8" transform="translate(393 1492)"/><path class="b" d="M8,2A6.007,6.007,0,0,0,2,8V37a6.007,6.007,0,0,0,6,6H37a6.007,6.007,0,0,0,6-6V8a6.007,6.007,0,0,0-6-6H8M8,0H37a8,8,0,0,1,8,8V37a8,8,0,0,1-8,8H8a8,8,0,0,1-8-8V8A8,8,0,0,1,8,0Z" transform="translate(393 1492)"/><path class="c" d="M6,2A4,4,0,0,0,2,6V35a4,4,0,0,0,4,4H35a4,4,0,0,0,4-4V6a4,4,0,0,0-4-4H6M6,0H35a6,6,0,0,1,6,6V35a6,6,0,0,1-6,6H6a6,6,0,0,1-6-6V6A6,6,0,0,1,6,0Z" transform="translate(395 1494)"/></g></svg>