<svg xmlns="http://www.w3.org/2000/svg" width="45" height="45" viewBox="0 0 45 45"><defs><style>.a{fill:#a2b0c1;}.b{fill:#6a39e4;}</style></defs><g transform="translate(-452 -1492)"><rect class="a" width="45" height="45" rx="8" transform="translate(452 1492)"/><path class="b" d="M8,2A6.007,6.007,0,0,0,2,8V37a6.007,6.007,0,0,0,6,6H37a6.007,6.007,0,0,0,6-6V8a6.007,6.007,0,0,0-6-6H8M8,0H37a8,8,0,0,1,8,8V37a8,8,0,0,1-8,8H8a8,8,0,0,1-8-8V8A8,8,0,0,1,8,0Z" transform="translate(452 1492)"/><rect class="a" width="45" height="45" transform="translate(452 1492)"/><path class="b" d="M2,2V43H43V2H2M0,0H45V45H0Z" transform="translate(452 1492)"/></g></svg>