<svg version="1.1" xmlns="http://www.w3.org/2000/svg" width="512" height="512" viewBox="0 0 512 512">
<title></title>
<path d="M463.125 123.167c-53.563 0.385-107.124 0.174-160.704 0.174-46.457 0-92.933-0.174-139.427 0-0.298 0.059-0.6 0.097-0.903 0.114-3.547 0.197-6.583-2.52-6.78-6.069-4.25-18.167-8.732-36.29-13.442-54.369-1.392-9.939-10.516-16.914-20.474-15.651-24.172 0-48.364 0-72.575 0-2.757-0.166-5.517 0.218-8.123 1.133-8.805 3.264-13.831 12.544-11.753 21.702 1.842 8.76 9.622 14.994 18.572 14.885 18.148 0.037 36.316 0.25 54.446-0.135 5.242-0.115 6.951 1.767 8.085 6.51 7.299 30.344 14.98 60.63 22.663 90.936 10.639 42.442 21.107 84.942 32.090 127.308 6.38 23.851 27.857 40.539 52.543 40.829 28.692 0.229 57.365 0 86.058 0l-0.136 0.058c28.347 0 56.673 0.248 85.020 0 25.644 0.1 48.026-17.356 54.176-42.252 12.637-49.586 24.928-99.25 37.353-148.857 0.864-3.495 1.478-7.047 2.515-10.486 0.928-2.51 1.322-5.184 1.156-7.855-0.659-10.586-9.775-18.635-20.361-17.975zM408.142 388.788c-20.953-0.195-38.099 16.631-38.293 37.584-0.197 20.953 16.63 38.099 37.583 38.293 20.953 0.197 38.099-16.63 38.293-37.583 0.197-20.953-16.63-38.099-37.583-38.296zM199.31 388.653c0.003 0 0.006 0.002 0.010 0.002s0.008-0.002 0.011-0.002h-0.020zM199.319 388.654c-21.018-0.058-38.105 16.928-38.169 37.947-0.064 21.022 16.927 38.115 37.948 38.18s38.115-16.926 38.178-37.949c0.001-0.122 0.001-0.244 0.001-0.365-0.042-20.923-17.036-37.849-37.959-37.813z"></path>
</svg>
