<svg version="1.1" xmlns="http://www.w3.org/2000/svg" width="512" height="512" viewBox="0 0 512 512">
<title></title>
<path d="M202.552 368.39h0.016z"></path>
<path d="M256 105.888c-21.575 0-39.137 17.563-39.137 39.15v26.083h78.287v-26.083c0-21.588-17.563-39.15-39.15-39.15z"></path>
<path d="M256 0.556c-141.081 0-255.452 114.369-255.452 255.45 0 141.083 114.371 255.452 255.452 255.452s255.452-114.369 255.452-255.452c0-141.081-114.37-255.45-255.452-255.45zM374.072 392.824c-9.063 10.181-22.099 16.028-35.736 16.028h-165.236c-13.637 0-26.664-5.847-35.736-16.028s-13.37-23.8-11.797-37.351l16.707-143.87c2.683-23.078 22.228-40.481 45.461-40.481h3.528v-26.083c0-35.7 29.037-64.75 64.737-64.75s64.75 29.050 64.75 64.75v26.083h2.952c23.235 0 42.786 17.403 45.469 40.481l16.699 143.87c1.565 13.551-2.735 27.171-11.797 37.351z"></path>
</svg>
