<svg version="1.1" xmlns="http://www.w3.org/2000/svg" width="512" height="512" viewBox="0 0 512 512">
<title></title>
<path d="M202.552 368.39h0.016z"></path>
<path d="M256 0.556c-141.081 0-255.452 114.369-255.452 255.45 0 141.083 114.371 255.452 255.452 255.452s255.452-114.369 255.452-255.452c0-141.081-114.37-255.45-255.452-255.45zM236.668 363.868c-0.048 17.036-13.901 30.805-30.939 30.753-17.036-0.051-30.806-13.904-30.753-30.939 0.052-17.034 13.9-30.8 30.933-30.753 16.956-0.029 30.728 13.688 30.761 30.642 0 0.1 0 0.199-0.001 0.297zM355.267 363.868c-0.048 17.036-13.901 30.805-30.938 30.753s-30.806-13.904-30.753-30.939c0.051-17.034 13.899-30.8 30.932-30.753 16.958-0.029 30.728 13.688 30.761 30.642 0 0.1 0 0.199-0.002 0.297zM388.216 184.965c-0.688 2.283-1.096 4.641-1.671 6.961-8.248 32.936-16.409 65.908-24.8 98.829-4.083 16.529-18.942 28.117-35.969 28.051-18.82 0.166-37.627 0-56.447 0l0.091-0.038c-19.048 0-38.088 0.151-57.136 0-16.391-0.194-30.65-11.272-34.886-27.108-7.292-28.128-14.242-56.346-21.304-84.524-5.101-20.12-10.2-40.228-15.047-60.374-0.751-3.15-1.887-4.4-5.365-4.323-12.037 0.256-24.1 0.114-36.148 0.090-5.942 0.072-11.108-4.067-12.329-9.883-1.379-6.079 1.956-12.24 7.803-14.409 1.73-0.605 3.563-0.861 5.392-0.751 16.073 0 32.136 0 48.186 0 6.611-0.838 12.667 3.794 13.59 10.392 3.128 12.003 6.103 24.034 8.927 36.097 0.13 2.356 4.901 3.992 5.1 3.953 30.869-0.115 163.702 0.141 199.264-0.115 7.028-0.438 13.081 4.906 13.517 11.936 0.111 1.772-0.151 3.548-0.767 5.214z"></path>
</svg>
