<svg version="1.1" xmlns="http://www.w3.org/2000/svg" width="512" height="512" viewBox="0 0 512 512">
<title></title>
<path d="M444.925 402.4l-24.275-209.15c-3.9-33.55-32.325-58.85-66.1-58.85h-11v-13.188c0-48.825-39.725-88.55-88.537-88.55-48.825 0-88.55 39.725-88.55 88.55v13.188h-9.575c-33.775 0-62.188 25.3-66.088 58.85l-24.287 209.15c-2.287 19.7 3.963 39.5 17.15 54.3s32.125 23.3 51.95 23.3h240.213c19.825 0 38.775-8.5 51.95-23.3s19.425-34.6 17.15-54.3zM204.863 121.213c0-27.65 22.5-50.15 50.15-50.15 27.638 0 50.138 22.5 50.138 50.15v13.188h-100.287v-13.188zM399.1 431.175c-6 6.725-14.25 10.425-23.275 10.425h-240.213c-9.013 0-17.275-3.7-23.275-10.425-5.987-6.75-8.713-15.375-7.675-24.325l24.288-209.175c1.65-14.175 13.662-24.875 27.938-24.875h9.575v31.525c0 10.6 8.6 19.2 19.2 19.2s19.2-8.6 19.2-19.2v-31.525h100.287v31.525c0 10.6 8.6 19.2 19.2 19.2s19.2-8.6 19.2-19.2v-31.525h11c14.275 0 26.3 10.7 27.95 24.875l24.275 209.175c1.050 8.95-1.675 17.6-7.675 24.325z"></path>
</svg>
