<svg version="1.1" xmlns="http://www.w3.org/2000/svg" width="512" height="512" viewBox="0 0 512 512">
<title></title>
<path d="M390.208 367.978h-186.214l-11.494-46.080h243.2l52.173-208.666h-347.546l-18.329-73.344h-97.869v27.315h76.519l75.443 301.849c-26.258 5.669-42.949 31.551-37.28 57.809s31.551 42.949 57.809 37.281 42.949-31.551 37.28-57.809c-0.825-3.82-2.107-7.527-3.819-11.040h116.301c-11.777 24.144-1.752 53.264 22.392 65.041s53.264 1.752 65.041-22.392c11.777-24.144 1.752-53.264-22.392-65.041-6.608-3.224-13.861-4.907-21.214-4.923z"></path>
</svg>
