<svg version="1.1" xmlns="http://www.w3.org/2000/svg" width="512" height="512" viewBox="0 0 512 512">
<title></title>
<path d="M482.125 225.45h-67.033l-142.042-175.15c-0.36-0.442-0.877-0.642-1.265-1.044-0.539-0.559-0.841-1.267-1.459-1.769-0.574-0.464-1.272-0.594-1.878-0.981-0.997-0.645-1.988-1.161-3.067-1.605-1.216-0.497-2.396-0.883-3.663-1.117-1.189-0.23-2.334-0.313-3.546-0.314-1.211 0.002-2.355 0.084-3.542 0.314-1.268 0.234-2.446 0.62-3.661 1.117-1.079 0.446-2.073 0.962-3.069 1.609-0.601 0.386-1.293 0.516-1.863 0.977-0.617 0.5-0.917 1.205-1.454 1.763-0.392 0.404-0.91 0.605-1.27 1.050l-142.065 175.15h-67.109c-10.6 0-19.2 8.6-19.2 19.2s8.6 19.2 19.2 19.2h14.416l32.235 140.725c9.362 40.9 45.213 69.575 87.175 69.775l179.913 0.725c0.125 0 0.275 0 0.4 0 42.15 0 78.1-28.625 87.525-69.775l32.386-141.45h13.939c10.6 0 19.2-8.6 19.2-19.2s-8.6-19.2-19.2-19.2zM258.182 92.939l107.481 132.511h-214.963l107.481-132.511zM398.35 396.75c-5.375 23.6-26.025 40.125-50.325 39.925l-179.9-0.725c-24.025-0.1-44.55-16.525-49.912-39.925l-30.27-132.175h340.831l-30.423 132.9z"></path>
</svg>
