<svg version="1.1" xmlns="http://www.w3.org/2000/svg" width="512" height="512" viewBox="0 0 512 512">
<title></title>
<path d="M145.964 410.034c-20.347 0-36.839 16.493-36.839 36.839s16.492 36.839 36.839 36.839c20.346 0 36.838-16.493 36.838-36.839s-16.492-36.839-36.838-36.839zM375.119 410.034c-20.346 0-36.839 16.493-36.839 36.839s16.493 36.839 36.839 36.839 36.839-16.493 36.839-36.839-16.494-36.839-36.839-36.839zM487.551 104.903c-1.672-15.103-14.18-28.103-31.153-28.103h-323.332l-8.404-30.675c-2.275-8.337-9.862-14.125-18.513-14.125h-54.95c-10.6 0-19.2 8.6-19.2 19.2s8.6 19.2 19.2 19.2h40.3l53.988 197.037-57.825 79.688c-4.237 5.85-4.85 13.575-1.563 20 3.275 6.425 9.888 10.475 17.1 10.475h280.8c10.6 0 19.2-8.6 19.2-19.2s-8.6-19.2-19.2-19.2h-243.15l33.626-46.342h129.505c101.433 0 183.661-82.226 183.661-183.66 0.038-1.284 0.119-2.552 0-3.813v-0.586l-0.091 0.103z"></path>
</svg>
