<svg version="1.1" xmlns="http://www.w3.org/2000/svg" width="512" height="512" viewBox="0 0 512 512">
<title></title>
<path d="M256 0.556c-141.081 0-255.452 114.369-255.452 255.45 0 141.083 114.371 255.452 255.452 255.452s255.452-114.369 255.452-255.452c0-141.081-114.37-255.45-255.452-255.45zM395.75 262.4h-11.75v83.911c0 20.814-16.873 37.689-37.689 37.689h-180.622c-20.815 0-37.689-16.875-37.689-37.689v-83.911h-11.737c-10.588 0-19.2-8.613-19.2-19.2s8.612-19.2 19.2-19.2h25.678l61.709-115.138c5-9.325 16.7-12.85 25.988-7.85 9.325 5 12.85 16.663 7.85 26l-51.989 96.987h141.058l-51.969-96.987c-5-9.325-1.475-20.987 7.837-26v-0.013c9.375-4.95 21.025-1.425 26 7.85l61.711 115.15h25.614c10.575 0 19.2 8.613 19.2 19.2s-8.625 19.2-19.2 19.2z"></path>
</svg>
