<svg version="1.1" xmlns="http://www.w3.org/2000/svg" width="512" height="512" viewBox="0 0 512 512">
<title></title>
<path d="M464.474 211.276h-17.774l-53.65-122.624c-13.505-30.983-44.103-51.003-77.901-50.971h-118.297c-33.75-0.042-64.322 19.907-77.875 50.816l-53.66 122.778h-17.791c-1.556 0-3.108 0.171-4.628 0.506-11.583 2.558-18.897 14.024-16.339 25.607l38.426 174.617c8.27 37.654 41.627 64.483 80.178 64.486h221.697c38.551-0.021 71.906-26.839 80.204-64.486l38.4-174.617c0.332-1.51 0.498-3.052 0.5-4.597 0.007-11.875-9.615-21.51-21.492-21.516zM104.158 211.276l47.382-108.415c7.885-17.998 25.664-29.629 45.313-29.645h118.297c19.68 0.003 37.488 11.661 45.364 29.695l47.431 108.365h-303.786z"></path>
</svg>
