<svg version="1.1" xmlns="http://www.w3.org/2000/svg" width="512" height="512" viewBox="0 0 512 512">
<title></title>
<path d="M492.975 111.775c-4.6-5.463-11.25-8.6-18.275-8.6h-376.818l-4.556-36.425c-1.987-15.987-15.65-28.050-31.775-28.050h-39.225c-7.075 0-12.8 5.725-12.8 12.8s5.725 12.8 12.8 12.8h39.225c3.238 0 5.975 2.412 6.375 5.625l6.329 50.612c0.011 0.115-0.044 0.222-0.029 0.338l24.342 201.685c-11.481 9.128-18.529 22.975-18.529 38.141 0 26.975 21.938 48.9 48.9 48.9h32.822c-4.858 7.829-7.797 16.975-7.797 26.85 0 28.25 22.975 51.225 51.225 51.225 28.238 0 51.213-22.975 51.213-51.225 0-9.875-2.938-19.020-7.796-26.85h104.577c-4.416 7.567-7.132 16.247-7.132 25.625 0 28.25 22.975 51.225 51.225 51.225 28.225 0 51.2-22.975 51.2-51.225s-22.975-51.225-51.2-51.225c-0.108 0-0.208 0.031-0.315 0.031-0.057 0-0.103-0.031-0.159-0.031h-267.863c-12.85 0-23.3-10.45-23.3-23.3 0-7.375 3.537-14.064 9.217-18.4 1.386 0.308 2.714 0.8 4.183 0.8h307.612c20.1 0 37.3-14.825 40.9-35.25l30.925-175.287c1.325-7.475-0.7-15.050-5.5-20.787zM205.188 462.075c-14.125 0-25.625-11.5-25.625-25.625s11.5-25.625 25.625-25.625 25.613 11.5 25.613 25.625-11.488 25.625-25.613 25.625zM422.875 435.225c0 14.125-11.475 25.625-25.6 25.625s-25.625-11.5-25.625-25.625 11.5-25.625 25.625-25.625 25.6 11.5 25.6 25.625zM230.4 256c0 7.068-5.732 12.8-12.8 12.8s-12.8-5.731-12.8-12.8v-76.8c0-7.071 5.732-12.8 12.8-12.8s12.8 5.73 12.8 12.8v76.8zM307.2 256c0 7.068-5.731 12.8-12.8 12.8s-12.8-5.731-12.8-12.8v-76.8c0-7.071 5.731-12.8 12.8-12.8s12.8 5.73 12.8 12.8v76.8zM384 256c0 7.068-5.731 12.8-12.8 12.8s-12.8-5.731-12.8-12.8v-76.8c0-7.071 5.731-12.8 12.8-12.8s12.8 5.73 12.8 12.8v76.8z"></path>
</svg>
