<svg version="1.1" xmlns="http://www.w3.org/2000/svg" width="512" height="512" viewBox="0 0 512 512">
<title></title>
<path d="M477.12 214.963h-80.597l-85.428-150.162c-5.275-9.2-16.95-12.462-26.2-7.188-9.212 5.237-12.438 16.963-7.188 26.188l74.609 131.162h-190.965l74.619-131.162c5.25-9.225 2.025-20.95-7.188-26.188-9.225-5.225-20.95-2.025-26.188 7.188l-85.428 150.162h-82.322c-14.137 0-25.6 11.463-25.6 25.6s11.462 25.6 25.6 25.6h4.205l44.467 165.471c3.763 13.959 16.418 23.661 30.875 23.671h284.865c14.459-0.002 27.12-9.707 30.875-23.671l44.488-165.471h2.5c14.15 0 25.6-11.463 25.6-25.6s-11.45-25.6-25.6-25.6z"></path>
</svg>
