<svg version="1.1" xmlns="http://www.w3.org/2000/svg" width="512" height="512" viewBox="0 0 512 512">
<title></title>
<path d="M435.081 170.833h-81.382v-45.833c0-53.825-43.775-97.612-97.588-97.612s-97.6 43.788-97.6 97.612v45.833h-79.895c-10.997 0-19.519 9.614-18.198 20.531l28.069 232.069c4.108 33.959 32.928 59.503 67.135 59.503h202.454c34.206 0 63.026-25.543 67.133-59.503l28.068-232.069c1.32-10.917-7.2-20.531-18.197-20.531zM189.238 125c0-36.888 30-66.888 66.875-66.888 36.887 0 66.887 30 66.887 66.888v45.833h-133.762v-45.833zM173.565 246.755c-14.679 0-26.578-11.899-26.578-26.577 0-14.679 11.899-26.578 26.578-26.578 14.678 0 26.577 11.899 26.577 26.578 0 14.678-11.899 26.577-26.577 26.577zM339.255 246.755c-14.68 0-26.578-11.899-26.578-26.577 0-14.679 11.899-26.578 26.578-26.578 14.678 0 26.577 11.899 26.577 26.578 0 14.678-11.899 26.577-26.577 26.577z"></path>
</svg>
