<svg version="1.1" xmlns="http://www.w3.org/2000/svg" width="512" height="512" viewBox="0 0 512 512">
<title></title>
<path d="M372.15 189.175l-30.988-82.625c-10.075-26.9-36.15-44.975-64.887-44.975h-40.537c-28.725 0-54.813 18.075-64.9 44.975l-30.988 82.625h-100.73v25.6h21.924l35.514 182.259c4.626 23.747 25.43 40.887 49.624 40.887h224.119c24.194 0 44.997-17.14 49.623-40.887l35.514-182.26h21.35v-25.6h-104.637zM197.172 371.529h-35.944v-103.163h35.944v103.163zM273.972 371.529h-35.944v-103.163h35.944v103.163zM350.772 371.529h-35.944v-103.163h35.943v103.163zM194.813 115.55c6.363-16.975 22.813-28.375 40.925-28.375h40.538c18.113 0 34.563 11.4 40.938 28.375l27.613 73.625h-177.625l27.613-73.625z"></path>
</svg>
