<svg version="1.1" xmlns="http://www.w3.org/2000/svg" width="512" height="512" viewBox="0 0 512 512">
<title></title>
<path d="M454.825 101.612c-9.225-11.7-23.025-18.413-37.925-18.413h-212.1c-10.6 0-19.2 8.6-19.2 19.2s8.6 19.2 19.2 19.2h212.1c4.15 0 6.625 2.35 7.725 3.75 1.125 1.412 2.825 4.363 1.825 8.4l-31.35 129.85c-3.5 14.363-16.25 24.4-31.025 24.4h-167.475c-15.15 0-28.3-10.775-31.275-25.625l-39.963-198.875c-3.662-18.25-19.825-31.5-38.45-31.5h-35.712c-10.6 0-19.2 8.6-19.2 19.2s8.6 19.2 19.2 19.2l36.512 0.662 39.963 198.875c6.563 32.712 35.55 56.462 68.925 56.462h167.475c32.575 0 60.675-22.1 68.35-53.775l31.35-129.85c3.525-14.463 0.25-29.463-8.95-41.162zM192 368.65c-29.637 0-53.762 24.1-53.762 53.75s24.125 53.75 53.762 53.75 53.762-24.1 53.762-53.75-24.125-53.75-53.762-53.75zM192 445.45c-12.7 0-23.037-10.35-23.037-23.050s10.338-23.050 23.037-23.050 23.037 10.35 23.037 23.050-10.338 23.050-23.037 23.050zM371.2 368.65c-29.65 0-53.75 24.1-53.75 53.75s24.1 53.75 53.75 53.75 53.75-24.1 53.75-53.75-24.1-53.75-53.75-53.75zM371.2 445.45c-12.7 0-23.050-10.35-23.050-23.050s10.35-23.050 23.050-23.050 23.050 10.35 23.050 23.050-10.35 23.050-23.050 23.050z"></path>
</svg>
