<?xml version="1.0" encoding="utf-8"?>
<!-- Generator: Adobe Illustrator 25.2.1, SVG Export Plug-In . SVG Version: 6.00 Build 0)  -->
<svg version="1.1" id="Warstwa_2" xmlns="http://www.w3.org/2000/svg" xmlns:xlink="http://www.w3.org/1999/xlink" x="0px" y="0px"
	 viewBox="0 0 20.1200008 15.96" style="enable-background:new 0 0 20.1200008 15.96;" xml:space="preserve">
<style type="text/css">
	.st0{fill:#6A39E4;}
</style>
<path class="st0" d="M12.8616333,8.4331665c1.0028687-0.843689,1.6549683-2.0915527,1.6549683-3.5015259
	c0-2.5336914-2.0625-4.5952148-4.5961914-4.5952148c-2.5341797,0-4.5957031,2.0615234-4.5957031,4.5952148
	c0,1.4099731,0.6517334,2.6578369,1.65448,3.5015259c-2.1370239,1.0799561-3.6090698,3.2913208-3.6090698,5.8451538
	c0,0.1728516,0.0068359,0.3447266,0.0195312,0.5136719c0.0361328,0.4726562,0.4306641,0.8320312,0.8964844,0.8320312
	c0.0229492,0,0.0463867-0.0009766,0.0698242-0.0029297c0.4956055-0.0380859,0.8666992-0.4707031,0.8286133-0.9658203
	c-0.0097656-0.1240234-0.0146484-0.2509766-0.0146484-0.3769531c0-2.6201172,2.1313477-4.7509766,4.7504883-4.7509766
	c2.6186523,0,4.7495117,2.1308594,4.7495117,4.7509766c0,0.1269531-0.0048828,0.2548828-0.0136719,0.3798828
	c-0.0361328,0.4951172,0.3359375,0.9267578,0.8320312,0.9628906c0.4951172,0.0527344,0.9277344-0.3359375,0.9628906-0.8320312
	c0.0126953-0.1679688,0.0195312-0.3388672,0.0195312-0.5107422C16.4707031,11.7244873,14.9986572,9.5131226,12.8616333,8.4331665z
	 M7.1245117,4.9316406c0-1.5415039,1.2543945-2.7954102,2.7958984-2.7954102s2.7954102,1.2539062,2.7954102,2.7954102
	s-1.2539062,2.7958984-2.7954102,2.7958984S7.1245117,6.4731445,7.1245117,4.9316406z"/>
</svg>
