<svg xmlns="http://www.w3.org/2000/svg" width="22.382" height="19.097" viewBox="0 0 22.382 19.097"><g transform="translate(0)"><g transform="translate(0 6.837)"><path d="M-2420.945,953.435l.9-1.355a.865.865,0,0,0,.13-.655.866.866,0,0,0-.372-.555.866.866,0,0,0-.656-.13.865.865,0,0,0-.554.372l-1.226,1.838a.869.869,0,0,0,0,.967l1.226,1.839a.871.871,0,0,0,.726.388.87.87,0,0,0,.483-.146.874.874,0,0,0,.242-1.209Z" transform="translate(2422.865 -950.724)" fill="#f6724c"/><g transform="translate(19.412 0)"><path d="M-2045.6,952.957l-1.226-1.839a.871.871,0,0,0-.726-.388.872.872,0,0,0-.483.147.873.873,0,0,0-.241,1.209l.9,1.355-.9,1.355a.872.872,0,0,0,.241,1.209.867.867,0,0,0,.482.147.851.851,0,0,0,.174-.018.863.863,0,0,0,.554-.371l1.226-1.838A.869.869,0,0,0-2045.6,952.957Z" transform="translate(2048.425 -950.73)" fill="#f6724c"/></g></g><g transform="translate(0.701 0)"><path d="M-2389.136,824.2l-.254-2.786a2.813,2.813,0,0,0-2.814-2.57h-13.311a2.813,2.813,0,0,0-2.814,2.57l-.253,2.786a.779.779,0,0,0,.2.595.779.779,0,0,0,.575.253.774.774,0,0,0,.775-.707l.253-2.786a1.265,1.265,0,0,1,1.265-1.156h13.311a1.265,1.265,0,0,1,1.265,1.156l.253,2.786a.775.775,0,0,0,.775.707.78.78,0,0,0,.574-.253A.78.78,0,0,0-2389.136,824.2Zm.751,9.613-.125-1.37a.774.774,0,0,0-.775-.707.779.779,0,0,0-.574.253.781.781,0,0,0-.2.595l.125,1.371a2.2,2.2,0,0,1-.573,1.7,2.206,2.206,0,0,1-1.646.726h-13.412a2.208,2.208,0,0,1-1.647-.726,2.207,2.207,0,0,1-.573-1.706l.125-1.37a.782.782,0,0,0-.2-.595.78.78,0,0,0-.574-.253.774.774,0,0,0-.774.707l-.125,1.37a3.789,3.789,0,0,0,.975,2.895,3.792,3.792,0,0,0,2.794,1.233h13.412a3.791,3.791,0,0,0,2.794-1.233A3.788,3.788,0,0,0-2388.385,833.809Z" transform="translate(2409.35 -818.84)" fill="#f6724c"/></g><g transform="translate(5.392 3.775)"><path d="M-2314.976,891.65h-2.616a1.261,1.261,0,0,0-1.258,1.258v2.584a1.261,1.261,0,0,0,1.258,1.258h2.616a1.261,1.261,0,0,0,1.258-1.258v-2.584A1.261,1.261,0,0,0-2314.976,891.65Zm-.034,3.807h-2.548v-2.515h2.548Z" transform="translate(2318.85 -891.65)" fill="#f6724c"/><g transform="translate(0.012 6.094)"><path d="M-2314.736,1009.2h-2.616a1.261,1.261,0,0,0-1.258,1.258v2.583a1.262,1.262,0,0,0,1.258,1.258h2.616a1.261,1.261,0,0,0,1.257-1.258v-2.583A1.261,1.261,0,0,0-2314.736,1009.2Zm-.034,3.807h-2.549v-2.515h2.549Z" transform="translate(2318.61 -1009.2)" fill="#f6724c"/></g><g transform="translate(6.061 6.094)"><path d="M-2198.066,1009.2h-2.616a1.261,1.261,0,0,0-1.258,1.258v2.583a1.262,1.262,0,0,0,1.259,1.258h2.616a1.261,1.261,0,0,0,1.258-1.258v-2.583A1.261,1.261,0,0,0-2198.066,1009.2Zm-.034,3.809h-2.549v-2.515l2.549,0Z" transform="translate(2201.94 -1009.2)" fill="#f6724c"/></g><g transform="translate(6.097 0.001)"><path d="M-2198.674,891.679a2.552,2.552,0,0,0-2.568,2.53,2.529,2.529,0,0,0,.733,1.808,2.532,2.532,0,0,0,1.8.76h.007a2.565,2.565,0,0,0,2.561-2.549A2.556,2.556,0,0,0-2198.674,891.679Zm-.005,3.806h-.014a1.259,1.259,0,0,1-1.257-1.243,1.258,1.258,0,0,1,1.243-1.271h.047a1.27,1.27,0,0,1,1.224,1.258A1.262,1.262,0,0,1-2198.679,895.484Z" transform="translate(2201.241 -891.679)" fill="#f6724c"/></g></g></g></svg>