<svg width="396" height="264" viewBox="0 0 396 264" fill="none" xmlns="http://www.w3.org/2000/svg"> <g filter="url(#albmPoupfilter0_d)"> <rect x="91.7383" y="67.1008" width="238.202" height="156.899" rx="4.27907" fill="white"/> </g> <g filter="url(#albmPoupfilter1_d)"> <rect x="80.3262" y="54.2636" width="238.202" height="156.899" rx="4.27907" fill="white"/> </g> <g filter="url(#albmPoupfilter2_d)"> <rect x="66.0625" y="40" width="238.202" height="156.899" rx="4.27907" fill="white"/> </g> <g clip-path="url(#albmPoupclip0)"> <rect x="74.6211" y="48.5581" width="221.085" height="139.783" rx="2.85271" fill="#E2F5FF"/> <path d="M135.953 188.341H295.705V48.5582H135.953V188.341Z" fill="#86D0F9"/> <path d="M175.893 188.341H295.707V104.186H180.172C177.808 104.186 175.893 106.102 175.893 108.465V188.341Z" fill="#FE544F"/> <mask id="albmPouppath-7-inside-1" fill="white"> <path d="M150.218 163.38C150.218 172.256 147.094 180.849 141.395 187.653C135.695 194.457 127.782 199.038 119.044 200.593C110.305 202.149 101.298 200.579 93.6002 196.16C85.9026 191.741 80.0057 184.754 76.9428 176.423L97.8349 168.742C99.094 172.167 101.518 175.039 104.683 176.856C107.847 178.673 111.55 179.318 115.143 178.679C118.735 178.039 121.988 176.156 124.331 173.359C126.675 170.561 127.959 167.029 127.959 163.38H150.218Z"/> </mask> <path d="M150.218 163.38C150.218 172.256 147.094 180.849 141.395 187.653C135.695 194.457 127.782 199.038 119.044 200.593C110.305 202.149 101.298 200.579 93.6002 196.16C85.9026 191.741 80.0057 184.754 76.9428 176.423L97.8349 168.742C99.094 172.167 101.518 175.039 104.683 176.856C107.847 178.673 111.55 179.318 115.143 178.679C118.735 178.039 121.988 176.156 124.331 173.359C126.675 170.561 127.959 167.029 127.959 163.38H150.218Z" stroke="#59AB46" stroke-width="46.1981" mask="url(#albmPouppath-7-inside-1)"/> </g> <defs> <filter id="albmPoupfilter0_d" x="80.3274" y="61.3954" width="261.023" height="179.721" filterUnits="userSpaceOnUse" color-interpolation-filters="sRGB"> <feFlood flood-opacity="0" result="BackgroundImageFix"/> <feColorMatrix in="SourceAlpha" type="matrix" values="0 0 0 0 0 0 0 0 0 0 0 0 0 0 0 0 0 0 127 0"/> <feMorphology radius="4.27907" operator="erode" in="SourceAlpha" result="effect1_dropShadow"/> <feOffset dy="5.70543"/> <feGaussianBlur stdDeviation="7.84496"/> <feColorMatrix type="matrix" values="0 0 0 0 0 0 0 0 0 0 0 0 0 0 0 0 0 0 0.25 0"/> <feBlend mode="normal" in2="BackgroundImageFix" result="effect1_dropShadow"/> <feBlend mode="normal" in="SourceGraphic" in2="effect1_dropShadow" result="shape"/> </filter> <filter id="albmPoupfilter1_d" x="68.9153" y="48.5581" width="261.023" height="179.721" filterUnits="userSpaceOnUse" color-interpolation-filters="sRGB"> <feFlood flood-opacity="0" result="BackgroundImageFix"/> <feColorMatrix in="SourceAlpha" type="matrix" values="0 0 0 0 0 0 0 0 0 0 0 0 0 0 0 0 0 0 127 0"/> <feMorphology radius="4.27907" operator="erode" in="SourceAlpha" result="effect1_dropShadow"/> <feOffset dy="5.70543"/> <feGaussianBlur stdDeviation="7.84496"/> <feColorMatrix type="matrix" values="0 0 0 0 0 0 0 0 0 0 0 0 0 0 0 0 0 0 0.25 0"/> <feBlend mode="normal" in2="BackgroundImageFix" result="effect1_dropShadow"/> <feBlend mode="normal" in="SourceGraphic" in2="effect1_dropShadow" result="shape"/> </filter> <filter id="albmPoupfilter2_d" x="54.6516" y="34.2946" width="261.023" height="179.721" filterUnits="userSpaceOnUse" color-interpolation-filters="sRGB"> <feFlood flood-opacity="0" result="BackgroundImageFix"/> <feColorMatrix in="SourceAlpha" type="matrix" values="0 0 0 0 0 0 0 0 0 0 0 0 0 0 0 0 0 0 127 0"/> <feMorphology radius="4.27907" operator="erode" in="SourceAlpha" result="effect1_dropShadow"/> <feOffset dy="5.70543"/> <feGaussianBlur stdDeviation="7.84496"/> <feColorMatrix type="matrix" values="0 0 0 0 0 0 0 0 0 0 0 0 0 0 0 0 0 0 0.25 0"/> <feBlend mode="normal" in2="BackgroundImageFix" result="effect1_dropShadow"/> <feBlend mode="normal" in="SourceGraphic" in2="effect1_dropShadow" result="shape"/> </filter> <clipPath id="albmPoupclip0"> <rect x="74.6211" y="48.5581" width="221.085" height="139.783" rx="2.85271" fill="white"/> </clipPath> </defs> </svg>