<svg width="397" height="265" viewBox="0 0 397 265" fill="none" xmlns="http://www.w3.org/2000/svg"> <g filter="url(#datepickerfilter0_dd)"> <g clip-path="url(#datepickerclip0)"> <rect x="76.5" y="36.5" width="180" height="211" rx="4.47155" fill="#0068A0"/> <circle cx="71.5" cy="192.5" r="91" fill="#0096CC"/> </g> <rect x="76.6863" y="36.6863" width="179.627" height="210.627" rx="4.28524" stroke="#F3F4F5" stroke-width="0.372629"/> </g> <g filter="url(#datepickerfilter1_dd)"> <rect x="121.344" y="15.4999" width="208.672" height="208.985" rx="4.47155" transform="rotate(6 121.344 15.4999)" fill="white"/> <path d="M147.462 41.9622C148.474 41.0856 149.756 40.7289 151.308 40.8921C152.861 41.0553 154.038 41.6705 154.84 42.7377C155.648 43.8054 155.963 45.1736 155.788 46.8423C155.613 48.5061 155.02 49.7763 154.008 50.6529C152.997 51.5294 151.717 51.8864 150.17 51.7237C148.617 51.5606 147.437 50.9451 146.63 49.8774C145.828 48.8101 145.514 47.4446 145.689 45.7808C145.864 44.1122 146.455 42.8393 147.462 41.9622ZM153.06 43.9075C152.62 43.206 151.972 42.8103 151.116 42.7203C150.26 42.6304 149.541 42.8825 148.961 43.4767C148.385 44.0714 148.039 44.9178 147.924 46.0157C147.809 47.1088 147.971 48.006 148.411 48.7075C148.851 49.4042 149.502 49.7977 150.363 49.8882C151.219 49.9782 151.934 49.7283 152.51 49.1384C153.086 48.5436 153.431 47.6997 153.546 46.6066C153.662 45.5087 153.499 44.609 153.06 43.9075ZM164.051 48.0628L162.085 47.8562C162.066 47.4288 161.935 47.0727 161.691 46.7879C161.452 46.5036 161.12 46.3391 160.694 46.2943C160.167 46.2389 159.729 46.408 159.379 46.8016C159.035 47.1909 158.824 47.7579 158.746 48.5028C158.666 49.2621 158.754 49.8679 159.009 50.3203C159.27 50.7731 159.666 51.0274 160.198 51.0834C160.619 51.1276 160.975 51.0452 161.266 50.8361C161.557 50.6223 161.759 50.3061 161.871 49.8876L163.845 50.095C163.695 51.0083 163.272 51.7047 162.576 52.1842C161.88 52.6636 161.022 52.8497 160.002 52.7425C158.822 52.6184 157.926 52.16 157.315 51.3671C156.704 50.5694 156.465 49.5394 156.598 48.2771C156.729 47.034 157.176 46.0859 157.939 45.4326C158.707 44.7749 159.674 44.5074 160.84 44.6299C161.875 44.7387 162.679 45.1117 163.253 45.749C163.831 46.3869 164.097 47.1581 164.051 48.0628ZM166.14 43.5439L168.258 43.7665L168.07 45.5585L169.506 45.7095L169.339 47.3056L167.902 47.1546L167.511 50.8764C167.449 51.4616 167.723 51.7863 168.333 51.8503C168.531 51.8712 168.704 51.8771 168.852 51.8682L168.688 53.428C168.435 53.4601 168.096 53.4538 167.67 53.4091C166.756 53.313 166.12 53.0799 165.763 52.7099C165.411 52.3403 165.275 51.7758 165.354 51.0165L165.784 46.9319L164.688 46.8168L164.856 45.2207L165.951 45.3359L166.14 43.5439ZM176.213 53.3608C175.446 54.0039 174.471 54.2632 173.286 54.1386C172.101 54.0141 171.2 53.5551 170.584 52.7618C169.968 51.9684 169.727 50.9382 169.86 49.671C169.992 48.4183 170.444 47.4682 171.216 46.8207C171.994 46.169 172.968 45.9046 174.138 46.0276C175.313 46.1511 176.211 46.6122 176.831 47.4109C177.452 48.2048 177.697 49.2281 177.565 50.4808C177.431 51.7528 176.981 52.7128 176.213 53.3608ZM173.456 52.5208C173.978 52.5757 174.414 52.4063 174.763 52.0127C175.113 51.6191 175.328 51.0354 175.409 50.2615C175.49 49.4974 175.4 48.884 175.141 48.4215C174.881 47.959 174.49 47.7004 173.968 47.6454C173.446 47.5905 173.007 47.7621 172.652 48.16C172.302 48.5584 172.087 49.1397 172.007 49.9039C171.926 50.6778 172.015 51.2935 172.275 51.7512C172.535 52.2088 172.928 52.4654 173.456 52.5208ZM182.859 55.1009C182.298 55.0419 181.818 54.8619 181.42 54.5608C181.026 54.2602 180.744 53.8688 180.575 53.3864L180.531 53.3819L180.391 54.7168L178.302 54.4972L179.402 44.0282L181.521 44.2509L181.096 48.2919L181.139 48.2965C181.406 47.8551 181.76 47.528 182.203 47.3154C182.647 47.0979 183.144 47.0182 183.695 47.0761C184.677 47.1793 185.411 47.6159 185.898 48.3859C186.389 49.1563 186.569 50.1679 186.437 51.4206C186.306 52.6684 185.922 53.6208 185.286 54.2776C184.65 54.9297 183.841 55.2041 182.859 55.1009ZM182.792 48.6975C182.279 48.6437 181.841 48.8128 181.477 49.2048C181.113 49.5969 180.894 50.1388 180.822 50.8304C180.748 51.5317 180.846 52.1093 181.116 52.5631C181.392 53.0126 181.788 53.2646 182.306 53.319C182.838 53.3749 183.278 53.2133 183.626 52.8342C183.979 52.4508 184.193 51.9036 184.268 51.1926C184.342 50.4864 184.246 49.9091 183.98 49.4606C183.715 49.0073 183.319 48.753 182.792 48.6975ZM191.291 49.4148C190.831 49.3665 190.43 49.4833 190.088 49.7651C189.75 50.0475 189.536 50.4309 189.446 50.9153L192.747 51.2623C192.775 50.7616 192.656 50.3407 192.388 49.9996C192.126 49.6591 191.76 49.4641 191.291 49.4148ZM192.532 53.5869L194.476 53.7913C194.28 54.5433 193.833 55.1198 193.136 55.5208C192.444 55.9175 191.619 56.0655 190.661 55.9649C189.467 55.8393 188.566 55.3828 187.959 54.5953C187.357 53.8083 187.122 52.7909 187.253 51.543C187.384 50.3 187.826 49.3441 188.581 48.6752C189.337 48.0016 190.288 47.725 191.434 47.8455C192.561 47.9639 193.421 48.4113 194.014 49.1876C194.607 49.9639 194.842 50.9445 194.717 52.1295L194.649 52.7752L189.288 52.2117L189.274 52.3423C189.216 52.8985 189.33 53.3677 189.618 53.75C189.91 54.128 190.325 54.3452 190.862 54.4016C191.249 54.4423 191.592 54.3903 191.891 54.2457C192.19 54.0962 192.404 53.8766 192.532 53.5869ZM195.387 56.2929L196.205 48.5156L198.25 48.7306L198.103 50.1308L198.147 50.1354C198.334 49.6563 198.601 49.3029 198.948 49.0753C199.294 48.8477 199.698 48.758 200.157 48.8063C200.379 48.8297 200.577 48.8774 200.751 48.9494L200.555 50.8139C200.365 50.7109 200.113 50.6428 199.799 50.6098C199.276 50.5549 198.854 50.6645 198.532 50.9387C198.21 51.2129 198.02 51.6233 197.962 52.1698L197.506 56.5156L195.387 56.2929ZM204.442 49.8435C204.546 48.8519 204.989 48.0794 205.771 47.5259C206.558 46.968 207.522 46.7491 208.664 46.8691C209.762 46.9845 210.627 47.3639 211.258 48.0073C211.89 48.6459 212.16 49.4053 212.068 50.2856C212.035 50.5999 211.954 50.8996 211.827 51.1844C211.704 51.465 211.524 51.7418 211.285 52.015C211.051 52.2839 210.818 52.5259 210.585 52.741C210.352 52.9513 210.052 53.2058 209.683 53.5044L206.871 55.6954L206.866 55.739L211.589 56.2354L211.406 57.9766L203.796 57.1767L203.95 55.7039L208.297 52.3171C208.885 51.841 209.292 51.4511 209.52 51.1474C209.752 50.8442 209.888 50.5112 209.926 50.1484C209.967 49.7518 209.845 49.4016 209.559 49.0977C209.273 48.7938 208.891 48.6167 208.412 48.5664C207.904 48.513 207.467 48.6284 207.1 48.9125C206.733 49.1918 206.524 49.5733 206.473 50.057L206.469 50.0932L204.438 49.8797L204.442 49.8435ZM220.047 57.6304C219.194 58.5335 218.109 58.9158 216.794 58.7776C215.478 58.6393 214.495 58.042 213.843 56.9857C213.192 55.9246 212.955 54.5452 213.133 52.8475C213.311 51.1595 213.828 49.8691 214.685 48.9762C215.547 48.079 216.633 47.6993 217.944 47.8371C219.255 47.9749 220.236 48.5695 220.888 49.6209C221.541 50.6724 221.778 52.0421 221.601 53.7301C221.423 55.4229 220.905 56.723 220.047 57.6304ZM215.601 55.8869C215.891 56.5775 216.35 56.9558 216.978 57.0219C217.607 57.088 218.132 56.8155 218.553 56.2045C218.975 55.5887 219.248 54.6883 219.373 53.5033C219.496 52.328 219.413 51.3999 219.123 50.719C218.838 50.0338 218.383 49.6584 217.759 49.5928C217.135 49.5272 216.61 49.7997 216.184 50.4102C215.758 51.0207 215.484 51.9111 215.361 53.0816C215.237 54.2617 215.317 55.1968 215.601 55.8869ZM222.971 51.791C223.075 50.7994 223.518 50.0269 224.3 49.4734C225.087 48.9155 226.052 48.6966 227.193 48.8166C228.291 48.932 229.156 49.3114 229.787 49.9548C230.42 50.5934 230.689 51.3528 230.597 52.2331C230.564 52.5474 230.483 52.8471 230.356 53.1319C230.233 53.4125 230.053 53.6893 229.814 53.9625C229.58 54.2314 229.347 54.4733 229.114 54.6885C228.882 54.8988 228.581 55.1533 228.212 55.4519L225.4 57.6429L225.395 57.6865L230.118 58.1829L229.935 59.9241L222.325 59.1242L222.48 57.6514L226.826 54.2646C227.414 53.7885 227.822 53.3986 228.049 53.0949C228.281 52.7917 228.417 52.4587 228.455 52.0959C228.497 51.6993 228.374 51.3491 228.088 51.0452C227.803 50.7413 227.42 50.5642 226.941 50.5139C226.434 50.4605 225.996 50.5759 225.629 50.86C225.262 51.1393 225.053 51.5208 225.002 52.0045L224.998 52.0407L222.967 51.8272L222.971 51.791ZM238.576 59.5779C237.723 60.4809 236.639 60.8633 235.323 60.7251C234.008 60.5868 233.024 59.9895 232.372 58.9332C231.721 57.8721 231.484 56.4927 231.663 54.795C231.84 53.107 232.357 51.8166 233.214 50.9237C234.076 50.0265 235.162 49.6468 236.473 49.7846C237.784 49.9223 238.765 50.517 239.418 51.5684C240.07 52.6199 240.307 53.9896 240.13 55.6776C239.952 57.3704 239.434 58.6705 238.576 59.5779ZM234.131 57.8344C234.42 58.525 234.879 58.9033 235.508 58.9694C236.136 59.0354 236.661 58.763 237.083 58.152C237.504 57.5362 237.777 56.6357 237.902 55.4508C238.025 54.2755 237.942 53.3474 237.652 52.6665C237.367 51.9813 236.912 51.6059 236.288 51.5403C235.665 51.4747 235.14 51.7472 234.713 52.3577C234.287 52.9681 234.013 53.8586 233.89 55.0291C233.766 56.2092 233.846 57.1443 234.131 57.8344Z" fill="#141B38"/> <path d="M282.968 56.2178L278.32 59.9818L282.084 64.6299" stroke="#141B38" stroke-width="1.49526" stroke-linecap="round" stroke-linejoin="round"/> <path d="M292.334 57.2023L296.098 61.8504L291.45 65.6144" stroke="#141B38" stroke-width="1.49526" stroke-linecap="round" stroke-linejoin="round"/> <g clip-path="url(#datepickerclip1)"> <path d="M142.631 78.2622L141.951 84.7307L142.88 84.8283L143.372 80.1443L143.432 80.1506L144.849 85.0256L145.619 85.1066L148.018 80.6358L148.078 80.6421L147.586 85.3229L148.514 85.4205L149.194 78.9521L148.01 78.8276L145.422 83.6393L145.346 83.6314L143.816 78.3867L142.631 78.2622ZM151.891 85.8744C153.258 86.0181 154.257 85.1108 154.415 83.6106C154.574 82.1008 153.785 81.0057 152.418 80.8619C151.05 80.7182 150.051 81.6255 149.892 83.1352C149.735 84.6355 150.523 85.7306 151.891 85.8744ZM151.977 85.0819C151.083 84.988 150.749 84.164 150.846 83.2323C150.944 82.3037 151.444 81.5579 152.338 81.6519C153.225 81.7452 153.559 82.5786 153.462 83.5072C153.364 84.4389 152.865 85.1752 151.977 85.0819Z" fill="#141B38"/> <path d="M168.142 81.7925L170.157 82.0043L169.566 87.6326L170.538 87.7349L171.13 82.1066L173.148 82.3187L173.236 81.4785L168.23 80.9524L168.142 81.7925ZM176.212 86.297C176.128 87.1217 175.474 87.4489 174.944 87.3932C174.359 87.3317 173.999 86.866 174.069 86.2059L174.381 83.2338L173.437 83.1346L173.113 86.2204C172.986 87.4237 173.58 88.1185 174.512 88.2164C175.242 88.2931 175.778 87.9599 176.057 87.4655L176.107 87.4708L176.019 88.3109L176.948 88.4085L177.458 83.5572L176.51 83.4576L176.212 86.297Z" fill="#141B38"/> <path d="M192.088 89.9999L193.073 90.1034L194.944 85.4015L194.994 85.4068L195.847 90.3949L196.829 90.4981L199.306 84.2186L198.276 84.1104L196.492 88.9907L196.432 88.9843L195.648 83.8342L194.631 83.7273L192.794 88.5988L192.734 88.5925L192 83.4508L190.974 83.3429L192.088 89.9999ZM201.043 91.0401C202.101 91.1513 202.904 90.7088 203.202 89.9418L202.325 89.6867C202.106 90.1268 201.671 90.3174 201.134 90.2609C200.326 90.1759 199.838 89.5945 199.911 88.657L203.36 89.0195L203.395 88.6847C203.579 86.9318 202.603 86.1362 201.503 86.0207C200.152 85.8786 199.153 86.8146 198.996 88.3054C198.838 89.812 199.612 90.8897 201.043 91.0401ZM199.988 87.9498C200.098 87.2653 200.66 86.7208 201.428 86.8015C202.16 86.8785 202.583 87.4722 202.509 88.2147L199.988 87.9498Z" fill="#141B38"/> <path d="M217.07 86.935L219.085 87.1468L218.494 92.7751L219.466 92.8774L220.058 87.2491L222.076 87.4612L222.165 86.6211L217.158 86.0949L217.07 86.935ZM223.762 90.4166C223.844 89.6428 224.38 89.252 225.052 89.3227C225.703 89.3911 226.048 89.8457 225.973 90.5564L225.661 93.5284L226.605 93.6277L226.93 90.5419C227.057 89.3322 226.459 88.6435 225.461 88.5386C224.706 88.4592 224.216 88.7399 223.934 89.2403L223.874 89.234L224.127 86.8273L223.195 86.7294L222.515 93.1978L223.46 93.2971L223.762 90.4166Z" fill="#141B38"/> <path d="M240.134 95.05L241.11 95.1526L241.407 92.3321L244.154 92.6209L244.242 91.7839L241.495 91.4951L241.702 89.5242L244.737 89.8433L244.825 89.0031L240.814 88.5815L240.134 95.05ZM245.209 95.5834L246.153 95.6826L246.465 92.72C246.531 92.0852 247.069 91.6787 247.739 91.749C247.934 91.7696 248.152 91.8276 248.225 91.8577L248.32 90.9544C248.227 90.9318 248.042 90.9027 247.922 90.8901C247.353 90.8303 246.833 91.1014 246.601 91.6039L246.551 91.5986L246.632 90.828L245.719 90.732L245.209 95.5834Z" fill="#141B38"/> <path d="M264.917 92.8328L265.858 92.9318C265.939 91.8928 265.102 91.0448 263.788 90.9067C262.49 90.7703 261.417 91.408 261.3 92.5229C261.205 93.423 261.794 94.0182 262.804 94.4085L263.546 94.6973C264.219 94.9532 264.728 95.2367 264.668 95.8116C264.602 96.4432 263.955 96.7967 263.124 96.7094C262.372 96.6304 261.782 96.2299 261.799 95.5196L260.82 95.4167C260.76 96.5951 261.591 97.4137 263.04 97.566C264.559 97.7257 265.518 97.0186 265.634 95.9226C265.756 94.7572 264.764 94.1963 263.964 93.9078L263.35 93.6772C262.858 93.4946 262.21 93.187 262.279 92.5683C262.336 92.0187 262.881 91.6641 263.677 91.7477C264.42 91.8257 264.911 92.2286 264.917 92.8328ZM267.937 98.0807C268.739 98.165 269.233 97.805 269.452 97.4607L269.489 97.4647L269.42 98.128L270.342 98.2249L270.681 95.0033C270.829 93.5915 269.747 93.1936 268.976 93.1126C268.098 93.0203 267.252 93.289 266.844 94.1402L267.71 94.4356C267.885 94.1059 268.274 93.8115 268.908 93.8782C269.518 93.9423 269.797 94.2942 269.739 94.8437L269.737 94.8658C269.701 95.2101 269.348 95.1666 268.465 95.176C267.535 95.1868 266.569 95.3279 266.453 96.4302C266.352 97.3841 267.014 97.9837 267.937 98.0807ZM268.222 97.3442C267.688 97.2881 267.328 97.0076 267.377 96.5401C267.43 96.0348 267.897 95.9019 268.451 95.8867C268.762 95.8778 269.497 95.8721 269.647 95.7505L269.582 96.3759C269.521 96.9507 269.008 97.4269 268.222 97.3442Z" fill="#141B38"/> <path d="M287.781 95.2358L288.722 95.3348C288.803 94.2958 287.966 93.4478 286.652 93.3097C285.354 93.1733 284.281 93.811 284.164 94.9259C284.069 95.826 284.658 96.4212 285.667 96.8115L286.41 97.1003C287.082 97.3562 287.592 97.6397 287.532 98.2146C287.465 98.8462 286.818 99.1997 285.988 99.1124C285.236 99.0334 284.646 98.6329 284.663 97.9226L283.684 97.8197C283.624 98.9981 284.454 99.8167 285.904 99.969C287.423 100.129 288.382 99.4216 288.497 98.3256C288.62 97.1602 287.628 96.5993 286.828 96.3108L286.214 96.0802C285.722 95.8976 285.074 95.59 285.142 94.9713C285.2 94.4217 285.745 94.0671 286.541 94.1507C287.283 94.2287 287.774 94.6316 287.781 95.2358ZM292.684 98.539C292.601 99.3637 291.947 99.6909 291.416 99.6351C290.832 99.5737 290.472 99.108 290.542 98.4479L290.854 95.4758L289.91 95.3766L289.585 98.4623C289.459 99.6657 290.053 100.36 290.985 100.458C291.715 100.535 292.251 100.202 292.53 99.7074L292.58 99.7127L292.492 100.553L293.42 100.65L293.93 95.7991L292.983 95.6996L292.684 98.539Z" fill="#141B38"/> <path d="M220.75 109.328L219.799 109.228L218.074 110.113L217.976 111.048L219.63 110.2L219.667 110.204L219.091 115.694L220.07 115.797L220.75 109.328Z" fill="#434960"/> <path d="M239.413 117.829L243.671 118.277L243.759 117.44L240.847 117.134L240.852 117.086L242.279 115.876C243.589 114.804 243.987 114.267 244.063 113.544C244.172 112.505 243.409 111.62 242.19 111.492C240.98 111.365 240.014 112.055 239.89 113.236L240.821 113.334C240.891 112.639 241.388 112.231 242.086 112.305C242.742 112.374 243.199 112.831 243.131 113.475C243.071 114.047 242.687 114.421 241.915 115.084L239.488 117.122L239.413 117.829Z" fill="#8C8F9A"/> <path d="M263.194 120.419C264.515 120.557 265.567 119.87 265.677 118.795C265.766 117.978 265.332 117.338 264.487 117.115L264.492 117.065C265.186 116.962 265.681 116.478 265.754 115.751C265.857 114.8 265.163 113.907 263.918 113.776C262.731 113.651 261.701 114.268 261.559 115.316L262.504 115.415C262.588 114.824 263.185 114.523 263.82 114.589C264.48 114.659 264.871 115.105 264.805 115.702C264.742 116.328 264.197 116.686 263.48 116.61L262.933 116.553L262.85 117.349L263.396 117.406C264.293 117.5 264.763 118.01 264.695 118.66C264.629 119.289 264.038 119.658 263.276 119.578C262.575 119.504 262.067 119.087 262.089 118.508L261.097 118.404C261.028 119.463 261.887 120.281 263.194 120.419Z" fill="#8C8F9A"/> <path d="M283.882 121.226L286.949 121.548L286.816 122.812L287.748 122.91L287.88 121.646L288.736 121.736L288.823 120.909L287.967 120.819L288.428 116.441L287.224 116.315L283.965 120.437L283.882 121.226ZM287.042 120.722L284.992 120.506L284.997 120.456L287.329 117.501L287.38 117.506L287.042 120.722Z" fill="#8C8F9A"/> <rect x="183.387" y="120.225" width="90" height="21" rx="10.5" transform="rotate(6 183.387 120.225)" fill="#FCE1D5"/> <circle cx="192.255" cy="131.924" r="10.4336" transform="rotate(6 192.255 131.924)" fill="#FE544F"/> <path d="M143.149 130.657C144.451 130.794 145.476 129.972 145.605 128.711C145.74 127.461 144.964 126.46 143.785 126.336C143.305 126.286 142.841 126.422 142.562 126.642L142.524 126.638L142.92 124.85L145.664 125.138L145.752 124.301L142.196 123.927L141.49 127.149L142.37 127.375C142.636 127.183 143.088 127.08 143.479 127.121C144.246 127.208 144.742 127.842 144.659 128.631C144.577 129.408 143.978 129.914 143.236 129.836C142.61 129.77 142.156 129.32 142.164 128.759L141.217 128.659C141.146 129.693 141.962 130.532 143.149 130.657Z" fill="#8C8F9A"/> <path d="M167.478 133.214C168.829 133.368 169.828 132.49 169.955 131.248C170.088 130.01 169.282 129.028 168.16 128.911C167.478 128.839 166.853 129.105 166.464 129.617L166.416 129.612C166.574 128.143 167.222 127.33 168.169 127.43C168.791 127.495 169.143 127.915 169.219 128.466L170.183 128.567C170.142 127.529 169.415 126.698 168.259 126.577C166.755 126.419 165.681 127.612 165.445 129.861C165.192 132.242 166.329 133.083 167.478 133.214ZM167.561 132.392C166.81 132.313 166.326 131.624 166.403 130.897C166.482 130.174 167.123 129.603 167.869 129.681C168.608 129.759 169.088 130.413 169.006 131.161C168.929 131.926 168.3 132.47 167.561 132.392Z" fill="#8C8F9A"/> <path d="M190.093 135.501L191.309 135.629L194.632 130.451L194.737 129.449L190.331 128.986L190.228 129.966L193.421 130.301L193.417 130.345L190.093 135.501Z" fill="white"/> <circle cx="261.872" cy="139.241" r="10.4336" transform="rotate(6 261.872 139.241)" fill="#FE544F"/> <path d="M216.708 138.388C218.053 138.53 219.084 137.865 219.201 136.817C219.28 136.002 218.781 135.256 218.071 135.051L218.075 135.013C218.719 134.927 219.208 134.382 219.288 133.684C219.385 132.695 218.591 131.867 217.406 131.743C216.209 131.617 215.26 132.261 215.163 133.251C215.083 133.945 215.447 134.583 216.073 134.802L216.069 134.84C215.319 134.893 214.675 135.518 214.596 136.333C214.48 137.381 215.35 138.246 216.708 138.388ZM216.792 137.589C215.983 137.504 215.517 137.021 215.591 136.374C215.656 135.701 216.262 135.279 217.026 135.359C217.778 135.438 218.283 135.977 218.219 136.65C218.145 137.297 217.591 137.673 216.792 137.589ZM217.108 134.579C216.455 134.511 216.034 134.048 216.105 133.433C216.162 132.826 216.653 132.472 217.322 132.542C217.979 132.611 218.386 133.059 218.328 133.666C218.257 134.282 217.753 134.647 217.108 134.579Z" fill="#FE544F"/> <path d="M239.593 134.074C238.236 133.919 237.246 134.802 237.117 136.027C236.99 137.263 237.791 138.247 238.912 138.365C239.597 138.437 240.22 138.164 240.609 137.656L240.659 137.661C240.5 139.148 239.849 139.958 238.902 139.858C238.283 139.793 237.924 139.372 237.856 138.806L236.893 138.705C236.925 139.766 237.656 140.59 238.812 140.711C240.315 140.869 241.392 139.676 241.63 137.412C241.876 135.049 240.744 134.205 239.593 134.074ZM239.509 134.896C240.258 134.975 240.744 135.668 240.669 136.378C240.597 137.099 239.946 137.669 239.207 137.591C238.465 137.513 237.99 136.863 238.066 136.114C238.145 135.362 238.767 134.818 239.509 134.896Z" fill="#FE544F"/> <path d="M260.257 136.336L259.142 136.219L257.426 137.082L257.313 138.156L258.928 137.349L258.966 137.353L258.406 142.681L259.577 142.804L260.257 136.336ZM263.598 143.351C265.158 143.518 266.219 142.385 266.442 140.262C266.664 138.152 265.854 136.835 264.3 136.671C262.746 136.508 261.683 137.626 261.458 139.738C261.235 141.858 262.037 143.187 263.598 143.351ZM263.702 142.363C262.896 142.278 262.476 141.416 262.642 139.863C262.808 138.322 263.395 137.563 264.197 137.647C265.003 137.732 265.42 138.596 265.261 140.138C265.097 141.692 264.51 142.448 263.702 142.363Z" fill="white"/> <path d="M283.533 138.783L282.583 138.683L280.858 139.568L280.76 140.503L282.414 139.655L282.451 139.659L281.874 145.148L282.854 145.251L283.533 138.783ZM287.737 139.224L286.787 139.124L285.062 140.01L284.964 140.945L286.617 140.097L286.655 140.101L286.078 145.59L287.057 145.693L287.737 139.224Z" fill="#8C8F9A"/> <path d="M139.708 146.522L138.757 146.422L137.032 147.307L136.934 148.242L138.588 147.394L138.626 147.398L138.049 152.887L139.028 152.99L139.708 146.522ZM140.778 153.174L145.035 153.622L145.123 152.785L142.211 152.478L142.216 152.431L143.643 151.221C144.953 150.148 145.351 149.612 145.427 148.889C145.537 147.85 144.774 146.965 143.555 146.837C142.345 146.709 141.378 147.4 141.254 148.581L142.186 148.679C142.256 147.984 142.752 147.576 143.45 147.649C144.107 147.719 144.564 148.175 144.496 148.82C144.436 149.391 144.051 149.766 143.279 150.429L140.852 152.467L140.778 153.174Z" fill="#8C8F9A"/> <path d="M164.026 149.078L163.075 148.978L161.35 149.863L161.252 150.798L162.906 149.95L162.944 149.954L162.367 155.443L163.346 155.546L164.026 149.078ZM167.338 156.055C168.659 156.194 169.711 155.506 169.821 154.432C169.91 153.615 169.476 152.975 168.631 152.752L168.636 152.701C169.33 152.599 169.825 152.114 169.898 151.388C170.001 150.437 169.307 149.543 168.062 149.413C166.875 149.288 165.845 149.905 165.703 150.953L166.648 151.052C166.732 150.461 167.329 150.16 167.964 150.226C168.624 150.296 169.015 150.742 168.949 151.339C168.886 151.965 168.341 152.322 167.624 152.247L167.077 152.19L166.994 152.985L167.54 153.043C168.437 153.137 168.907 153.646 168.839 154.297C168.773 154.926 168.182 155.295 167.42 155.215C166.719 155.141 166.211 154.723 166.233 154.145L165.242 154.04C165.172 155.1 166.031 155.918 167.338 156.055Z" fill="#8C8F9A"/> <path d="M188.258 151.625L187.307 151.525L185.582 152.41L185.484 153.345L187.138 152.497L187.176 152.501L186.599 157.99L187.578 158.093L188.258 151.625ZM189.325 156.999L192.391 157.322L192.259 158.585L193.19 158.683L193.323 157.42L194.179 157.509L194.266 156.682L193.41 156.592L193.87 152.214L192.667 152.088L189.408 156.21L189.325 156.999ZM192.485 156.495L190.435 156.279L190.44 156.229L192.772 153.274L192.823 153.279L192.485 156.495Z" fill="#8C8F9A"/> <path d="M213.424 154.27L212.473 154.17L210.748 155.055L210.65 155.99L212.304 155.142L212.342 155.146L211.765 160.635L212.744 160.738L213.424 154.27ZM216.619 161.235C217.921 161.372 218.946 160.55 219.075 159.29C219.21 158.039 218.434 157.038 217.255 156.914C216.775 156.864 216.311 157 216.032 157.22L215.994 157.216L216.39 155.428L219.134 155.716L219.222 154.879L215.666 154.505L214.96 157.727L215.84 157.953C216.106 157.761 216.558 157.658 216.949 157.699C217.716 157.786 218.212 158.42 218.129 159.209C218.047 159.986 217.448 160.492 216.706 160.414C216.08 160.348 215.626 159.898 215.634 159.337L214.687 159.237C214.616 160.271 215.432 161.11 216.619 161.235Z" fill="#8C8F9A"/> <path d="M235.588 156.599L234.638 156.499L232.913 157.385L232.815 158.32L234.469 157.472L234.506 157.476L233.929 162.965L234.909 163.068L235.588 156.599ZM238.907 163.578C240.258 163.732 241.257 162.854 241.384 161.612C241.518 160.374 240.711 159.392 239.59 159.274C238.907 159.203 238.282 159.469 237.893 159.981L237.846 159.976C238.003 158.507 238.651 157.694 239.598 157.794C240.22 157.859 240.572 158.279 240.649 158.83L241.612 158.931C241.571 157.892 240.844 157.062 239.688 156.941C238.184 156.783 237.111 157.976 236.874 160.225C236.621 162.606 237.759 163.447 238.907 163.578ZM238.99 162.756C238.239 162.677 237.756 161.988 237.832 161.261C237.911 160.538 238.552 159.967 239.298 160.045C240.037 160.123 240.517 160.777 240.435 161.525C240.358 162.29 239.73 162.834 238.99 162.756Z" fill="#8C8F9A"/> <path d="M257.522 158.904L256.572 158.805L254.847 159.69L254.748 160.625L256.402 159.777L256.44 159.781L255.863 165.27L256.842 165.373L257.522 158.904ZM258.81 165.58L259.83 165.687L263.233 160.38L263.324 159.514L259.048 159.065L258.96 159.902L262.226 160.245L262.221 160.292L258.81 165.58Z" fill="#8C8F9A"/> <path d="M280.45 161.314L279.499 161.214L277.774 162.1L277.676 163.035L279.33 162.186L279.368 162.19L278.791 167.68L279.77 167.783L280.45 161.314ZM283.696 168.285C285.041 168.426 286.072 167.762 286.189 166.714C286.268 165.898 285.769 165.153 285.059 164.947L285.063 164.909C285.707 164.824 286.196 164.278 286.275 163.581C286.373 162.591 285.579 161.764 284.394 161.639C283.197 161.514 282.248 162.158 282.151 163.147C282.071 163.841 282.435 164.48 283.06 164.699L283.056 164.737C282.307 164.789 281.663 165.414 281.584 166.23C281.467 167.278 282.338 168.142 283.696 168.285ZM283.78 167.486C282.971 167.401 282.505 166.917 282.579 166.271C282.643 165.597 283.25 165.176 284.014 165.256C284.766 165.335 285.271 165.873 285.207 166.547C285.133 167.194 284.579 167.57 283.78 167.486ZM284.096 164.476C283.442 164.407 283.022 163.944 283.093 163.329C283.15 162.722 283.641 162.368 284.31 162.439C284.967 162.508 285.374 162.956 285.316 163.563C285.245 164.178 284.74 164.543 284.096 164.476Z" fill="#8C8F9A"/> <path d="M137.233 169.117L136.282 169.017L134.557 169.902L134.459 170.837L136.113 169.989L136.151 169.993L135.574 175.483L136.553 175.585L137.233 169.117ZM141.143 169.439C139.786 169.283 138.796 170.166 138.667 171.391C138.541 172.627 139.341 173.611 140.462 173.729C141.147 173.801 141.77 173.528 142.159 173.02L142.209 173.025C142.05 174.512 141.4 175.322 140.452 175.222C139.833 175.157 139.475 174.737 139.407 174.171L138.443 174.069C138.476 175.13 139.206 175.954 140.362 176.075C141.866 176.233 142.943 175.04 143.181 172.776C143.426 170.413 142.295 169.569 141.143 169.439ZM141.06 170.26C141.808 170.339 142.294 171.032 142.22 171.742C142.147 172.463 141.496 173.033 140.757 172.955C140.015 172.877 139.541 172.227 139.616 171.478C139.695 170.727 140.318 170.182 141.06 170.26Z" fill="#8C8F9A"/> <path d="M157.89 177.828L162.148 178.275L162.236 177.439L159.324 177.132L159.329 177.085L160.755 175.875C162.066 174.802 162.464 174.266 162.54 173.543C162.649 172.504 161.886 171.619 160.667 171.491C159.457 171.363 158.491 172.054 158.367 173.235L159.298 173.333C159.368 172.638 159.864 172.23 160.562 172.303C161.219 172.372 161.676 172.829 161.608 173.474C161.548 174.045 161.164 174.42 160.392 175.083L157.965 177.121L157.89 177.828ZM165.585 178.745C167.079 178.902 168.082 177.775 168.305 175.656C168.526 173.552 167.767 172.237 166.286 172.081C164.801 171.925 163.789 173.051 163.564 175.158C163.342 177.274 164.089 178.585 165.585 178.745ZM165.674 177.902C164.799 177.81 164.364 176.877 164.534 175.26C164.706 173.649 165.327 172.817 166.199 172.909C167.067 173 167.505 173.943 167.335 175.554C167.166 177.171 166.546 177.994 165.674 177.902Z" fill="#8C8F9A"/> <path d="M183.117 180.48L187.374 180.927L187.462 180.09L184.55 179.784L184.555 179.737L185.982 178.526C187.292 177.454 187.69 176.918 187.766 176.194C187.876 175.155 187.113 174.27 185.894 174.142C184.684 174.015 183.717 174.705 183.593 175.887L184.525 175.984C184.595 175.289 185.091 174.882 185.789 174.955C186.446 175.024 186.903 175.481 186.835 176.125C186.775 176.697 186.391 177.072 185.618 177.734L183.191 179.772L183.117 180.48ZM191.705 174.842L190.755 174.742L189.03 175.628L188.932 176.563L190.586 175.715L190.623 175.719L190.046 181.208L191.026 181.311L191.705 174.842Z" fill="#8C8F9A"/> <path d="M207.137 183.004L211.395 183.452L211.483 182.615L208.571 182.308L208.576 182.261L210.003 181.051C211.313 179.978 211.711 179.442 211.787 178.719C211.896 177.68 211.133 176.795 209.914 176.667C208.704 176.539 207.738 177.23 207.614 178.411L208.545 178.509C208.615 177.814 209.112 177.406 209.81 177.479C210.466 177.549 210.923 178.005 210.855 178.65C210.795 179.221 210.411 179.596 209.639 180.259L207.212 182.297L207.137 183.004ZM212.592 183.577L216.849 184.025L216.937 183.188L214.025 182.882L214.03 182.834L215.457 181.624C216.767 180.551 217.165 180.015 217.241 179.292C217.351 178.253 216.588 177.368 215.369 177.24C214.159 177.113 213.192 177.803 213.068 178.984L214 179.082C214.07 178.387 214.566 177.979 215.264 178.053C215.921 178.122 216.378 178.579 216.31 179.223C216.25 179.795 215.866 180.169 215.093 180.832L212.666 182.87L212.592 183.577Z" fill="#8C8F9A"/> <path d="M229.418 185.346L233.675 185.793L233.763 184.956L230.851 184.65L230.856 184.603L232.283 183.393C233.593 182.32 233.992 181.784 234.068 181.061C234.177 180.021 233.414 179.137 232.195 179.008C230.985 178.881 230.018 179.572 229.894 180.753L230.826 180.851C230.896 180.156 231.392 179.748 232.09 179.821C232.747 179.89 233.204 180.347 233.136 180.991C233.076 181.563 232.692 181.938 231.919 182.601L229.492 184.638L229.418 185.346ZM237.115 186.244C238.435 186.383 239.488 185.695 239.598 184.621C239.687 183.803 239.253 183.164 238.408 182.941L238.413 182.89C239.107 182.788 239.602 182.303 239.675 181.576C239.778 180.626 239.083 179.732 237.839 179.602C236.651 179.477 235.622 180.094 235.48 181.142L236.424 181.241C236.509 180.65 237.106 180.348 237.741 180.415C238.401 180.485 238.791 180.931 238.725 181.528C238.663 182.153 238.117 182.511 237.401 182.436L236.854 182.378L236.77 183.174L237.317 183.232C238.214 183.326 238.684 183.835 238.616 184.486C238.55 185.115 237.958 185.483 237.197 185.403C236.496 185.33 235.987 184.912 236.01 184.333L235.018 184.229C234.948 185.288 235.808 186.107 237.115 186.244Z" fill="#8C8F9A"/> <path d="M251.307 187.647L255.565 188.094L255.653 187.257L252.741 186.951L252.746 186.904L254.173 185.693C255.483 184.621 255.881 184.085 255.957 183.361C256.066 182.322 255.303 181.437 254.084 181.309C252.874 181.182 251.908 181.872 251.784 183.054L252.715 183.152C252.785 182.456 253.282 182.049 253.98 182.122C254.637 182.191 255.093 182.648 255.025 183.292C254.965 183.864 254.581 184.239 253.809 184.902L251.382 186.939L251.307 187.647ZM256.62 186.928L259.687 187.25L259.554 188.513L260.486 188.611L260.618 187.348L261.474 187.438L261.561 186.61L260.705 186.52L261.166 182.143L259.962 182.016L256.703 186.138L256.62 186.928ZM259.78 186.423L257.73 186.208L257.735 186.157L260.067 183.203L260.118 183.208L259.78 186.423Z" fill="#8C8F9A"/> <path d="M274.181 190.051L278.439 190.498L278.527 189.661L275.615 189.355L275.619 189.308L277.046 188.098C278.357 187.025 278.755 186.489 278.831 185.766C278.94 184.726 278.177 183.842 276.958 183.713C275.748 183.586 274.782 184.277 274.657 185.458L275.589 185.556C275.659 184.861 276.155 184.453 276.853 184.526C277.51 184.595 277.967 185.052 277.899 185.696C277.839 186.268 277.455 186.643 276.683 187.306L274.255 189.343L274.181 190.051ZM281.761 190.937C283.063 191.074 284.088 190.252 284.217 188.992C284.352 187.741 283.576 186.74 282.398 186.616C281.918 186.566 281.453 186.702 281.174 186.922L281.136 186.918L281.532 185.13L284.277 185.418L284.365 184.581L280.808 184.208L280.102 187.429L280.982 187.655C281.248 187.463 281.7 187.36 282.092 187.402C282.858 187.489 283.354 188.122 283.271 188.911C283.189 189.688 282.59 190.194 281.848 190.116C281.222 190.05 280.768 189.6 280.776 189.039L279.829 188.939C279.758 189.973 280.574 190.812 281.761 190.937Z" fill="#8C8F9A"/> <path d="M130.912 197.848L135.17 198.296L135.258 197.459L132.346 197.153L132.351 197.105L133.778 195.895C135.088 194.822 135.486 194.286 135.562 193.563C135.671 192.524 134.908 191.639 133.689 191.511C132.48 191.384 131.513 192.074 131.389 193.255L132.32 193.353C132.39 192.658 132.887 192.25 133.585 192.324C134.242 192.393 134.698 192.849 134.63 193.494C134.57 194.065 134.186 194.44 133.414 195.103L130.987 197.141L130.912 197.848ZM138.616 198.747C139.966 198.902 140.966 198.023 141.093 196.782C141.226 195.544 140.419 194.562 139.298 194.444C138.616 194.372 137.991 194.639 137.602 195.15L137.554 195.145C137.712 193.677 138.359 192.864 139.307 192.963C139.929 193.029 140.281 193.449 140.357 194L141.32 194.101C141.28 193.062 140.552 192.232 139.396 192.111C137.893 191.953 136.819 193.146 136.583 195.395C136.329 197.776 137.467 198.617 138.616 198.747ZM138.699 197.926C137.947 197.847 137.464 197.157 137.541 196.431C137.62 195.708 138.261 195.137 139.006 195.215C139.745 195.293 140.226 195.947 140.144 196.695C140.067 197.46 139.438 198.003 138.699 197.926Z" fill="#8C8F9A"/> <path d="M155.807 200.465L160.065 200.912L160.153 200.075L157.241 199.769L157.246 199.722L158.672 198.512C159.983 197.439 160.381 196.903 160.457 196.18C160.566 195.14 159.803 194.256 158.584 194.127C157.374 194 156.408 194.691 156.283 195.872L157.215 195.97C157.285 195.275 157.781 194.867 158.479 194.94C159.136 195.009 159.593 195.466 159.525 196.11C159.465 196.682 159.081 197.057 158.309 197.72L155.881 199.757L155.807 200.465ZM161.48 201.061L162.5 201.168L165.903 195.861L165.994 194.996L161.717 194.546L161.629 195.383L164.895 195.726L164.89 195.774L161.48 201.061Z" fill="#8C8F9A"/> <path d="M179.848 202.991L184.105 203.439L184.193 202.602L181.281 202.296L181.286 202.249L182.713 201.038C184.023 199.966 184.421 199.429 184.497 198.706C184.607 197.667 183.844 196.782 182.625 196.654C181.415 196.527 180.448 197.217 180.324 198.398L181.256 198.496C181.326 197.801 181.822 197.394 182.52 197.467C183.177 197.536 183.633 197.993 183.566 198.637C183.506 199.209 183.121 199.583 182.349 200.246L179.922 202.284L179.848 202.991ZM187.479 203.883C188.824 204.024 189.855 203.36 189.972 202.312C190.051 201.496 189.551 200.751 188.842 200.545L188.846 200.508C189.49 200.422 189.979 199.876 190.058 199.179C190.156 198.19 189.361 197.362 188.177 197.238C186.98 197.112 186.031 197.756 185.933 198.745C185.854 199.44 186.218 200.078 186.843 200.297L186.839 200.335C186.09 200.387 185.446 201.012 185.367 201.828C185.25 202.876 186.121 203.74 187.479 203.883ZM187.563 203.084C186.754 202.999 186.288 202.516 186.362 201.869C186.426 201.195 187.033 200.774 187.797 200.854C188.549 200.933 189.054 201.472 188.99 202.145C188.915 202.792 188.362 203.168 187.563 203.084ZM187.879 200.074C187.225 200.005 186.804 199.543 186.875 198.927C186.933 198.32 187.424 197.966 188.093 198.037C188.75 198.106 189.156 198.554 189.099 199.161C189.028 199.776 188.523 200.142 187.879 200.074Z" fill="#8C8F9A"/> <path d="M204.658 205.599L208.916 206.047L209.004 205.21L206.092 204.904L206.097 204.856L207.524 203.646C208.834 202.573 209.232 202.037 209.308 201.314C209.417 200.275 208.654 199.39 207.435 199.262C206.226 199.135 205.259 199.825 205.135 201.006L206.067 201.104C206.136 200.409 206.633 200.001 207.331 200.075C207.988 200.144 208.444 200.6 208.376 201.245C208.316 201.816 207.932 202.191 207.16 202.854L204.733 204.892L204.658 205.599ZM212.953 199.842C211.596 199.686 210.606 200.569 210.477 201.794C210.351 203.03 211.151 204.014 212.272 204.132C212.958 204.204 213.58 203.931 213.969 203.423L214.02 203.428C213.86 204.915 213.21 205.725 212.262 205.626C211.643 205.561 211.285 205.14 211.217 204.574L210.253 204.472C210.286 205.533 211.017 206.357 212.173 206.478C213.676 206.636 214.753 205.444 214.991 203.179C215.236 200.816 214.105 199.972 212.953 199.842ZM212.87 200.663C213.618 200.742 214.104 201.435 214.03 202.145C213.957 202.866 213.307 203.436 212.567 203.359C211.825 203.281 211.351 202.63 211.426 201.881C211.505 201.13 212.128 200.585 212.87 200.663Z" fill="#8C8F9A"/> <path d="M229.142 208.262C230.463 208.4 231.515 207.713 231.625 206.639C231.714 205.821 231.28 205.181 230.435 204.958L230.44 204.908C231.134 204.805 231.629 204.321 231.702 203.594C231.805 202.644 231.11 201.75 229.866 201.619C228.678 201.494 227.649 202.111 227.507 203.159L228.451 203.259C228.536 202.667 229.133 202.366 229.768 202.433C230.428 202.502 230.818 202.949 230.752 203.545C230.69 204.171 230.145 204.529 229.428 204.453L228.881 204.396L228.798 205.192L229.344 205.249C230.241 205.344 230.711 205.853 230.643 206.503C230.577 207.132 229.985 207.501 229.224 207.421C228.523 207.347 228.015 206.93 228.037 206.351L227.045 206.247C226.975 207.306 227.835 208.124 229.142 208.262ZM234.873 208.883C236.367 209.04 237.37 207.913 237.593 205.794C237.814 203.69 237.055 202.375 235.573 202.219C234.089 202.063 233.076 203.189 232.852 205.295C232.629 207.412 233.376 208.723 234.873 208.883ZM234.961 208.04C234.087 207.948 233.651 207.014 233.821 205.397C233.994 203.787 234.615 202.955 235.486 203.046C236.355 203.138 236.792 204.081 236.623 205.692C236.453 207.309 235.833 208.132 234.961 208.04Z" fill="#8C8F9A"/> <path d="M252.514 210.718C253.834 210.857 254.886 210.17 254.996 209.095C255.085 208.278 254.651 207.638 253.806 207.415L253.811 207.365C254.505 207.262 255 206.777 255.073 206.051C255.176 205.1 254.482 204.207 253.237 204.076C252.05 203.951 251.02 204.568 250.878 205.616L251.823 205.715C251.907 205.124 252.504 204.823 253.139 204.889C253.799 204.959 254.19 205.405 254.124 206.002C254.061 206.628 253.516 206.985 252.799 206.91L252.252 206.853L252.169 207.649L252.715 207.706C253.612 207.8 254.082 208.31 254.014 208.96C253.948 209.589 253.357 209.958 252.596 209.878C251.894 209.804 251.386 209.386 251.408 208.808L250.417 208.703C250.347 209.763 251.206 210.581 252.514 210.718ZM259.137 204.785L258.187 204.685L256.462 205.571L256.364 206.506L258.017 205.658L258.055 205.662L257.478 211.151L258.458 211.254L259.137 204.785Z" fill="#8C8F9A"/> </g> <rect x="121.51" y="15.7046" width="208.299" height="208.612" rx="4.28524" transform="rotate(6 121.51 15.7046)" stroke="#F3F4F5" stroke-width="0.372629"/> </g> <defs> <filter id="datepickerfilter0_dd" x="65.5" y="29.5" width="202" height="233" filterUnits="userSpaceOnUse" color-interpolation-filters="sRGB"> <feFlood flood-opacity="0" result="BackgroundImageFix"/> <feColorMatrix in="SourceAlpha" type="matrix" values="0 0 0 0 0 0 0 0 0 0 0 0 0 0 0 0 0 0 127 0"/> <feOffset dy="4"/> <feGaussianBlur stdDeviation="5.5"/> <feColorMatrix type="matrix" values="0 0 0 0 0 0 0 0 0 0 0 0 0 0 0 0 0 0 0.1 0"/> <feBlend mode="normal" in2="BackgroundImageFix" result="effect1_dropShadow"/> <feColorMatrix in="SourceAlpha" type="matrix" values="0 0 0 0 0 0 0 0 0 0 0 0 0 0 0 0 0 0 127 0"/> <feOffset dy="1"/> <feGaussianBlur stdDeviation="3"/> <feColorMatrix type="matrix" values="0 0 0 0 0 0 0 0 0 0 0 0 0 0 0 0 0 0 0.09 0"/> <feBlend mode="normal" in2="effect1_dropShadow" result="effect2_dropShadow"/> <feBlend mode="normal" in="SourceGraphic" in2="effect2_dropShadow" result="shape"/> </filter> <filter id="datepickerfilter1_dd" x="88.5" y="8.49988" width="251.373" height="251.652" filterUnits="userSpaceOnUse" color-interpolation-filters="sRGB"> <feFlood flood-opacity="0" result="BackgroundImageFix"/> <feColorMatrix in="SourceAlpha" type="matrix" values="0 0 0 0 0 0 0 0 0 0 0 0 0 0 0 0 0 0 127 0"/> <feOffset dy="4"/> <feGaussianBlur stdDeviation="5.5"/> <feColorMatrix type="matrix" values="0 0 0 0 0 0 0 0 0 0 0 0 0 0 0 0 0 0 0.1 0"/> <feBlend mode="normal" in2="BackgroundImageFix" result="effect1_dropShadow"/> <feColorMatrix in="SourceAlpha" type="matrix" values="0 0 0 0 0 0 0 0 0 0 0 0 0 0 0 0 0 0 127 0"/> <feOffset dy="1"/> <feGaussianBlur stdDeviation="3"/> <feColorMatrix type="matrix" values="0 0 0 0 0 0 0 0 0 0 0 0 0 0 0 0 0 0 0.09 0"/> <feBlend mode="normal" in2="effect1_dropShadow" result="effect2_dropShadow"/> <feBlend mode="normal" in="SourceGraphic" in2="effect2_dropShadow" result="shape"/> </filter> <clipPath id="datepickerclip0"> <rect x="76.5" y="36.5" width="180" height="211" rx="4.47155" fill="white"/> </clipPath> <clipPath id="datepickerclip1"> <rect width="155.013" height="124.458" fill="white" transform="translate(141.996 75.6855) rotate(6)"/> </clipPath> </defs> </svg>