<svg width="396" height="264" viewBox="0 0 396 264" fill="none" xmlns="http://www.w3.org/2000/svg"> <g clip-path="url(#eventPopupclip0)"> <g filter="url(#eventPopupfilter0_d)"> <rect x="77" y="33" width="241.415" height="77.5976" rx="3.69512" fill="white"/> </g> <rect x="87.4694" y="43.4695" width="33.2561" height="34.4878" rx="5.54268" fill="white" stroke="#E8E8EB" stroke-width="1.23171"/> <path d="M100.899 70.7073H103.37L108.084 61.3252V59.4175H100.016V61.3017H105.707V61.4346L100.899 70.7073Z" fill="#434960"/> <path d="M86.8535 49.0122C86.8535 45.6109 89.6108 42.8537 93.0121 42.8537H115.183C118.584 42.8537 121.341 45.6109 121.341 49.0122V55.1707H86.8535V49.0122Z" fill="#FE544F"/> <path d="M97.653 50.9944C98.869 50.9944 99.5655 50.3268 99.5655 49.1721V45.6466H98.2411V49.1613C98.2411 49.6268 98.0355 49.8721 97.6349 49.8721C97.256 49.8721 97.0251 49.6159 97.0179 49.2082V49.1937H95.744V49.2154C95.7585 50.3124 96.4874 50.9944 97.653 50.9944ZM100.309 50.8537H101.698L102.019 49.7098H103.719L104.04 50.8537H105.429L103.679 45.6466H102.059L100.309 50.8537ZM102.835 46.7941H102.903L103.452 48.7571H102.286L102.835 46.7941ZM106.303 50.8537H107.558V47.8947H107.623L109.803 50.8537H110.853V45.6466H109.597V48.5767H109.532L107.36 45.6466H106.303V50.8537Z" fill="white"/> <path d="M143.512 57.7255C149.054 57.6973 161.248 57.6093 168.146 57.6409C176.768 57.6804 181.079 57.7593 192.164 57.7255C203.25 57.6916 210.024 57.6296 221.725 57.686C233.426 57.7424 245.128 57.7649 253.75 57.7255C262.371 57.686 275.304 57.7875 286.39 57.748" stroke="#DCDDE1" stroke-width="7.39024"/> <path d="M144.129 78.2453C149.877 78.1904 163.959 78.1137 174.306 78.2453C187.239 78.4097 202.019 78.1082 211.873 78.2453" stroke="#DCDDE1" stroke-width="7.39024"/> <g filter="url(#eventPopupfilter1_d)"> <rect x="77" y="120.451" width="241.415" height="77.5976" rx="3.69512" fill="white"/> </g> <path d="M144.744 143.848C149.055 143.805 158.909 143.768 163.836 143.778C169.994 143.789 180.464 143.883 190.317 143.848C200.171 143.813 206.945 143.731 235.275 143.848C257.938 143.941 270.994 143.887 274.689 143.848" stroke="#DCDDE1" stroke-width="7.39024"/> <rect x="87.4694" y="130.921" width="33.2561" height="34.4878" rx="5.54268" fill="white" stroke="#E8E8EB" stroke-width="1.23171"/> <path d="M104.713 158.409C107.347 158.409 109.107 157.025 109.107 154.976V154.961C109.107 153.428 108.012 152.459 106.331 152.303V152.256C107.652 151.982 108.684 151.067 108.684 149.66V149.644C108.684 147.846 107.121 146.626 104.697 146.626C102.328 146.626 100.741 147.94 100.577 149.957L100.569 150.051H102.742L102.75 149.98C102.844 149.042 103.587 148.44 104.697 148.44C105.807 148.44 106.456 149.019 106.456 149.957V149.973C106.456 150.887 105.69 151.513 104.502 151.513H103.243V153.194H104.533C105.901 153.194 106.706 153.788 106.706 154.867V154.883C106.706 155.836 105.917 156.509 104.713 156.509C103.493 156.509 102.688 155.883 102.586 155.008L102.578 154.922H100.319L100.326 155.023C100.483 157.04 102.164 158.409 104.713 158.409Z" fill="#434960"/> <path d="M86.8535 136.463C86.8535 133.062 89.6108 130.305 93.0121 130.305H115.183C118.584 130.305 121.341 133.062 121.341 136.463V142.622H86.8535V136.463Z" fill="#0096CC"/> <path d="M95.2148 138.305H96.3804V134.989H96.4526L97.6361 138.305H98.3903L99.5739 134.989H99.6497V138.305H100.812V133.098H99.3069L98.0511 136.631H97.9826L96.7232 133.098H95.2148V138.305ZM101.692 138.305H103.081L103.403 137.161H105.102L105.423 138.305H106.813L105.062 133.098H103.442L101.692 138.305ZM104.218 134.245H104.287L104.835 136.208H103.67L104.218 134.245ZM107.686 138.305H109.01V136.483H109.696L110.587 138.305H112.074L111.035 136.288C111.598 136.039 111.919 135.458 111.919 134.823V134.815C111.919 133.74 111.229 133.098 109.948 133.098H107.686V138.305ZM109.01 135.577V134.097H109.793C110.27 134.097 110.569 134.393 110.569 134.833V134.841C110.569 135.292 110.277 135.577 109.8 135.577H109.01Z" fill="white"/> <path d="M145.359 164.465C151.107 164.41 165.19 164.333 175.536 164.465C188.469 164.629 203.25 164.328 213.103 164.465" stroke="#DCDDE1" stroke-width="7.39024"/> <g filter="url(#eventPopupfilter2_d)"> <rect x="77" y="207.902" width="241.415" height="77.5976" rx="3.69512" fill="white"/> </g> <rect x="87.4694" y="218.372" width="33.2561" height="34.4878" rx="5.54268" fill="white" stroke="#E8E8EB" stroke-width="1.23171"/> <path d="M98.75 245.61H101.111V234.328H98.7578L95.8415 236.353V238.479L98.6092 236.556H98.75V245.61ZM104.184 245.61H112.323V243.71H107.35V243.53L109.438 241.583C111.494 239.683 112.159 238.62 112.159 237.338V237.314C112.159 235.368 110.532 234.038 108.21 234.038C105.74 234.038 104.051 235.524 104.051 237.69L104.059 237.721H106.24V237.682C106.24 236.611 106.998 235.876 108.101 235.876C109.18 235.876 109.837 236.548 109.837 237.51V237.533C109.837 238.323 109.407 238.894 107.819 240.434L104.184 244.023V245.61Z" fill="#434960"/> <path d="M86.8535 223.915C86.8535 220.513 89.6108 217.756 93.0121 217.756H115.183C118.584 217.756 121.341 220.513 121.341 223.915V230.073H86.8535V223.915Z" fill="#59AB46"/> <path d="M96.3274 225.756H97.7167L98.0379 224.612H99.7375L100.059 225.756H101.448L99.6978 220.549H98.0776L96.3274 225.756ZM98.8534 221.697H98.9219L99.4704 223.66H98.3049L98.8534 221.697ZM102.321 225.756H103.645V224.23H104.562C105.728 224.23 106.478 223.515 106.478 222.4V222.393C106.478 221.278 105.728 220.549 104.562 220.549H102.321V225.756ZM104.245 221.563C104.807 221.563 105.139 221.852 105.139 222.393V222.4C105.139 222.941 104.807 223.234 104.245 223.234H103.645V221.563H104.245ZM107.452 225.756H108.777V223.934H109.462L110.354 225.756H111.84L110.801 223.739C111.364 223.49 111.685 222.909 111.685 222.274V222.267C111.685 221.191 110.996 220.549 109.715 220.549H107.452V225.756ZM108.777 223.028V221.549H109.56C110.036 221.549 110.336 221.844 110.336 222.285V222.292C110.336 222.743 110.043 223.028 109.567 223.028H108.777Z" fill="white"/> <path d="M143.512 229.428C149.054 229.4 161.248 229.312 168.146 229.343C176.768 229.383 181.079 229.462 192.164 229.428C203.25 229.394 210.024 229.332 221.725 229.388C233.426 229.445 245.128 229.467 253.75 229.428C262.371 229.388 275.304 229.49 286.39 229.45" stroke="#DCDDE1" stroke-width="7.39024"/> <path d="M144.129 248.221C149.877 248.166 163.959 248.089 174.306 248.221C187.239 248.385 202.019 248.084 211.873 248.221" stroke="#DCDDE1" stroke-width="7.39024"/> </g> <defs> <filter id="eventPopupfilter0_d" x="67.1463" y="28.0732" width="261.122" height="97.3049" filterUnits="userSpaceOnUse" color-interpolation-filters="sRGB"> <feFlood flood-opacity="0" result="BackgroundImageFix"/> <feColorMatrix in="SourceAlpha" type="matrix" values="0 0 0 0 0 0 0 0 0 0 0 0 0 0 0 0 0 0 127 0"/> <feMorphology radius="3.69512" operator="erode" in="SourceAlpha" result="effect1_dropShadow"/> <feOffset dy="4.92683"/> <feGaussianBlur stdDeviation="6.77439"/> <feColorMatrix type="matrix" values="0 0 0 0 0 0 0 0 0 0 0 0 0 0 0 0 0 0 0.15 0"/> <feBlend mode="normal" in2="BackgroundImageFix" result="effect1_dropShadow"/> <feBlend mode="normal" in="SourceGraphic" in2="effect1_dropShadow" result="shape"/> </filter> <filter id="eventPopupfilter1_d" x="67.1463" y="115.524" width="261.122" height="97.3049" filterUnits="userSpaceOnUse" color-interpolation-filters="sRGB"> <feFlood flood-opacity="0" result="BackgroundImageFix"/> <feColorMatrix in="SourceAlpha" type="matrix" values="0 0 0 0 0 0 0 0 0 0 0 0 0 0 0 0 0 0 127 0"/> <feMorphology radius="3.69512" operator="erode" in="SourceAlpha" result="effect1_dropShadow"/> <feOffset dy="4.92683"/> <feGaussianBlur stdDeviation="6.77439"/> <feColorMatrix type="matrix" values="0 0 0 0 0 0 0 0 0 0 0 0 0 0 0 0 0 0 0.15 0"/> <feBlend mode="normal" in2="BackgroundImageFix" result="effect1_dropShadow"/> <feBlend mode="normal" in="SourceGraphic" in2="effect1_dropShadow" result="shape"/> </filter> <filter id="eventPopupfilter2_d" x="67.1463" y="202.976" width="261.122" height="97.3049" filterUnits="userSpaceOnUse" color-interpolation-filters="sRGB"> <feFlood flood-opacity="0" result="BackgroundImageFix"/> <feColorMatrix in="SourceAlpha" type="matrix" values="0 0 0 0 0 0 0 0 0 0 0 0 0 0 0 0 0 0 127 0"/> <feMorphology radius="3.69512" operator="erode" in="SourceAlpha" result="effect1_dropShadow"/> <feOffset dy="4.92683"/> <feGaussianBlur stdDeviation="6.77439"/> <feColorMatrix type="matrix" values="0 0 0 0 0 0 0 0 0 0 0 0 0 0 0 0 0 0 0.15 0"/> <feBlend mode="normal" in2="BackgroundImageFix" result="effect1_dropShadow"/> <feBlend mode="normal" in="SourceGraphic" in2="effect1_dropShadow" result="shape"/> </filter> <clipPath id="eventPopupclip0"> <rect width="396" height="264" fill="white"/> </clipPath> </defs> </svg>