<svg width="396" height="264" viewBox="0 0 396 264" fill="none" xmlns="http://www.w3.org/2000/svg"> <g filter="url(#advFilerfilter0_d)"> <rect x="139.98" y="62.5992" width="162.17" height="179.401" fill="white"/> </g> <path d="M156.195 184.881C157.547 184.847 161.567 184.786 166.838 184.819C173.426 184.86 173.426 184.912 179.001 184.881C184.575 184.85 185.589 184.789 199.272 184.85C212.955 184.912 210.421 184.912 217.516 184.881C224.611 184.85 225.624 184.835 238.801 184.881C249.342 184.918 261.775 184.913 266.674 184.907" stroke="#DCDDE1" stroke-width="8.10851"/> <path d="M156.195 204.559C157.547 204.53 161.567 204.478 166.838 204.506C173.426 204.542 173.426 204.586 179.001 204.559C184.575 204.533 184.068 204.506 197.751 204.559C211.435 204.613 210.421 204.6 218.023 204.593" stroke="#DCDDE1" stroke-width="8.10851"/> <g clip-path="url(#advFilerclip0)"> <rect x="151.129" y="75.7755" width="139.912" height="88.1801" fill="#8C8F9A"/> <circle cx="157.006" cy="175.713" r="48.2051" fill="#EC352F"/> <circle cx="295.743" cy="122.805" r="65.8411" fill="#DCDDE1"/> </g> <circle cx="291.509" cy="68.1738" r="18.7509" fill="#D72C2C"/> <path d="M290.884 65.6399L293.026 67.7751V67.667C293.026 67.1294 292.813 66.6138 292.433 66.2336C292.052 65.8534 291.537 65.6399 290.999 65.6399H290.884ZM287.979 66.1804L289.026 67.2278C288.992 67.3697 288.972 67.5116 288.972 67.667C288.972 68.2046 289.186 68.7202 289.566 69.1004C289.946 69.4806 290.462 69.6941 290.999 69.6941C291.148 69.6941 291.297 69.6739 291.438 69.6401L292.486 70.6874C292.033 70.9104 291.533 71.0455 290.999 71.0455C290.103 71.0455 289.244 70.6896 288.61 70.056C287.977 69.4224 287.621 68.563 287.621 67.667C287.621 67.1332 287.756 66.6332 287.979 66.1804ZM284.242 62.4438L285.783 63.9844L286.087 64.2885C284.972 65.1669 284.093 66.3156 283.566 67.667C284.735 70.6334 287.621 72.7348 290.999 72.7348C292.047 72.7348 293.047 72.5321 293.959 72.1672L294.249 72.451L296.222 74.4241L297.081 73.5659L285.1 61.5856L284.242 62.4438ZM290.999 64.2885C291.895 64.2885 292.755 64.6444 293.388 65.278C294.022 65.9116 294.378 66.771 294.378 67.667C294.378 68.0995 294.29 68.5184 294.134 68.8968L296.114 70.8766C297.128 70.032 297.939 68.9238 298.432 67.667C297.263 64.7006 294.378 62.5992 290.999 62.5992C290.053 62.5992 289.148 62.7681 288.296 63.0722L289.763 64.525C290.148 64.3763 290.56 64.2885 290.999 64.2885Z" fill="white"/> <g filter="url(#advFilerfilter1_d)"> <rect width="162.17" height="179.401" transform="translate(85.7383 41.9814)" fill="white"/> <path d="M101.953 164.263C103.305 164.229 107.325 164.169 112.596 164.201C119.184 164.243 119.184 164.294 124.758 164.263C130.333 164.232 131.346 164.171 145.03 164.232C158.713 164.294 156.179 164.294 163.274 164.263C170.369 164.232 171.382 164.217 184.559 164.263C195.1 164.3 207.533 164.296 212.432 164.289" stroke="#DCDDE1" stroke-width="8.10851"/> <path d="M101.953 183.942C103.305 183.912 107.325 183.86 112.596 183.889C119.184 183.924 119.184 183.968 124.758 183.942C130.333 183.915 129.826 183.889 143.509 183.942C157.192 183.995 156.179 183.982 163.781 183.975" stroke="#DCDDE1" stroke-width="8.10851"/> <g clip-path="url(#advFilerclip1)"> <rect x="96.8867" y="55.1577" width="139.912" height="88.1801" fill="#2C324C"/> <circle cx="125.767" cy="81.4144" r="83.2083" fill="#0068A0"/> <circle cx="256.898" cy="165.92" r="86.4368" fill="#FE544F"/> <path fill-rule="evenodd" clip-rule="evenodd" d="M165.9 115.972C175.136 115.972 182.623 108.484 182.623 99.2478C182.623 90.0115 175.136 82.524 165.9 82.524C156.663 82.524 149.176 90.0115 149.176 99.2478C149.176 108.484 156.663 115.972 165.9 115.972ZM172.489 99.7547L160.985 93.016V106.493L172.489 99.7547Z" fill="white"/> </g> </g> <circle cx="234.38" cy="40.751" r="18.7509" fill="#0096CC"/> <g clip-path="url(#advFilerclip2)"> <path d="M233.874 38.217C233.337 38.217 232.821 38.4306 232.441 38.8108C232.061 39.1909 231.847 39.7065 231.847 40.2442C231.847 40.7818 232.061 41.2974 232.441 41.6776C232.821 42.0577 233.337 42.2713 233.874 42.2713C234.412 42.2713 234.927 42.0577 235.308 41.6776C235.688 41.2974 235.901 40.7818 235.901 40.2442C235.901 39.7065 235.688 39.1909 235.308 38.8108C234.927 38.4306 234.412 38.217 233.874 38.217ZM233.874 43.6227C232.978 43.6227 232.119 43.2668 231.485 42.6332C230.852 41.9996 230.496 41.1402 230.496 40.2442C230.496 39.3481 230.852 38.4888 231.485 37.8552C232.119 37.2216 232.978 36.8656 233.874 36.8656C234.77 36.8656 235.63 37.2216 236.263 37.8552C236.897 38.4888 237.253 39.3481 237.253 40.2442C237.253 41.1402 236.897 41.9996 236.263 42.6332C235.63 43.2668 234.77 43.6227 233.874 43.6227ZM233.874 35.1763C230.496 35.1763 227.61 37.2778 226.441 40.2442C227.61 43.2105 230.496 45.312 233.874 45.312C237.253 45.312 240.138 43.2105 241.307 40.2442C240.138 37.2778 237.253 35.1763 233.874 35.1763Z" fill="white"/> </g> <defs> <filter id="advFilerfilter0_d" x="131.872" y="58.5449" width="178.387" height="195.618" filterUnits="userSpaceOnUse" color-interpolation-filters="sRGB"> <feFlood flood-opacity="0" result="BackgroundImageFix"/> <feColorMatrix in="SourceAlpha" type="matrix" values="0 0 0 0 0 0 0 0 0 0 0 0 0 0 0 0 0 0 127 0"/> <feMorphology radius="3.04069" operator="erode" in="SourceAlpha" result="effect1_dropShadow"/> <feOffset dy="4.05426"/> <feGaussianBlur stdDeviation="5.5746"/> <feColorMatrix type="matrix" values="0 0 0 0 0 0 0 0 0 0 0 0 0 0 0 0 0 0 0.25 0"/> <feBlend mode="normal" in2="BackgroundImageFix" result="effect1_dropShadow"/> <feBlend mode="normal" in="SourceGraphic" in2="effect1_dropShadow" result="shape"/> </filter> <filter id="advFilerfilter1_d" x="77.6298" y="37.9272" width="178.387" height="195.618" filterUnits="userSpaceOnUse" color-interpolation-filters="sRGB"> <feFlood flood-opacity="0" result="BackgroundImageFix"/> <feColorMatrix in="SourceAlpha" type="matrix" values="0 0 0 0 0 0 0 0 0 0 0 0 0 0 0 0 0 0 127 0"/> <feMorphology radius="3.04069" operator="erode" in="SourceAlpha" result="effect1_dropShadow"/> <feOffset dy="4.05426"/> <feGaussianBlur stdDeviation="5.5746"/> <feColorMatrix type="matrix" values="0 0 0 0 0 0 0 0 0 0 0 0 0 0 0 0 0 0 0.25 0"/> <feBlend mode="normal" in2="BackgroundImageFix" result="effect1_dropShadow"/> <feBlend mode="normal" in="SourceGraphic" in2="effect1_dropShadow" result="shape"/> </filter> <clipPath id="advFilerclip0"> <rect width="139.912" height="88.1801" fill="white" transform="translate(151.129 75.7755)"/> </clipPath> <clipPath id="advFilerclip1"> <rect width="139.912" height="88.1801" fill="white" transform="translate(96.8867 55.1577)"/> </clipPath> <clipPath id="advFilerclip2"> <rect width="16.217" height="16.217" fill="white" transform="translate(225.766 32.1356)"/> </clipPath> </defs> </svg>