<svg width="353" height="205" viewBox="0 0 353 205" fill="none" xmlns="http://www.w3.org/2000/svg"> <path d="M28.6018 102.122L26.2658 100.019L17.3153 109.959L27.2558 118.91L29.3591 116.574L21.7704 109.726L28.6018 102.122Z" fill="#8C8F9A"/> <path d="M325.2 85.8093L323.097 88.1453L330.686 94.9932L323.854 102.597L326.19 104.7L335.141 94.7597L325.2 85.8093Z" fill="#8C8F9A"/> <g clip-path="url(#lightboxclip0)" filter="url(#lightboxfilter0_d)"> <rect width="261.925" height="173.162" transform="translate(40.6836 18.392) rotate(-3)" fill="white"/> <rect x="188.055" y="50.0114" width="93.129" height="5.82056" rx="1.45514" transform="rotate(-3 188.055 50.0114)" fill="#D0D1D7"/> <rect x="188.738" y="63.0895" width="53.8402" height="5.82056" rx="1.45514" transform="rotate(-3 188.738 63.0895)" fill="#D0D1D7"/> <circle cx="195.707" cy="29.2103" r="8.73084" transform="rotate(-3 195.707 29.2103)" fill="#DCDDE1"/> <path fill-rule="evenodd" clip-rule="evenodd" d="M291.128 126.209C291.086 125.406 290.402 124.79 289.599 124.832L199.504 129.553C198.701 129.595 198.085 130.28 198.127 131.083L199.193 151.427C199.235 152.229 199.92 152.846 200.722 152.804L285.292 148.372C285.578 148.357 285.863 148.427 286.11 148.573L290.161 150.978C291.16 151.571 292.418 150.811 292.357 149.65L291.128 126.209ZM199.955 165.958C199.913 165.156 200.529 164.471 201.332 164.429L291.427 159.707C292.229 159.665 292.914 160.282 292.956 161.084L294.022 181.428C294.064 182.231 293.448 182.916 292.645 182.958L208.076 187.39C207.789 187.405 207.513 187.504 207.283 187.676L203.506 190.49C202.574 191.185 201.244 190.56 201.183 189.4L199.955 165.958Z" fill="url(#lightboxpaint0_linear)"/> <g clip-path="url(#lightboxclip1)"> <rect x="40.6836" y="18.3918" width="128.052" height="173.162" transform="rotate(-3 40.6836 18.3918)" fill="#FE544F"/> <rect x="98.9062" y="45.6586" width="97.4944" height="161.521" rx="14.5514" transform="rotate(2.99107 98.9062 45.6586)" fill="#DCDDE1"/> <circle cx="62.7523" cy="161.492" r="80.0327" transform="rotate(-3 62.7523 161.492)" fill="#0096CC"/> </g> </g> <defs> <filter id="lightboxfilter0_d" x="31.8248" y="0.254482" width="288.346" height="204.35" filterUnits="userSpaceOnUse" color-interpolation-filters="sRGB"> <feFlood flood-opacity="0" result="BackgroundImageFix"/> <feColorMatrix in="SourceAlpha" type="matrix" values="0 0 0 0 0 0 0 0 0 0 0 0 0 0 0 0 0 0 127 0"/> <feMorphology radius="3.32203" operator="erode" in="SourceAlpha" result="effect1_dropShadow"/> <feOffset dy="4.42938"/> <feGaussianBlur stdDeviation="6.0904"/> <feColorMatrix type="matrix" values="0 0 0 0 0 0 0 0 0 0 0 0 0 0 0 0 0 0 0.05 0"/> <feBlend mode="normal" in2="BackgroundImageFix" result="effect1_dropShadow"/> <feBlend mode="normal" in="SourceGraphic" in2="effect1_dropShadow" result="shape"/> </filter> <linearGradient id="lightboxpaint0_linear" x1="245.186" y1="139.295" x2="247.201" y2="177.739" gradientUnits="userSpaceOnUse"> <stop stop-color="#D0D1D7"/> <stop offset="1" stop-color="#D0D1D7" stop-opacity="0"/> </linearGradient> <clipPath id="lightboxclip0"> <rect width="261.925" height="173.162" fill="white" transform="translate(40.6836 18.392) rotate(-3)"/> </clipPath> <clipPath id="lightboxclip1"> <rect width="128.052" height="173.162" fill="white" transform="translate(40.6836 18.3919) rotate(-3)"/> </clipPath> </defs> </svg>