<svg width="396" height="264" viewBox="0 0 396 264" fill="none" xmlns="http://www.w3.org/2000/svg"> <g clip-path="url(#loadMoreclip0)"> <path fill-rule="evenodd" clip-rule="evenodd" d="M204.027 90.2973C202.623 90.2973 201.486 91.4347 201.486 92.8378V174.135C201.486 175.538 202.623 176.676 204.027 176.676H301.837C303.24 176.676 304.378 175.538 304.378 174.135V92.8378C304.378 91.4347 303.24 90.2973 301.837 90.2973H204.027ZM87.1616 104.27C85.7585 104.27 84.6211 105.408 84.6211 106.811V188.108C84.6211 189.511 85.7585 190.649 87.1616 190.649H184.972C186.376 190.649 187.513 189.511 187.513 188.108V106.811C187.513 105.408 186.376 104.27 184.972 104.27H87.1616ZM87.1616 204.622C85.7585 204.622 84.6211 205.759 84.6211 207.162V288.459C84.6211 289.863 85.7585 291 87.1616 291H184.972C186.376 291 187.513 289.863 187.513 288.459V207.162C187.513 205.759 186.376 204.622 184.972 204.622H87.1616ZM201.486 193.189C201.486 191.786 202.623 190.649 204.027 190.649H301.837C303.24 190.649 304.378 191.786 304.378 193.189V274.486C304.378 275.89 303.24 277.027 301.837 277.027H204.027C202.623 277.027 201.486 275.89 201.486 274.486V193.189Z" fill="url(#loadMorepaint0_linear)"/> <rect x="117.125" y="68.5811" width="146.224" height="42" rx="6.53282" fill="#0096CC"/> <path d="M145.104 86.227C144.817 86.227 144.625 86.0354 144.625 85.7479V81.9146C144.625 81.6271 144.817 81.4354 145.104 81.4354C145.392 81.4354 145.583 81.6271 145.583 81.9146V85.7479C145.583 86.0354 145.392 86.227 145.104 86.227Z" fill="white" stroke="white" stroke-width="0.887334"/> <path opacity="0.3" d="M145.104 97.7269C144.817 97.7269 144.625 97.5352 144.625 97.2477V93.4144C144.625 93.127 144.817 92.9353 145.104 92.9353C145.392 92.9353 145.583 93.127 145.583 93.4144V97.2477C145.583 97.5352 145.392 97.7269 145.104 97.7269Z" fill="white" stroke="white" stroke-width="0.887334"/> <path opacity="0.3" d="M147.019 86.7062C146.923 86.7062 146.875 86.7062 146.779 86.6583C146.588 86.5146 146.492 86.275 146.636 86.0354L148.552 82.7292C148.696 82.5375 148.936 82.4417 149.175 82.5854C149.367 82.7292 149.463 82.9688 149.319 83.2083L147.402 86.5146C147.306 86.6104 147.163 86.7062 147.019 86.7062Z" fill="white" stroke="white" stroke-width="0.887334"/> <path opacity="0.3" d="M141.269 96.6727C141.173 96.6727 141.125 96.6727 141.029 96.6248C140.838 96.481 140.742 96.2414 140.886 96.0019L142.802 92.6957C142.946 92.504 143.186 92.4082 143.425 92.5519C143.617 92.6957 143.713 92.9352 143.569 93.1748L141.652 96.481C141.556 96.5769 141.413 96.6727 141.269 96.6727Z" fill="white" stroke="white" stroke-width="0.887334"/> <path opacity="0.93" d="M143.186 86.7061C143.042 86.7061 142.898 86.6102 142.802 86.4665L140.886 83.1603C140.742 82.9686 140.838 82.6811 141.029 82.5374C141.221 82.3936 141.509 82.4894 141.652 82.6811L143.569 85.9873C143.713 86.179 143.617 86.4665 143.425 86.6102C143.329 86.7061 143.281 86.7061 143.186 86.7061Z" fill="white" stroke="white" stroke-width="0.887334"/> <path opacity="0.3" d="M148.936 96.6728C148.792 96.6728 148.648 96.5769 148.552 96.4332L146.636 93.127C146.492 92.9353 146.588 92.6478 146.779 92.5041C146.971 92.3603 147.259 92.4561 147.402 92.6478L149.319 95.954C149.463 96.1457 149.367 96.4332 149.175 96.5769C149.079 96.6248 149.031 96.6728 148.936 96.6728Z" fill="white" stroke="white" stroke-width="0.887334"/> <path opacity="0.65" d="M141.273 90.0602H137.44C137.153 90.0602 136.961 89.8686 136.961 89.5811C136.961 89.2936 137.153 89.1019 137.44 89.1019H141.273C141.561 89.1019 141.753 89.2936 141.753 89.5811C141.753 89.8686 141.561 90.0602 141.273 90.0602Z" fill="white" stroke="white" stroke-width="0.887334"/> <path opacity="0.3" d="M152.773 90.0602H148.94C148.653 90.0602 148.461 89.8686 148.461 89.5811C148.461 89.2936 148.653 89.1019 148.94 89.1019H152.773C153.061 89.1019 153.253 89.2936 153.253 89.5811C153.253 89.8686 153.061 90.0602 152.773 90.0602Z" fill="white" stroke="white" stroke-width="0.887334"/> <path opacity="0.86" d="M141.798 88.0959C141.702 88.0959 141.654 88.0959 141.558 88.0479L138.252 86.1313C138.06 85.9876 137.965 85.748 138.108 85.5084C138.252 85.3167 138.492 85.2209 138.731 85.3647L142.037 87.2813C142.229 87.425 142.325 87.6646 142.181 87.9042C142.085 88.0479 141.942 88.0959 141.798 88.0959Z" fill="white" stroke="white" stroke-width="0.887334"/> <path opacity="0.3" d="M151.763 93.8458C151.667 93.8458 151.619 93.8458 151.523 93.7979L148.217 91.8812C148.025 91.7375 147.929 91.4979 148.073 91.2583C148.217 91.0667 148.456 90.9708 148.696 91.1146L152.002 93.0312C152.194 93.175 152.29 93.4146 152.146 93.6541C152.05 93.7979 151.906 93.8458 151.763 93.8458Z" fill="white" stroke="white" stroke-width="0.887334"/> <path opacity="0.44" d="M138.445 93.8456C138.301 93.8456 138.157 93.7498 138.061 93.606C137.918 93.4144 138.013 93.1269 138.205 92.9831L141.511 91.0665C141.703 90.9227 141.991 91.0186 142.134 91.2102C142.278 91.4019 142.182 91.6894 141.991 91.8331L138.684 93.7498C138.636 93.8456 138.541 93.8456 138.445 93.8456Z" fill="white" stroke="white" stroke-width="0.887334"/> <path opacity="0.3" d="M148.413 88.0957C148.27 88.0957 148.126 87.9998 148.03 87.8561C147.886 87.6644 147.982 87.3769 148.174 87.2332L151.48 85.3165C151.672 85.1728 151.959 85.2686 152.103 85.4603C152.247 85.652 152.151 85.9395 151.959 86.0832L148.653 87.9998C148.557 88.0957 148.509 88.0957 148.413 88.0957Z" fill="white" stroke="white" stroke-width="0.887334"/> <path d="M161.738 95.5811H168.926V93.8858H163.754V84.3076H161.738V95.5811ZM174.191 95.753C176.746 95.753 178.301 94.0811 178.301 91.3155V91.2998C178.301 88.5498 176.738 86.878 174.191 86.878C171.652 86.878 170.082 88.5576 170.082 91.2998V91.3155C170.082 94.0811 171.629 95.753 174.191 95.753ZM174.191 94.1748C172.84 94.1748 172.066 93.1201 172.066 91.3233V91.3076C172.066 89.5108 172.84 88.4483 174.191 88.4483C175.535 88.4483 176.309 89.5108 176.309 91.3076V91.3233C176.309 93.1201 175.543 94.1748 174.191 94.1748ZM182.582 95.7217C183.707 95.7217 184.613 95.2373 185.082 94.4092H185.215V95.5811H187.137V89.7451C187.137 87.9405 185.902 86.878 183.707 86.878C181.676 86.878 180.301 87.8311 180.113 89.2686L180.105 89.3389H181.941L181.949 89.3076C182.145 88.7451 182.723 88.4248 183.613 88.4248C184.66 88.4248 185.215 88.8936 185.215 89.7451V90.4795L183.02 90.6123C180.941 90.7373 179.777 91.628 179.777 93.1514V93.167C179.777 94.7217 180.957 95.7217 182.582 95.7217ZM181.699 93.0733V93.0576C181.699 92.3545 182.207 91.9561 183.293 91.8858L185.215 91.7608V92.4483C185.215 93.4639 184.348 94.2295 183.176 94.2295C182.316 94.2295 181.699 93.7998 181.699 93.0733ZM192.551 95.7217C193.754 95.7217 194.676 95.1748 195.145 94.2451H195.277V95.5811H197.23V83.7373H195.277V88.4014H195.145C194.699 87.4795 193.723 86.9014 192.551 86.9014C190.387 86.9014 189.051 88.5889 189.051 91.3076V91.3233C189.051 94.0264 190.41 95.7217 192.551 95.7217ZM193.16 94.0811C191.832 94.0811 191.027 93.042 191.027 91.3233V91.3076C191.027 89.5889 191.84 88.542 193.16 88.542C194.48 88.542 195.309 89.5967 195.309 91.3076V91.3233C195.309 93.0342 194.488 94.0811 193.16 94.0811ZM204.145 95.5811H205.965V87.5655H206.098L209.223 95.5811H210.598L213.723 87.5655H213.863V95.5811H215.676V84.3076H213.363L209.98 92.9795H209.848L206.457 84.3076H204.145V95.5811ZM221.941 95.753C224.496 95.753 226.051 94.0811 226.051 91.3155V91.2998C226.051 88.5498 224.488 86.878 221.941 86.878C219.402 86.878 217.832 88.5576 217.832 91.2998V91.3155C217.832 94.0811 219.379 95.753 221.941 95.753ZM221.941 94.1748C220.59 94.1748 219.816 93.1201 219.816 91.3233V91.3076C219.816 89.5108 220.59 88.4483 221.941 88.4483C223.285 88.4483 224.059 89.5108 224.059 91.3076V91.3233C224.059 93.1201 223.293 94.1748 221.941 94.1748ZM228.004 95.5811H229.949V90.6201C229.949 89.4014 230.801 88.628 232.098 88.628C232.434 88.628 232.754 88.6748 233.066 88.7373V86.9951C232.879 86.9405 232.574 86.9014 232.277 86.9014C231.152 86.9014 230.371 87.4405 230.082 88.3545H229.949V87.042H228.004V95.5811ZM238.098 95.753C240.418 95.753 241.559 94.417 241.832 93.3155L241.855 93.2451H240.004L239.98 93.2998C239.793 93.6905 239.191 94.2217 238.137 94.2217C236.816 94.2217 235.988 93.3311 235.965 91.7998H241.934V91.1592C241.934 88.5811 240.434 86.878 238.004 86.878C235.574 86.878 234.02 88.6358 234.02 91.3233V91.3311C234.02 94.0498 235.559 95.753 238.098 95.753ZM238.027 88.4014C239.113 88.4014 239.902 89.0967 240.035 90.4951H235.98C236.129 89.1358 236.941 88.4014 238.027 88.4014Z" fill="white"/> <path d="M265.034 111.665L264.788 110.272L263.243 110.545L262.997 109.151L259.906 109.696L259.661 108.303L255.025 109.121L254.779 107.728L251.688 108.273L250.706 102.7L249.161 102.972L248.915 101.579L245.824 102.124L246.07 103.517L244.525 103.79L246.735 116.328L245.19 116.601L244.944 115.207L240.308 116.025L241.291 121.597L242.836 121.325L243.328 124.111L244.873 123.839L245.364 126.625L246.91 126.352L247.401 129.139L248.946 128.866L249.683 133.046L266.682 130.048L265.699 124.476L267.244 124.203L266.507 120.024L264.962 120.296L265.699 124.476L264.154 124.748L264.891 128.928L250.983 131.38L250.492 128.594L248.946 128.866L248.455 126.08L246.91 126.352L246.418 123.566L244.873 123.839L244.382 121.052L242.836 121.325L242.099 117.146L245.19 116.601L245.436 117.994L246.981 117.721L247.718 121.901L249.263 121.628L246.07 103.517L249.161 102.972L251.371 115.511L252.917 115.238L251.934 109.666L255.025 109.121L256.007 114.693L257.553 114.421L256.816 110.241L259.906 109.696L260.889 115.269L262.434 114.996L261.697 110.817L263.243 110.545L263.488 111.938L265.034 111.665L266.507 120.024L268.053 119.751L266.579 111.393L265.034 111.665Z" fill="#141B38"/> <path d="M264.964 120.296L266.509 120.024L265.036 111.665L263.49 111.938L263.245 110.545L261.699 110.817L262.436 114.996L260.891 115.269L259.908 109.696L256.818 110.241L257.555 114.421L256.009 114.693L255.027 109.121L251.936 109.666L252.919 115.238L251.373 115.511L249.163 102.972L246.072 103.517L249.265 121.628L247.72 121.901L246.983 117.721L245.438 117.994L245.192 116.601L242.101 117.146L242.838 121.325L244.384 121.052L244.875 123.839L246.42 123.566L246.912 126.352L248.457 126.08L248.948 128.866L250.494 128.594L250.985 131.38L264.893 128.928L264.156 124.748L265.701 124.476L264.964 120.296Z" fill="white"/> <path fill-rule="evenodd" clip-rule="evenodd" d="M259.835 118.328L258.29 118.6L259.448 125.168L260.993 124.895L259.835 118.328ZM256.745 118.873L255.199 119.145L256.358 125.713L257.903 125.44L256.745 118.873ZM252.109 119.69L253.655 119.418L254.813 125.985L253.267 126.258L252.109 119.69Z" fill="#141B38"/> </g> <defs> <linearGradient id="loadMorepaint0_linear" x1="191.324" y1="179.216" x2="194" y2="256" gradientUnits="userSpaceOnUse"> <stop stop-color="#DCDDE1"/> <stop offset="1" stop-color="#DCDDE1" stop-opacity="0"/> </linearGradient> <clipPath id="loadMoreclip0"> <rect width="396" height="264" fill="white"/> </clipPath> </defs> </svg>