<svg width="396" height="264" viewBox="0 0 396 264" fill="none" xmlns="http://www.w3.org/2000/svg"> <g filter="url(#shareCommentfilter0_d)"> <rect x="127.551" y="28" width="174.908" height="193.492" rx="1.09318" transform="rotate(5 127.551 28)" fill="white"/> </g> <path d="M133.482 160.909C134.937 160.999 139.262 161.312 144.922 161.843C151.997 162.507 151.992 162.562 157.984 163.053C163.977 163.544 165.072 163.573 179.768 164.925C194.464 166.277 191.741 166.039 199.367 166.673C206.993 167.307 208.084 167.386 222.236 168.674C233.559 169.705 246.918 170.868 252.182 171.322" stroke="#DCDDE1" stroke-width="8.7454"/> <path d="M131.631 182.052C133.086 182.148 137.41 182.47 143.071 182.996C150.146 183.653 150.142 183.701 156.134 184.196C162.126 184.692 161.584 184.616 176.281 185.959C190.977 187.302 189.889 187.193 198.058 187.9" stroke="#DCDDE1" stroke-width="8.7454"/> <g clip-path="url(#shareCommentclip0)"> <rect x="138.293" y="43.2052" width="150.902" height="95.1063" transform="rotate(5 138.293 43.2052)" fill="#B5E5FF"/> <circle cx="135.215" cy="151.135" r="51.9914" transform="rotate(5 135.215 151.135)" fill="#59AB46"/> <circle cx="289.253" cy="107.33" r="71.0127" transform="rotate(5 289.253 107.33)" fill="#DCDDE1"/> </g> <g filter="url(#shareCommentfilter1_d)"> <rect width="159.664" height="188.649" transform="translate(94.207 33.7212)" fill="white"/> <path d="M110.48 153.365C111.803 153.331 115.736 153.272 120.893 153.305C127.339 153.345 127.339 153.395 132.794 153.365C138.248 153.335 139.24 153.274 152.628 153.335C166.016 153.395 163.536 153.395 170.478 153.365C177.42 153.335 178.412 153.32 191.304 153.365C201.618 153.401 213.782 153.397 218.576 153.39" stroke="#DCDDE1" stroke-width="7.9336"/> <path d="M110.48 172.619C111.803 172.59 115.736 172.539 120.893 172.567C127.339 172.602 127.339 172.645 132.794 172.619C138.248 172.593 137.752 172.567 151.14 172.619C164.528 172.671 163.536 172.659 170.974 172.652" stroke="#DCDDE1" stroke-width="7.9336"/> <g clip-path="url(#shareCommentclip1)"> <rect x="105.523" y="46.6133" width="136.894" height="86.2778" fill="#2C324C"/> <circle cx="133.781" cy="72.3034" r="81.4134" fill="#0068A0"/> <circle cx="262.08" cy="154.986" r="84.5722" fill="#FE544F"/> <path fill-rule="evenodd" clip-rule="evenodd" d="M173.047 106.115C182.084 106.115 189.41 98.7893 189.41 89.7523C189.41 80.7152 182.084 73.3892 173.047 73.3892C164.01 73.3892 156.684 80.7152 156.684 89.7523C156.684 98.7893 164.01 106.115 173.047 106.115ZM179.49 90.2482L168.235 83.6549V96.8415L179.49 90.2482Z" fill="white"/> </g> <path d="M140.397 211.62C140.228 211.62 140.066 211.552 139.946 211.433C139.827 211.313 139.76 211.151 139.76 210.982V209.069H137.209C136.871 209.069 136.546 208.934 136.307 208.695C136.068 208.456 135.934 208.132 135.934 207.793V200.141C135.934 199.803 136.068 199.479 136.307 199.239C136.546 199 136.871 198.866 137.209 198.866H147.412C147.75 198.866 148.075 199 148.314 199.239C148.553 199.479 148.687 199.803 148.687 200.141V207.793C148.687 208.132 148.553 208.456 148.314 208.695C148.075 208.934 147.75 209.069 147.412 209.069H143.522L141.163 211.435C141.035 211.556 140.876 211.62 140.716 211.62H140.397Z" fill="#8C8F9A"/> <g clip-path="url(#shareCommentclip2)"> <path d="M124.088 202.692C124.088 202.305 123.934 201.935 123.661 201.661C123.388 201.388 123.017 201.234 122.63 201.234H118.024L118.724 197.904C118.739 197.831 118.746 197.751 118.746 197.671C118.746 197.372 118.622 197.095 118.425 196.898L117.653 196.133L112.857 200.928C112.588 201.198 112.427 201.562 112.427 201.963V209.251C112.427 209.638 112.581 210.008 112.854 210.282C113.128 210.555 113.498 210.709 113.885 210.709H120.444C121.049 210.709 121.566 210.344 121.785 209.82L123.986 204.682C124.051 204.514 124.088 204.339 124.088 204.15V202.692ZM108.055 210.709H110.97V201.963H108.055V210.709Z" fill="#0096CC"/> </g> </g> <path d="M240.692 203.056L235.591 197.955V200.87C230.489 201.599 228.303 205.243 227.574 208.887C229.396 206.336 231.947 205.17 235.591 205.17V208.158L240.692 203.056Z" fill="#8C8F9A"/> <defs> <filter id="shareCommentfilter0_d" x="103.125" y="24.8115" width="206.229" height="223.122" filterUnits="userSpaceOnUse" color-interpolation-filters="sRGB"> <feFlood flood-opacity="0" result="BackgroundImageFix"/> <feColorMatrix in="SourceAlpha" type="matrix" values="0 0 0 0 0 0 0 0 0 0 0 0 0 0 0 0 0 0 127 0"/> <feOffset dy="4.3727"/> <feGaussianBlur stdDeviation="3.82611"/> <feColorMatrix type="matrix" values="0 0 0 0 0 0 0 0 0 0 0 0 0 0 0 0 0 0 0.16 0"/> <feBlend mode="normal" in2="BackgroundImageFix" result="effect1_dropShadow"/> <feBlend mode="normal" in="SourceGraphic" in2="effect1_dropShadow" result="shape"/> </filter> <filter id="shareCommentfilter1_d" x="86.2734" y="29.7544" width="175.531" height="204.516" filterUnits="userSpaceOnUse" color-interpolation-filters="sRGB"> <feFlood flood-opacity="0" result="BackgroundImageFix"/> <feColorMatrix in="SourceAlpha" type="matrix" values="0 0 0 0 0 0 0 0 0 0 0 0 0 0 0 0 0 0 127 0"/> <feMorphology radius="2.9751" operator="erode" in="SourceAlpha" result="effect1_dropShadow"/> <feOffset dy="3.9668"/> <feGaussianBlur stdDeviation="5.45435"/> <feColorMatrix type="matrix" values="0 0 0 0 0 0 0 0 0 0 0 0 0 0 0 0 0 0 0.25 0"/> <feBlend mode="normal" in2="BackgroundImageFix" result="effect1_dropShadow"/> <feBlend mode="normal" in="SourceGraphic" in2="effect1_dropShadow" result="shape"/> </filter> <clipPath id="shareCommentclip0"> <rect width="150.902" height="95.1063" fill="white" transform="translate(138.293 43.2052) rotate(5)"/> </clipPath> <clipPath id="shareCommentclip1"> <rect width="136.894" height="86.2778" fill="white" transform="translate(105.523 46.6133)"/> </clipPath> <clipPath id="shareCommentclip2"> <rect width="17.4908" height="17.4908" fill="white" transform="translate(107.324 195.404)"/> </clipPath> </defs> </svg>