<svg width="396" height="264" viewBox="0 0 396 264" fill="none" xmlns="http://www.w3.org/2000/svg"> <rect x="156" y="45.3642" width="160" height="177" rx="1" transform="rotate(5 156 45.3642)" fill="white"/> <path d="M161.424 166.945C162.755 167.027 166.712 167.314 171.889 167.799C178.361 168.406 178.356 168.457 183.838 168.906C189.32 169.355 190.321 169.381 203.764 170.619C217.208 171.856 214.717 171.638 221.693 172.218C228.669 172.798 229.667 172.87 242.613 174.048C252.971 174.991 265.191 176.055 270.007 176.47" stroke="#DCDDE1" stroke-width="8"/> <path d="M159.733 186.286C161.064 186.373 165.02 186.668 170.198 187.149C176.67 187.75 176.666 187.794 182.147 188.247C187.629 188.7 187.133 188.631 200.577 189.86C214.021 191.088 213.026 190.989 220.498 191.635" stroke="#DCDDE1" stroke-width="8"/> <g clip-path="url(#photosPoupclip0)"> <rect x="165.824" y="59.2734" width="138.04" height="87" transform="rotate(5 165.824 59.2734)" fill="#B5E5FF"/> <circle cx="163.009" cy="158.004" r="47.56" transform="rotate(5 163.009 158.004)" fill="#59AB46"/> <circle cx="303.916" cy="117.932" r="64.96" transform="rotate(5 303.916 117.932)" fill="#0096CC"/> </g> <g filter="url(#photosPoupfilter0_f)"> <rect x="95" y="36" width="154" height="176" rx="1" fill="black" fill-opacity="0.15"/> </g> <rect x="80" y="28" width="160" height="177" rx="1" fill="white"/> <path d="M96 148.645C97.3333 148.611 101.3 148.552 106.5 148.584C113 148.625 113 148.676 118.5 148.645C124 148.615 125 148.554 138.5 148.615C152 148.676 149.5 148.676 156.5 148.645C163.5 148.615 164.5 148.6 177.5 148.645C187.9 148.682 200.167 148.677 205 148.671" stroke="#DCDDE1" stroke-width="8"/> <path d="M96 168.061C97.3333 168.031 101.3 167.98 106.5 168.008C113 168.043 113 168.087 118.5 168.061C124 168.034 123.5 168.008 137 168.061C150.5 168.113 149.5 168.101 157 168.093" stroke="#DCDDE1" stroke-width="8"/> <g clip-path="url(#photosPoupclip1)"> <rect x="91" y="41" width="138.04" height="87" fill="#F9BBA0"/> <circle cx="96.8002" cy="139.6" r="47.56" fill="#EC352F"/> <circle cx="233.679" cy="87.4" r="64.96" fill="#59AB46"/> </g> <defs> <filter id="photosPoupfilter0_f" x="81" y="22" width="182" height="204" filterUnits="userSpaceOnUse" color-interpolation-filters="sRGB"> <feFlood flood-opacity="0" result="BackgroundImageFix"/> <feBlend mode="normal" in="SourceGraphic" in2="BackgroundImageFix" result="shape"/> <feGaussianBlur stdDeviation="7" result="effect1_foregroundBlur"/> </filter> <clipPath id="photosPoupclip0"> <rect width="138.04" height="87" fill="white" transform="translate(165.824 59.2734) rotate(5)"/> </clipPath> <clipPath id="photosPoupclip1"> <rect width="138.04" height="87" fill="white" transform="translate(91 41)"/> </clipPath> </defs> </svg>