<svg width="396" height="264" viewBox="0 0 396 264" fill="none" xmlns="http://www.w3.org/2000/svg"> <g filter="url(#postLayoutfilter0_d)"> <rect width="169.359" height="187.354" transform="translate(45.7344 25.3549) rotate(-3)" fill="white"/> <path d="M69.332 151.996C70.7395 151.887 74.9292 151.604 80.4276 151.35C87.3007 151.033 87.3035 151.086 93.1155 150.75C98.9276 150.413 99.9813 150.293 114.255 149.61C128.528 148.926 125.886 149.064 133.283 148.645C140.681 148.225 141.737 148.153 155.481 147.481C166.477 146.944 179.443 146.259 184.551 145.984" stroke="#DCDDE1" stroke-width="8.46797"/> <path d="M70.4057 172.519C71.8135 172.414 76.0036 172.14 81.5018 171.882C88.3745 171.559 88.3769 171.605 94.1892 171.272C100.002 170.94 99.4716 170.94 113.745 170.248C128.018 169.555 126.96 169.598 134.887 169.174" stroke="#DCDDE1" stroke-width="8.46797"/> <g clip-path="url(#postLayoutclip0)"> <rect x="58.082" y="38.4871" width="146.115" height="92.0892" transform="rotate(-3 58.082 38.4871)" fill="#8C8F9A"/> <circle cx="89.6383" cy="64.2915" r="86.8971" transform="rotate(-3 89.6383 64.2915)" fill="#0068A0"/> <circle cx="231.01" cy="145.256" r="90.2686" transform="rotate(-3 231.01 145.256)" fill="#FE544F"/> </g> </g> <rect x="175.465" y="60.8865" width="169.177" height="150.051" rx="3.69355" transform="rotate(10 175.465 60.8865)" fill="#F3F4F5"/> <g filter="url(#postLayoutfilter1_d)"> <rect x="178.789" y="66.0789" width="162.516" height="140.355" transform="rotate(10 178.789 66.0789)" fill="white"/> </g> <path d="M238.203 97.8082C239.182 97.9808 242.094 98.4943 245.912 99.1674C250.684 100.009 250.684 100.009 254.722 100.721C258.76 101.433 259.494 101.562 269.405 103.31C279.316 105.058 277.481 104.734 282.62 105.64C287.759 106.546 288.493 106.676 298.037 108.359C305.673 109.705 314.678 111.293 318.227 111.918" stroke="#DCDDE1" stroke-width="7.3871"/> <path d="M225.375 170.557C226.354 170.73 229.266 171.243 233.084 171.916C237.856 172.758 237.856 172.758 241.894 173.47C245.932 174.182 246.666 174.311 256.577 176.059C266.488 177.806 264.653 177.483 269.792 178.389C274.931 179.295 275.665 179.424 285.209 181.107C292.844 182.454 301.85 184.042 305.399 184.667" stroke="#DCDDE1" stroke-width="7.3871"/> <path d="M235.426 113.57C236.406 113.743 239.324 114.258 243.148 114.932C247.928 115.775 247.928 115.775 251.973 116.488C256.018 117.201 255.65 117.137 265.579 118.887C275.507 120.638 274.772 120.508 280.287 121.481" stroke="#DCDDE1" stroke-width="7.3871"/> <path d="M222.598 186.319C223.578 186.492 226.495 187.006 230.32 187.681C235.1 188.524 235.1 188.524 239.145 189.237C243.19 189.95 242.822 189.885 252.751 191.636C262.679 193.387 261.944 193.257 267.459 194.229" stroke="#DCDDE1" stroke-width="7.3871"/> <g clip-path="url(#postLayoutclip1)"> <rect width="39.3979" height="39.3979" transform="translate(186.992 76.2765) rotate(10)" fill="#86D0F9"/> <circle cx="177.478" cy="109.837" r="26.9121" transform="rotate(10 177.478 109.837)" fill="#0068A0"/> </g> <g clip-path="url(#postLayoutclip2)"> <rect width="39.3979" height="39.3979" transform="translate(174.164 149.025) rotate(10)" fill="#F6966B"/> <circle cx="215.291" cy="179.013" r="26.9121" transform="rotate(10 215.291 179.013)" fill="#EC352F"/> </g> <line x1="167.564" y1="129.734" x2="327.611" y2="157.955" stroke="#E8E8EB" stroke-width="1.23118"/> <defs> <filter id="postLayoutfilter0_d" x="37.2664" y="12.2573" width="195.869" height="212.897" filterUnits="userSpaceOnUse" color-interpolation-filters="sRGB"> <feFlood flood-opacity="0" result="BackgroundImageFix"/> <feColorMatrix in="SourceAlpha" type="matrix" values="0 0 0 0 0 0 0 0 0 0 0 0 0 0 0 0 0 0 127 0"/> <feMorphology radius="3.17549" operator="erode" in="SourceAlpha" result="effect1_dropShadow"/> <feOffset dy="4.23399"/> <feGaussianBlur stdDeviation="5.82173"/> <feColorMatrix type="matrix" values="0 0 0 0 0 0 0 0 0 0 0 0 0 0 0 0 0 0 0.25 0"/> <feBlend mode="normal" in2="BackgroundImageFix" result="effect1_dropShadow"/> <feBlend mode="normal" in="SourceGraphic" in2="effect1_dropShadow" result="shape"/> </filter> <filter id="postLayoutfilter1_d" x="142.038" y="58.2005" width="209.18" height="191.204" filterUnits="userSpaceOnUse" color-interpolation-filters="sRGB"> <feFlood flood-opacity="0" result="BackgroundImageFix"/> <feColorMatrix in="SourceAlpha" type="matrix" values="0 0 0 0 0 0 0 0 0 0 0 0 0 0 0 0 0 0 127 0"/> <feOffset dy="4.5019"/> <feGaussianBlur stdDeviation="6.19011"/> <feColorMatrix type="matrix" values="0 0 0 0 0 0 0 0 0 0 0 0 0 0 0 0 0 0 0.05 0"/> <feBlend mode="normal" in2="BackgroundImageFix" result="effect1_dropShadow"/> <feBlend mode="normal" in="SourceGraphic" in2="effect1_dropShadow" result="shape"/> </filter> <clipPath id="postLayoutclip0"> <rect width="146.115" height="92.0892" fill="white" transform="translate(58.082 38.4871) rotate(-3)"/> </clipPath> <clipPath id="postLayoutclip1"> <rect width="39.3979" height="39.3979" fill="white" transform="translate(186.992 76.2765) rotate(10)"/> </clipPath> <clipPath id="postLayoutclip2"> <rect width="39.3979" height="39.3979" fill="white" transform="translate(174.164 149.025) rotate(10)"/> </clipPath> </defs> </svg>