<svg width="396" height="264" viewBox="0 0 396 264" fill="none" xmlns="http://www.w3.org/2000/svg"><g clip-path="url(#clip0)"><g filter="url(#filter0_d)"><rect x="78" y="28" width="240.612" height="103.119" rx="3.68284" fill="white"/></g><path d="M150.429 40.2761L153.212 46.2674L159.77 47.0622L154.931 51.5598L156.202 58.0423L150.429 54.8307L144.657 58.0423L145.927 51.5598L141.089 47.0622L147.647 46.2674L150.429 40.2761Z" fill="#FE544F"/><path d="M173.754 40.2761L176.536 46.2674L183.094 47.0622L178.256 51.5598L179.526 58.0423L173.754 54.8307L167.981 58.0423L169.252 51.5598L164.413 47.0622L170.971 46.2674L173.754 40.2761Z" fill="#FE544F"/><path d="M197.079 40.2761L199.861 46.2674L206.419 47.0622L201.581 51.5598L202.851 58.0423L197.079 54.8307L191.306 58.0423L192.577 51.5598L187.738 47.0622L194.296 46.2674L197.079 40.2761Z" fill="#FE544F"/><path d="M220.403 40.2761L223.185 46.2674L229.743 47.0622L224.905 51.5598L226.176 58.0423L220.403 54.8307L214.63 58.0423L215.901 51.5598L211.063 47.0622L217.621 46.2674L220.403 40.2761Z" fill="#FE544F"/><path d="M243.727 40.2761L246.51 46.2674L253.067 47.0622L248.229 51.5598L249.5 58.0423L243.727 54.8307L237.955 58.0423L239.225 51.5598L234.387 47.0622L240.945 46.2674L243.727 40.2761Z" fill="#FE544F"/><circle cx="107.463" cy="56.2351" r="17.1866" fill="#E8E8EB"/><path d="M143.017 86.1655C146.086 86.1177 155.415 86.0326 168.183 86.0743C184.142 86.1264 189.052 86.2567 211.149 86.1134C233.246 85.97 254.729 86.1394 262.709 86.1394C269.092 86.1394 283.374 86.096 289.716 86.0743" stroke="#DCDDE1" stroke-width="7.36567"/><path d="M143.04 104.195C147.132 104.145 158.876 104.074 173.117 104.195C187.357 104.317 207.694 104.212 216.083 104.145" stroke="#DCDDE1" stroke-width="7.36567"/><g filter="url(#filter1_d)"><rect x="78" y="140.94" width="240.612" height="103.119" rx="3.68284" fill="white"/></g><path d="M150.429 153.216L153.212 159.208L159.77 160.002L154.931 164.5L156.202 170.983L150.429 167.771L144.657 170.983L145.927 164.5L141.089 160.002L147.647 159.208L150.429 153.216Z" fill="#59AB46"/><path d="M173.754 153.216L176.536 159.208L183.094 160.002L178.256 164.5L179.526 170.983L173.754 167.771L167.981 170.983L169.252 164.5L164.413 160.002L170.971 159.208L173.754 153.216Z" fill="#59AB46"/><path d="M197.079 153.216L199.861 159.208L206.419 160.002L201.581 164.5L202.851 170.983L197.079 167.771L191.306 170.983L192.577 164.5L187.738 160.002L194.296 159.208L197.079 153.216Z" fill="#59AB46"/><path d="M220.403 153.216L223.185 159.208L229.743 160.002L224.905 164.5L226.176 170.983L220.403 167.771L214.63 170.983L215.901 164.5L211.063 160.002L217.621 159.208L220.403 153.216Z" fill="#59AB46"/><path d="M243.727 153.216L246.51 159.208L253.067 160.002L248.229 164.5L249.5 170.983L243.727 167.771L237.955 170.983L239.225 164.5L234.387 160.002L240.945 159.208L243.727 153.216Z" fill="#59AB46"/><circle cx="107.463" cy="169.175" r="17.1866" fill="#E8E8EB"/><path d="M143.063 212.209C147.156 212.158 158.9 212.087 173.14 212.209C187.38 212.33 207.718 212.226 216.106 212.158" stroke="#DCDDE1" stroke-width="7.36567"/><path d="M143.063 192.25C152.884 192.191 162.337 192.154 190.327 192.269C201.989 192.315 225.313 192.282 230.224 192.269C235.134 192.256 249.252 192.243 265.211 192.295C277.978 192.337 284.648 192.306 287.308 192.295" stroke="#DCDDE1" stroke-width="7.36567"/><g filter="url(#filter2_d)"><rect x="78" y="253.881" width="240.612" height="103.119" rx="3.68284" fill="white"/></g></g><defs><filter id="filter0_d" x="68.1791" y="23.0896" width="260.254" height="122.761" filterUnits="userSpaceOnUse" color-interpolation-filters="sRGB"><feFlood flood-opacity="0" result="BackgroundImageFix"/><feColorMatrix in="SourceAlpha" type="matrix" values="0 0 0 0 0 0 0 0 0 0 0 0 0 0 0 0 0 0 127 0"/><feMorphology radius="3.68284" operator="erode" in="SourceAlpha" result="effect1_dropShadow"/><feOffset dy="4.91045"/><feGaussianBlur stdDeviation="6.75187"/><feColorMatrix type="matrix" values="0 0 0 0 0 0 0 0 0 0 0 0 0 0 0 0 0 0 0.15 0"/><feBlend mode="normal" in2="BackgroundImageFix" result="effect1_dropShadow"/><feBlend mode="normal" in="SourceGraphic" in2="effect1_dropShadow" result="shape"/></filter><filter id="filter1_d" x="68.1791" y="136.03" width="260.254" height="122.761" filterUnits="userSpaceOnUse" color-interpolation-filters="sRGB"><feFlood flood-opacity="0" result="BackgroundImageFix"/><feColorMatrix in="SourceAlpha" type="matrix" values="0 0 0 0 0 0 0 0 0 0 0 0 0 0 0 0 0 0 127 0"/><feMorphology radius="3.68284" operator="erode" in="SourceAlpha" result="effect1_dropShadow"/><feOffset dy="4.91045"/><feGaussianBlur stdDeviation="6.75187"/><feColorMatrix type="matrix" values="0 0 0 0 0 0 0 0 0 0 0 0 0 0 0 0 0 0 0.15 0"/><feBlend mode="normal" in2="BackgroundImageFix" result="effect1_dropShadow"/><feBlend mode="normal" in="SourceGraphic" in2="effect1_dropShadow" result="shape"/></filter><filter id="filter2_d" x="68.1791" y="248.97" width="260.254" height="122.761" filterUnits="userSpaceOnUse" color-interpolation-filters="sRGB"><feFlood flood-opacity="0" result="BackgroundImageFix"/><feColorMatrix in="SourceAlpha" type="matrix" values="0 0 0 0 0 0 0 0 0 0 0 0 0 0 0 0 0 0 127 0"/><feMorphology radius="3.68284" operator="erode" in="SourceAlpha" result="effect1_dropShadow"/><feOffset dy="4.91045"/><feGaussianBlur stdDeviation="6.75187"/><feColorMatrix type="matrix" values="0 0 0 0 0 0 0 0 0 0 0 0 0 0 0 0 0 0 0.15 0"/><feBlend mode="normal" in2="BackgroundImageFix" result="effect1_dropShadow"/><feBlend mode="normal" in="SourceGraphic" in2="effect1_dropShadow" result="shape"/></filter><clipPath id="clip0"><rect width="396" height="264" fill="white"/></clipPath></defs></svg>