<svg width="396" height="264" viewBox="0 0 396 264" fill="none" xmlns="http://www.w3.org/2000/svg"><g clip-path="url(#clip0)"><g filter="url(#filter0_d)"><rect x="100.686" y="67.5616" width="219.616" height="144.658" rx="3.94521" fill="white"/></g><g filter="url(#filter1_d)"><rect x="90.1641" y="55.726" width="219.616" height="144.658" rx="3.94521" fill="white"/></g><g filter="url(#filter2_d)"><rect x="77.0137" y="42.5753" width="219.616" height="144.658" rx="3.94521" fill="white"/></g><g clip-path="url(#clip1)"><rect x="84.9043" y="50.4658" width="203.836" height="128.877" rx="2.63014" fill="#E2F5FF"/><path d="M141.451 179.342H288.739V50.4658H141.451V179.342Z" fill="#86D0F9"/><path d="M178.273 179.342H288.739V101.753H182.219C180.04 101.753 178.273 103.52 178.273 105.699V179.342Z" fill="#8C8F9A"/><mask id="path-7-inside-1" fill="white"><path d="M154.603 156.329C154.603 164.512 151.723 172.435 146.468 178.708C141.213 184.981 133.918 189.205 125.861 190.639C117.804 192.073 109.5 190.626 102.403 186.552C95.3056 182.477 89.8688 176.035 87.0449 168.354L106.307 161.273C107.468 164.43 109.703 167.078 112.621 168.754C115.538 170.429 118.952 171.023 122.264 170.434C125.577 169.844 128.576 168.108 130.736 165.529C132.896 162.95 134.08 159.693 134.08 156.329H154.603Z"/></mask><path d="M154.603 156.329C154.603 164.512 151.723 172.435 146.468 178.708C141.213 184.981 133.918 189.205 125.861 190.639C117.804 192.073 109.5 190.626 102.403 186.552C95.3056 182.477 89.8688 176.035 87.0449 168.354L106.307 161.273C107.468 164.43 109.703 167.078 112.621 168.754C115.538 170.429 118.952 171.023 122.264 170.434C125.577 169.844 128.576 168.108 130.736 165.529C132.896 162.95 134.08 159.693 134.08 156.329H154.603Z" stroke="#59AB46" stroke-width="42.5936" mask="url(#path-7-inside-1)"/></g></g><circle cx="84.2462" cy="55.0685" r="19.0685" fill="#FE544F"/><path d="M77.1625 61.8904H79.9827V50.7714H77.1625L74.3346 52.6978V55.1327L77.0161 53.3219H77.1625V61.8904ZM82.5256 61.8904H85.5307L87.6805 58.2842H87.7499L89.9151 61.8904H93.0898L89.5761 56.3271V56.2885L93.1206 50.7714H89.9767L87.9502 54.5394H87.8732L85.8312 50.7714H82.5256L85.9237 56.2577V56.3039L82.5256 61.8904Z" fill="white"/><defs><filter id="filter0_d" x="90.165" y="62.3014" width="240.658" height="165.699" filterUnits="userSpaceOnUse" color-interpolation-filters="sRGB"><feFlood flood-opacity="0" result="BackgroundImageFix"/><feColorMatrix in="SourceAlpha" type="matrix" values="0 0 0 0 0 0 0 0 0 0 0 0 0 0 0 0 0 0 127 0"/><feMorphology radius="3.94521" operator="erode" in="SourceAlpha" result="effect1_dropShadow"/><feOffset dy="5.26027"/><feGaussianBlur stdDeviation="7.23288"/><feColorMatrix type="matrix" values="0 0 0 0 0 0 0 0 0 0 0 0 0 0 0 0 0 0 0.25 0"/><feBlend mode="normal" in2="BackgroundImageFix" result="effect1_dropShadow"/><feBlend mode="normal" in="SourceGraphic" in2="effect1_dropShadow" result="shape"/></filter><filter id="filter1_d" x="79.6435" y="50.4658" width="240.658" height="165.699" filterUnits="userSpaceOnUse" color-interpolation-filters="sRGB"><feFlood flood-opacity="0" result="BackgroundImageFix"/><feColorMatrix in="SourceAlpha" type="matrix" values="0 0 0 0 0 0 0 0 0 0 0 0 0 0 0 0 0 0 127 0"/><feMorphology radius="3.94521" operator="erode" in="SourceAlpha" result="effect1_dropShadow"/><feOffset dy="5.26027"/><feGaussianBlur stdDeviation="7.23288"/><feColorMatrix type="matrix" values="0 0 0 0 0 0 0 0 0 0 0 0 0 0 0 0 0 0 0.25 0"/><feBlend mode="normal" in2="BackgroundImageFix" result="effect1_dropShadow"/><feBlend mode="normal" in="SourceGraphic" in2="effect1_dropShadow" result="shape"/></filter><filter id="filter2_d" x="66.4931" y="37.3151" width="240.658" height="165.699" filterUnits="userSpaceOnUse" color-interpolation-filters="sRGB"><feFlood flood-opacity="0" result="BackgroundImageFix"/><feColorMatrix in="SourceAlpha" type="matrix" values="0 0 0 0 0 0 0 0 0 0 0 0 0 0 0 0 0 0 127 0"/><feMorphology radius="3.94521" operator="erode" in="SourceAlpha" result="effect1_dropShadow"/><feOffset dy="5.26027"/><feGaussianBlur stdDeviation="7.23288"/><feColorMatrix type="matrix" values="0 0 0 0 0 0 0 0 0 0 0 0 0 0 0 0 0 0 0.25 0"/><feBlend mode="normal" in2="BackgroundImageFix" result="effect1_dropShadow"/><feBlend mode="normal" in="SourceGraphic" in2="effect1_dropShadow" result="shape"/></filter><clipPath id="clip0"><rect width="264.329" height="190.685" fill="white" transform="translate(66.4922 37.3151)"/></clipPath><clipPath id="clip1"><rect x="84.9043" y="50.4658" width="203.836" height="128.877" rx="2.63014" fill="white"/></clipPath></defs></svg>