<svg width="396" height="264" viewBox="0 0 396 264" fill="none" xmlns="http://www.w3.org/2000/svg"> <g filter="url(#videoPopupfilter0_d)"> <rect width="177.175" height="196" transform="translate(109.412 34)" fill="white"/> <path d="M127.131 167.596C128.607 167.558 133 167.493 138.758 167.529C145.956 167.573 145.956 167.629 152.046 167.596C158.137 167.562 159.244 167.495 174.193 167.562C189.142 167.629 186.374 167.629 194.125 167.596C201.877 167.562 202.984 167.545 217.379 167.596C228.896 167.636 242.479 167.631 247.831 167.624" stroke="#DCDDE1" stroke-width="8.85876"/> <path d="M127.131 189.095C128.607 189.063 133 189.006 138.758 189.037C145.956 189.076 145.956 189.124 152.046 189.095C158.137 189.066 157.583 189.037 172.532 189.095C187.481 189.153 186.374 189.14 194.679 189.132" stroke="#DCDDE1" stroke-width="8.85876"/> <g clip-path="url(#videoPopupclip0)"> <rect x="121.594" y="48.3955" width="152.858" height="96.339" fill="#FE544F"/> <circle cx="153.147" cy="77.0815" r="90.9072" fill="#0096CC"/> <circle cx="296.411" cy="169.406" r="94.4344" fill="#DCDDE1"/> <path fill-rule="evenodd" clip-rule="evenodd" d="M196.994 114.836C207.085 114.836 215.265 106.656 215.265 96.565C215.265 86.4741 207.085 78.2938 196.994 78.2938C186.903 78.2938 178.723 86.4741 178.723 96.565C178.723 106.656 186.903 114.836 196.994 114.836ZM204.192 97.1186L191.624 89.7565V104.481L204.192 97.1186Z" fill="white"/> </g> </g> <defs> <filter id="videoPopupfilter0_d" x="100.553" y="29.5706" width="194.893" height="213.718" filterUnits="userSpaceOnUse" color-interpolation-filters="sRGB"> <feFlood flood-opacity="0" result="BackgroundImageFix"/> <feColorMatrix in="SourceAlpha" type="matrix" values="0 0 0 0 0 0 0 0 0 0 0 0 0 0 0 0 0 0 127 0"/> <feMorphology radius="3.32203" operator="erode" in="SourceAlpha" result="effect1_dropShadow"/> <feOffset dy="4.42938"/> <feGaussianBlur stdDeviation="6.0904"/> <feColorMatrix type="matrix" values="0 0 0 0 0 0 0 0 0 0 0 0 0 0 0 0 0 0 0.25 0"/> <feBlend mode="normal" in2="BackgroundImageFix" result="effect1_dropShadow"/> <feBlend mode="normal" in="SourceGraphic" in2="effect1_dropShadow" result="shape"/> </filter> <clipPath id="videoPopupclip0"> <rect width="152.858" height="96.339" fill="white" transform="translate(121.594 48.3955)"/> </clipPath> </defs> </svg>