<?xml version="1.0" encoding="utf-8"?>
<!-- Generator: Adobe Illustrator 26.0.1, SVG Export Plug-In . SVG Version: 6.00 Build 0)  -->
<svg version="1.1" id="Warstwa_1" xmlns="http://www.w3.org/2000/svg" xmlns:xlink="http://www.w3.org/1999/xlink" x="0px" y="0px"
	 viewBox="-6 -6 28 28" style="enable-background:new 0 0 16 16;" xml:space="preserve">
<path class="st0" d="M15.2890015,8.5991211L15,8.3101196V3c0-1.6542969-1.3457031-3-3-3S9,1.3457031,9,3v1.0985718
	L3.2050781,9.8939209l5.394104,5.394104C9.0577393,15.746582,9.6676025,16,10.315979,16s1.2583008-0.253418,1.7163696-0.7119751
	l3.2566528-3.2561646C15.7475586,11.5733032,16,10.9638672,16,10.3150024C16,9.6671143,15.7475586,9.0567017,15.2890015,8.5991211z
	 M11,3c0-0.5517578,0.4487305-1,1-1s1,0.4482422,1,1v3.3099365l-2-2.0001831V3z M13.861084,10.6039429l-3.2571411,3.2561646
	c-0.2080688,0.2090454-0.3673096,0.2090454-0.576355,0L6.0609131,9.8939209L9,6.9544067V9h2V7.1655884l2.861084,2.8614502
	c0.1040649,0.1035767,0.1193237,0.2258301,0.1193237,0.2879639C13.9804077,10.3781128,13.9651489,10.5003662,13.861084,10.6039429z
	 M3.4956055,13.5097656l-0.0083008-0.0186768c-0.0032349-0.0078125-0.006897-0.0153198-0.0102539-0.0230713l-1.0297852-2.317627
	c-0.2226562-0.5-1.0444336-0.5-1.2680664,0l-1.0322266,2.3231812c-0.0019531,0.0045166-0.0040894,0.0088501-0.0059814,0.0134277
	l-0.0101318,0.0227661l0.0026855,0.0011597C0.0491333,13.7201538,0,13.9474487,0,14.1865234C0,15.1865234,0.8134766,16,1.8134766,16
	s1.8134766-0.8134766,1.8134766-1.8134766c0-0.2391968-0.0490723-0.4665527-0.1335449-0.6757812L3.4956055,13.5097656z"/>
</svg>
