<?xml version="1.0" encoding="utf-8"?>
<!-- Generator: Adobe Illustrator 26.0.1, SVG Export Plug-In . SVG Version: 6.00 Build 0)  -->
<svg version="1.1" id="Warstwa_1" xmlns="http://www.w3.org/2000/svg" xmlns:xlink="http://www.w3.org/1999/xlink" x="0px" y="0px"
	 viewBox="-6 -6 28 28" style="enable-background:new 0 0 16 16;" xml:space="preserve">
<g>
	<g>
		<polygon class="st0" points="16,3.5 14,3.5 14,2 12.5,2 12.5,0 16,0 		"/>
	</g>
	<g>
		<rect x="6.5" class="st0" width="3" height="2"/>
	</g>
	<g>
		<polygon class="st0" points="2,3.5 0,3.5 0,0 3.5,0 3.5,2 2,2 		"/>
	</g>
	<g>
		<rect y="6.5" class="st0" width="2" height="3"/>
	</g>
	<g>
		<polygon class="st0" points="3.5,16 0,16 0,12.5 2,12.5 2,14 3.5,14 		"/>
	</g>
	<g>
		<rect x="6.5" y="14" class="st0" width="3" height="2"/>
	</g>
	<g>
		<polygon class="st0" points="16,16 12.5,16 12.5,14 14,14 14,12.5 16,12.5 		"/>
	</g>
	<g>
		<rect x="14" y="6.5" class="st0" width="2" height="3"/>
	</g>
</g>
</svg>
