<?xml version="1.0" encoding="UTF-8"?>
<svg id="Layer_2" data-name="Layer 2" xmlns="http://www.w3.org/2000/svg" viewBox="0 0 51.12 45.84">
  <defs>
  </defs>
  <g id="Warstwa_1" data-name="Warstwa 1">
    <path id="Path_6715" data-name="Path 6715" style="fill: #fff" d="m50.57,21.27L38.6.98c-.09-.15-.21-.29-.34-.42-.03-.03-.07-.07-.1-.09-.13-.11-.27-.21-.43-.28-.02,0-.04-.01-.07-.02-.14-.06-.29-.1-.44-.13-.04,0-.09-.01-.13-.02-.18-.02-.36-.02-.53,0h-.02l-.73.12-.42.52c-.06.06-.11.13-.16.2l-3.24,4h0l-9.77,12.12-15.34,2.69,9.26-11.6c.31-.38.75-.64,1.23-.73l10.87-1.85,3.82-4.71-15.37,2.61c-1.46.25-2.77,1.02-3.69,2.18L.44,21.32s0,.01-.01.02c-.11.14-.2.29-.26.46-.02.04-.03.08-.04.12-.05.15-.09.31-.11.48,0,.01,0,.03,0,.04,0,.18,0,.35.04.52,0,.04.02.08.03.12.04.17.11.34.2.5H.28l11.96,20.28c.85,1.44,2.5,2.2,4.15,1.91l15.91-2.79c-.09-.12-.17-.24-.25-.37l-1.95-3.31-14.4,2.52L5.2,24.04l18.45-3.23c.48-.08.91-.34,1.21-.72l11.75-14.58,10.49,17.79-10.88,13.5-8.83-14.97-.15.18c-.77.96-1.86,1.6-3.07,1.82l-.23.04,10.29,17.46c.33.57.92.93,1.58.98h.15c.61,0,1.18-.27,1.56-.74l12.7-15.75c1.04-1.3,1.18-3.11.33-4.56"/>
  </g>
</svg>