<?xml version="1.0" encoding="UTF-8"?>
<svg id="Layer_1" data-name="Layer 1" xmlns="http://www.w3.org/2000/svg" viewBox="0 0 94 36">
  <g id="color3">
    <rect width="94" height="36" style="fill: #f1f5f9; stroke-width: 0px;"/>
  </g>
  <path d="m62.95,14.02c-.63-.78-1.57-1.23-2.58-1.23h-4l-4.51-7.55c-.46-.77-1.46-1.03-2.24-.56-.77.46-1.02,1.46-.56,2.24l6.26,10.48c.3.51.85.79,1.4.79.28,0,.57-.07.84-.23.67-.4.91-1.19.68-1.9h2.14l-2.1,10.01c-.29,1.36-1.51,2.34-2.89,2.34h-16.75c-1.39,0-2.6-.98-2.89-2.34l-2.1-10.01h2.14c-.23.71.02,1.5.68,1.9.26.16.55.23.83.23.56,0,1.1-.28,1.4-.79l6.26-10.48c.46-.77.21-1.77-.56-2.24-.77-.46-1.77-.21-2.24.56l-4.51,7.55h-4.01c-1.01,0-1.95.45-2.58,1.23-.63.78-.87,1.8-.66,2.78l2.15,9.95c.61,2.85,3.17,4.91,6.08,4.91h16.75c2.91,0,5.47-2.06,6.08-4.91l2.15-9.95c.21-.98-.03-2-.66-2.78Zm-21.31,5.97c0,.9.73,1.63,1.63,1.63h1.99v1.99c0,.9.73,1.63,1.63,1.63s1.63-.73,1.63-1.63v-1.99h1.99c.9,0,1.63-.73,1.63-1.63s-.73-1.63-1.63-1.63h-1.99v-1.99c0-.9-.73-1.63-1.63-1.63s-1.63.73-1.63,1.63v1.99h-1.99c-.9,0-1.63.73-1.63,1.63Z" style="fill: #b4bcc1; stroke-width: 0px;"/>
  <g>
    <g id="color1">
      <circle cx="58.84" cy="11" r="7.7" style="fill: #6A39E4; stroke-width: 0px;"/>
    </g>
    <path d="m61.51,13.13v1.26h-5.04v-1l2.57-2.43c.59-.56.7-.9.7-1.23,0-.52-.36-.83-1.07-.83-.57,0-1.06.22-1.38.67l-1.12-.72c.51-.75,1.45-1.24,2.65-1.24,1.49,0,2.48.76,2.48,1.97,0,.65-.18,1.24-1.11,2.1l-1.53,1.45h2.87Z" style="fill: #fff; stroke-width: 0px;"/>
  </g>
</svg>