<?xml version="1.0" encoding="utf-8"?>
<!-- Generator: Adobe Illustrator 26.0.1, SVG Export Plug-In . SVG Version: 6.00 Build 0)  -->
<svg version="1.1" id="Warstwa_1" xmlns="http://www.w3.org/2000/svg" xmlns:xlink="http://www.w3.org/1999/xlink" x="0px" y="0px"
	 viewBox="-6 -6 28 28" style="enable-background:new 0 0 16 16;" xml:space="preserve">
<path class="st0" d="M8,6.1113281C6.9584961,6.1113281,6.1108398,6.9589844,6.1108398,8S6.9584961,9.8886719,8,9.8886719
	S9.8886719,9.0410156,9.8886719,8S9.0415039,6.1113281,8,6.1113281z M16,9V7h-1.9121704
	c-0.1569214-0.9577637-0.5323486-1.8406372-1.0770264-2.597229l1.3529663-1.3529663L12.949707,1.6357422l-1.3529053,1.3529053
	C10.840332,2.4440918,9.9575806,2.0686035,9,1.9116821V0H7v1.9116821C6.0423584,2.0686035,5.1595459,2.4441528,4.4030151,2.9888306
	L3.050293,1.6357422L1.6362305,3.0498047l1.3527832,1.3531494C2.444458,5.1594849,2.0690918,6.0423584,1.9121704,7H0v2h1.9121704
	c0.1568604,0.9575806,0.5322266,1.8403931,1.0767212,2.5968628l-1.3526611,1.352356l1.4140625,1.4140625l1.3525391-1.3522339
	C5.1593628,13.5557861,6.0422974,13.9313965,7,14.0883179V16h2v-1.9116821
	c0.9576416-0.1569214,1.8403931-0.5324097,2.5969238-1.0770874l1.3527832,1.3520508l1.4140625-1.4140625l-1.3528442-1.3521118
	C13.555542,10.8405762,13.9309082,9.9577026,14.0878296,9H16z M8,12.1767578c-2.3027344,0-4.1762695-1.8740234-4.1762695-4.1767578
	S5.6972656,3.8232422,8,3.8232422S12.1762695,5.6972656,12.1762695,8S10.3027344,12.1767578,8,12.1767578z"/>
</svg>
