<?xml version="1.0" encoding="utf-8"?>
<!-- Generator: Adobe Illustrator 26.0.1, SVG Export Plug-In . SVG Version: 6.00 Build 0)  -->
<svg version="1.1" id="Warstwa_1" xmlns="http://www.w3.org/2000/svg" xmlns:xlink="http://www.w3.org/1999/xlink" x="0px" y="0px"
	 viewBox="0 0 28 28" style="enable-background:new 0 0 16 16;"  xml:space="preserve">
<g>
	<path class="st0" d="M9.9042826,22.0001469c-1.0453348,0-2.0273151-0.4058399-2.7628107-1.1413021
		c-0.7364855-0.7364521-1.1423445-1.7173958-1.1423445-2.7636719s0.405859-2.0282116,1.1423445-2.7636728l3.2745886-3.2754269
		c1.5244465-1.5223951,4.0051355-1.524375,5.5276012,0c0.3959608,0.3959417,0.3959608,1.0373669,0,1.4333086
		c-0.3959599,0.3959417-1.0374146,0.3959417-1.4333754,0c-0.7325258-0.7315025-1.9263449-0.7334814-2.6608505,0
		l-3.2745886,3.2754269c-0.3533945,0.3533783-0.5484047,0.8255386-0.5484047,1.3303642s0.1950102,0.9769859,0.5484047,1.3303642
		c0.7335157,0.7344704,1.9283247,0.7324905,2.6598606,0l1.7352943-1.7352142c0.3959599-0.3959427,1.0374155-0.3959427,1.4333754,0
		c0.3959599,0.3959408,0.3959599,1.0373669,0,1.4333076l-1.7352943,1.7352142
		C11.9325876,21.5943069,10.9506063,22.0001469,9.9042826,22.0001469z"/>
</g>
<g>
	<path class="st0" d="M14.8171558,17.0884914c-1.0007887,0-2.0015774-0.3801041-2.7638006-1.142292
		c-0.3959599-0.3949518-0.3959599-1.0373669,0-1.4333086s1.0374155-0.3959417,1.4333754,0
		c0.7364855,0.7344713,1.9303045,0.7324924,2.6608505,0l3.2755795-3.2754269c0.7335148-0.7334814,0.7325249-1.9272461,0-2.6607275
		c-0.7345066-0.732492-1.9283257-0.7305121-2.6608505,0l-1.7293558,1.7292747c-0.3959599,0.3959417-1.0374155,0.3959417-1.4333754,0
		s-0.3959599-1.0373669,0-1.4333086l1.7293549-1.7292747c1.5224667-1.524375,4.0031548-1.524375,5.5276012,0
		c1.5234566,1.524375,1.5234566,4.0039597,0,5.5273447l-3.2755795,3.2754269
		C16.8197231,16.7083874,15.8179445,17.0884914,14.8171558,17.0884914z"/>
</g>
</svg>
