<?xml version="1.0" encoding="utf-8"?>
<!-- Generator: Adobe Illustrator 25.0.0, SVG Export Plug-In . SVG Version: 6.00 Build 0)  -->
<svg version="1.1" id="Warstwa_1" xmlns="http://www.w3.org/2000/svg" xmlns:xlink="http://www.w3.org/1999/xlink" x="0px" y="0px"
	 viewBox="0 0 20.1200008 15.96" style="enable-background:new 0 0 20.1200008 15.96;" xml:space="preserve">
<style type="text/css">
	.st0{fill:#6A39E4;}
</style>
<path class="st0" d="M7.9912109,8.5771484h6.0078125c0.4140625,0,0.75-0.3359375,0.75-0.75s-0.3359375-0.75-0.75-0.75H7.9912109
	c-0.4140625,0-0.75,0.3359375-0.75,0.75S7.5771484,8.5771484,7.9912109,8.5771484z M7.9912109,4.9633789h6.0078125
	c0.4140625,0,0.75-0.3359375,0.75-0.75s-0.3359375-0.75-0.75-0.75H7.9912109c-0.4140625,0-0.75,0.3359375-0.75,0.75
	S7.5771484,4.9633789,7.9912109,4.9633789z M19.8486328,2.800293c-0.1708984-0.2114258-0.4277344-0.3344727-0.7001953-0.3344727
	h-1.7548828c-0.4970703,0-0.9003906,0.402832-0.9003906,0.8999023s0.4033203,0.8999023,0.9003906,0.8999023h0.6396484
	l-1.3798828,6.3867188H5.9960938L3.8969727,0.8266602C3.8081055,0.4116211,3.4414062,0.1147461,3.0166016,0.1147461H0.9560547
	c-0.4970703,0-0.8999023,0.402832-0.8999023,0.8999023s0.402832,0.8999023,0.8999023,0.8999023h1.3325195l2.0991211,9.8266602
	C4.4765625,12.15625,4.8432617,12.453125,5.2680664,12.453125h12.1118164c0.4238281,0,0.7900391-0.2958984,0.8798828-0.7099609
	l1.7685547-8.1875C20.0859375,3.2900391,20.0195312,3.012207,19.8486328,2.800293z M7.5939941,13.3771362
	c-0.6851196,0-1.2404785,0.5553589-1.2404785,1.2404175c0,0.6851196,0.5553589,1.2404785,1.2404785,1.2404785
	c0.6850586,0,1.2404175-0.5553589,1.2404175-1.2404785C8.8344116,13.9324951,8.2790527,13.3771362,7.5939941,13.3771362z
	 M15.0330811,13.3771362c-0.6850586,0-1.2404785,0.5553589-1.2404785,1.2404175
	c0,0.6851196,0.5554199,1.2404785,1.2404785,1.2404785s1.2404785-0.5553589,1.2404785-1.2404785
	C16.2735596,13.9324951,15.7181396,13.3771362,15.0330811,13.3771362z"/>
</svg>
