<svg width="397" height="265" viewBox="0 0 397 265" fill="none" xmlns="http://www.w3.org/2000/svg"> <g filter="url(#car_filter0_d)"> <g clip-path="url(#car_clip0)"> <rect x="52.7578" y="54.7651" width="208.244" height="168.003" rx="2.27031" transform="rotate(-5 52.7578 54.7651)" fill="white"/> <g clip-path="url(#car_clip1)"> <rect width="112.002" height="124.647" transform="translate(98.5781 73.4239) rotate(-5)" fill="#DCDDE1"/> <circle cx="112.679" cy="76.2938" r="73.4517" transform="rotate(-5 112.679 76.2938)" fill="#D0D1D7"/> <circle cx="244.582" cy="130.215" r="64.1417" transform="rotate(-5 244.582 130.215)" fill="#86D0F9"/> </g> <g clip-path="url(#car_clip2)"> <rect width="112.002" height="124.647" transform="translate(216.449 63.1114) rotate(-5)" fill="#B6DDAD"/> <circle cx="232.305" cy="183.028" r="46.9609" transform="rotate(-5 232.305 183.028)" fill="#96CE89"/> </g> <g clip-path="url(#car_clip3)"> <rect width="112.002" height="124.647" transform="translate(-20.1992 83.8153) rotate(-5)" fill="#FFDF99"/> <circle cx="128.461" cy="186.877" r="64.1417" transform="rotate(-5 128.461 186.877)" fill="#FFC033"/> </g> </g> </g> <g filter="url(#car_filter1_d)"> <g clip-path="url(#car_clip4)"> <rect x="163.398" y="26.6155" width="208.244" height="168.003" rx="2.27031" transform="rotate(5 163.398 26.6155)" fill="white"/> <g clip-path="url(#car_clip5)"> <rect width="112.002" height="124.647" transform="translate(205.281 52.9472) rotate(5)" fill="#B5E5FF"/> <circle cx="200.072" cy="173.795" r="46.9609" transform="rotate(5 200.072 173.795)" fill="#43A6DB"/> <circle cx="339.206" cy="134.228" r="64.1417" transform="rotate(5 339.206 134.228)" fill="#86D0F9"/> </g> <g clip-path="url(#car_clip6)"> <rect width="112.002" height="124.647" transform="translate(323.152 63.2598) rotate(5)" fill="#B6DDAD"/> <circle cx="317.943" cy="184.108" r="46.9609" transform="rotate(5 317.943 184.108)" fill="#96CE89"/> </g> <g clip-path="url(#car_clip7)"> <rect width="112.002" height="124.647" transform="translate(86.5078 42.5556) rotate(5)" fill="#FCE1D5"/> <circle cx="215.014" cy="169.866" r="64.1417" transform="rotate(5 215.014 169.866)" fill="#F9BBA0"/> </g> </g> </g> <defs> <filter id="car_filter0_d" x="45.846" y="33.6532" width="235.918" height="199.337" filterUnits="userSpaceOnUse" color-interpolation-filters="sRGB"> <feFlood flood-opacity="0" result="BackgroundImageFix"/> <feColorMatrix in="SourceAlpha" type="matrix" values="0 0 0 0 0 0 0 0 0 0 0 0 0 0 0 0 0 0 127 0"/> <feOffset dy="3.94961"/> <feGaussianBlur stdDeviation="3.45591"/> <feColorMatrix type="matrix" values="0 0 0 0 0 0 0 0 0 0 0 0 0 0 0 0 0 0 0.16 0"/> <feBlend mode="normal" in2="BackgroundImageFix" result="effect1_dropShadow"/> <feBlend mode="normal" in="SourceGraphic" in2="effect1_dropShadow" result="shape"/> </filter> <filter id="car_filter1_d" x="141.846" y="23.6533" width="235.918" height="199.337" filterUnits="userSpaceOnUse" color-interpolation-filters="sRGB"> <feFlood flood-opacity="0" result="BackgroundImageFix"/> <feColorMatrix in="SourceAlpha" type="matrix" values="0 0 0 0 0 0 0 0 0 0 0 0 0 0 0 0 0 0 127 0"/> <feOffset dy="3.94961"/> <feGaussianBlur stdDeviation="3.45591"/> <feColorMatrix type="matrix" values="0 0 0 0 0 0 0 0 0 0 0 0 0 0 0 0 0 0 0.16 0"/> <feBlend mode="normal" in2="BackgroundImageFix" result="effect1_dropShadow"/> <feBlend mode="normal" in="SourceGraphic" in2="effect1_dropShadow" result="shape"/> </filter> <clipPath id="car_clip0"> <rect x="52.7578" y="54.7651" width="208.244" height="168.003" rx="2.27031" transform="rotate(-5 52.7578 54.7651)" fill="white"/> </clipPath> <clipPath id="car_clip1"> <rect width="112.002" height="124.647" fill="white" transform="translate(98.5781 73.4239) rotate(-5)"/> </clipPath> <clipPath id="car_clip2"> <rect width="112.002" height="124.647" fill="white" transform="translate(216.449 63.1114) rotate(-5)"/> </clipPath> <clipPath id="car_clip3"> <rect width="112.002" height="124.647" fill="white" transform="translate(-20.1992 83.8153) rotate(-5)"/> </clipPath> <clipPath id="car_clip4"> <rect x="163.398" y="26.6155" width="208.244" height="168.003" rx="2.27031" transform="rotate(5 163.398 26.6155)" fill="white"/> </clipPath> <clipPath id="car_clip5"> <rect width="112.002" height="124.647" fill="white" transform="translate(205.281 52.9472) rotate(5)"/> </clipPath> <clipPath id="car_clip6"> <rect width="112.002" height="124.647" fill="white" transform="translate(323.152 63.2598) rotate(5)"/> </clipPath> <clipPath id="car_clip7"> <rect width="112.002" height="124.647" fill="white" transform="translate(86.5078 42.5556) rotate(5)"/> </clipPath> </defs> </svg>