<svg xmlns="http://www.w3.org/2000/svg" width="22.606" height="19.035" viewBox="0 0 22.606 19.035"><g transform="translate(-22.179 -62.37)"><g transform="translate(22.179 62.37)"><path d="M44.769,77.158l-1.11-12.209a2.822,2.822,0,0,0-2.824-2.579H26.129a2.822,2.822,0,0,0-2.824,2.579L22.2,77.158a3.894,3.894,0,0,0,3.878,4.247H40.89a3.894,3.894,0,0,0,3.879-4.247Zm-1.848,2.206a2.72,2.72,0,0,1-2.031.9H26.073a2.748,2.748,0,0,1-2.737-3l1.11-12.209a1.683,1.683,0,0,1,1.683-1.538H40.835a1.683,1.683,0,0,1,1.683,1.538l1.11,12.209A2.72,2.72,0,0,1,42.921,79.365Z" transform="translate(-22.179 -62.37)" fill="#f6724c"/></g><g transform="translate(26.754 65.159)"><path d="M119.776,119h-3.221a1.5,1.5,0,0,0-1.495,1.5v3.22a1.5,1.5,0,0,0,1.495,1.5h3.221a1.5,1.5,0,0,0,1.495-1.5V120.5A1.5,1.5,0,0,0,119.776,119Zm.46,4.716a.46.46,0,0,1-.208.385l-3.712.007a.459.459,0,0,1-.22-.392V120.5a.46.46,0,0,1,.459-.46h3.221a.46.46,0,0,1,.46.46Z" transform="translate(-115.06 -119)" fill="#f6724c"/><path d="M266.906,119h-3.221a1.5,1.5,0,0,0-1.495,1.5v3.22a1.5,1.5,0,0,0,1.495,1.5h3.221a1.5,1.5,0,0,0,1.495-1.5V120.5A1.5,1.5,0,0,0,266.906,119Zm.46,4.716a.459.459,0,0,1-.223.394l-3.713-.012a.458.458,0,0,1-.2-.382V120.5a.46.46,0,0,1,.46-.46h3.221a.46.46,0,0,1,.46.46Z" transform="translate(-254.944 -119)" fill="#f6724c"/><path d="M266.906,266.13h-3.222a1.5,1.5,0,0,0-1.494,1.495v3.221a1.5,1.5,0,0,0,1.494,1.495h1.757a.517.517,0,0,0,0-1.035h-1.757a.46.46,0,0,1-.46-.46v-3.221a.461.461,0,0,1,.46-.46h3.222a.461.461,0,0,1,.46.46v1.865a.517.517,0,1,0,1.035,0v-1.865A1.5,1.5,0,0,0,266.906,266.13Z" transform="translate(-254.944 -258.884)" fill="#f6724c"/><path d="M116.27,271.207l3.8-.01A2.47,2.47,0,0,0,116.27,271.207Zm3.506-5.077h-3.221a1.5,1.5,0,0,0-1.495,1.5v3.22a1.5,1.5,0,0,0,1.495,1.5h3.221a1.5,1.5,0,0,0,1.495-1.5v-3.22A1.5,1.5,0,0,0,119.776,266.13Zm.46,4.715a.459.459,0,0,1-.163.351,2.47,2.47,0,0,0-3.8.01.461.461,0,0,1-.175-.362v-3.22a.46.46,0,0,1,.459-.461h3.221a.461.461,0,0,1,.46.461Z" transform="translate(-115.06 -258.884)" fill="#f6724c"/><path d="M287.36,206.182a2.452,2.452,0,0,1,3.713.012Z" transform="translate(-278.874 -201.084)" fill="#f6724c"/><path d="M140.54,206.193a2.452,2.452,0,0,1,3.712-.007Z" transform="translate(-139.285 -201.085)" fill="#f6724c"/><path d="M143.433,351.791l-3.8.01A2.47,2.47,0,0,1,143.433,351.791Z" transform="translate(-138.42 -339.479)" fill="#f6724c"/></g></g></svg>