<?xml version="1.0" encoding="utf-8"?>
<!-- Generator: Adobe Illustrator 26.0.1, SVG Export Plug-In . SVG Version: 6.00 Build 0)  -->
<svg version="1.1" id="Warstwa_1" xmlns="http://www.w3.org/2000/svg" xmlns:xlink="http://www.w3.org/1999/xlink" x="0px" y="0px"
	 viewBox="0 0 20.1200008 15.96" style="enable-background:new 0 0 20.1200008 15.96;" xml:space="preserve">
<style type="text/css">
	.st0{fill:#6A39E4;}
</style>
<g>
	<path class="st0" d="M10.0625,5.6464844c-0.7958984,0-7.7734375-0.0776367-7.7734375-2.7641602
		S9.2666016,0.1181641,10.0625,0.1181641s7.7744141,0.0776367,7.7744141,2.7641602S10.8583984,5.6464844,10.0625,5.6464844z
		 M4.25,2.8823242C4.9052734,3.28125,6.9135742,3.8466797,10.0625,3.8466797c3.1494141,0,5.1572266-0.5654297,5.8125-0.9643555
		c-0.6552734-0.3989258-2.6640625-0.9643555-5.8125-0.9643555C6.9135742,1.9179688,4.9052734,2.4833984,4.25,2.8823242z
		 M16.0791016,3.0493164h0.0097656H16.0791016z"/>
</g>
<g>
	<path class="st0" d="M10.0537109,15.8476562c-1.4506836,0-2.5039062-0.71875-2.5039062-1.7080078v-3.6103516L2.6650391,3.862793
		C2.371582,3.4619141,2.4580078,2.8989258,2.859375,2.6049805c0.3994141-0.2929688,0.9633789-0.2080078,1.2578125,0.1943359
		l5.0585938,6.902832c0.112793,0.1542969,0.1738281,0.3408203,0.1738281,0.5322266v3.6855469
		c0.1308594,0.0585938,0.3745117,0.1269531,0.7041016,0.1269531c0.3291016,0,0.5732422-0.0683594,0.7036133-0.1269531v-3.6611328
		c0-0.1914062,0.0610352-0.3779297,0.1743164-0.5322266l5.1708984-7.046875
		c0.2939453-0.4018555,0.8564453-0.487793,1.2578125-0.1933594c0.4013672,0.2939453,0.4873047,0.8574219,0.1933594,1.2578125
		l-4.9960938,6.8095703v3.5859375C12.5576172,15.1289062,11.5039062,15.8476562,10.0537109,15.8476562z"/>
</g>
</svg>
