<svg xmlns="http://www.w3.org/2000/svg" width="22.572" height="19.095" viewBox="0 0 22.572 19.095"><g transform="translate(2929.347 -832.82)"><g transform="translate(-2929.347 832.82)"><g transform="translate(0 0)"><path d="M-2906.792,847.475l-1.081-11.89a3.026,3.026,0,0,0-3.028-2.765h-14.321a3.026,3.026,0,0,0-3.028,2.765l-1.081,11.89a4.082,4.082,0,0,0,1.048,3.115,4.082,4.082,0,0,0,3.007,1.326h14.429a4.082,4.082,0,0,0,3.007-1.326A4.08,4.08,0,0,0-2906.792,847.475Zm-2.284,1.986a2.369,2.369,0,0,1-1.771.781h-14.429a2.369,2.369,0,0,1-1.771-.781,2.37,2.37,0,0,1-.617-1.834l1.081-11.89a1.361,1.361,0,0,1,1.362-1.244h14.321a1.361,1.361,0,0,1,1.362,1.244l1.081,11.89A2.368,2.368,0,0,1-2909.075,849.461Z" transform="translate(2929.347 -832.82)" fill="#f6724c"/><path d="M-2713.882,1013.59h-2.815a1.357,1.357,0,0,0-1.353,1.354v2.779a1.358,1.358,0,0,0,1.354,1.354h2.815a1.357,1.357,0,0,0,1.353-1.354v-2.779A1.357,1.357,0,0,0-2713.882,1013.59Zm-.037,4.1h-2.741v-2.706l2.741,0Z" transform="translate(2729.835 -1003.507)" fill="#f6724c"/><path d="M-2830.562,1013.59h-2.814a1.358,1.358,0,0,0-1.354,1.354v2.779a1.358,1.358,0,0,0,1.354,1.354h2.814a1.358,1.358,0,0,0,1.353-1.354v-2.779A1.358,1.358,0,0,0-2830.562,1013.59Zm-.036,4.1h-2.742v-2.707h2.742Z" transform="translate(2840.007 -1003.507)" fill="#f6724c"/><path d="M-2714.6,896.08h-.021a2.723,2.723,0,0,0-1.924.789,2.721,2.721,0,0,0-.818,1.933,2.746,2.746,0,0,0,2.722,2.763h.008a2.759,2.759,0,0,0,2.754-2.743A2.749,2.749,0,0,0-2714.6,896.08Zm0,4.094h-.016a1.354,1.354,0,0,1-1.352-1.337,1.342,1.342,0,0,1,.385-.96,1.346,1.346,0,0,1,.951-.407h.05a1.366,1.366,0,0,1,1.317,1.353A1.357,1.357,0,0,1-2714.6,900.174Z" transform="translate(2729.185 -892.552)" fill="#f6724c"/><path d="M-2830.8,896.04h-2.814a1.358,1.358,0,0,0-1.354,1.354v2.78a1.357,1.357,0,0,0,1.354,1.353h2.815a1.357,1.357,0,0,0,1.353-1.354v-2.78A1.357,1.357,0,0,0-2830.8,896.04Zm-.037,4.1h-2.742V897.43h2.742Z" transform="translate(2840.234 -892.514)" fill="#f6724c"/></g></g></g></svg>