<?xml version="1.0" encoding="utf-8"?>
<!-- Generator: Adobe Illustrator 25.2.1, SVG Export Plug-In . SVG Version: 6.00 Build 0)  -->
<svg version="1.1" id="Warstwa_2" xmlns="http://www.w3.org/2000/svg" xmlns:xlink="http://www.w3.org/1999/xlink" x="0px" y="0px"
	 viewBox="0 0 20.1200008 15.96" style="enable-background:new 0 0 20.1200008 15.96;" xml:space="preserve">
<style type="text/css">
	.st0{fill:#6A39E4;}
</style>
<path class="st0" d="M19.5224609,11.3173828l-6.0078125-5.5834961C13.2587891,5.4951172,12.8837891,5.4272461,12.5625,5.5600586
	c-0.3251953,0.1323242-0.5429688,0.440918-0.5595703,0.7910156l-0.1716919,3.6702881
	c-0.5619507-0.6549683-1.2504883-1.1954346-2.0276489-1.5881958c1.0026855-0.843689,1.6544189-2.0915527,1.6544189-3.5015259
	c0-2.5336914-2.0615234-4.5952148-4.5957031-4.5952148S2.2666016,2.3979492,2.2666016,4.9316406
	c0,1.4099731,0.6517334,2.6578369,1.65448,3.5015259c-2.1370239,1.0799561-3.6090698,3.2913208-3.6090698,5.8451538
	c0,0.1728516,0.0068359,0.3447266,0.0195312,0.5136719c0.0375977,0.4960938,0.4619141,0.8691406,0.9663086,0.8291016
	c0.4956055-0.0380859,0.8666992-0.4707031,0.8286133-0.9658203c-0.0097656-0.1240234-0.0146484-0.2509766-0.0146484-0.3769531
	c0-2.6201172,2.1313477-4.7509766,4.7504883-4.7509766s4.75,2.1308594,4.75,4.7509766
	c0,0.125-0.0048828,0.2509766-0.0146484,0.3740234c-0.0235596,0.2983398,0.1117554,0.5622559,0.3231201,0.7432861
	c0.0174561,0.0154419,0.0355835,0.0291138,0.0543213,0.0432739c0.0566406,0.0413818,0.1135864,0.0775146,0.1796265,0.1049805
	c0.0114746,0.0050049,0.0200806,0.0140381,0.0317993,0.0186157c0.031189,0.012146,0.0643921,0.0096436,0.0964355,0.0181885
	c0.0478516,0.0120239,0.0900879,0.0363159,0.1408691,0.0404053c0.0244141,0.0019531,0.0478516,0.0029297,0.0722656,0.0029297
	c0.0028687,0,0.0053711-0.0015869,0.0082397-0.0015869c0.0028076,0,0.0055542,0.0015869,0.0083618,0.0015869
	c0.0372314,0,0.0710449-0.0192261,0.1078491-0.0238037c0.0759888-0.0110474,0.1522217-0.0197144,0.2212524-0.0487671
	c0.0706787-0.0280151,0.1290283-0.074646,0.1912231-0.1202393c0.0300903-0.0229492,0.0617676-0.0415649,0.0888062-0.0681152
	c0.0252686-0.0239258,0.0585938-0.0351562,0.0812988-0.0623169l2.2402344-2.6816406l3.3994141,0.2548828
	c0.3779297,0.0332031,0.7382812-0.1875,0.8925781-0.5371094C19.8876953,11.9863281,19.8027344,11.5771484,19.5224609,11.3173828z
	 M4.0664062,4.9316406c0-1.5415039,1.2543945-2.7954102,2.7958984-2.7954102s2.7958984,1.2539062,2.7958984,2.7954102
	S8.4038086,7.7275391,6.8623047,7.7275391S4.0664062,6.4731445,4.0664062,4.9316406z M15.1171875,10.7890625
	c-0.2900391-0.0224609-0.5712891,0.0976562-0.7578125,0.3203125l-0.8222656,0.984375l0.1738281-3.7207031l2.7041016,2.5136719
	L15.1171875,10.7890625z"/>
</svg>
