<?xml version="1.0" encoding="utf-8"?>
<!-- Generator: Adobe Illustrator 25.0.0, SVG Export Plug-In . SVG Version: 6.00 Build 0)  -->
<svg version="1.1" id="Warstwa_1" xmlns="http://www.w3.org/2000/svg" xmlns:xlink="http://www.w3.org/1999/xlink" x="0px" y="0px"
	 viewBox="0 0 20.1200008 15.96" style="enable-background:new 0 0 20.1200008 15.96;" xml:space="preserve">
<style type="text/css">
	.st0{fill:#6A39E4;}
</style>
<path class="st0" d="M13.1992188,0.1508789c-1.4078979,0-2.7174072,0.4295654-3.8043213,1.1645508H1.0107422
	c-0.4970703,0-0.8999023,0.402832-0.8999023,0.8999023v12.7387695c0,0.4970703,0.402832,0.9003906,0.8999023,0.9003906h12.6181641
	c0.4970703,0,0.9003906-0.4033203,0.9003906-0.9003906v-1.315979c3.1202393-0.6206665,5.4804688-3.378479,5.4804688-6.6776733
	C20.0097656,3.2055664,16.9541016,0.1508789,13.1992188,0.1508789z M12.7285156,14.0537109H1.9106445V3.1152344h5.6743164
	c-0.5569458,0.81073-0.9367676,1.7487793-1.0997925,2.7592773H4.315918c-0.4970703,0-0.8999023,0.402832-0.8999023,0.8999023
	s0.402832,0.8999023,0.8999023,0.8999023h2.1123047C6.4949951,8.3118896,6.6535034,8.921814,6.8845215,9.4951172H4.315918
	c-0.4970703,0-0.8999023,0.4033203-0.8999023,0.9003906s0.402832,0.9003906,0.8999023,0.9003906h3.6368408
	c1.1557617,1.3966064,2.8588867,2.3186035,4.7757568,2.4507446V14.0537109z M13.1992188,11.9697266
	c-2.762207,0-5.0092773-2.2470703-5.0092773-5.0092773s2.2470703-5.0097656,5.0092773-5.0097656
	c2.7626953,0,5.0097656,2.2475586,5.0097656,5.0097656S15.9619141,11.9697266,13.1992188,11.9697266z M15.2011719,4.5195312
	l-2.800354,3.2476807L11,6.1611328c-0.2714844-0.3134766-0.7456055-0.3466797-1.0576172-0.0727539
	c-0.3125,0.2724609-0.3447266,0.7460938-0.0727539,1.0581055l1.9692383,2.2587891
	c0.0112915,0.0129395,0.0275879,0.0172729,0.0395508,0.0292358c0.0139771,0.0141602,0.0203247,0.0327759,0.0356445,0.0459595
	c0.0390015,0.0333862,0.0846558,0.0505981,0.1276855,0.074707c0.0275879,0.0155029,0.0515747,0.0354614,0.0806274,0.0472412
	c0.0909424,0.0369873,0.1856689,0.0596924,0.2819214,0.0596924c0.0965576,0,0.1918335-0.0228882,0.2832031-0.0603027
	c0.0302124-0.0122681,0.0551147-0.0332031,0.0838013-0.0495605c0.0424805-0.024231,0.0877686-0.0413208,0.1261597-0.074707
	c0.0147095-0.0128784,0.020752-0.0310059,0.0342407-0.0447388c0.0123901-0.0124512,0.0292969-0.0169678,0.0409546-0.0304565
	l3.3652344-3.9033203c0.2705078-0.3134766,0.2353516-0.7871094-0.078125-1.0576172
	C15.9453125,4.1713867,15.4726562,4.2050781,15.2011719,4.5195312z"/>
</svg>
