<?xml version="1.0" encoding="utf-8"?>
<!-- Generator: Adobe Illustrator 26.2.1, SVG Export Plug-In . SVG Version: 6.00 Build 0)  -->
<svg version="1.1" id="Layer_1" xmlns="http://www.w3.org/2000/svg" xmlns:xlink="http://www.w3.org/1999/xlink" x="0px" y="0px"
	 viewBox="0 0 300 90" style="enable-background:new 0 0 300 90;" xml:space="preserve">
<style type="text/css">
	.st0{fill:#E73148;}
	.st1{fill:#2B2B2B;}
</style>
<g>
	<path class="st0" d="M61,37.6c0,16-13,29-29,29s-29-13-29-29s13-29,29-29S61,21.6,61,37.6"/>
	<path class="st1" d="M28.9,23c0,0,1.3-5.9-3.9-6.3c-5.3-0.3-5.4,3-12.3,2.8C7.4,19.4,4,16.7,2,16.5c1.8,2.3,6.4,7.2,14.6,6.6
		c4.8-0.4,6.8-2.2,8.1-2.3C26.4,20.7,27.5,21.4,28.9,23"/>
	<path class="st1" d="M35,23c0,0-1.3-5.9,3.9-6.3c5.3-0.3,5.4,3,12.3,2.8c5.3-0.2,8.7-2.9,10.8-3.1c-1.8,2.3-6.4,7.2-14.6,6.6
		c-4.8-0.4-6.8-2.2-8.1-2.3C37.6,20.7,36.5,21.4,35,23"/>
	<path class="st1" d="M27.4,34.9c0,0-11.5-5.3-16.3,6.4c-6.4,15.5,2,39.7,3.3,40c1.2,0.3-4.8-26.5,1.2-38c2.1-4,6.5-5.1,11.8-5.3
		C31.4,37.6,27.4,34.9,27.4,34.9"/>
	<path class="st1" d="M36.7,34.9c0,0,11.5-5.3,16.3,6.4c6.4,15.5-2,39.7-3.3,40c-1.2,0.3,4.8-26.5-1.2-38c-2.1-4-6.5-5.1-11.8-5.3
		C32.7,37.6,36.7,34.9,36.7,34.9"/>
	<path class="st1" d="M37.8,52c-0.2-5.8-4.5-5.7-5.8-5.6c0,0,2.9,0,0,0c-1.2-0.1-5.6-0.2-5.8,5.6c-0.2,6.6,5,37.5,5.8,38
		c0,0,0-0.3,0-0.9c0,0.6,0,0.9,0,0.9C32.8,89.4,38,58.5,37.8,52"/>
</g>
<g>
	<path class="st1" d="M102.5,43.4c0,7.9-3.4,13.7-9.6,15.3c-1.6,0.4-3.9,0.7-6.8,0.7H75.4V30.9c0-2.2,1.1-3.4,3.3-3.4H88
		C98.1,27.4,102.5,33.2,102.5,43.4z M88,33h-6.1v20.6h5.2c6.5,0,8.8-3.5,8.8-10.2C95.9,37,93.9,33,88,33z"/>
	<path class="st1" d="M108.8,27.4c2.1,0,3.1,1,3,3.1v1.8h-6.3v-4.9H108.8z M108.8,34.5c2,0,3,1,3,3v21.9h-6.3V34.5H108.8z"/>
	<path class="st1" d="M139.1,34.5l-8.8,24.9h-6.6l-8.8-24.9h6.9l5,17.5l4.3-15.2c0.5-1.5,1.5-2.2,3.1-2.2L139.1,34.5L139.1,34.5z"/>
	<path class="st1" d="M144.7,27.4c2.1,0,3.1,1,3,3.1v1.8h-6.3v-4.9H144.7z M144.7,34.5c2,0,3,1,3,3v21.9h-6.3V34.5H144.7z"/>
	<path class="st1" d="M178.7,50.5c0-1.6-0.9-2.6-2.9-3.2c-1.9-0.6-4-1.1-6.4-1.7c-6.3-1.6-9.4-4.5-9.4-8.8c0.1-6.7,4.1-10,12-10
		c7.5,0,11.4,3.3,11.8,9.9h-3.7c-1.4,0-2.3-0.7-2.9-1.9c-1.1-1.8-3-2.7-5.8-2.7c-3.4,0-5.1,1.3-5.2,3.8c0,2,2,3.5,6.2,4.4
		c2.4,0.6,4.9,1.3,7.6,2.2c3.6,1.2,5.3,3.9,5.1,7.9c-0.4,6.3-4.6,9.4-12.7,9.4c-8.5,0-12.8-3.5-12.9-10.5h6.4
		c0.2,3.4,2.4,5.1,6.6,5.1C176.7,54.5,178.7,53.2,178.7,50.5z"/>
	<path class="st1" d="M199.5,60c-7.5-0.2-11.3-4.6-11.3-13.1s3.8-12.7,11.4-12.8c7.9,0,11.6,4.8,11.2,14.6h-16.1
		c0.2,3.8,1.9,5.7,4.9,5.7c1.5,0,2.8-0.6,4-1.8c0.6-0.6,1.3-0.9,2.1-0.9h4.6C209.1,57.1,205.7,60,199.5,60z M194.8,44.3h9.4
		c-0.4-3.3-1.9-5-4.6-5S195.3,41,194.8,44.3z"/>
	<path class="st1" d="M231.7,59.4c-2.1-0.1-3.1-1.1-3.1-3.1V43.5c-0.1-2.6-1.6-3.9-4.3-3.9c-2.8,0-4.2,1.3-4.2,3.9v15.9h-6.4V44.8
		c0-7.1,3.6-10.6,10.7-10.6c7.1,0,10.6,3.5,10.5,10.6v14.6C234.9,59.4,231.7,59.4,231.7,59.4z"/>
	<path class="st1" d="M248.6,54.9c2.6,0,4-0.8,4-2.4c0-1.3-2.2-2.3-6.4-3.1c-5.5-1-8.3-3.4-8.4-7.3c0-5.4,4.2-7.9,9.9-8
		c3.2,0,5.7,0.7,7.6,2.1c1.8,1.5,2.8,3.5,3,6.1h-4c-1.5,0-2.4-0.6-2.8-1.6c-0.4-1.1-1.7-1.7-3.8-1.7c-2.4,0-3.7,0.7-3.7,1.9
		c0,1.3,1.6,2.3,4.8,2.9c4.2,0.8,7,1.9,8.4,3.2c1.2,1.2,1.7,2.7,1.7,4.4c0,6.1-4.8,8.4-11.4,8.4c-3.5,0-6.1-0.8-7.8-2.2
		c-1.9-1.4-2.8-3.6-2.8-6.4h6.4C243.6,54,245.6,54.9,248.6,54.9z"/>
	<path class="st1" d="M272.9,60c-7.5-0.2-11.3-4.6-11.3-13.1s3.8-12.7,11.4-12.8c7.9,0,11.6,4.8,11.2,14.6h-16.1
		c0.2,3.8,1.9,5.7,4.9,5.7c1.5,0,2.8-0.6,4-1.8c0.6-0.6,1.3-0.9,2.1-0.9h4.6C282.4,57.1,279,60,272.9,60z M268.2,44.3h9.4
		c-0.4-3.3-1.9-5-4.6-5C270.2,39.3,268.6,41,268.2,44.3z"/>
	<path class="st1" d="M290.3,27.4c2.1,0,3.1,1,3,3.1v1.8H287v-4.9H290.3z M290.3,34.5c2,0,3,1,3,3v21.9H287V34.5H290.3z"/>
</g>
</svg>
