<?xml version="1.0" encoding="utf-8"?>
<!-- Generator: Adobe Illustrator 25.0.0, SVG Export Plug-In . SVG Version: 6.00 Build 0)  -->
<svg version="1.1" id="Warstwa_1" xmlns="http://www.w3.org/2000/svg" xmlns:xlink="http://www.w3.org/1999/xlink" x="0px" y="0px"
	 viewBox="0 0 20.1200008 15.96" style="enable-background:new 0 0 20.1200008 15.96;" xml:space="preserve">
<style type="text/css">
	.st0{fill:#6A39E4;}
</style>
<path class="st0" d="M13.1992188,0.1508789c-1.4078979,0-2.7174072,0.4295654-3.8043213,1.1645508H1.0107422
	c-0.4970703,0-0.8999023,0.402832-0.8999023,0.8999023v12.7387695c0,0.4970703,0.402832,0.9003906,0.8999023,0.9003906h12.6181641
	c0.4970703,0,0.9003906-0.4033203,0.9003906-0.9003906v-1.315979c3.1202393-0.6206665,5.4804688-3.378479,5.4804688-6.6776733
	C20.0097656,3.2055664,16.9541016,0.1508789,13.1992188,0.1508789z M12.7285156,14.0537109H1.9106445V3.1152344h5.6743164
	c-0.5569458,0.81073-0.9367676,1.7487793-1.0997925,2.7592773H4.315918c-0.4970703,0-0.8999023,0.402832-0.8999023,0.8999023
	s0.402832,0.8999023,0.8999023,0.8999023h2.1123047C6.4949951,8.3118896,6.6535034,8.921814,6.8845215,9.4951172H4.315918
	c-0.4970703,0-0.8999023,0.4033203-0.8999023,0.9003906s0.402832,0.9003906,0.8999023,0.9003906h3.6368408
	c1.1557617,1.3966064,2.8588867,2.3186035,4.7757568,2.4507446V14.0537109z M13.1992188,11.9697266
	c-2.762207,0-5.0092773-2.2470703-5.0092773-5.0092773s2.2470703-5.0097656,5.0092773-5.0097656
	c2.7626953,0,5.0097656,2.2475586,5.0097656,5.0097656S15.9619141,11.9697266,13.1992188,11.9697266z M14.1845703,6.4775391
	h-0.4853516V4.7382812h1.2832031c0.2763672,0,0.5-0.2236328,0.5-0.5s-0.2236328-0.5-0.5-0.5h-1.2832031V3.3125
	c0-0.2763672-0.2236328-0.5-0.5-0.5s-0.5,0.2236328-0.5,0.5v0.4257812h-0.484375
	c-1.03125,0-1.8696289,0.8388672-1.8696289,1.8696289s0.8383789,1.8696289,1.8696289,1.8696289h0.484375v1.7382812h-1.2832031
	c-0.2763672,0-0.5,0.2236328-0.5,0.5s0.2236328,0.5,0.5,0.5h1.2832031v0.4296875c0,0.2763672,0.2236328,0.5,0.5,0.5
	s0.5-0.2236328,0.5-0.5v-0.4296875h0.4853516c1.0302734,0,1.8691406-0.8388672,1.8691406-1.8691406
	C16.0537109,7.315918,15.2148438,6.4775391,14.1845703,6.4775391z M12.6992188,6.4775391h-0.484375
	c-0.4794922,0-0.8691406-0.3901367-0.8691406-0.8696289s0.3896484-0.8696289,0.8691406-0.8696289h0.484375V6.4775391z
	 M14.1845703,9.2158203h-0.4853516V7.4775391h0.4853516c0.4794922,0,0.8691406,0.3896484,0.8691406,0.8691406
	C15.0537109,8.8256836,14.6640625,9.2158203,14.1845703,9.2158203z"/>
</svg>
