<svg xmlns="http://www.w3.org/2000/svg" width="22.564" height="19" viewBox="0 0 22.564 19"><g transform="translate(-20.5 -56.745)"><g transform="translate(20.5 56.745)"><g transform="translate(0)"><path d="M39.177,75.745H24.387a3.887,3.887,0,0,1-3.871-4.239L21.624,59.32a2.817,2.817,0,0,1,2.819-2.575H39.121A2.817,2.817,0,0,1,41.94,59.32l1.108,12.187a3.887,3.887,0,0,1-3.871,4.239ZM24.443,57.888a1.679,1.679,0,0,0-1.68,1.535L21.654,71.61A2.744,2.744,0,0,0,24.387,74.6H39.177a2.744,2.744,0,0,0,2.733-2.992L40.8,59.423a1.679,1.679,0,0,0-1.68-1.535Z" transform="translate(-20.5 -56.745)" fill="#f6724c"/></g></g><g transform="translate(25.027 59.485)"><path d="M125.932,112.613a.5.5,0,0,0-.391-.116l-1.679.305a.6.6,0,0,0-.133-.2l-.008-.008a.438.438,0,0,0-.4-.1l-1.669.3a.6.6,0,0,0-.132-.2l-.008-.008a.438.438,0,0,0-.4-.1l-8.1,1.472-.008,0a.513.513,0,0,0-.4.488v9.579a.513.513,0,0,0,.4.488L121.116,126l.081,0a.485.485,0,0,0,.313-.115.472.472,0,0,0,.146-.2l1.67.318.082,0a.487.487,0,0,0,.313-.115.476.476,0,0,0,.146-.2l1.67.318.082,0a.5.5,0,0,0,.492-.491V112.987A.487.487,0,0,0,125.932,112.613Zm-5.1,12.459-7.368-1.341v-8.96l7.368-1.341Zm2.087-.147-1.228-.221V113.8l1.228-.221Zm2.211,0L123.9,124.7V113.8l1.228-.221Z" transform="translate(-112.6 -112.485)" fill="#f6724c"/></g><g transform="translate(26.359 62.837)"><g transform="translate(0 0)"><path d="M145.917,181.874l-2.844-1.169a.4.4,0,0,0-.3,0l-2.843,1.168a.39.39,0,0,0-.243.363v3.7a.391.391,0,0,0,.243.363l2.843,1.168a.392.392,0,0,0,.3,0h0l.019-.008,2.82-1.159a.391.391,0,0,0,.243-.363v-3.7A.389.389,0,0,0,145.917,181.874Zm-2.992-.515.524.215-2.091.912-.588-.242Zm-.392,5.156-2.059-.846v-2.831l.523.215v.92a.392.392,0,0,0,.784,0v-.6l.753.309Zm.392-3.385-.874-.359,2.091-.912.938.385Zm2.451,2.539-2.059.846v-2.831l2.059-.846Z" transform="translate(-139.69 -180.676)" fill="#f6724c"/></g></g></g></svg>