<svg xmlns="http://www.w3.org/2000/svg" width="22.495" height="18.996" viewBox="0 0 22.495 18.996"><g transform="translate(3456.742 -1257.23)"><g transform="translate(-3456.742 1257.23)"><g transform="translate(0 0)"><path d="M-3434.263,1271.879l-1.088-11.967a2.935,2.935,0,0,0-2.936-2.682H-3452.7a2.933,2.933,0,0,0-2.935,2.682l-1.088,11.967a4,4,0,0,0,1.026,3.049,4,4,0,0,0,2.943,1.3h14.523a4,4,0,0,0,2.944-1.3A4,4,0,0,0-3434.263,1271.879Zm-2.1,2.064a2.5,2.5,0,0,1-1.866.823h-14.523a2.5,2.5,0,0,1-1.866-.823,2.5,2.5,0,0,1-.65-1.932l1.088-11.968a1.482,1.482,0,0,1,1.482-1.354h14.415a1.482,1.482,0,0,1,1.483,1.354l1.088,11.968A2.5,2.5,0,0,1-3436.367,1273.944Z" transform="translate(3456.742 -1257.23)" fill="#f6724c"/></g></g><g transform="translate(-3452.717 1260.207)"><g transform="translate(0 8.729)"><path d="M-3381.25,1465.75h-3.14a.65.65,0,0,0-.65.65v3.292a.65.65,0,0,0,.65.65h3.14a.65.65,0,0,0,.649-.65V1466.4A.65.65,0,0,0-3381.25,1465.75Zm-.651,3.293h-1.839v-1.993h1.839Z" transform="translate(3385.041 -1465.75)" fill="#f6724c"/></g><g transform="translate(0 0.001)"><path d="M-3381.25,1310.28h-3.14a.641.641,0,0,0-.65.632v6.749a.642.642,0,0,0,.65.632h3.14a.641.641,0,0,0,.649-.632v-6.749A.641.641,0,0,0-3381.25,1310.28Zm-.651,6.749h-1.839v-5.486h1.839Z" transform="translate(3385.041 -1310.28)" fill="#f6724c"/></g><g transform="translate(5.021 0.001)"><path d="M-3291.81,1310.27h-3.14a.64.64,0,0,0-.65.63v3.159a.641.641,0,0,0,.65.63h3.14a.641.641,0,0,0,.649-.63V1310.9A.64.64,0,0,0-3291.81,1310.27Zm-.65,3.159h-1.84v-1.9h1.84Z" transform="translate(3295.6 -1310.27)" fill="#f6724c"/></g><g transform="translate(5.021 5.319)"><path d="M-3291.81,1405h-3.14a.641.641,0,0,0-.65.631v6.741a.641.641,0,0,0,.65.631h3.14a.641.641,0,0,0,.649-.631v-6.741A.641.641,0,0,0-3291.81,1405Zm-.65,6.741h-1.84v-5.479h1.84Z" transform="translate(3295.6 -1405)" fill="#f6724c"/></g><g transform="translate(10.005 0)"><path d="M-3203.041,1310.26h-3.14a.656.656,0,0,0-.649.661v12.024a.657.657,0,0,0,.649.661h3.14a.656.656,0,0,0,.65-.661v-12.024A.656.656,0,0,0-3203.041,1310.26Zm-.481,12.192h-2.177v-11.037h2.177Z" transform="translate(3206.83 -1310.26)" fill="#f6724c"/></g></g></g></svg>