<?xml version="1.0" encoding="utf-8"?>
<!-- Generator: Adobe Illustrator 27.3.1, SVG Export Plug-In . SVG Version: 6.00 Build 0)  -->
<svg version="1.1" xmlns="http://www.w3.org/2000/svg" xmlns:xlink="http://www.w3.org/1999/xlink" x="0px" y="0px"
	 viewBox="0 0 710 160" style="enable-background:new 0 0 710 160;" xml:space="preserve">
<style type="text/css">
	.st0{fill:#B6B6B6;}
	.st1{fill:#6136DA;}
	.st2{fill:#333333;}
	.st3{fill:#5B5B5B;}
	.st4{fill:#FFFFFF;}
	.st5{fill:#E5E5E5;}
</style>
<g id="Warstwa_2">
</g>
<g id="Warstwa_1">
	<path class="st5" d="M699.2387085,100H10.7613134C8.1317129,100,6,97.8682861,6,95.2386856V48.7613144
		C6,46.1317139,8.1317129,44,10.7613134,44h688.477417C701.8682861,44,704,46.1317139,704,48.7613144v46.4773712
		C704,97.8682861,701.8682861,100,699.2387085,100z"/>
	<g>
		<path class="st1" d="M99,78H88V65h11V78z M89,77h9V66h-9V77z"/>
	</g>
	<g>
		<polygon class="st1" points="101,80 90,80 90,77.5 91,77.5 91,79 100,79 100,68 98.5,68 98.5,67 101,67 		"/>
	</g>
	<g>
		<rect x="91" y="69" class="st1" width="5" height="1"/>
	</g>
	<g>
		<rect x="91" y="71" class="st1" width="5" height="1"/>
	</g>
	<g>
		<rect x="91" y="73" class="st1" width="5" height="1"/>
	</g>
	<g>
		<path class="st1" d="M111.7470703,77.8945312h-1.4916992v-5.9921875c0-0.7148438,0.0170898-1.2822266,0.0507812-1.7011719
			c-0.097168,0.1015625-0.2167969,0.2138672-0.3588867,0.3369141c-0.1416016,0.1220703-0.6166992,0.5117188-1.4248047,1.1679688
			l-0.7490234-0.9462891l2.7294922-2.1455078h1.2441406V77.8945312z"/>
		<path class="st1" d="M115.0605469,77.1015625c0-0.3095703,0.0805664-0.5458984,0.2412109-0.7109375
			S115.6953125,76.1425781,116,76.1425781c0.309082,0,0.5439453,0.0859375,0.7045898,0.2568359
			c0.1606445,0.171875,0.2412109,0.4052734,0.2412109,0.7021484c0,0.2998047-0.081543,0.5380859-0.2441406,0.7138672
			c-0.1630859,0.1757812-0.3969727,0.2636719-0.7016602,0.2636719s-0.5375977-0.0869141-0.6982422-0.2607422
			C115.1411133,77.6455078,115.0605469,77.40625,115.0605469,77.1015625z"/>
		<path class="st1" d="M122.3920898,68.6142578h2.7548828c1.277832,0,2.2016602,0.1865234,2.7709961,0.5585938
			c0.5688477,0.3730469,0.8535156,0.9609375,0.8535156,1.7646484c0,0.5419922-0.1396484,0.9921875-0.4189453,1.3525391
			c-0.2792969,0.359375-0.6811523,0.5859375-1.2060547,0.6787109v0.0634766
			c0.6518555,0.1230469,1.1308594,0.3652344,1.4375,0.7265625c0.3071289,0.3623047,0.4604492,0.8525391,0.4604492,1.4697266
			c0,0.8339844-0.2910156,1.4863281-0.8725586,1.9580078c-0.5820312,0.4726562-1.3916016,0.7080078-2.4282227,0.7080078h-3.3515625
			V68.6142578z M123.9091797,72.4482422h1.4599609c0.6347656,0,1.0981445-0.1005859,1.3901367-0.3017578
			c0.2919922-0.2001953,0.4379883-0.5419922,0.4379883-1.0244141c0-0.4365234-0.1577148-0.7509766-0.4726562-0.9462891
			c-0.3154297-0.1943359-0.815918-0.2919922-1.5014648-0.2919922h-1.3139648V72.4482422z M123.9091797,73.6796875v2.9394531
			h1.6123047c0.6347656,0,1.1142578-0.1220703,1.4375-0.3652344c0.3242188-0.2431641,0.4858398-0.6269531,0.4858398-1.1523438
			c0-0.4824219-0.1650391-0.8398438-0.4951172-1.0722656c-0.3300781-0.2333984-0.831543-0.3496094-1.5043945-0.3496094H123.9091797z
			"/>
		<path class="st1" d="M130.7265625,69.0146484c0-0.2666016,0.0732422-0.4716797,0.21875-0.6162109
			c0.1464844-0.1435547,0.3544922-0.2158203,0.6254883-0.2158203c0.262207,0,0.4663086,0.0722656,0.612793,0.2158203
			c0.1455078,0.1445312,0.21875,0.3496094,0.21875,0.6162109c0,0.2539062-0.0732422,0.453125-0.21875,0.5996094
			c-0.1464844,0.1455078-0.3505859,0.21875-0.612793,0.21875c-0.2709961,0-0.4790039-0.0732422-0.6254883-0.21875
			C130.7998047,69.4677734,130.7265625,69.2685547,130.7265625,69.0146484z M132.3071289,77.8945312h-1.4916992v-7.0205078
			h1.4916992V77.8945312z"/>
		<path class="st1" d="M135.9316406,77.8945312h-1.4916992v-9.8769531h1.4916992V77.8945312z"/>
		<path class="st1" d="M139.5561523,77.8945312h-1.4916992v-9.8769531h1.4916992V77.8945312z"/>
		<path class="st1" d="M141.6000977,69.0146484c0-0.2666016,0.0732422-0.4716797,0.21875-0.6162109
			c0.1464844-0.1435547,0.3544922-0.2158203,0.6254883-0.2158203c0.262207,0,0.4663086,0.0722656,0.612793,0.2158203
			c0.1455078,0.1445312,0.21875,0.3496094,0.21875,0.6162109c0,0.2539062-0.0732422,0.453125-0.21875,0.5996094
			c-0.1464844,0.1455078-0.3505859,0.21875-0.612793,0.21875c-0.2709961,0-0.4790039-0.0732422-0.6254883-0.21875
			C141.6733398,69.4677734,141.6000977,69.2685547,141.6000977,69.0146484z M143.1806641,77.8945312h-1.4916992v-7.0205078
			h1.4916992V77.8945312z"/>
		<path class="st1" d="M151.4897461,77.8945312h-1.4980469V73.578125c0-0.5410156-0.1088867-0.9453125-0.3266602-1.2119141
			c-0.2182617-0.2666016-0.5639648-0.4003906-1.0380859-0.4003906c-0.6303711,0-1.0917969,0.1865234-1.3837891,0.5585938
			c-0.2919922,0.3730469-0.4379883,0.9970703-0.4379883,1.8730469v3.4970703h-1.4916992v-7.0205078h1.1679688l0.2094727,0.9208984
			h0.0761719c0.2114258-0.3349609,0.512207-0.5927734,0.9013672-0.7744141
			c0.3891602-0.1826172,0.8208008-0.2734375,1.2949219-0.2734375c1.684082,0,2.5263672,0.8574219,2.5263672,2.5712891V77.8945312z"
			/>
		<path class="st1" d="M159.4941406,70.8740234v0.8193359l-1.199707,0.2216797
			c0.1098633,0.1484375,0.2011719,0.3300781,0.2729492,0.5458984s0.1079102,0.4443359,0.1079102,0.6855469
			c0,0.7236328-0.2495117,1.2929688-0.7490234,1.7080078c-0.4995117,0.4140625-1.1870117,0.6220703-2.0629883,0.6220703
			c-0.2241211,0-0.4272461-0.0175781-0.609375-0.0507812c-0.3217773,0.1982422-0.4824219,0.4316406-0.4824219,0.6982422
			c0,0.1601562,0.0751953,0.28125,0.2255859,0.3613281c0.1499023,0.0810547,0.4262695,0.1210938,0.828125,0.1210938h1.2250977
			c0.7744141,0,1.362793,0.1650391,1.7646484,0.4951172s0.6030273,0.8056641,0.6030273,1.4277344
			c0,0.7958984-0.328125,1.4091797-0.9838867,1.8408203s-1.6040039,0.6474609-2.84375,0.6474609
			c-0.956543,0-1.6865234-0.1689453-2.1899414-0.5078125c-0.503418-0.3378906-0.7553711-0.8203125-0.7553711-1.4472656
			c0-0.4316406,0.1362305-0.7939453,0.409668-1.0888672c0.2724609-0.2939453,0.6547852-0.4980469,1.1455078-0.6123047
			c-0.1987305-0.0839844-0.362793-0.2207031-0.4921875-0.4091797c-0.1289062-0.1884766-0.1933594-0.3857422-0.1933594-0.59375
			c0-0.2617188,0.0742188-0.484375,0.222168-0.6660156c0.1479492-0.1826172,0.3681641-0.3623047,0.6601562-0.5400391
			c-0.3637695-0.15625-0.6591797-0.4111328-0.8852539-0.7646484c-0.2265625-0.3535156-0.3398438-0.7666016-0.3398438-1.2412109
			c0-0.7617188,0.2402344-1.3515625,0.7207031-1.7705078c0.4799805-0.4189453,1.1645508-0.6289062,2.0532227-0.6289062
			c0.1987305,0,0.4072266,0.0136719,0.6254883,0.0410156c0.2177734,0.0283203,0.3818359,0.0566406,0.4916992,0.0859375H159.4941406z
			 M153.9780273,78.9863281c0,0.3222656,0.1450195,0.5693359,0.4350586,0.7431641
			c0.2895508,0.1728516,0.6967773,0.2597656,1.2216797,0.2597656c0.8125,0,1.4174805-0.1162109,1.8154297-0.3486328
			c0.3979492-0.2333984,0.5966797-0.5419922,0.5966797-0.9267578c0-0.3046875-0.1088867-0.5214844-0.3271484-0.6513672
			c-0.2177734-0.1289062-0.6230469-0.1933594-1.215332-0.1933594h-1.1298828c-0.4272461,0-0.7670898,0.1005859-1.019043,0.3017578
			C154.1040039,78.3720703,153.9780273,78.6435547,153.9780273,78.9863281z M154.6191406,73.1464844
			c0,0.4404297,0.1132812,0.7792969,0.3398438,1.015625c0.2260742,0.2373047,0.5507812,0.3554688,0.9741211,0.3554688
			c0.8632812,0,1.2949219-0.4609375,1.2949219-1.3837891c0-0.4570312-0.1069336-0.8095703-0.3208008-1.0566406
			c-0.2133789-0.2480469-0.5380859-0.3710938-0.9741211-0.3710938c-0.4316406,0-0.7583008,0.1220703-0.980957,0.3681641
			C154.7304688,72.3193359,154.6191406,72.6767578,154.6191406,73.1464844z"/>
	</g>
	<g>
		<path class="st2" d="M322,78h-11V65h11V78z M312,77h9V66h-9V77z"/>
	</g>
	<g>
		<polygon class="st2" points="324,80 313,80 313,77.5 314,77.5 314,79 323,79 323,68 321.5,68 321.5,67 324,67 		"/>
	</g>
	<g>
		<rect x="314" y="69" class="st2" width="5" height="1"/>
	</g>
	<g>
		<rect x="314" y="71" class="st2" width="5" height="1"/>
	</g>
	<g>
		<rect x="314" y="73" class="st2" width="5" height="1"/>
	</g>
	<g>
		<path class="st2" d="M338.3486328,77.5h-6.1000977v-0.9082031l2.4438477-2.4560547
			c0.7446289-0.7529297,1.2358398-1.2900391,1.4726562-1.6123047s0.4145508-0.6347656,0.5332031-0.9394531
			s0.1777344-0.6328125,0.1777344-0.984375c0-0.4941406-0.1503906-0.8867188-0.4506836-1.1767578
			s-0.7172852-0.4345703-1.2504883-0.4345703c-0.3852539,0-0.75,0.0625-1.0952148,0.1894531
			c-0.3447266,0.1269531-0.7285156,0.3574219-1.1518555,0.6923828l-0.5585938-0.7177734
			c0.8549805-0.7109375,1.7856445-1.0664062,2.7929688-1.0664062c0.871582,0,1.5551758,0.2236328,2.050293,0.6699219
			c0.4951172,0.4472656,0.7426758,1.046875,0.7426758,1.7998047c0,0.5888672-0.1650391,1.1699219-0.4951172,1.7451172
			c-0.3300781,0.5761719-0.9477539,1.3037109-1.8535156,2.1835938l-2.03125,1.9873047v0.0507812h4.7734375V77.5z"/>
		<path class="st2" d="M340.0117188,76.8271484c0-0.2841797,0.0644531-0.4980469,0.1933594-0.6445312
			c0.1293945-0.1455078,0.3144531-0.21875,0.5556641-0.21875c0.2456055,0,0.4370117,0.0732422,0.5742188,0.21875
			c0.1376953,0.1464844,0.206543,0.3603516,0.206543,0.6445312c0,0.2744141-0.0698242,0.4873047-0.2094727,0.6347656
			s-0.3300781,0.2216797-0.5712891,0.2216797c-0.2158203,0-0.3945312-0.0664062-0.5361328-0.1992188
			C340.0825195,77.3505859,340.0117188,77.1318359,340.0117188,76.8271484z"/>
		<path class="st2" d="M352.3959961,75.03125c0,0.8164062-0.2963867,1.453125-0.8886719,1.9101562
			s-1.3964844,0.6855469-2.4121094,0.6855469c-1.1000977,0-1.9467773-0.1416016-2.5390625-0.4257812v-1.0410156
			c0.3808594,0.1611328,0.7954102,0.2880859,1.2441406,0.3808594c0.4487305,0.09375,0.8930664,0.140625,1.3330078,0.140625
			c0.7192383,0,1.2612305-0.1367188,1.625-0.4101562c0.3637695-0.2724609,0.5458984-0.6523438,0.5458984-1.1386719
			c0-0.3222656-0.0644531-0.5859375-0.1933594-0.7910156c-0.1293945-0.2050781-0.3452148-0.3945312-0.6474609-0.5683594
			c-0.3027344-0.1728516-0.7631836-0.3691406-1.3808594-0.5898438c-0.8632812-0.3085938-1.4799805-0.6748047-1.8505859-1.0976562
			c-0.3701172-0.4238281-0.5551758-0.9765625-0.5551758-1.6572266c0-0.7158203,0.2685547-1.2841797,0.8061523-1.7080078
			c0.5375977-0.4228516,1.2485352-0.6347656,2.1328125-0.6347656c0.9223633,0,1.7709961,0.1699219,2.5454102,0.5078125
			l-0.3364258,0.9394531c-0.7661133-0.3212891-1.5107422-0.4824219-2.234375-0.4824219
			c-0.5712891,0-1.0175781,0.1230469-1.3393555,0.3691406c-0.3217773,0.2451172-0.4824219,0.5859375-0.4824219,1.0214844
			c0,0.3222656,0.059082,0.5849609,0.1777344,0.7900391c0.1186523,0.2060547,0.3183594,0.3935547,0.6000977,0.5654297
			c0.28125,0.1708984,0.7119141,0.3603516,1.2915039,0.5683594c0.9731445,0.3466797,1.6430664,0.71875,2.0092773,1.1171875
			C352.2128906,73.8798828,352.3959961,74.3964844,352.3959961,75.03125z"/>
		<path class="st2" d="M358.8959961,77.5V73c0-0.5673828-0.1289062-0.9902344-0.387207-1.2695312
			s-0.6621094-0.4199219-1.2124023-0.4199219c-0.7319336,0-1.2666016,0.1992188-1.6025391,0.5976562
			c-0.3369141,0.3974609-0.5048828,1.0488281-0.5048828,1.9550781V77.5h-1.0537109v-9.8769531h1.0537109v2.9902344
			c0,0.359375-0.0170898,0.6582031-0.0507812,0.8945312h0.0634766c0.2075195-0.3339844,0.5024414-0.5976562,0.8857422-0.7900391
			c0.3828125-0.1923828,0.8198242-0.2890625,1.3105469-0.2890625c0.8505859,0,1.4882812,0.2021484,1.9140625,0.6064453
			c0.4248047,0.4042969,0.6376953,1.0458984,0.6376953,1.9257812V77.5H358.8959961z"/>
		<path class="st2" d="M362.0253906,68.6582031c0-0.2421875,0.059082-0.4179688,0.1777344-0.5302734
			s0.2666016-0.1689453,0.4443359-0.1689453c0.1694336,0,0.3154297,0.0576172,0.4379883,0.171875
			s0.184082,0.2900391,0.184082,0.5273438c0,0.2363281-0.0615234,0.4130859-0.184082,0.5292969
			c-0.1225586,0.1171875-0.2685547,0.1748047-0.4379883,0.1748047c-0.1777344,0-0.3256836-0.0576172-0.4443359-0.1748047
			C362.0844727,69.0712891,362.0253906,68.8945312,362.0253906,68.6582031z M363.1679688,77.5h-1.0537109v-6.9570312h1.0537109V77.5
			z"/>
		<path class="st2" d="M368.6396484,77.6269531c-0.4526367,0-0.8662109-0.0839844-1.2412109-0.2509766
			c-0.3740234-0.1669922-0.6884766-0.4238281-0.9423828-0.7705078h-0.0761719
			c0.0507812,0.40625,0.0761719,0.7910156,0.0761719,1.1542969v2.8632812h-1.0537109V70.5429688h0.8569336l0.1459961,0.9521484
			h0.0507812c0.2709961-0.3808594,0.5859375-0.6552734,0.9458008-0.8251953s0.7724609-0.2539062,1.237793-0.2539062
			c0.9223633,0,1.6347656,0.3154297,2.1357422,0.9453125c0.5019531,0.6308594,0.7524414,1.515625,0.7524414,2.6542969
			c0,1.1425781-0.2548828,2.0292969-0.7651367,2.6621094C370.2529297,77.3105469,369.5454102,77.6269531,368.6396484,77.6269531z
			 M368.4873047,71.3105469c-0.7109375,0-1.2250977,0.1972656-1.5424805,0.5908203s-0.4804688,1.0205078-0.4887695,1.8789062
			v0.2353516c0,0.9765625,0.1630859,1.6757812,0.4887695,2.0976562c0.3256836,0.4208984,0.8486328,0.6308594,1.5678711,0.6308594
			c0.6010742,0,1.0717773-0.2421875,1.4121094-0.7294922c0.3408203-0.4873047,0.5112305-1.1572266,0.5112305-2.0126953
			c0-0.8671875-0.1704102-1.5322266-0.5112305-1.9960938C369.5844727,71.5429688,369.1049805,71.3105469,368.4873047,71.3105469z"/>
		<path class="st2" d="M376.605957,77.6269531c-0.4526367,0-0.8662109-0.0839844-1.2412109-0.2509766
			c-0.3740234-0.1669922-0.6884766-0.4238281-0.9423828-0.7705078h-0.0761719
			c0.0507812,0.40625,0.0761719,0.7910156,0.0761719,1.1542969v2.8632812h-1.0537109V70.5429688h0.8569336l0.1459961,0.9521484
			h0.0507812c0.2709961-0.3808594,0.5859375-0.6552734,0.9458008-0.8251953s0.7724609-0.2539062,1.237793-0.2539062
			c0.9223633,0,1.6347656,0.3154297,2.1357422,0.9453125c0.5019531,0.6308594,0.7524414,1.515625,0.7524414,2.6542969
			c0,1.1425781-0.2548828,2.0292969-0.7651367,2.6621094C378.2192383,77.3105469,377.5117188,77.6269531,376.605957,77.6269531z
			 M376.4536133,71.3105469c-0.7109375,0-1.2250977,0.1972656-1.5424805,0.5908203s-0.4804688,1.0205078-0.4887695,1.8789062
			v0.2353516c0,0.9765625,0.1630859,1.6757812,0.4887695,2.0976562c0.3256836,0.4208984,0.8486328,0.6308594,1.5678711,0.6308594
			c0.6010742,0,1.0717773-0.2421875,1.4121094-0.7294922c0.3408203-0.4873047,0.5112305-1.1572266,0.5112305-2.0126953
			c0-0.8671875-0.1704102-1.5322266-0.5112305-1.9960938C377.5507812,71.5429688,377.0712891,71.3105469,376.4536133,71.3105469z"/>
		<path class="st2" d="M381.2460938,68.6582031c0-0.2421875,0.059082-0.4179688,0.1777344-0.5302734
			s0.2666016-0.1689453,0.4443359-0.1689453c0.1694336,0,0.3154297,0.0576172,0.4379883,0.171875
			s0.184082,0.2900391,0.184082,0.5273438c0,0.2363281-0.0615234,0.4130859-0.184082,0.5292969
			c-0.1225586,0.1171875-0.2685547,0.1748047-0.4379883,0.1748047c-0.1777344,0-0.3256836-0.0576172-0.4443359-0.1748047
			C381.3051758,69.0712891,381.2460938,68.8945312,381.2460938,68.6582031z M382.3886719,77.5h-1.0537109v-6.9570312h1.0537109V77.5
			z"/>
		<path class="st2" d="M389.3837891,77.5V73c0-0.5673828-0.1289062-0.9902344-0.387207-1.2695312
			s-0.6621094-0.4199219-1.2124023-0.4199219c-0.7280273,0-1.2612305,0.1972656-1.5996094,0.5908203
			s-0.5078125,1.0429688-0.5078125,1.9482422V77.5h-1.0537109v-6.9570312h0.8569336l0.1713867,0.9521484h0.0507812
			c0.2158203-0.3427734,0.5185547-0.6083984,0.9077148-0.796875s0.8232422-0.2822266,1.3012695-0.2822266
			c0.8378906,0,1.4682617,0.2021484,1.8916016,0.6064453c0.4233398,0.4033203,0.6347656,1.0498047,0.6347656,1.9384766V77.5
			H389.3837891z"/>
		<path class="st2" d="M398.2958984,70.5429688v0.6660156l-1.2885742,0.1523438
			c0.1186523,0.1484375,0.2241211,0.3417969,0.3173828,0.5810547s0.1396484,0.5087891,0.1396484,0.8095703
			c0,0.6816406-0.2329102,1.2246094-0.6982422,1.6308594s-1.1044922,0.609375-1.9169922,0.609375
			c-0.2075195,0-0.4018555-0.0166016-0.5839844-0.0507812c-0.4487305,0.2373047-0.6728516,0.5351562-0.6728516,0.8955078
			c0,0.1904297,0.078125,0.3310547,0.2348633,0.421875s0.425293,0.1367188,0.8061523,0.1367188h1.2314453
			c0.753418,0,1.3320312,0.1591797,1.7363281,0.4755859c0.4038086,0.3183594,0.605957,0.7792969,0.605957,1.3847656
			c0,0.7695312-0.309082,1.3574219-0.9267578,1.7607422c-0.6176758,0.4042969-1.519043,0.6064453-2.7041016,0.6064453
			c-0.909668,0-1.6113281-0.1699219-2.1040039-0.5078125c-0.4931641-0.3378906-0.7397461-0.8164062-0.7397461-1.4345703
			c0-0.4228516,0.1352539-0.7890625,0.40625-1.0986328c0.2709961-0.3085938,0.6518555-0.5175781,1.1425781-0.6279297
			c-0.1777344-0.0810547-0.3266602-0.2050781-0.4477539-0.3740234c-0.1201172-0.1699219-0.1806641-0.3671875-0.1806641-0.5908203
			c0-0.2539062,0.0678711-0.4755859,0.203125-0.6669922c0.1352539-0.1894531,0.3491211-0.3740234,0.6411133-0.5517578
			c-0.3598633-0.1474609-0.652832-0.3994141-0.8793945-0.7548828c-0.2260742-0.3554688-0.3393555-0.7617188-0.3393555-1.21875
			c0-0.7617188,0.2285156-1.3496094,0.6855469-1.7617188c0.4570312-0.4130859,1.1044922-0.6191406,1.9423828-0.6191406
			c0.3637695,0,0.6918945,0.0429688,0.9838867,0.1269531H398.2958984z M392.7480469,78.6679688
			c0,0.3769531,0.1586914,0.6621094,0.4760742,0.8574219c0.3173828,0.1943359,0.7724609,0.2910156,1.3647461,0.2910156
			c0.8842773,0,1.5395508-0.1318359,1.9643555-0.3964844c0.4257812-0.2636719,0.6381836-0.6230469,0.6381836-1.0761719
			c0-0.3759766-0.1162109-0.6376953-0.3491211-0.7832031c-0.2329102-0.1464844-0.6708984-0.21875-1.3139648-0.21875h-1.2631836
			c-0.4780273,0-0.8505859,0.1132812-1.1171875,0.3417969S392.7480469,78.2402344,392.7480469,78.6679688z M393.3193359,72.7714844
			c0,0.4863281,0.1376953,0.8544922,0.4125977,1.1035156c0.2749023,0.25,0.6582031,0.375,1.1489258,0.375
			c1.0283203,0,1.5424805-0.5,1.5424805-1.4980469c0-1.0449219-0.5205078-1.5683594-1.5615234-1.5683594
			c-0.4951172,0-0.8759766,0.1337891-1.1425781,0.4003906S393.3193359,72.2460938,393.3193359,72.7714844z"/>
	</g>
	<g>
		<path class="st2" d="M533,78h-11V65h11V78z M523,77h9V66h-9V77z"/>
	</g>
	<g>
		<polygon class="st2" points="535,80 524,80 524,77.5 525,77.5 525,79 534,79 534,68 532.5,68 532.5,67 535,67 		"/>
	</g>
	<g>
		<rect x="525" y="69" class="st2" width="5" height="1"/>
	</g>
	<g>
		<rect x="525" y="71" class="st2" width="5" height="1"/>
	</g>
	<g>
		<rect x="525" y="73" class="st2" width="5" height="1"/>
	</g>
	<g>
		<path class="st2" d="M548.9995117,70.4033203c0,0.5927734-0.1660156,1.0771484-0.4980469,1.4541016
			c-0.3325195,0.3759766-0.8032227,0.6279297-1.4125977,0.7548828v0.0507812
			c0.7446289,0.0927734,1.296875,0.3300781,1.6567383,0.7109375s0.5395508,0.8798828,0.5395508,1.4980469
			c0,0.8837891-0.3066406,1.5644531-0.9204102,2.0410156c-0.6137695,0.4755859-1.4853516,0.7138672-2.6152344,0.7138672
			c-0.4907227,0-0.9404297-0.0371094-1.3486328-0.1113281c-0.4086914-0.0742188-0.8051758-0.2041016-1.1904297-0.390625v-1.0019531
			c0.4018555,0.1982422,0.8305664,0.3496094,1.2851562,0.453125c0.4550781,0.1035156,0.8857422,0.15625,1.2919922,0.15625
			c1.6040039,0,2.4057617-0.6289062,2.4057617-1.8857422c0-1.1259766-0.8842773-1.6884766-2.6533203-1.6884766h-0.9140625V72.25
			h0.9267578c0.7236328,0,1.296875-0.1591797,1.7202148-0.4785156c0.4233398-0.3203125,0.6347656-0.7636719,0.6347656-1.3300781
			c0-0.453125-0.1552734-0.8085938-0.4667969-1.0664062c-0.3105469-0.2578125-0.7329102-0.3867188-1.2661133-0.3867188
			c-0.40625,0-0.7890625,0.0546875-1.1489258,0.1640625c-0.3598633,0.1103516-0.7700195,0.3134766-1.2314453,0.609375
			l-0.5332031-0.7109375c0.3808594-0.2998047,0.8198242-0.5361328,1.3173828-0.7070312
			c0.4970703-0.171875,1.0205078-0.2578125,1.5708008-0.2578125c0.9013672,0,1.6015625,0.2070312,2.1010742,0.6191406
			C548.75,69.1181641,548.9995117,69.6835938,548.9995117,70.4033203z"/>
		<path class="st2" d="M551.0117188,76.8271484c0-0.2841797,0.0644531-0.4980469,0.1933594-0.6445312
			c0.1293945-0.1455078,0.3144531-0.21875,0.5556641-0.21875c0.2456055,0,0.4370117,0.0732422,0.5742188,0.21875
			c0.1376953,0.1464844,0.206543,0.3603516,0.206543,0.6445312c0,0.2744141-0.0698242,0.4873047-0.2094727,0.6347656
			s-0.3300781,0.2216797-0.5712891,0.2216797c-0.2158203,0-0.3945312-0.0664062-0.5361328-0.1992188
			C551.0825195,77.3505859,551.0117188,77.1318359,551.0117188,76.8271484z"/>
		<path class="st2" d="M566.2143555,72.8476562c0,1.484375-0.3754883,2.6523438-1.1269531,3.5039062
			c-0.7509766,0.8496094-1.7949219,1.2753906-3.1323242,1.2753906c-1.3666992,0-2.4213867-0.4179688-3.1645508-1.2539062
			c-0.7421875-0.8359375-1.1137695-2.015625-1.1137695-3.5390625c0-1.5097656,0.3725586-2.6816406,1.1171875-3.5126953
			c0.7446289-0.8320312,1.8027344-1.2470703,3.1738281-1.2470703c1.3330078,0,2.3740234,0.4228516,3.1230469,1.2695312
			C565.8398438,70.1894531,566.2143555,71.3574219,566.2143555,72.8476562z M558.8193359,72.8476562
			c0,1.2558594,0.2675781,2.2089844,0.8032227,2.859375c0.5351562,0.6494141,1.3125,0.9746094,2.3325195,0.9746094
			c1.0283203,0,1.8046875-0.3242188,2.3295898-0.9716797s0.7871094-1.6015625,0.7871094-2.8623047
			c0-1.2490234-0.2612305-2.1953125-0.7841797-2.8408203c-0.5224609-0.6455078-1.2958984-0.9677734-2.3198242-0.9677734
			c-1.0283203,0-1.8100586,0.3242188-2.3452148,0.9736328C559.0869141,70.6621094,558.8193359,71.6074219,558.8193359,72.8476562z"
			/>
		<path class="st2" d="M571.2988281,70.4160156c0.309082,0,0.5859375,0.0253906,0.831543,0.0761719l-0.1459961,0.9775391
			C571.6967773,71.40625,571.4428711,71.375,571.2226562,71.375c-0.5629883,0-1.0439453,0.2285156-1.4443359,0.6855469
			c-0.3994141,0.4570312-0.5996094,1.0253906-0.5996094,1.7070312V77.5H568.125v-6.9570312h0.8696289l0.1206055,1.2890625h0.0507812
			c0.2583008-0.453125,0.5693359-0.8027344,0.9331055-1.0478516S570.862793,70.4160156,571.2988281,70.4160156z"/>
		<path class="st2" d="M578.1669922,76.5664062h-0.0571289c-0.4868164,0.7070312-1.2143555,1.0605469-2.1835938,1.0605469
			c-0.909668,0-1.6176758-0.3105469-2.1235352-0.9335938c-0.5053711-0.6210938-0.7583008-1.5058594-0.7583008-2.6523438
			c0-1.1474609,0.2539062-2.0380859,0.7617188-2.6728516s1.2143555-0.9521484,2.1201172-0.9521484
			c0.9438477,0,1.6674805,0.3427734,2.1708984,1.0283203h0.0825195l-0.0444336-0.5009766l-0.0253906-0.4892578v-2.8310547h1.0537109
			V77.5h-0.8569336L578.1669922,76.5664062z M576.0595703,76.7441406c0.7192383,0,1.2412109-0.1953125,1.5644531-0.5869141
			c0.3242188-0.3916016,0.4858398-1.0224609,0.4858398-1.8945312v-0.2216797c0-0.9863281-0.1640625-1.6894531-0.4916992-2.1113281
			c-0.328125-0.4208984-0.8520508-0.6308594-1.5712891-0.6308594c-0.6176758,0-1.0908203,0.2402344-1.4189453,0.7197266
			c-0.3276367,0.4804688-0.4916992,1.1591797-0.4916992,2.0341797c0,0.8886719,0.1630859,1.5605469,0.4887695,2.0126953
			S575.4291992,76.7441406,576.0595703,76.7441406z"/>
		<path class="st2" d="M584.3369141,77.6269531c-1.0283203,0-1.8398438-0.3125-2.434082-0.9394531
			c-0.5947266-0.6269531-0.8920898-1.4960938-0.8920898-2.609375c0-1.1210938,0.2758789-2.0117188,0.8286133-2.671875
			c0.5517578-0.6601562,1.293457-0.9902344,2.2246094-0.9902344c0.871582,0,1.5615234,0.2871094,2.0693359,0.8603516
			s0.7617188,1.3291016,0.7617188,2.2685547v0.6669922h-4.7924805c0.0209961,0.8173828,0.2275391,1.4365234,0.6186523,1.8603516
			c0.3916016,0.4228516,0.9428711,0.6347656,1.6538086,0.6347656c0.7490234,0,1.4897461-0.1572266,2.2216797-0.4707031v0.9394531
			c-0.3725586,0.1611328-0.7246094,0.2763672-1.0571289,0.3466797
			C585.2075195,77.5917969,584.8066406,77.6269531,584.3369141,77.6269531z M584.0512695,71.2988281
			c-0.5585938,0-1.0039062,0.1816406-1.3359375,0.5449219c-0.3325195,0.3642578-0.5283203,0.8681641-0.5874023,1.5117188h3.637207
			c0-0.6650391-0.1479492-1.1738281-0.4443359-1.5273438S584.6015625,71.2988281,584.0512695,71.2988281z"/>
		<path class="st2" d="M591.8652344,70.4160156c0.309082,0,0.5859375,0.0253906,0.831543,0.0761719l-0.1459961,0.9775391
			C592.2631836,71.40625,592.0092773,71.375,591.7890625,71.375c-0.5629883,0-1.0439453,0.2285156-1.4443359,0.6855469
			c-0.3994141,0.4570312-0.5996094,1.0253906-0.5996094,1.7070312V77.5h-1.0537109v-6.9570312h0.8696289l0.1206055,1.2890625
			h0.0507812c0.2583008-0.453125,0.5693359-0.8027344,0.9331055-1.0478516S591.4291992,70.4160156,591.8652344,70.4160156z"/>
		<path class="st2" d="M597.5336914,77.5v-9.2802734h1.0791016V77.5H597.5336914z"/>
		<path class="st2" d="M605.7602539,77.5V73c0-0.5673828-0.1289062-0.9902344-0.387207-1.2695312
			s-0.6621094-0.4199219-1.2124023-0.4199219c-0.7280273,0-1.2612305,0.1972656-1.5996094,0.5908203
			s-0.5078125,1.0429688-0.5078125,1.9482422V77.5h-1.0537109v-6.9570312h0.8569336l0.1713867,0.9521484h0.0507812
			c0.2158203-0.3427734,0.5185547-0.6083984,0.9077148-0.796875s0.8232422-0.2822266,1.3012695-0.2822266
			c0.8378906,0,1.4682617,0.2021484,1.8916016,0.6064453c0.4233398,0.4033203,0.6347656,1.0498047,0.6347656,1.9384766V77.5
			H605.7602539z"/>
		<path class="st2" d="M612.1142578,71.3613281h-1.7709961V77.5h-1.0537109v-6.1386719h-1.2441406v-0.4755859l1.2441406-0.3808594
			v-0.3876953c0-1.7089844,0.7470703-2.5644531,2.2407227-2.5644531c0.3681641,0,0.7998047,0.0742188,1.2949219,0.2226562
			l-0.2729492,0.84375c-0.40625-0.1308594-0.753418-0.1962891-1.0410156-0.1962891
			c-0.3979492,0-0.6918945,0.1318359-0.8823242,0.3964844s-0.2856445,0.6884766-0.2856445,1.2724609v0.4511719h1.7709961V71.3613281
			z"/>
		<path class="st2" d="M619.3886719,74.015625c0,1.1337891-0.2856445,2.0195312-0.8569336,2.65625
			s-1.3603516,0.9550781-2.3676758,0.9550781c-0.6220703,0-1.1743164-0.1464844-1.6567383-0.4375
			c-0.4824219-0.2929688-0.8549805-0.7109375-1.1171875-1.2578125c-0.262207-0.5449219-0.3935547-1.1845703-0.3935547-1.9160156
			c0-1.1347656,0.2836914-2.0175781,0.8505859-2.6503906s1.3540039-0.9492188,2.3613281-0.9492188
			c0.9731445,0,1.746582,0.3242188,2.3198242,0.9707031C619.1020508,72.0351562,619.3886719,72.9101562,619.3886719,74.015625z
			 M614.0883789,74.015625c0,0.8886719,0.1777344,1.5654297,0.5332031,2.03125
			c0.3554688,0.4648438,0.8779297,0.6972656,1.5678711,0.6972656s1.2133789-0.2314453,1.5712891-0.6943359
			c0.3574219-0.4638672,0.5361328-1.1416016,0.5361328-2.0341797c0-0.8847656-0.1787109-1.5566406-0.5361328-2.015625
			c-0.3579102-0.4589844-0.8857422-0.6894531-1.5839844-0.6894531c-0.6899414,0-1.2104492,0.2265625-1.5615234,0.6796875
			S614.0883789,73.1181641,614.0883789,74.015625z"/>
	</g>
	<path class="st1" d="M236.5965881,100H7.9999981C6.8954296,100,6,99.1045685,6,98v-0.0000076
		C6,96.8954239,6.8954296,96,7.9999981,96h228.5965881c1.1045685,0,2,0.8954239,2,1.9999924V98
		C238.5965881,99.1045685,237.7011566,100,236.5965881,100z"/>
</g>
</svg>
