<?xml version="1.0" encoding="utf-8"?>
<!-- Generator: Adobe Illustrator 27.3.1, SVG Export Plug-In . SVG Version: 6.00 Build 0)  -->
<svg version="1.1" xmlns="http://www.w3.org/2000/svg" xmlns:xlink="http://www.w3.org/1999/xlink" x="0px" y="0px"
	 viewBox="0 0 710 160" style="enable-background:new 0 0 710 160;" xml:space="preserve">
<style type="text/css">
	.st0{fill:#B6B6B6;}
	.st1{fill:#6136DA;}
	.st2{fill:#333333;}
	.st3{fill:#5B5B5B;}
	.st4{fill:#FFFFFF;}
	.st5{fill:#E5E5E5;}
</style>
<g id="Warstwa_2">
</g>
<g id="Warstwa_1">
	<g>
		<path class="st1" d="M187,87h-11V74h11V87z M177,86h9V75h-9V86z"/>
	</g>
	<g>
		<polygon class="st1" points="189,89 178,89 178,86.5 179,86.5 179,88 188,88 188,77 186.5,77 186.5,76 189,76 		"/>
	</g>
	<g>
		<rect x="179" y="78" class="st1" width="5" height="1"/>
	</g>
	<g>
		<rect x="179" y="80" class="st1" width="5" height="1"/>
	</g>
	<g>
		<rect x="179" y="82" class="st1" width="5" height="1"/>
	</g>
	<g>
		<path class="st1" d="M199.7470703,86.8950195h-1.4912109V80.902832c0-0.715332,0.0166016-1.2822266,0.0507812-1.7011719
			c-0.0976562,0.1015625-0.2167969,0.2138672-0.359375,0.3364258c-0.1416016,0.1225586-0.6171875,0.512207-1.4248047,1.1679688
			l-0.7490234-0.9458008l2.7294922-2.1455078h1.2441406V86.8950195z"/>
		<path class="st1" d="M203.0605469,86.1015625c0-0.309082,0.0800781-0.5458984,0.2412109-0.7109375
			S203.6953125,85.1430664,204,85.1430664c0.3085938,0,0.5439453,0.0859375,0.7050781,0.2568359
			c0.1601562,0.171875,0.2402344,0.4052734,0.2402344,0.7016602c0,0.300293-0.0810547,0.5385742-0.2441406,0.7143555
			c-0.1621094,0.175293-0.3964844,0.2631836-0.7011719,0.2631836s-0.5371094-0.0869141-0.6982422-0.2602539
			S203.0605469,86.40625,203.0605469,86.1015625z"/>
		<path class="st1" d="M210.3925781,77.6147461h2.7539062c1.2783203,0,2.2021484,0.1860352,2.7714844,0.5585938
			c0.5683594,0.3725586,0.8535156,0.9604492,0.8535156,1.7646484c0,0.5415039-0.1396484,0.9921875-0.4189453,1.3520508
			s-0.6806641,0.5859375-1.2060547,0.6791992v0.0634766c0.6523438,0.1225586,1.1308594,0.3652344,1.4375,0.7265625
			c0.3066406,0.3623047,0.4609375,0.8520508,0.4609375,1.4697266c0,0.8334961-0.2910156,1.4863281-0.8730469,1.9580078
			c-0.5820312,0.472168-1.3916016,0.7080078-2.4277344,0.7080078h-3.3515625V77.6147461z M211.9091797,81.4487305h1.4599609
			c0.6347656,0,1.0976562-0.1005859,1.390625-0.3017578c0.2910156-0.2006836,0.4375-0.5424805,0.4375-1.0249023
			c0-0.4360352-0.1582031-0.7509766-0.4726562-0.9458008c-0.3154297-0.1948242-0.8164062-0.2919922-1.5019531-0.2919922h-1.3134766
			V81.4487305z M211.9091797,82.6801758v2.9389648h1.6123047c0.6347656,0,1.1142578-0.121582,1.4375-0.3647461
			c0.3242188-0.2436523,0.4863281-0.6274414,0.4863281-1.1523438c0-0.4824219-0.1660156-0.8398438-0.4960938-1.0727539
			s-0.8310547-0.3491211-1.5039062-0.3491211H211.9091797z"/>
		<path class="st1" d="M218.7265625,78.0146484c0-0.2666016,0.0732422-0.4716797,0.21875-0.6157227
			c0.1464844-0.144043,0.3544922-0.2158203,0.625-0.2158203c0.2626953,0,0.4667969,0.0717773,0.6132812,0.2158203
			c0.1455078,0.144043,0.21875,0.3491211,0.21875,0.6157227c0,0.2539062-0.0732422,0.4536133-0.21875,0.6000977
			c-0.1464844,0.1455078-0.3505859,0.21875-0.6132812,0.21875c-0.2705078,0-0.4785156-0.0732422-0.625-0.21875
			C218.7998047,78.4682617,218.7265625,78.2685547,218.7265625,78.0146484z M220.3066406,86.8950195h-1.4912109v-7.0205078
			h1.4912109V86.8950195z"/>
		<path class="st1" d="M223.9316406,86.8950195h-1.4921875v-9.8769531h1.4921875V86.8950195z"/>
		<path class="st1" d="M227.5566406,86.8950195h-1.4921875v-9.8769531h1.4921875V86.8950195z"/>
		<path class="st1" d="M229.5996094,78.0146484c0-0.2666016,0.0742188-0.4716797,0.21875-0.6157227
			c0.1464844-0.144043,0.3554688-0.2158203,0.6259766-0.2158203c0.2626953,0,0.4658203,0.0717773,0.6123047,0.2158203
			s0.21875,0.3491211,0.21875,0.6157227c0,0.2539062-0.0722656,0.4536133-0.21875,0.6000977
			c-0.1464844,0.1455078-0.3496094,0.21875-0.6123047,0.21875c-0.2705078,0-0.4794922-0.0732422-0.6259766-0.21875
			C229.6738281,78.4682617,229.5996094,78.2685547,229.5996094,78.0146484z M231.1806641,86.8950195h-1.4912109v-7.0205078
			h1.4912109V86.8950195z"/>
		<path class="st1" d="M239.4902344,86.8950195h-1.4980469v-4.3164062c0-0.5415039-0.109375-0.9458008-0.3271484-1.2124023
			s-0.5634766-0.3999023-1.0380859-0.3999023c-0.6308594,0-1.0917969,0.1860352-1.3837891,0.5585938
			s-0.4384766,0.996582-0.4384766,1.8725586v3.4975586h-1.4912109v-7.0205078h1.1679688l0.2099609,0.9204102h0.0761719
			c0.2109375-0.3344727,0.5117188-0.5922852,0.9003906-0.7744141c0.3896484-0.1821289,0.8212891-0.2729492,1.2949219-0.2729492
			c1.6845703,0,2.5273438,0.8569336,2.5273438,2.5708008V86.8950195z"/>
		<path class="st1" d="M247.4941406,79.8745117v0.8188477l-1.1992188,0.222168
			c0.109375,0.1479492,0.2011719,0.3300781,0.2724609,0.5458984s0.1083984,0.4443359,0.1083984,0.6855469
			c0,0.7236328-0.25,1.2929688-0.75,1.7075195c-0.4990234,0.4145508-1.1865234,0.6220703-2.0625,0.6220703
			c-0.2246094,0-0.4277344-0.0170898-0.609375-0.0507812c-0.3222656,0.1987305-0.4824219,0.4316406-0.4824219,0.6982422
			c0,0.1606445,0.0751953,0.28125,0.2255859,0.3618164c0.1494141,0.0805664,0.4267578,0.1206055,0.828125,0.1206055h1.2255859
			c0.7734375,0,1.3623047,0.1650391,1.7636719,0.4951172c0.4023438,0.3300781,0.6035156,0.8061523,0.6035156,1.4282227
			c0,0.7954102-0.328125,1.4091797-0.984375,1.8408203c-0.6552734,0.4316406-1.6035156,0.6474609-2.84375,0.6474609
			c-0.9560547,0-1.6855469-0.1694336-2.1894531-0.5078125s-0.7558594-0.8208008-0.7558594-1.4472656
			c0-0.4316406,0.1367188-0.7944336,0.4101562-1.0888672c0.2724609-0.2939453,0.6542969-0.4980469,1.1455078-0.6123047
			c-0.1982422-0.0844727-0.3623047-0.2211914-0.4921875-0.4091797c-0.1289062-0.1884766-0.1933594-0.3862305-0.1933594-0.59375
			c0-0.262207,0.0742188-0.484375,0.2216797-0.6665039c0.1484375-0.1821289,0.3691406-0.3618164,0.6601562-0.5395508
			c-0.3632812-0.1567383-0.6582031-0.4116211-0.8847656-0.7646484c-0.2265625-0.3535156-0.3398438-0.7670898-0.3398438-1.2412109
			c0-0.7617188,0.2402344-1.3520508,0.7207031-1.7709961s1.1640625-0.628418,2.0527344-0.628418
			c0.1992188,0,0.4082031,0.0136719,0.6259766,0.0410156c0.2177734,0.027832,0.3818359,0.0561523,0.4912109,0.0859375H247.4941406z
			 M241.9785156,87.9868164c0,0.3217773,0.1445312,0.5693359,0.4345703,0.7426758s0.6962891,0.2602539,1.2216797,0.2602539
			c0.8125,0,1.4179688-0.1162109,1.8154297-0.3491211s0.5966797-0.5415039,0.5966797-0.9267578
			c0-0.3046875-0.109375-0.5214844-0.3271484-0.6508789c-0.2177734-0.1289062-0.6230469-0.1933594-1.2158203-0.1933594H243.375
			c-0.4277344,0-0.7675781,0.1005859-1.0195312,0.3017578C242.1035156,87.3720703,241.9785156,87.644043,241.9785156,87.9868164z
			 M242.6191406,82.1469727c0,0.4399414,0.1132812,0.7788086,0.3398438,1.015625s0.5507812,0.3554688,0.9746094,0.3554688
			c0.8632812,0,1.2949219-0.4614258,1.2949219-1.3837891c0-0.4570312-0.1074219-0.8095703-0.3212891-1.0566406
			c-0.2138672-0.2480469-0.5380859-0.371582-0.9736328-0.371582c-0.4316406,0-0.7587891,0.1225586-0.9814453,0.3681641
			C242.7304688,81.3198242,242.6191406,81.6772461,242.6191406,82.1469727z"/>
	</g>
	<g>
		<path class="st2" d="M302,87h-11V74h11V87z M292,86h9V75h-9V86z"/>
	</g>
	<g>
		<polygon class="st2" points="304,89 293,89 293,86.5 294,86.5 294,88 303,88 303,77 301.5,77 301.5,76 304,76 		"/>
	</g>
	<g>
		<rect x="294" y="78" class="st2" width="5" height="1"/>
	</g>
	<g>
		<rect x="294" y="80" class="st2" width="5" height="1"/>
	</g>
	<g>
		<rect x="294" y="82" class="st2" width="5" height="1"/>
	</g>
	<g>
		<path class="st2" d="M318.3486328,86.5h-6.1005859v-0.9077148l2.4443359-2.456543
			c0.7451172-0.753418,1.2353516-1.2905273,1.4726562-1.6123047s0.4150391-0.6347656,0.5332031-0.9394531
			s0.1777344-0.6328125,0.1777344-0.9838867c0-0.4951172-0.1503906-0.8876953-0.4501953-1.1772461
			c-0.3007812-0.2900391-0.7177734-0.4350586-1.2509766-0.4350586c-0.3857422,0-0.75,0.0634766-1.0947266,0.1904297
			c-0.3457031,0.1269531-0.7285156,0.3574219-1.1523438,0.6918945l-0.5585938-0.7172852
			c0.8554688-0.7109375,1.7851562-1.0664062,2.7929688-1.0664062c0.8710938,0,1.5546875,0.2231445,2.0507812,0.6694336
			c0.4941406,0.4467773,0.7421875,1.0463867,0.7421875,1.7998047c0,0.5883789-0.1650391,1.1699219-0.4951172,1.7456055
			s-0.9482422,1.3032227-1.8535156,2.1835938l-2.03125,1.9868164v0.0507812h4.7734375V86.5z"/>
		<path class="st2" d="M320.0117188,85.8271484c0-0.2836914,0.0644531-0.4980469,0.1933594-0.6445312
			c0.1289062-0.1455078,0.3144531-0.21875,0.5556641-0.21875c0.2451172,0,0.4365234,0.0732422,0.5742188,0.21875
			c0.1376953,0.1464844,0.2060547,0.3608398,0.2060547,0.6445312c0,0.2749023-0.0693359,0.4868164-0.2089844,0.6347656
			s-0.3300781,0.222168-0.5712891,0.222168c-0.2158203,0-0.3945312-0.0668945-0.5361328-0.199707
			C320.0820312,86.3505859,320.0117188,86.1318359,320.0117188,85.8271484z"/>
		<path class="st2" d="M332.3964844,84.0307617c0,0.8168945-0.296875,1.4536133-0.8886719,1.9106445
			c-0.5927734,0.4570312-1.3964844,0.6855469-2.4121094,0.6855469c-1.1005859,0-1.9472656-0.1416016-2.5390625-0.425293v-1.0410156
			c0.3808594,0.1606445,0.7949219,0.2875977,1.2441406,0.3808594c0.4482422,0.0932617,0.8925781,0.1396484,1.3320312,0.1396484
			c0.7197266,0,1.2617188-0.1362305,1.625-0.409668c0.3642578-0.2724609,0.546875-0.6523438,0.546875-1.1391602
			c0-0.3217773-0.0644531-0.5849609-0.1933594-0.7905273c-0.1298828-0.2050781-0.3457031-0.3945312-0.6484375-0.5678711
			s-0.7626953-0.3701172-1.3808594-0.590332c-0.8632812-0.309082-1.4794922-0.6748047-1.8496094-1.0981445
			c-0.3710938-0.4233398-0.5556641-0.9755859-0.5556641-1.6567383c0-0.715332,0.2685547-1.2841797,0.8056641-1.7075195
			c0.5380859-0.4233398,1.2490234-0.6347656,2.1328125-0.6347656c0.9228516,0,1.7714844,0.1694336,2.5458984,0.5078125
			l-0.3369141,0.9394531c-0.765625-0.3217773-1.5097656-0.4824219-2.234375-0.4824219
			c-0.5703125,0-1.0175781,0.1225586-1.3388672,0.3681641s-0.4824219,0.5859375-0.4824219,1.0219727
			c0,0.3217773,0.0595703,0.5849609,0.1777344,0.7900391c0.1181641,0.2055664,0.3183594,0.3935547,0.6005859,0.5654297
			c0.28125,0.1708984,0.7109375,0.3603516,1.2910156,0.5678711c0.9726562,0.347168,1.6425781,0.7192383,2.0097656,1.1171875
			C332.2128906,82.8798828,332.3964844,83.3959961,332.3964844,84.0307617z"/>
		<path class="st2" d="M338.8964844,86.5v-4.5004883c0-0.5668945-0.1289062-0.9902344-0.3876953-1.2695312
			s-0.6621094-0.4189453-1.2119141-0.4189453c-0.7324219,0-1.2675781,0.1987305-1.6035156,0.5966797
			s-0.5039062,1.0493164-0.5039062,1.9550781V86.5h-1.0546875v-9.8769531h1.0546875v2.9897461
			c0,0.3598633-0.0175781,0.6582031-0.0507812,0.8950195h0.0625c0.2080078-0.3344727,0.5029297-0.5976562,0.8867188-0.7900391
			c0.3828125-0.1928711,0.8193359-0.2890625,1.3105469-0.2890625c0.8496094,0,1.4882812,0.2021484,1.9140625,0.6064453
			c0.4238281,0.4038086,0.6367188,1.0458984,0.6367188,1.9262695V86.5H338.8964844z"/>
		<path class="st2" d="M342.0253906,77.6577148c0-0.2412109,0.0585938-0.4179688,0.1777344-0.5297852
			c0.1191406-0.1123047,0.2666016-0.168457,0.4443359-0.168457c0.1689453,0,0.3154297,0.0571289,0.4384766,0.1713867
			c0.1220703,0.1142578,0.1835938,0.2900391,0.1835938,0.5268555s-0.0615234,0.4135742-0.1835938,0.5297852
			c-0.1230469,0.1166992-0.2695312,0.1748047-0.4384766,0.1748047c-0.1777344,0-0.3251953-0.0581055-0.4443359-0.1748047
			C342.0839844,78.0712891,342.0253906,77.8945312,342.0253906,77.6577148z M343.1679688,86.5h-1.0537109v-6.9570312h1.0537109V86.5
			z"/>
		<path class="st2" d="M348.6396484,86.6269531c-0.4521484,0-0.8662109-0.0834961-1.2412109-0.2509766
			c-0.3740234-0.1669922-0.6884766-0.4238281-0.9423828-0.7709961h-0.0761719
			c0.0507812,0.40625,0.0761719,0.7915039,0.0761719,1.1552734v2.862793h-1.0537109V79.5429688h0.8574219l0.1455078,0.9521484
			h0.0507812c0.2705078-0.3808594,0.5859375-0.6557617,0.9462891-0.8251953
			c0.359375-0.1694336,0.7714844-0.2539062,1.2373047-0.2539062c0.9228516,0,1.6347656,0.3154297,2.1357422,0.9458008
			c0.5019531,0.6303711,0.7519531,1.5151367,0.7519531,2.6533203c0,1.1425781-0.2539062,2.0302734-0.7646484,2.6625977
			C350.2529297,86.3105469,349.5449219,86.6269531,348.6396484,86.6269531z M348.4873047,80.3110352
			c-0.7109375,0-1.2255859,0.1967773-1.5419922,0.590332c-0.3183594,0.3935547-0.4804688,1.0200195-0.4892578,1.8789062v0.2348633
			c0,0.9775391,0.1630859,1.6767578,0.4892578,2.0981445c0.3251953,0.4208984,0.8476562,0.6313477,1.5673828,0.6313477
			c0.6005859,0,1.0712891-0.2431641,1.4121094-0.7299805s0.5107422-1.1572266,0.5107422-2.012207
			c0-0.8676758-0.1699219-1.5327148-0.5107422-1.996582C349.5839844,80.5429688,349.1054688,80.3110352,348.4873047,80.3110352z"/>
		<path class="st2" d="M356.6054688,86.6269531c-0.4521484,0-0.8652344-0.0834961-1.2402344-0.2509766
			c-0.375-0.1669922-0.6894531-0.4238281-0.9433594-0.7709961h-0.0761719
			c0.0507812,0.40625,0.0761719,0.7915039,0.0761719,1.1552734v2.862793h-1.0527344V79.5429688h0.8564453l0.1455078,0.9521484
			h0.0507812c0.2714844-0.3808594,0.5859375-0.6557617,0.9462891-0.8251953s0.7724609-0.2539062,1.2373047-0.2539062
			c0.9228516,0,1.6347656,0.3154297,2.1367188,0.9458008s0.7519531,1.5151367,0.7519531,2.6533203
			c0,1.1425781-0.2548828,2.0302734-0.765625,2.6625977C358.21875,86.3105469,357.5117188,86.6269531,356.6054688,86.6269531z
			 M356.453125,80.3110352c-0.7109375,0-1.2246094,0.1967773-1.5419922,0.590332s-0.4804688,1.0200195-0.4892578,1.8789062
			v0.2348633c0,0.9775391,0.1640625,1.6767578,0.4892578,2.0981445c0.3251953,0.4208984,0.8486328,0.6313477,1.5673828,0.6313477
			c0.6015625,0,1.0722656-0.2431641,1.4121094-0.7299805c0.3417969-0.4868164,0.5117188-1.1572266,0.5117188-2.012207
			c0-0.8676758-0.1699219-1.5327148-0.5117188-1.996582C357.5507812,80.5429688,357.0712891,80.3110352,356.453125,80.3110352z"/>
		<path class="st2" d="M361.2460938,77.6577148c0-0.2412109,0.0585938-0.4179688,0.1777344-0.5297852
			c0.1191406-0.1123047,0.2666016-0.168457,0.4443359-0.168457c0.1689453,0,0.3154297,0.0571289,0.4384766,0.1713867
			c0.1220703,0.1142578,0.1835938,0.2900391,0.1835938,0.5268555s-0.0615234,0.4135742-0.1835938,0.5297852
			c-0.1230469,0.1166992-0.2695312,0.1748047-0.4384766,0.1748047c-0.1777344,0-0.3251953-0.0581055-0.4443359-0.1748047
			C361.3046875,78.0712891,361.2460938,77.8945312,361.2460938,77.6577148z M362.3886719,86.5h-1.0537109v-6.9570312h1.0537109V86.5
			z"/>
		<path class="st2" d="M369.3837891,86.5v-4.5004883c0-0.5668945-0.1289062-0.9902344-0.3876953-1.2695312
			c-0.2578125-0.2792969-0.6621094-0.4189453-1.2119141-0.4189453c-0.7275391,0-1.2607422,0.1967773-1.5996094,0.590332
			s-0.5078125,1.0429688-0.5078125,1.9487305V86.5h-1.0537109v-6.9570312h0.8574219l0.1708984,0.9521484h0.0507812
			c0.2158203-0.3427734,0.5185547-0.6083984,0.9072266-0.796875c0.3896484-0.1879883,0.8242188-0.2822266,1.3017578-0.2822266
			c0.8378906,0,1.4677734,0.2021484,1.8916016,0.6064453c0.4238281,0.4038086,0.6347656,1.050293,0.6347656,1.9389648V86.5
			H369.3837891z"/>
		<path class="st2" d="M378.2958984,79.5429688v0.6665039l-1.2880859,0.1523438
			c0.1181641,0.1479492,0.2236328,0.3417969,0.3164062,0.5805664c0.09375,0.2392578,0.140625,0.5092773,0.140625,0.8095703
			c0,0.6811523-0.2333984,1.2250977-0.6992188,1.6313477c-0.4648438,0.40625-1.1035156,0.609375-1.9160156,0.609375
			c-0.2080078,0-0.4023438-0.0170898-0.5839844-0.0507812c-0.4492188,0.2368164-0.6738281,0.5351562-0.6738281,0.8950195
			c0,0.1904297,0.078125,0.3310547,0.2353516,0.421875c0.1572266,0.0913086,0.4248047,0.1367188,0.8056641,0.1367188h1.2324219
			c0.7529297,0,1.3320312,0.1586914,1.7363281,0.4760742c0.4033203,0.3173828,0.6054688,0.7788086,0.6054688,1.3837891
			c0,0.7700195-0.3085938,1.3574219-0.9267578,1.7612305c-0.6181641,0.4042969-1.5185547,0.6064453-2.7041016,0.6064453
			c-0.9101562,0-1.6113281-0.1694336-2.1035156-0.5078125c-0.4941406-0.3383789-0.7402344-0.8168945-0.7402344-1.4345703
			c0-0.4233398,0.1347656-0.7890625,0.40625-1.0981445s0.6523438-0.5185547,1.1425781-0.628418
			c-0.1777344-0.0805664-0.3261719-0.2050781-0.4472656-0.3745117s-0.1816406-0.3662109-0.1816406-0.590332
			c0-0.2539062,0.0683594-0.4760742,0.203125-0.6665039c0.1357422-0.1904297,0.3496094-0.3745117,0.6416016-0.5522461
			c-0.3603516-0.1479492-0.6533203-0.3999023-0.8798828-0.7553711c-0.2255859-0.3554688-0.3388672-0.7617188-0.3388672-1.21875
			c0-0.7617188,0.2285156-1.3491211,0.6855469-1.7612305c0.4570312-0.4130859,1.1044922-0.6191406,1.9423828-0.6191406
			c0.3632812,0,0.6914062,0.0424805,0.984375,0.1269531H378.2958984z M372.7480469,87.6679688
			c0,0.3764648,0.1582031,0.6621094,0.4765625,0.8569336c0.3164062,0.1948242,0.7714844,0.2919922,1.3642578,0.2919922
			c0.8837891,0,1.5400391-0.1323242,1.9638672-0.3969727c0.4257812-0.2641602,0.6386719-0.6230469,0.6386719-1.0756836
			c0-0.3764648-0.1162109-0.6381836-0.3496094-0.7836914c-0.2324219-0.1464844-0.6699219-0.2192383-1.3134766-0.2192383h-1.2626953
			c-0.4785156,0-0.8515625,0.1142578-1.1171875,0.3427734C372.8808594,86.9125977,372.7480469,87.2407227,372.7480469,87.6679688z
			 M373.3193359,81.7709961c0,0.4868164,0.1376953,0.8549805,0.4130859,1.1044922
			C374.0068359,83.125,374.390625,83.25,374.8808594,83.25c1.0283203,0,1.5429688-0.4995117,1.5429688-1.4980469
			c0-1.0454102-0.5214844-1.5678711-1.5625-1.5678711c-0.4941406,0-0.875,0.1333008-1.1425781,0.3999023
			C373.453125,80.8505859,373.3193359,81.2460938,373.3193359,81.7709961z"/>
	</g>
	<g>
		<path class="st2" d="M433,87h-11V74h11V87z M423,86h9V75h-9V86z"/>
	</g>
	<g>
		<polygon class="st2" points="435,89 424,89 424,86.5 425,86.5 425,88 434,88 434,77 432.5,77 432.5,76 435,76 		"/>
	</g>
	<g>
		<rect x="425" y="78" class="st2" width="5" height="1"/>
	</g>
	<g>
		<rect x="425" y="80" class="st2" width="5" height="1"/>
	</g>
	<g>
		<rect x="425" y="82" class="st2" width="5" height="1"/>
	</g>
	<g>
		<path class="st2" d="M449,79.4033203c0,0.5922852-0.1660156,1.0771484-0.4980469,1.4536133
			c-0.3330078,0.3764648-0.8037109,0.628418-1.4130859,0.7553711v0.0507812
			c0.7451172,0.0932617,1.296875,0.3300781,1.6572266,0.7109375c0.359375,0.3808594,0.5390625,0.8803711,0.5390625,1.4980469
			c0,0.8842773-0.3066406,1.5644531-0.9199219,2.0410156c-0.6142578,0.4755859-1.4863281,0.7138672-2.6152344,0.7138672
			c-0.4912109,0-0.9414062-0.0371094-1.3496094-0.1113281c-0.4082031-0.0737305-0.8046875-0.2041016-1.1894531-0.3901367v-1.0029297
			c0.4013672,0.1987305,0.8300781,0.3500977,1.2851562,0.4536133c0.4550781,0.1040039,0.8847656,0.1557617,1.2910156,0.1557617
			c1.6044922,0,2.40625-0.628418,2.40625-1.8852539c0-1.1254883-0.8847656-1.6884766-2.6533203-1.6884766h-0.9140625v-0.9077148
			h0.9267578c0.7236328,0,1.296875-0.159668,1.7207031-0.4790039c0.4228516-0.3198242,0.6347656-0.7631836,0.6347656-1.3300781
			c0-0.4526367-0.15625-0.8081055-0.4667969-1.0664062s-0.7333984-0.387207-1.2666016-0.387207
			c-0.40625,0-0.7890625,0.0551758-1.1494141,0.1650391c-0.359375,0.1098633-0.7695312,0.3129883-1.2304688,0.609375
			l-0.5332031-0.7109375c0.3808594-0.300293,0.8193359-0.5366211,1.3164062-0.7075195
			c0.4980469-0.171875,1.0214844-0.2573242,1.5712891-0.2573242c0.9013672,0,1.6015625,0.206543,2.1005859,0.6186523
			C448.75,78.1181641,449,78.684082,449,79.4033203z"/>
		<path class="st2" d="M451.0117188,85.8271484c0-0.2836914,0.0644531-0.4980469,0.1933594-0.6445312
			c0.1289062-0.1455078,0.3144531-0.21875,0.5556641-0.21875c0.2451172,0,0.4365234,0.0732422,0.5742188,0.21875
			c0.1376953,0.1464844,0.2060547,0.3608398,0.2060547,0.6445312c0,0.2749023-0.0693359,0.4868164-0.2089844,0.6347656
			s-0.3300781,0.222168-0.5712891,0.222168c-0.2158203,0-0.3945312-0.0668945-0.5361328-0.199707
			C451.0820312,86.3505859,451.0117188,86.1318359,451.0117188,85.8271484z"/>
		<path class="st2" d="M466.2148438,81.847168c0,1.4853516-0.3759766,2.6533203-1.1269531,3.5039062
			c-0.7519531,0.8505859-1.7949219,1.2758789-3.1328125,1.2758789c-1.3671875,0-2.421875-0.4179688-3.1640625-1.2539062
			c-0.7421875-0.8354492-1.1142578-2.0151367-1.1142578-3.5385742c0-1.5107422,0.3720703-2.6821289,1.1171875-3.5131836
			c0.7451172-0.8320312,1.8027344-1.2475586,3.1738281-1.2475586c1.3330078,0,2.3740234,0.4233398,3.1230469,1.2695312
			S466.2148438,80.3574219,466.2148438,81.847168z M458.8193359,81.847168c0,1.2568359,0.2675781,2.2099609,0.8037109,2.8598633
			c0.5351562,0.6494141,1.3125,0.9741211,2.3320312,0.9741211c1.0283203,0,1.8046875-0.3237305,2.3300781-0.9711914
			c0.5244141-0.6474609,0.7871094-1.6015625,0.7871094-2.862793c0-1.2485352-0.2617188-2.1953125-0.7851562-2.840332
			c-0.5214844-0.6455078-1.2949219-0.9682617-2.3193359-0.9682617c-1.0283203,0-1.8095703,0.324707-2.3447266,0.9741211
			C459.0869141,79.6625977,458.8193359,80.6074219,458.8193359,81.847168z"/>
		<path class="st2" d="M471.2988281,79.4160156c0.3085938,0,0.5859375,0.0253906,0.8320312,0.0761719l-0.1464844,0.9775391
			c-0.2871094-0.0634766-0.5410156-0.0952148-0.7617188-0.0952148c-0.5625,0-1.0439453,0.2285156-1.4443359,0.6855469
			c-0.3994141,0.4570312-0.5996094,1.0263672-0.5996094,1.7075195V86.5H468.125v-6.9570312h0.8691406l0.1210938,1.2885742h0.0507812
			c0.2578125-0.4526367,0.5693359-0.8017578,0.9335938-1.0473633
			C470.4628906,79.5385742,470.8632812,79.4160156,471.2988281,79.4160156z"/>
		<path class="st2" d="M478.1669922,85.5668945h-0.0576172c-0.4863281,0.706543-1.2138672,1.0600586-2.1835938,1.0600586
			c-0.9091797,0-1.6171875-0.3110352-2.1230469-0.9331055s-0.7578125-1.5063477-0.7578125-2.6533203
			s0.2539062-2.0375977,0.7617188-2.6723633s1.2138672-0.9521484,2.1191406-0.9521484
			c0.9443359,0,1.6679688,0.3427734,2.171875,1.0283203h0.0820312l-0.0449219-0.5014648l-0.0253906-0.4887695v-2.8310547h1.0546875
			V86.5h-0.8574219L478.1669922,85.5668945z M476.0595703,85.7446289c0.7197266,0,1.2412109-0.1958008,1.5644531-0.5874023
			c0.3242188-0.3911133,0.4853516-1.0229492,0.4853516-1.8945312v-0.222168c0-0.9858398-0.1640625-1.6894531-0.4912109-2.1108398
			c-0.328125-0.4208984-0.8525391-0.6313477-1.5712891-0.6313477c-0.6171875,0-1.0908203,0.2402344-1.4189453,0.7202148
			c-0.3271484,0.4804688-0.4912109,1.1586914-0.4912109,2.034668c0,0.8886719,0.1621094,1.5595703,0.4882812,2.012207
			S475.4296875,85.7446289,476.0595703,85.7446289z"/>
		<path class="st2" d="M484.3369141,86.6269531c-1.0283203,0-1.8398438-0.3129883-2.4345703-0.9394531
			c-0.59375-0.6264648-0.8916016-1.4960938-0.8916016-2.6088867c0-1.121582,0.2763672-2.012207,0.8291016-2.6723633
			c0.5507812-0.6601562,1.2929688-0.9902344,2.2246094-0.9902344c0.8710938,0,1.5605469,0.2866211,2.0683594,0.8603516
			c0.5078125,0.5732422,0.7617188,1.3295898,0.7617188,2.269043v0.6665039h-4.7919922
			c0.0205078,0.8168945,0.2275391,1.4365234,0.6181641,1.8598633c0.3925781,0.4233398,0.9433594,0.6347656,1.6542969,0.6347656
			c0.7490234,0,1.4902344-0.1567383,2.2216797-0.4697266v0.9394531c-0.3720703,0.1606445-0.7246094,0.2758789-1.0576172,0.3461914
			C485.2070312,86.5917969,484.8066406,86.6269531,484.3369141,86.6269531z M484.0507812,80.2983398
			c-0.5585938,0-1.0039062,0.1821289-1.3359375,0.5458984s-0.5273438,0.8676758-0.5869141,1.5107422h3.6376953
			c0-0.6645508-0.1484375-1.1733398-0.4453125-1.5268555C485.0244141,80.4750977,484.6015625,80.2983398,484.0507812,80.2983398z"/>
		<path class="st2" d="M491.8652344,79.4160156c0.3085938,0,0.5859375,0.0253906,0.8320312,0.0761719l-0.1464844,0.9775391
			c-0.2871094-0.0634766-0.5410156-0.0952148-0.7617188-0.0952148c-0.5625,0-1.0439453,0.2285156-1.4443359,0.6855469
			c-0.3994141,0.4570312-0.5996094,1.0263672-0.5996094,1.7075195V86.5h-1.0537109v-6.9570312h0.8691406l0.1210938,1.2885742
			h0.0507812c0.2578125-0.4526367,0.5693359-0.8017578,0.9335938-1.0473633
			C491.0292969,79.5385742,491.4296875,79.4160156,491.8652344,79.4160156z"/>
		<path class="st2" d="M497.5332031,86.5v-9.2802734h1.0800781V86.5H497.5332031z"/>
		<path class="st2" d="M505.7597656,86.5v-4.5004883c0-0.5668945-0.1289062-0.9902344-0.3867188-1.2695312
			s-0.6621094-0.4189453-1.2128906-0.4189453c-0.7275391,0-1.2607422,0.1967773-1.5996094,0.590332
			c-0.3378906,0.3935547-0.5078125,1.0429688-0.5078125,1.9487305V86.5H501v-6.9570312h0.8564453l0.1708984,0.9521484h0.0507812
			c0.2167969-0.3427734,0.5195312-0.6083984,0.9082031-0.796875c0.3886719-0.1879883,0.8232422-0.2822266,1.3007812-0.2822266
			c0.8378906,0,1.46875,0.2021484,1.8925781,0.6064453c0.4228516,0.4038086,0.6347656,1.050293,0.6347656,1.9389648V86.5
			H505.7597656z"/>
		<path class="st2" d="M512.1142578,80.3618164H510.34375V86.5h-1.0546875v-6.1381836h-1.2441406v-0.4760742l1.2441406-0.3808594
			v-0.387207c0-1.7094727,0.7480469-2.5644531,2.2412109-2.5644531c0.3681641,0,0.7998047,0.0742188,1.2949219,0.222168
			l-0.2724609,0.8442383c-0.40625-0.1313477-0.7539062-0.1967773-1.0410156-0.1967773
			c-0.3984375,0-0.6923828,0.1323242-0.8828125,0.3964844c-0.1904297,0.2646484-0.2851562,0.6889648-0.2851562,1.2729492v0.4506836
			h1.7705078V80.3618164z"/>
		<path class="st2" d="M519.3886719,83.0151367c0,1.1342773-0.2851562,2.0195312-0.8574219,2.6567383
			c-0.5703125,0.6367188-1.359375,0.9550781-2.3671875,0.9550781c-0.6220703,0-1.1738281-0.1459961-1.65625-0.4379883
			s-0.8554688-0.7109375-1.1171875-1.2568359c-0.2626953-0.5458984-0.3945312-1.1850586-0.3945312-1.9169922
			c0-1.1342773,0.2841797-2.0175781,0.8515625-2.6499023c0.5664062-0.6328125,1.3535156-0.9492188,2.3613281-0.9492188
			c0.9726562,0,1.7460938,0.3237305,2.3193359,0.9711914S519.3886719,81.9106445,519.3886719,83.0151367z M514.0878906,83.0151367
			c0,0.8886719,0.1777344,1.565918,0.5332031,2.03125s0.8789062,0.6982422,1.5683594,0.6982422
			s1.2128906-0.2319336,1.5712891-0.6948242c0.3574219-0.4638672,0.5361328-1.1416016,0.5361328-2.034668
			c0-0.8842773-0.1787109-1.5561523-0.5361328-2.0151367c-0.3583984-0.4594727-0.8857422-0.6889648-1.5839844-0.6889648
			c-0.6904297,0-1.2099609,0.2265625-1.5615234,0.6791992S514.0878906,82.1181641,514.0878906,83.0151367z"/>
	</g>
	<rect x="269" y="71" class="st1" width="2" height="23"/>
	<rect x="398" y="71" class="st0" width="2" height="23"/>
	<rect x="539" y="71" class="st0" width="2" height="23"/>
</g>
</svg>
