<?xml version="1.0" encoding="utf-8"?>
<!-- Generator: Adobe Illustrator 27.3.1, SVG Export Plug-In . SVG Version: 6.00 Build 0)  -->
<svg version="1.1" xmlns="http://www.w3.org/2000/svg" xmlns:xlink="http://www.w3.org/1999/xlink" x="0px" y="0px"
	 viewBox="0 0 710 160" style="enable-background:new 0 0 710 160;" xml:space="preserve">
<style type="text/css">
	.st0{fill:#B6B6B6;}
	.st1{fill:#6136DA;}
	.st2{fill:#333333;}
	.st3{fill:#5B5B5B;}
	.st4{fill:#FFFFFF;}
	.st5{fill:#E5E5E5;}
</style>
<g id="Warstwa_2">
</g>
<g id="Warstwa_1">
	<g>
		<path class="st1" d="M269,111H113V49h156V111z M114,110h154V50H114V110z"/>
	</g>
	<g>
		<path class="st5" d="M433,111H277V49h156V111z M278,110h154V50H278V110z"/>
	</g>
	<g>
		<path class="st1" d="M194.3378906,84.8945312h-1.4912109v-5.9921875c0-0.7148438,0.0166016-1.2822266,0.0507812-1.7011719
			c-0.0976562,0.1015625-0.2167969,0.2138672-0.359375,0.3369141c-0.1416016,0.1220703-0.6162109,0.5117188-1.4248047,1.1679688
			l-0.7490234-0.9462891l2.7294922-2.1455078h1.2441406V84.8945312z"/>
		<path class="st1" d="M197.6513672,84.1015625c0-0.3095703,0.0810547-0.5458984,0.2412109-0.7109375
			c0.1611328-0.1650391,0.3935547-0.2480469,0.6982422-0.2480469c0.3095703,0,0.5439453,0.0859375,0.7050781,0.2568359
			c0.1601562,0.171875,0.2412109,0.4052734,0.2412109,0.7021484c0,0.2998047-0.0820312,0.5380859-0.2441406,0.7138672
			c-0.1630859,0.1757812-0.3974609,0.2636719-0.7021484,0.2636719s-0.5371094-0.0869141-0.6982422-0.2607422
			C197.7324219,84.6455078,197.6513672,84.40625,197.6513672,84.1015625z"/>
		<path class="st1" d="M204.9833984,75.6142578h2.7548828c1.2773438,0,2.2011719,0.1865234,2.7705078,0.5585938
			c0.5693359,0.3730469,0.8535156,0.9609375,0.8535156,1.7646484c0,0.5419922-0.1396484,0.9921875-0.4189453,1.3525391
			c-0.2792969,0.359375-0.6806641,0.5859375-1.2060547,0.6787109v0.0634766
			c0.6523438,0.1230469,1.1308594,0.3652344,1.4375,0.7265625c0.3076172,0.3623047,0.4609375,0.8525391,0.4609375,1.4697266
			c0,0.8339844-0.2910156,1.4863281-0.8730469,1.9580078c-0.5820312,0.4726562-1.3916016,0.7080078-2.4277344,0.7080078h-3.3515625
			V75.6142578z M206.5,79.4482422h1.4599609c0.6347656,0,1.0986328-0.1005859,1.390625-0.3017578
			c0.2919922-0.2001953,0.4375-0.5419922,0.4375-1.0244141c0-0.4365234-0.1572266-0.7509766-0.4726562-0.9462891
			C209,76.9814453,208.5,76.8837891,207.8144531,76.8837891H206.5V79.4482422z M206.5,80.6796875v2.9394531h1.6123047
			c0.6347656,0,1.1142578-0.1220703,1.4375-0.3652344c0.3242188-0.2431641,0.4863281-0.6269531,0.4863281-1.1523438
			c0-0.4824219-0.1650391-0.8398438-0.4951172-1.0722656c-0.3300781-0.2333984-0.8320312-0.3496094-1.5048828-0.3496094H206.5z"/>
		<path class="st1" d="M213.3173828,76.0146484c0-0.2666016,0.0732422-0.4716797,0.21875-0.6162109
			c0.1464844-0.1435547,0.3544922-0.2158203,0.6259766-0.2158203c0.2617188,0,0.4658203,0.0722656,0.6123047,0.2158203
			c0.1455078,0.1445312,0.21875,0.3496094,0.21875,0.6162109c0,0.2539062-0.0732422,0.453125-0.21875,0.5996094
			c-0.1464844,0.1455078-0.3505859,0.21875-0.6123047,0.21875c-0.2714844,0-0.4794922-0.0732422-0.6259766-0.21875
			C213.390625,76.4677734,213.3173828,76.2685547,213.3173828,76.0146484z M214.8984375,84.8945312H213.40625v-7.0205078h1.4921875
			V84.8945312z"/>
		<path class="st1" d="M218.5224609,84.8945312H217.03125v-9.8769531h1.4912109V84.8945312z"/>
		<path class="st1" d="M222.1474609,84.8945312h-1.4921875v-9.8769531h1.4921875V84.8945312z"/>
		<path class="st1" d="M224.1914062,76.0146484c0-0.2666016,0.0732422-0.4716797,0.21875-0.6162109
			c0.1464844-0.1435547,0.3544922-0.2158203,0.625-0.2158203c0.2626953,0,0.4667969,0.0722656,0.6132812,0.2158203
			c0.1455078,0.1445312,0.21875,0.3496094,0.21875,0.6162109c0,0.2539062-0.0732422,0.453125-0.21875,0.5996094
			c-0.1464844,0.1455078-0.3505859,0.21875-0.6132812,0.21875c-0.2705078,0-0.4785156-0.0732422-0.625-0.21875
			C224.2646484,76.4677734,224.1914062,76.2685547,224.1914062,76.0146484z M225.7714844,84.8945312h-1.4912109v-7.0205078
			h1.4912109V84.8945312z"/>
		<path class="st1" d="M234.0810547,84.8945312h-1.4980469V80.578125c0-0.5410156-0.109375-0.9453125-0.3271484-1.2119141
			s-0.5634766-0.4003906-1.0380859-0.4003906c-0.6298828,0-1.0917969,0.1865234-1.3837891,0.5585938
			c-0.2919922,0.3730469-0.4375,0.9970703-0.4375,1.8730469v3.4970703h-1.4921875v-7.0205078h1.1679688l0.2099609,0.9208984
			h0.0761719c0.2109375-0.3349609,0.5117188-0.5927734,0.9013672-0.7744141
			c0.3886719-0.1826172,0.8203125-0.2734375,1.2949219-0.2734375c1.6835938,0,2.5263672,0.8574219,2.5263672,2.5712891V84.8945312z"
			/>
		<path class="st1" d="M242.0849609,77.8740234v0.8193359l-1.1992188,0.2216797
			c0.109375,0.1484375,0.2011719,0.3300781,0.2724609,0.5458984c0.0722656,0.2158203,0.1083984,0.4443359,0.1083984,0.6855469
			c0,0.7236328-0.25,1.2929688-0.7490234,1.7080078c-0.5,0.4140625-1.1875,0.6220703-2.0634766,0.6220703
			c-0.2236328,0-0.4267578-0.0175781-0.609375-0.0507812c-0.3212891,0.1982422-0.4824219,0.4316406-0.4824219,0.6982422
			c0,0.1601562,0.0751953,0.28125,0.2255859,0.3613281c0.1503906,0.0810547,0.4267578,0.1210938,0.828125,0.1210938h1.2255859
			c0.7744141,0,1.3623047,0.1650391,1.7646484,0.4951172c0.4013672,0.3300781,0.6025391,0.8056641,0.6025391,1.4277344
			c0,0.7958984-0.328125,1.4091797-0.9833984,1.8408203c-0.65625,0.4316406-1.6044922,0.6474609-2.84375,0.6474609
			c-0.9570312,0-1.6865234-0.1689453-2.1904297-0.5078125c-0.5029297-0.3378906-0.7548828-0.8203125-0.7548828-1.4472656
			c0-0.4316406,0.1357422-0.7939453,0.4091797-1.0888672c0.2724609-0.2939453,0.6552734-0.4980469,1.1455078-0.6123047
			c-0.1982422-0.0839844-0.3623047-0.2207031-0.4921875-0.4091797c-0.1289062-0.1884766-0.1933594-0.3857422-0.1933594-0.59375
			c0-0.2617188,0.0742188-0.484375,0.2226562-0.6660156c0.1474609-0.1826172,0.3681641-0.3623047,0.6601562-0.5400391
			c-0.3642578-0.15625-0.6591797-0.4111328-0.8857422-0.7646484s-0.3398438-0.7666016-0.3398438-1.2412109
			c0-0.7617188,0.2402344-1.3515625,0.7207031-1.7705078s1.1650391-0.6289062,2.0537109-0.6289062
			c0.1982422,0,0.4072266,0.0136719,0.625,0.0410156c0.2177734,0.0283203,0.3818359,0.0566406,0.4921875,0.0859375H242.0849609z
			 M236.5693359,85.9863281c0,0.3222656,0.1445312,0.5693359,0.4345703,0.7431641
			c0.2900391,0.1728516,0.6972656,0.2597656,1.2216797,0.2597656c0.8125,0,1.4179688-0.1162109,1.8154297-0.3486328
			c0.3984375-0.2333984,0.5966797-0.5419922,0.5966797-0.9267578c0-0.3046875-0.1083984-0.5214844-0.3271484-0.6513672
			c-0.2177734-0.1289062-0.6230469-0.1933594-1.2148438-0.1933594h-1.1298828c-0.4277344,0-0.7675781,0.1005859-1.0195312,0.3017578
			C236.6953125,85.3720703,236.5693359,85.6435547,236.5693359,85.9863281z M237.2099609,80.1464844
			c0,0.4404297,0.1132812,0.7792969,0.3398438,1.015625c0.2265625,0.2373047,0.5507812,0.3554688,0.9746094,0.3554688
			c0.8632812,0,1.2949219-0.4609375,1.2949219-1.3837891c0-0.4570312-0.1074219-0.8095703-0.3212891-1.0566406
			c-0.2128906-0.2480469-0.5380859-0.3710938-0.9736328-0.3710938c-0.4316406,0-0.7587891,0.1220703-0.9814453,0.3681641
			C237.3212891,79.3193359,237.2099609,79.6767578,237.2099609,80.1464844z"/>
	</g>
	<g>
		<path class="st2" d="M352.9394531,84.5h-6.0996094v-0.9082031l2.4433594-2.4560547
			c0.7451172-0.7529297,1.2363281-1.2900391,1.4726562-1.6123047c0.2373047-0.3222656,0.4150391-0.6347656,0.5332031-0.9394531
			c0.1191406-0.3046875,0.1777344-0.6328125,0.1777344-0.984375c0-0.4941406-0.1503906-0.8867188-0.4501953-1.1767578
			c-0.3007812-0.2900391-0.7177734-0.4345703-1.2509766-0.4345703c-0.3847656,0-0.75,0.0625-1.0947266,0.1894531
			s-0.7285156,0.3574219-1.1523438,0.6923828l-0.5585938-0.7177734c0.8554688-0.7109375,1.7861328-1.0664062,2.7929688-1.0664062
			c0.8720703,0,1.5556641,0.2236328,2.0507812,0.6699219c0.4951172,0.4472656,0.7421875,1.046875,0.7421875,1.7998047
			c0,0.5888672-0.1650391,1.1699219-0.4951172,1.7451172c-0.3300781,0.5761719-0.9472656,1.3037109-1.8535156,2.1835938
			l-2.03125,1.9873047v0.0507812h4.7734375V84.5z"/>
		<path class="st2" d="M354.6025391,83.8271484c0-0.2841797,0.0644531-0.4980469,0.1933594-0.6445312
			c0.1298828-0.1455078,0.3144531-0.21875,0.5556641-0.21875c0.2460938,0,0.4375,0.0732422,0.5742188,0.21875
			c0.1376953,0.1464844,0.2070312,0.3603516,0.2070312,0.6445312c0,0.2744141-0.0703125,0.4873047-0.2099609,0.6347656
			s-0.3300781,0.2216797-0.5712891,0.2216797c-0.2158203,0-0.3945312-0.0664062-0.5361328-0.1992188
			C354.6738281,84.3505859,354.6025391,84.1318359,354.6025391,83.8271484z"/>
		<path class="st2" d="M366.9873047,82.03125c0,0.8164062-0.296875,1.453125-0.8886719,1.9101562
			c-0.5927734,0.4570312-1.3964844,0.6855469-2.4121094,0.6855469c-1.1005859,0-1.9472656-0.1416016-2.5390625-0.4257812v-1.0410156
			c0.3808594,0.1611328,0.7949219,0.2880859,1.2441406,0.3808594c0.4482422,0.09375,0.8925781,0.140625,1.3330078,0.140625
			c0.71875,0,1.2607422-0.1367188,1.625-0.4101562c0.3632812-0.2724609,0.5458984-0.6523438,0.5458984-1.1386719
			c0-0.3222656-0.0644531-0.5859375-0.1933594-0.7910156c-0.1298828-0.2050781-0.3457031-0.3945312-0.6474609-0.5683594
			c-0.3027344-0.1728516-0.7636719-0.3691406-1.3808594-0.5898438c-0.8632812-0.3085938-1.4804688-0.6748047-1.8505859-1.0976562
			c-0.3701172-0.4238281-0.5556641-0.9765625-0.5556641-1.6572266c0-0.7158203,0.2685547-1.2841797,0.8066406-1.7080078
			c0.5371094-0.4228516,1.2480469-0.6347656,2.1328125-0.6347656c0.921875,0,1.7705078,0.1699219,2.5449219,0.5078125
			l-0.3359375,0.9394531c-0.7666016-0.3212891-1.5107422-0.4824219-2.234375-0.4824219
			c-0.5712891,0-1.0175781,0.1230469-1.3398438,0.3691406c-0.3212891,0.2451172-0.4824219,0.5859375-0.4824219,1.0214844
			c0,0.3222656,0.0595703,0.5849609,0.1777344,0.7900391C362.65625,78.4375,362.8554688,78.625,363.1376953,78.796875
			c0.28125,0.1708984,0.7119141,0.3603516,1.2910156,0.5683594c0.9736328,0.3466797,1.6435547,0.71875,2.0097656,1.1171875
			C366.8037109,80.8798828,366.9873047,81.3964844,366.9873047,82.03125z"/>
		<path class="st2" d="M373.4873047,84.5V80c0-0.5673828-0.1289062-0.9902344-0.3876953-1.2695312
			c-0.2578125-0.2792969-0.6621094-0.4199219-1.2119141-0.4199219c-0.7324219,0-1.2666016,0.1992188-1.6025391,0.5976562
			c-0.3369141,0.3974609-0.5048828,1.0488281-0.5048828,1.9550781V84.5h-1.0537109v-9.8769531h1.0537109v2.9902344
			c0,0.359375-0.0175781,0.6582031-0.0507812,0.8945312h0.0634766c0.2070312-0.3339844,0.5019531-0.5976562,0.8857422-0.7900391
			c0.3828125-0.1923828,0.8193359-0.2890625,1.3105469-0.2890625c0.8505859,0,1.4882812,0.2021484,1.9140625,0.6064453
			c0.4248047,0.4042969,0.6376953,1.0458984,0.6376953,1.9257812V84.5H373.4873047z"/>
		<path class="st2" d="M376.6162109,75.6582031c0-0.2421875,0.0595703-0.4179688,0.1777344-0.5302734
			c0.1191406-0.1123047,0.2666016-0.1689453,0.4443359-0.1689453c0.1699219,0,0.3154297,0.0576172,0.4384766,0.171875
			c0.1220703,0.1142578,0.1835938,0.2900391,0.1835938,0.5273438c0,0.2363281-0.0615234,0.4130859-0.1835938,0.5292969
			c-0.1230469,0.1171875-0.2685547,0.1748047-0.4384766,0.1748047c-0.1777344,0-0.3251953-0.0576172-0.4443359-0.1748047
			C376.6757812,76.0712891,376.6162109,75.8945312,376.6162109,75.6582031z M377.7587891,84.5h-1.0537109v-6.9570312h1.0537109V84.5
			z"/>
		<path class="st2" d="M383.2304688,84.6269531c-0.4521484,0-0.8662109-0.0839844-1.2412109-0.2509766
			c-0.3740234-0.1669922-0.6884766-0.4238281-0.9423828-0.7705078h-0.0761719
			c0.0507812,0.40625,0.0761719,0.7910156,0.0761719,1.1542969v2.8632812h-1.0537109V77.5429688h0.8574219l0.1455078,0.9521484
			h0.0507812c0.2714844-0.3808594,0.5859375-0.6552734,0.9462891-0.8251953
			c0.359375-0.1699219,0.7724609-0.2539062,1.2373047-0.2539062c0.9228516,0,1.6347656,0.3154297,2.1357422,0.9453125
			c0.5019531,0.6308594,0.7529297,1.515625,0.7529297,2.6542969c0,1.1425781-0.2548828,2.0292969-0.765625,2.6621094
			C384.84375,84.3105469,384.1367188,84.6269531,383.2304688,84.6269531z M383.078125,78.3105469
			c-0.7109375,0-1.2246094,0.1972656-1.5419922,0.5908203s-0.4804688,1.0205078-0.4892578,1.8789062v0.2353516
			c0,0.9765625,0.1630859,1.6757812,0.4892578,2.0976562c0.3251953,0.4208984,0.8486328,0.6308594,1.5673828,0.6308594
			c0.6015625,0,1.0722656-0.2421875,1.4121094-0.7294922c0.3408203-0.4873047,0.5117188-1.1572266,0.5117188-2.0126953
			c0-0.8671875-0.1708984-1.5322266-0.5117188-1.9960938C384.1757812,78.5429688,383.6962891,78.3105469,383.078125,78.3105469z"/>
		<path class="st2" d="M391.1972656,84.6269531c-0.453125,0-0.8662109-0.0839844-1.2412109-0.2509766
			c-0.3740234-0.1669922-0.6884766-0.4238281-0.9423828-0.7705078H388.9375
			c0.0507812,0.40625,0.0761719,0.7910156,0.0761719,1.1542969v2.8632812h-1.0537109V77.5429688h0.8564453l0.1464844,0.9521484
			h0.0507812c0.2705078-0.3808594,0.5859375-0.6552734,0.9453125-0.8251953
			c0.3603516-0.1699219,0.7724609-0.2539062,1.2382812-0.2539062c0.921875,0,1.6347656,0.3154297,2.1357422,0.9453125
			c0.5019531,0.6308594,0.7519531,1.515625,0.7519531,2.6542969c0,1.1425781-0.2548828,2.0292969-0.7646484,2.6621094
			S392.1025391,84.6269531,391.1972656,84.6269531z M391.0449219,78.3105469c-0.7109375,0-1.2255859,0.1972656-1.5429688,0.5908203
			s-0.4804688,1.0205078-0.4882812,1.8789062v0.2353516c0,0.9765625,0.1630859,1.6757812,0.4882812,2.0976562
			c0.3261719,0.4208984,0.8486328,0.6308594,1.5683594,0.6308594c0.6005859,0,1.0712891-0.2421875,1.4121094-0.7294922
			s0.5107422-1.1572266,0.5107422-2.0126953c0-0.8671875-0.1699219-1.5322266-0.5107422-1.9960938
			C392.1416016,78.5429688,391.6621094,78.3105469,391.0449219,78.3105469z"/>
		<path class="st2" d="M395.8369141,75.6582031c0-0.2421875,0.0595703-0.4179688,0.1777344-0.5302734
			c0.1191406-0.1123047,0.2666016-0.1689453,0.4443359-0.1689453c0.1699219,0,0.3154297,0.0576172,0.4384766,0.171875
			c0.1220703,0.1142578,0.1835938,0.2900391,0.1835938,0.5273438c0,0.2363281-0.0615234,0.4130859-0.1835938,0.5292969
			c-0.1230469,0.1171875-0.2685547,0.1748047-0.4384766,0.1748047c-0.1777344,0-0.3251953-0.0576172-0.4443359-0.1748047
			C395.8964844,76.0712891,395.8369141,75.8945312,395.8369141,75.6582031z M396.9794922,84.5h-1.0537109v-6.9570312h1.0537109V84.5
			z"/>
		<path class="st2" d="M403.9746094,84.5V80c0-0.5673828-0.1289062-0.9902344-0.3867188-1.2695312
			c-0.2587891-0.2792969-0.6621094-0.4199219-1.2128906-0.4199219c-0.7275391,0-1.2607422,0.1972656-1.5996094,0.5908203
			c-0.3378906,0.3935547-0.5078125,1.0429688-0.5078125,1.9482422V84.5h-1.0537109v-6.9570312h0.8574219l0.1708984,0.9521484
			h0.0507812c0.2158203-0.3427734,0.5185547-0.6083984,0.9082031-0.796875
			c0.3886719-0.1884766,0.8232422-0.2822266,1.3007812-0.2822266c0.8378906,0,1.46875,0.2021484,1.8916016,0.6064453
			c0.4238281,0.4033203,0.6347656,1.0498047,0.6347656,1.9384766V84.5H403.9746094z"/>
		<path class="st2" d="M412.8867188,77.5429688v0.6660156l-1.2880859,0.1523438
			c0.1181641,0.1484375,0.2236328,0.3417969,0.3173828,0.5810547c0.0927734,0.2392578,0.1396484,0.5087891,0.1396484,0.8095703
			c0,0.6816406-0.2333984,1.2246094-0.6982422,1.6308594c-0.4658203,0.40625-1.1044922,0.609375-1.9169922,0.609375
			c-0.2080078,0-0.4023438-0.0166016-0.5839844-0.0507812c-0.4492188,0.2373047-0.6728516,0.5351562-0.6728516,0.8955078
			c0,0.1904297,0.078125,0.3310547,0.234375,0.421875c0.1572266,0.0908203,0.4257812,0.1367188,0.8066406,0.1367188h1.2314453
			c0.7529297,0,1.3320312,0.1591797,1.7363281,0.4755859c0.4033203,0.3183594,0.6054688,0.7792969,0.6054688,1.3847656
			c0,0.7695312-0.3085938,1.3574219-0.9267578,1.7607422c-0.6171875,0.4042969-1.5185547,0.6064453-2.7041016,0.6064453
			c-0.9091797,0-1.6113281-0.1699219-2.1035156-0.5078125c-0.4931641-0.3378906-0.7402344-0.8164062-0.7402344-1.4345703
			c0-0.4228516,0.1357422-0.7890625,0.40625-1.0986328c0.2714844-0.3085938,0.6523438-0.5175781,1.1425781-0.6279297
			c-0.1777344-0.0810547-0.3261719-0.2050781-0.4472656-0.3740234c-0.1201172-0.1699219-0.1806641-0.3671875-0.1806641-0.5908203
			c0-0.2539062,0.0673828-0.4755859,0.203125-0.6669922c0.1347656-0.1894531,0.3486328-0.3740234,0.640625-0.5517578
			c-0.359375-0.1474609-0.6523438-0.3994141-0.8789062-0.7548828s-0.3398438-0.7617188-0.3398438-1.21875
			c0-0.7617188,0.2285156-1.3496094,0.6855469-1.7617188c0.4570312-0.4130859,1.1044922-0.6191406,1.9423828-0.6191406
			c0.3642578,0,0.6923828,0.0429688,0.984375,0.1269531H412.8867188z M407.3388672,85.6679688
			c0,0.3769531,0.1591797,0.6621094,0.4765625,0.8574219c0.3173828,0.1943359,0.7724609,0.2910156,1.3642578,0.2910156
			c0.8847656,0,1.5400391-0.1318359,1.9648438-0.3964844c0.4257812-0.2636719,0.6376953-0.6230469,0.6376953-1.0761719
			c0-0.3759766-0.1162109-0.6376953-0.3486328-0.7832031c-0.2333984-0.1464844-0.6708984-0.21875-1.3144531-0.21875h-1.2626953
			c-0.4785156,0-0.8505859,0.1132812-1.1171875,0.3417969S407.3388672,85.2402344,407.3388672,85.6679688z M407.9101562,79.7714844
			c0,0.4863281,0.1376953,0.8544922,0.4130859,1.1035156c0.2744141,0.25,0.6582031,0.375,1.1484375,0.375
			c1.0283203,0,1.5429688-0.5,1.5429688-1.4980469c0-1.0449219-0.5205078-1.5683594-1.5615234-1.5683594
			c-0.4951172,0-0.8759766,0.1337891-1.1425781,0.4003906S407.9101562,79.2460938,407.9101562,79.7714844z"/>
	</g>
	<g>
		<path class="st2" d="M510.5908203,77.4033203c0,0.5927734-0.1660156,1.0771484-0.4980469,1.4541016
			c-0.3330078,0.3759766-0.8037109,0.6279297-1.4130859,0.7548828v0.0507812
			c0.7451172,0.0927734,1.296875,0.3300781,1.6572266,0.7109375c0.359375,0.3808594,0.5390625,0.8798828,0.5390625,1.4980469
			c0,0.8837891-0.3066406,1.5644531-0.9199219,2.0410156c-0.6142578,0.4755859-1.4853516,0.7138672-2.6152344,0.7138672
			c-0.4912109,0-0.9404297-0.0371094-1.3486328-0.1113281c-0.4091797-0.0742188-0.8056641-0.2041016-1.1904297-0.390625v-1.0019531
			c0.4013672,0.1982422,0.8300781,0.3496094,1.2851562,0.453125s0.8857422,0.15625,1.2919922,0.15625
			c1.6035156,0,2.4052734-0.6289062,2.4052734-1.8857422c0-1.1259766-0.8837891-1.6884766-2.6533203-1.6884766h-0.9140625V79.25
			h0.9267578c0.7236328,0,1.296875-0.1591797,1.7207031-0.4785156c0.4228516-0.3203125,0.6347656-0.7636719,0.6347656-1.3300781
			c0-0.453125-0.1552734-0.8085938-0.4667969-1.0664062c-0.3105469-0.2578125-0.7333984-0.3867188-1.2666016-0.3867188
			c-0.40625,0-0.7890625,0.0546875-1.1484375,0.1640625c-0.3603516,0.1103516-0.7705078,0.3134766-1.2314453,0.609375
			l-0.5332031-0.7109375c0.3808594-0.2998047,0.8193359-0.5361328,1.3173828-0.7070312
			c0.4970703-0.171875,1.0205078-0.2578125,1.5703125-0.2578125c0.9013672,0,1.6015625,0.2070312,2.1015625,0.6191406
			C510.3408203,76.1181641,510.5908203,76.6835938,510.5908203,77.4033203z"/>
		<path class="st2" d="M512.6025391,83.8271484c0-0.2841797,0.0644531-0.4980469,0.1933594-0.6445312
			c0.1298828-0.1455078,0.3144531-0.21875,0.5556641-0.21875c0.2460938,0,0.4375,0.0732422,0.5742188,0.21875
			c0.1376953,0.1464844,0.2070312,0.3603516,0.2070312,0.6445312c0,0.2744141-0.0703125,0.4873047-0.2099609,0.6347656
			s-0.3300781,0.2216797-0.5712891,0.2216797c-0.2158203,0-0.3945312-0.0664062-0.5361328-0.1992188
			C512.6738281,84.3505859,512.6025391,84.1318359,512.6025391,83.8271484z"/>
		<path class="st2" d="M527.8056641,79.8476562c0,1.484375-0.3759766,2.6523438-1.1269531,3.5039062
			c-0.7509766,0.8496094-1.7949219,1.2753906-3.1328125,1.2753906c-1.3662109,0-2.4208984-0.4179688-3.1640625-1.2539062
			c-0.7421875-0.8359375-1.1142578-2.015625-1.1142578-3.5390625c0-1.5097656,0.3730469-2.6816406,1.1171875-3.5126953
			c0.7451172-0.8320312,1.8027344-1.2470703,3.1738281-1.2470703c1.3330078,0,2.3740234,0.4228516,3.1230469,1.2695312
			C527.4306641,77.1894531,527.8056641,78.3574219,527.8056641,79.8476562z M520.4101562,79.8476562
			c0,1.2558594,0.2675781,2.2089844,0.8037109,2.859375c0.5351562,0.6494141,1.3125,0.9746094,2.3320312,0.9746094
			c1.0283203,0,1.8046875-0.3242188,2.3300781-0.9716797c0.5244141-0.6474609,0.7871094-1.6015625,0.7871094-2.8623047
			c0-1.2490234-0.2617188-2.1953125-0.7841797-2.8408203s-1.2958984-0.9677734-2.3203125-0.9677734
			c-1.0283203,0-1.8095703,0.3242188-2.3447266,0.9736328C520.6777344,77.6621094,520.4101562,78.6074219,520.4101562,79.8476562z"
			/>
		<path class="st2" d="M532.8896484,77.4160156c0.3095703,0,0.5859375,0.0253906,0.8320312,0.0761719l-0.1464844,0.9775391
			C533.2880859,78.40625,533.0341797,78.375,532.8134766,78.375c-0.5625,0-1.0439453,0.2285156-1.4443359,0.6855469
			c-0.3994141,0.4570312-0.5996094,1.0253906-0.5996094,1.7070312V84.5h-1.0537109v-6.9570312h0.8701172l0.1201172,1.2890625
			h0.0507812c0.2587891-0.453125,0.5693359-0.8027344,0.9335938-1.0478516
			C532.0537109,77.5390625,532.4541016,77.4160156,532.8896484,77.4160156z"/>
		<path class="st2" d="M539.7578125,83.5664062h-0.0566406c-0.4873047,0.7070312-1.2148438,1.0605469-2.1835938,1.0605469
			c-0.9101562,0-1.6181641-0.3105469-2.1240234-0.9335938c-0.5048828-0.6210938-0.7578125-1.5058594-0.7578125-2.6523438
			c0-1.1474609,0.2539062-2.0380859,0.7617188-2.6728516s1.2138672-0.9521484,2.1201172-0.9521484
			c0.9433594,0,1.6669922,0.3427734,2.1708984,1.0283203h0.0820312l-0.0439453-0.5009766l-0.0253906-0.4892578v-2.8310547h1.0537109
			V84.5h-0.8574219L539.7578125,83.5664062z M537.6503906,83.7441406c0.7197266,0,1.2412109-0.1953125,1.5644531-0.5869141
			c0.3242188-0.3916016,0.4863281-1.0224609,0.4863281-1.8945312v-0.2216797c0-0.9863281-0.1640625-1.6894531-0.4921875-2.1113281
			c-0.328125-0.4208984-0.8515625-0.6308594-1.5712891-0.6308594c-0.6171875,0-1.0908203,0.2402344-1.4189453,0.7197266
			c-0.3271484,0.4804688-0.4912109,1.1591797-0.4912109,2.0341797c0,0.8886719,0.1630859,1.5605469,0.4882812,2.0126953
			C536.5419922,83.5175781,537.0205078,83.7441406,537.6503906,83.7441406z"/>
		<path class="st2" d="M545.9277344,84.6269531c-1.0283203,0-1.8398438-0.3125-2.4335938-0.9394531
			c-0.5947266-0.6269531-0.8925781-1.4960938-0.8925781-2.609375c0-1.1210938,0.2763672-2.0117188,0.8291016-2.671875
			c0.5517578-0.6601562,1.2929688-0.9902344,2.2246094-0.9902344c0.8710938,0,1.5615234,0.2871094,2.0693359,0.8603516
			s0.7617188,1.3291016,0.7617188,2.2685547v0.6669922h-4.7929688c0.0214844,0.8173828,0.2275391,1.4365234,0.6191406,1.8603516
			c0.3916016,0.4228516,0.9423828,0.6347656,1.6533203,0.6347656c0.7490234,0,1.4902344-0.1572266,2.2216797-0.4707031v0.9394531
			c-0.3720703,0.1611328-0.7246094,0.2763672-1.0566406,0.3466797
			C546.7988281,84.5917969,546.3974609,84.6269531,545.9277344,84.6269531z M545.6425781,78.2988281
			c-0.5585938,0-1.0039062,0.1816406-1.3359375,0.5449219c-0.3330078,0.3642578-0.5283203,0.8681641-0.5878906,1.5117188h3.6376953
			c0-0.6650391-0.1484375-1.1738281-0.4443359-1.5273438C546.6152344,78.4746094,546.1923828,78.2988281,545.6425781,78.2988281z"/>
		<path class="st2" d="M553.4560547,77.4160156c0.3095703,0,0.5859375,0.0253906,0.8320312,0.0761719l-0.1464844,0.9775391
			C553.8544922,78.40625,553.6005859,78.375,553.3798828,78.375c-0.5625,0-1.0439453,0.2285156-1.4443359,0.6855469
			c-0.3994141,0.4570312-0.5996094,1.0253906-0.5996094,1.7070312V84.5h-1.0537109v-6.9570312h0.8701172l0.1201172,1.2890625
			h0.0507812c0.2587891-0.453125,0.5693359-0.8027344,0.9335938-1.0478516
			C552.6201172,77.5390625,553.0205078,77.4160156,553.4560547,77.4160156z"/>
		<path class="st2" d="M559.125,84.5v-9.2802734h1.0791016V84.5H559.125z"/>
		<path class="st2" d="M567.3515625,84.5V80c0-0.5673828-0.1289062-0.9902344-0.3876953-1.2695312
			c-0.2578125-0.2792969-0.6621094-0.4199219-1.2119141-0.4199219c-0.7285156,0-1.2617188,0.1972656-1.5996094,0.5908203
			c-0.3388672,0.3935547-0.5078125,1.0429688-0.5078125,1.9482422V84.5h-1.0537109v-6.9570312h0.8564453l0.171875,0.9521484
			h0.0507812c0.2158203-0.3427734,0.5185547-0.6083984,0.9072266-0.796875
			c0.3896484-0.1884766,0.8232422-0.2822266,1.3017578-0.2822266c0.8378906,0,1.4677734,0.2021484,1.8916016,0.6064453
			c0.4228516,0.4033203,0.6347656,1.0498047,0.6347656,1.9384766V84.5H567.3515625z"/>
		<path class="st2" d="M573.7050781,78.3613281h-1.7705078V84.5h-1.0537109v-6.1386719h-1.2441406v-0.4755859l1.2441406-0.3808594
			v-0.3876953c0-1.7089844,0.7470703-2.5644531,2.2402344-2.5644531c0.3681641,0,0.7998047,0.0742188,1.2949219,0.2226562
			l-0.2724609,0.84375c-0.40625-0.1308594-0.7539062-0.1962891-1.0410156-0.1962891
			c-0.3984375,0-0.6923828,0.1318359-0.8828125,0.3964844s-0.2851562,0.6884766-0.2851562,1.2724609v0.4511719h1.7705078V78.3613281
			z"/>
		<path class="st2" d="M580.9794922,81.015625c0,1.1337891-0.2851562,2.0195312-0.8564453,2.65625
			s-1.3603516,0.9550781-2.3681641,0.9550781c-0.6220703,0-1.1738281-0.1464844-1.65625-0.4375
			c-0.4824219-0.2929688-0.8554688-0.7109375-1.1171875-1.2578125c-0.2626953-0.5449219-0.3935547-1.1845703-0.3935547-1.9160156
			c0-1.1347656,0.2832031-2.0175781,0.8505859-2.6503906c0.5664062-0.6328125,1.3535156-0.9492188,2.3613281-0.9492188
			c0.9726562,0,1.7460938,0.3242188,2.3193359,0.9707031C580.6933594,79.0351562,580.9794922,79.9101562,580.9794922,81.015625z
			 M575.6796875,81.015625c0,0.8886719,0.1777344,1.5654297,0.5332031,2.03125
			c0.3554688,0.4648438,0.8779297,0.6972656,1.5673828,0.6972656c0.6904297,0,1.2138672-0.2314453,1.5712891-0.6943359
			c0.3574219-0.4638672,0.5361328-1.1416016,0.5361328-2.0341797c0-0.8847656-0.1787109-1.5566406-0.5361328-2.015625
			s-0.8857422-0.6894531-1.5839844-0.6894531c-0.6894531,0-1.2099609,0.2265625-1.5615234,0.6796875
			C575.8554688,79.4433594,575.6796875,80.1181641,575.6796875,81.015625z"/>
	</g>
	<circle class="st1" cx="159.3394165" cy="80.1563339" r="20.1718388"/>
	<circle class="st1" cx="317.3394165" cy="80.1563339" r="20.1718388"/>
	<circle class="st1" cx="476.3394165" cy="80.1563339" r="20.1718388"/>
	<g>
		<path class="st4" d="M164.3486328,84.9863281h-11v-13h11V84.9863281z M154.3486328,83.9863281h9v-11h-9V83.9863281z"/>
	</g>
	<g>
		<polygon class="st4" points="166.3486328,86.9863281 155.3486328,86.9863281 155.3486328,84.4863281 156.3486328,84.4863281 
			156.3486328,85.9863281 165.3486328,85.9863281 165.3486328,74.9863281 163.8486328,74.9863281 163.8486328,73.9863281 
			166.3486328,73.9863281 		"/>
	</g>
	<g>
		<rect x="156.3486328" y="75.9863281" class="st4" width="5" height="1"/>
	</g>
	<g>
		<rect x="156.3486328" y="77.9863281" class="st4" width="5" height="1"/>
	</g>
	<g>
		<rect x="156.3486328" y="79.9863281" class="st4" width="5" height="1"/>
	</g>
	<g>
		<path class="st4" d="M322.3486328,84.9863281h-11v-13h11V84.9863281z M312.3486328,83.9863281h9v-11h-9V83.9863281z"/>
	</g>
	<g>
		<polygon class="st4" points="324.3486328,86.9863281 313.3486328,86.9863281 313.3486328,84.4863281 314.3486328,84.4863281 
			314.3486328,85.9863281 323.3486328,85.9863281 323.3486328,74.9863281 321.8486328,74.9863281 321.8486328,73.9863281 
			324.3486328,73.9863281 		"/>
	</g>
	<g>
		<rect x="314.3486328" y="75.9863281" class="st4" width="5" height="1"/>
	</g>
	<g>
		<rect x="314.3486328" y="77.9863281" class="st4" width="5" height="1"/>
	</g>
	<g>
		<rect x="314.3486328" y="79.9863281" class="st4" width="5" height="1"/>
	</g>
	<g>
		<path class="st4" d="M481.3486328,84.9863281h-11v-13h11V84.9863281z M471.3486328,83.9863281h9v-11h-9V83.9863281z"/>
	</g>
	<g>
		<polygon class="st4" points="483.3486328,86.9863281 472.3486328,86.9863281 472.3486328,84.4863281 473.3486328,84.4863281 
			473.3486328,85.9863281 482.3486328,85.9863281 482.3486328,74.9863281 480.8486328,74.9863281 480.8486328,73.9863281 
			483.3486328,73.9863281 		"/>
	</g>
	<g>
		<rect x="473.3486328" y="75.9863281" class="st4" width="5" height="1"/>
	</g>
	<g>
		<rect x="473.3486328" y="77.9863281" class="st4" width="5" height="1"/>
	</g>
	<g>
		<rect x="473.3486328" y="79.9863281" class="st4" width="5" height="1"/>
	</g>
	<g>
		<path class="st5" d="M597,111H441V49h156V111z M442,110h154V50H442V110z"/>
	</g>
</g>
</svg>
