<?xml version="1.0" encoding="utf-8"?>
<!-- Generator: Adobe Illustrator 27.3.1, SVG Export Plug-In . SVG Version: 6.00 Build 0)  -->
<svg version="1.1" xmlns="http://www.w3.org/2000/svg" xmlns:xlink="http://www.w3.org/1999/xlink" x="0px" y="0px"
	 viewBox="0 0 710 160" style="enable-background:new 0 0 710 160;" xml:space="preserve">
<style type="text/css">
	.st0{fill:#B6B6B6;}
	.st1{fill:#6136DA;}
	.st2{fill:#333333;}
	.st3{fill:#5B5B5B;}
	.st4{fill:#FFFFFF;}
	.st5{fill:#E5E5E5;}
</style>
<g id="Warstwa_2">
</g>
<g id="Warstwa_1">
	<g>
		<path class="st1" d="M195,87h-11V74h11V87z M185,86h9V75h-9V86z"/>
	</g>
	<g>
		<polygon class="st1" points="197,89 186,89 186,86.5 187,86.5 187,88 196,88 196,77 194.5,77 194.5,76 197,76 		"/>
	</g>
	<g>
		<rect x="187" y="78" class="st1" width="5" height="1"/>
	</g>
	<g>
		<rect x="187" y="80" class="st1" width="5" height="1"/>
	</g>
	<g>
		<rect x="187" y="82" class="st1" width="5" height="1"/>
	</g>
	<g>
		<path class="st1" d="M207.7470703,86.8945312h-1.4916992V80.902832c0-0.715332,0.0170898-1.2822266,0.0507812-1.7011719
			c-0.097168,0.1015625-0.2167969,0.2138672-0.3588867,0.3364258c-0.1416016,0.1225586-0.6166992,0.512207-1.4248047,1.1679688
			l-0.7490234-0.9458008l2.7294922-2.1455078h1.2441406V86.8945312z"/>
		<path class="st1" d="M211.0605469,86.1015625c0-0.3095703,0.0805664-0.5458984,0.2412109-0.7109375
			S211.6953125,85.1425781,212,85.1425781c0.309082,0,0.5439453,0.0859375,0.7045898,0.2568359
			c0.1606445,0.171875,0.2412109,0.4052734,0.2412109,0.7021484c0,0.2998047-0.081543,0.5380859-0.2441406,0.7138672
			c-0.1630859,0.1757812-0.3969727,0.2636719-0.7016602,0.2636719s-0.5375977-0.0869141-0.6982422-0.2607422
			C211.1411133,86.6455078,211.0605469,86.40625,211.0605469,86.1015625z"/>
		<path class="st1" d="M218.3920898,77.6147461h2.7548828c1.277832,0,2.2016602,0.1860352,2.7709961,0.5585938
			c0.5688477,0.3725586,0.8535156,0.9604492,0.8535156,1.7646484c0,0.5415039-0.1396484,0.9921875-0.4189453,1.3520508
			c-0.2792969,0.359375-0.6811523,0.5859375-1.2060547,0.6787109v0.0634766
			c0.6518555,0.1230469,1.1308594,0.3652344,1.4375,0.7265625c0.3071289,0.3623047,0.4604492,0.8525391,0.4604492,1.4697266
			c0,0.8339844-0.2910156,1.4863281-0.8725586,1.9580078c-0.5820312,0.4726562-1.3916016,0.7080078-2.4282227,0.7080078h-3.3515625
			V77.6147461z M219.9091797,81.4482422h1.4599609c0.6347656,0,1.0981445-0.1005859,1.3901367-0.3017578
			c0.2919922-0.2001953,0.4379883-0.5419922,0.4379883-1.0244141c0-0.4360352-0.1577148-0.7509766-0.4726562-0.9458008
			c-0.3154297-0.1948242-0.815918-0.2919922-1.5014648-0.2919922h-1.3139648V81.4482422z M219.9091797,82.6796875v2.9394531
			h1.6123047c0.6347656,0,1.1142578-0.1220703,1.4375-0.3652344c0.3242188-0.2431641,0.4858398-0.6269531,0.4858398-1.1523438
			c0-0.4824219-0.1650391-0.8398438-0.4951172-1.0722656c-0.3300781-0.2333984-0.831543-0.3496094-1.5043945-0.3496094H219.9091797z
			"/>
		<path class="st1" d="M226.7265625,78.0146484c0-0.2666016,0.0732422-0.4716797,0.21875-0.6157227
			c0.1464844-0.144043,0.3544922-0.2158203,0.6254883-0.2158203c0.262207,0,0.4663086,0.0717773,0.612793,0.2158203
			c0.1455078,0.144043,0.21875,0.3491211,0.21875,0.6157227c0,0.2539062-0.0732422,0.4536133-0.21875,0.6000977
			c-0.1464844,0.1455078-0.3505859,0.21875-0.612793,0.21875c-0.2709961,0-0.4790039-0.0732422-0.6254883-0.21875
			C226.7998047,78.4682617,226.7265625,78.2685547,226.7265625,78.0146484z M228.3071289,86.8945312h-1.4916992v-7.0200195
			h1.4916992V86.8945312z"/>
		<path class="st1" d="M231.9316406,86.8945312h-1.4916992v-9.8764648h1.4916992V86.8945312z"/>
		<path class="st1" d="M235.5561523,86.8945312h-1.4916992v-9.8764648h1.4916992V86.8945312z"/>
		<path class="st1" d="M237.6000977,78.0146484c0-0.2666016,0.0732422-0.4716797,0.21875-0.6157227
			c0.1464844-0.144043,0.3544922-0.2158203,0.6254883-0.2158203c0.262207,0,0.4663086,0.0717773,0.612793,0.2158203
			c0.1455078,0.144043,0.21875,0.3491211,0.21875,0.6157227c0,0.2539062-0.0732422,0.4536133-0.21875,0.6000977
			c-0.1464844,0.1455078-0.3505859,0.21875-0.612793,0.21875c-0.2709961,0-0.4790039-0.0732422-0.6254883-0.21875
			C237.6733398,78.4682617,237.6000977,78.2685547,237.6000977,78.0146484z M239.1806641,86.8945312h-1.4916992v-7.0200195
			h1.4916992V86.8945312z"/>
		<path class="st1" d="M247.4897461,86.8945312h-1.4980469V82.578125c0-0.5410156-0.1088867-0.9453125-0.3266602-1.2119141
			c-0.2182617-0.2666016-0.5639648-0.3999023-1.0380859-0.3999023c-0.6303711,0-1.0917969,0.1860352-1.3837891,0.5581055
			c-0.2919922,0.3730469-0.4379883,0.9970703-0.4379883,1.8730469v3.4970703h-1.4916992v-7.0200195h1.1679688l0.2094727,0.9204102
			h0.0761719c0.2114258-0.3344727,0.512207-0.5922852,0.9013672-0.7744141s0.8208008-0.2729492,1.2949219-0.2729492
			c1.684082,0,2.5263672,0.8569336,2.5263672,2.5708008V86.8945312z"/>
		<path class="st1" d="M255.4941406,79.8745117v0.8188477l-1.199707,0.222168
			c0.1098633,0.1479492,0.2011719,0.3295898,0.2729492,0.5454102s0.1079102,0.4443359,0.1079102,0.6855469
			c0,0.7236328-0.2495117,1.2929688-0.7490234,1.7080078c-0.4995117,0.4140625-1.1870117,0.6220703-2.0629883,0.6220703
			c-0.2241211,0-0.4272461-0.0175781-0.609375-0.0507812c-0.3217773,0.1982422-0.4824219,0.4316406-0.4824219,0.6982422
			c0,0.1601562,0.0751953,0.28125,0.2255859,0.3613281c0.1499023,0.0810547,0.4262695,0.1210938,0.828125,0.1210938h1.2250977
			c0.7744141,0,1.362793,0.1650391,1.7646484,0.4951172s0.6030273,0.8056641,0.6030273,1.4277344
			c0,0.7958984-0.328125,1.4091797-0.9838867,1.8408203s-1.6040039,0.6474609-2.84375,0.6474609
			c-0.956543,0-1.6865234-0.1689453-2.1899414-0.5078125c-0.503418-0.3378906-0.7553711-0.8203125-0.7553711-1.4472656
			c0-0.4316406,0.1362305-0.7939453,0.409668-1.0888672c0.2724609-0.2939453,0.6547852-0.4980469,1.1455078-0.6123047
			c-0.1987305-0.0839844-0.362793-0.2207031-0.4921875-0.4091797c-0.1289062-0.1884766-0.1933594-0.3857422-0.1933594-0.59375
			c0-0.2617188,0.0742188-0.484375,0.222168-0.6660156c0.1479492-0.1826172,0.3681641-0.3623047,0.6601562-0.5400391
			c-0.3637695-0.15625-0.6591797-0.4111328-0.8852539-0.7646484c-0.2265625-0.3535156-0.3398438-0.7666016-0.3398438-1.2412109
			c0-0.7617188,0.2402344-1.3515625,0.7207031-1.7705078c0.4799805-0.4189453,1.1645508-0.628418,2.0532227-0.628418
			c0.1987305,0,0.4072266,0.0136719,0.6254883,0.0410156c0.2177734,0.027832,0.3818359,0.0561523,0.4916992,0.0859375H255.4941406z
			 M249.9780273,87.9863281c0,0.3222656,0.1450195,0.5693359,0.4350586,0.7431641
			c0.2895508,0.1728516,0.6967773,0.2597656,1.2216797,0.2597656c0.8125,0,1.4174805-0.1162109,1.8154297-0.3486328
			c0.3979492-0.2333984,0.5966797-0.5419922,0.5966797-0.9267578c0-0.3046875-0.1088867-0.5214844-0.3271484-0.6513672
			c-0.2177734-0.1289062-0.6230469-0.1933594-1.215332-0.1933594h-1.1298828c-0.4272461,0-0.7670898,0.1005859-1.019043,0.3017578
			C250.1040039,87.3720703,249.9780273,87.6435547,249.9780273,87.9863281z M250.6191406,82.1464844
			c0,0.4404297,0.1132812,0.7792969,0.3398438,1.015625c0.2260742,0.2373047,0.5507812,0.3554688,0.9741211,0.3554688
			c0.8632812,0,1.2949219-0.4609375,1.2949219-1.3837891c0-0.4570312-0.1069336-0.8095703-0.3208008-1.0566406
			c-0.2133789-0.2475586-0.5380859-0.3710938-0.9741211-0.3710938c-0.4316406,0-0.7583008,0.1225586-0.980957,0.3681641
			C250.7304688,81.3193359,250.6191406,81.6767578,250.6191406,82.1464844z"/>
	</g>
	<g>
		<path class="st2" d="M310,87h-11V74h11V87z M300,86h9V75h-9V86z"/>
	</g>
	<g>
		<polygon class="st2" points="312,89 301,89 301,86.5 302,86.5 302,88 311,88 311,77 309.5,77 309.5,76 312,76 		"/>
	</g>
	<g>
		<rect x="302" y="78" class="st2" width="5" height="1"/>
	</g>
	<g>
		<rect x="302" y="80" class="st2" width="5" height="1"/>
	</g>
	<g>
		<rect x="302" y="82" class="st2" width="5" height="1"/>
	</g>
	<g>
		<path class="st2" d="M326.3486328,86.5h-6.1000977v-0.9082031l2.4438477-2.4560547
			c0.7446289-0.7539062,1.2358398-1.2910156,1.4726562-1.6123047c0.2368164-0.3222656,0.4145508-0.6347656,0.5332031-0.9394531
			s0.1777344-0.6328125,0.1777344-0.9838867c0-0.4951172-0.1503906-0.8876953-0.4506836-1.1772461
			c-0.300293-0.2900391-0.7172852-0.4350586-1.2504883-0.4350586c-0.3852539,0-0.75,0.0634766-1.0952148,0.1904297
			c-0.3447266,0.1269531-0.7285156,0.3574219-1.1518555,0.6918945l-0.5585938-0.7172852
			c0.8549805-0.7109375,1.7856445-1.0664062,2.7929688-1.0664062c0.871582,0,1.5551758,0.2231445,2.050293,0.6694336
			c0.4951172,0.4467773,0.7426758,1.0463867,0.7426758,1.7998047c0,0.5883789-0.1650391,1.1699219-0.4951172,1.7451172
			c-0.3300781,0.5761719-0.9477539,1.3037109-1.8535156,2.1835938l-2.03125,1.9873047v0.0507812h4.7734375V86.5z"/>
		<path class="st2" d="M328.0117188,85.8271484c0-0.2841797,0.0644531-0.4980469,0.1933594-0.6445312
			c0.1293945-0.1455078,0.3144531-0.21875,0.5556641-0.21875c0.2456055,0,0.4370117,0.0732422,0.5742188,0.21875
			c0.1376953,0.1464844,0.206543,0.3603516,0.206543,0.6445312c0,0.2744141-0.0698242,0.4863281-0.2094727,0.6347656
			c-0.1396484,0.1474609-0.3300781,0.2216797-0.5712891,0.2216797c-0.2158203,0-0.3945312-0.0664062-0.5361328-0.1992188
			C328.0825195,86.3505859,328.0117188,86.1318359,328.0117188,85.8271484z"/>
		<path class="st2" d="M340.3959961,84.0302734c0,0.8173828-0.2963867,1.4541016-0.8886719,1.9111328
			s-1.3964844,0.6855469-2.4121094,0.6855469c-1.1000977,0-1.9467773-0.1416016-2.5390625-0.4257812v-1.0410156
			c0.3808594,0.1611328,0.7954102,0.2880859,1.2441406,0.3808594c0.4487305,0.09375,0.8930664,0.1396484,1.3330078,0.1396484
			c0.7192383,0,1.2612305-0.1357422,1.625-0.4091797c0.3637695-0.2724609,0.5458984-0.6523438,0.5458984-1.1396484
			c0-0.3212891-0.0644531-0.5849609-0.1933594-0.7900391c-0.1293945-0.2050781-0.3452148-0.3945312-0.6474609-0.5683594
			c-0.3027344-0.1728516-0.7631836-0.3701172-1.3808594-0.5898438c-0.8632812-0.3095703-1.4799805-0.6748047-1.8505859-1.0986328
			c-0.3701172-0.4228516-0.5551758-0.9750977-0.5551758-1.65625c0-0.715332,0.2685547-1.2841797,0.8061523-1.7075195
			s1.2485352-0.6347656,2.1328125-0.6347656c0.9223633,0,1.7709961,0.1694336,2.5454102,0.5078125l-0.3364258,0.9394531
			c-0.7661133-0.3217773-1.5107422-0.4824219-2.234375-0.4824219c-0.5712891,0-1.0175781,0.1225586-1.3393555,0.3681641
			s-0.4824219,0.5859375-0.4824219,1.0219727c0,0.3217773,0.059082,0.5849609,0.1777344,0.7900391
			c0.1186523,0.2055664,0.3183594,0.3935547,0.6000977,0.5654297c0.28125,0.1708984,0.7119141,0.3603516,1.2915039,0.5673828
			c0.9731445,0.3476562,1.6430664,0.7197266,2.0092773,1.1171875
			C340.2128906,82.8798828,340.3959961,83.3955078,340.3959961,84.0302734z"/>
		<path class="st2" d="M346.8959961,86.5v-4.5009766c0-0.5664062-0.1289062-0.9902344-0.387207-1.269043
			c-0.2583008-0.2792969-0.6621094-0.4189453-1.2124023-0.4189453c-0.7319336,0-1.2666016,0.1987305-1.6025391,0.5966797
			c-0.3369141,0.3979492-0.5048828,1.0493164-0.5048828,1.9545898V86.5h-1.0537109v-9.8769531h1.0537109v2.9897461
			c0,0.3598633-0.0170898,0.6582031-0.0507812,0.8950195h0.0634766c0.2075195-0.3344727,0.5024414-0.5976562,0.8857422-0.7900391
			c0.3828125-0.1928711,0.8198242-0.2890625,1.3105469-0.2890625c0.8505859,0,1.4882812,0.2021484,1.9140625,0.6064453
			c0.4248047,0.4038086,0.6376953,1.0458984,0.6376953,1.9257812V86.5H346.8959961z"/>
		<path class="st2" d="M350.0253906,77.6577148c0-0.2412109,0.059082-0.4179688,0.1777344-0.5297852
			c0.1186523-0.1123047,0.2666016-0.168457,0.4443359-0.168457c0.1694336,0,0.3154297,0.0571289,0.4379883,0.1713867
			s0.184082,0.2900391,0.184082,0.5268555s-0.0615234,0.4135742-0.184082,0.5297852
			c-0.1225586,0.1166992-0.2685547,0.1748047-0.4379883,0.1748047c-0.1777344,0-0.3256836-0.0581055-0.4443359-0.1748047
			C350.0844727,78.0712891,350.0253906,77.8945312,350.0253906,77.6577148z M351.1679688,86.5h-1.0537109v-6.9570312h1.0537109V86.5
			z"/>
		<path class="st2" d="M356.6396484,86.6269531c-0.4526367,0-0.8662109-0.0839844-1.2412109-0.2509766
			c-0.3740234-0.1669922-0.6884766-0.4238281-0.9423828-0.7714844h-0.0761719
			c0.0507812,0.40625,0.0761719,0.7919922,0.0761719,1.1552734v2.8632812h-1.0537109V79.5429688h0.8569336l0.1459961,0.9521484
			h0.0507812c0.2709961-0.3808594,0.5859375-0.6557617,0.9458008-0.8251953s0.7724609-0.2539062,1.237793-0.2539062
			c0.9223633,0,1.6347656,0.3154297,2.1357422,0.9458008c0.5019531,0.6303711,0.7524414,1.5151367,0.7524414,2.652832
			c0,1.1425781-0.2548828,2.0302734-0.7651367,2.6630859C358.2529297,86.3105469,357.5454102,86.6269531,356.6396484,86.6269531z
			 M356.4873047,80.3110352c-0.7109375,0-1.2250977,0.1967773-1.5424805,0.590332s-0.4804688,1.0195312-0.4887695,1.8789062
			v0.234375c0,0.9775391,0.1630859,1.6767578,0.4887695,2.0986328c0.3256836,0.4208984,0.8486328,0.6308594,1.5678711,0.6308594
			c0.6010742,0,1.0717773-0.2431641,1.4121094-0.7294922c0.3408203-0.4873047,0.5112305-1.1572266,0.5112305-2.0126953
			c0-0.8671875-0.1704102-1.5322266-0.5112305-1.9960938C357.5844727,80.5429688,357.1049805,80.3110352,356.4873047,80.3110352z"/>
		<path class="st2" d="M364.605957,86.6269531c-0.4526367,0-0.8662109-0.0839844-1.2412109-0.2509766
			c-0.3740234-0.1669922-0.6884766-0.4238281-0.9423828-0.7714844h-0.0761719
			c0.0507812,0.40625,0.0761719,0.7919922,0.0761719,1.1552734v2.8632812h-1.0537109V79.5429688h0.8569336l0.1459961,0.9521484
			h0.0507812c0.2709961-0.3808594,0.5859375-0.6557617,0.9458008-0.8251953s0.7724609-0.2539062,1.237793-0.2539062
			c0.9223633,0,1.6347656,0.3154297,2.1357422,0.9458008c0.5019531,0.6303711,0.7524414,1.5151367,0.7524414,2.652832
			c0,1.1425781-0.2548828,2.0302734-0.7651367,2.6630859C366.2192383,86.3105469,365.5117188,86.6269531,364.605957,86.6269531z
			 M364.4536133,80.3110352c-0.7109375,0-1.2250977,0.1967773-1.5424805,0.590332s-0.4804688,1.0195312-0.4887695,1.8789062
			v0.234375c0,0.9775391,0.1630859,1.6767578,0.4887695,2.0986328c0.3256836,0.4208984,0.8486328,0.6308594,1.5678711,0.6308594
			c0.6010742,0,1.0717773-0.2431641,1.4121094-0.7294922c0.3408203-0.4873047,0.5112305-1.1572266,0.5112305-2.0126953
			c0-0.8671875-0.1704102-1.5322266-0.5112305-1.9960938C365.5507812,80.5429688,365.0712891,80.3110352,364.4536133,80.3110352z"/>
		<path class="st2" d="M369.2460938,77.6577148c0-0.2412109,0.059082-0.4179688,0.1777344-0.5297852
			c0.1186523-0.1123047,0.2666016-0.168457,0.4443359-0.168457c0.1694336,0,0.3154297,0.0571289,0.4379883,0.1713867
			s0.184082,0.2900391,0.184082,0.5268555s-0.0615234,0.4135742-0.184082,0.5297852
			c-0.1225586,0.1166992-0.2685547,0.1748047-0.4379883,0.1748047c-0.1777344,0-0.3256836-0.0581055-0.4443359-0.1748047
			C369.3051758,78.0712891,369.2460938,77.8945312,369.2460938,77.6577148z M370.3886719,86.5h-1.0537109v-6.9570312h1.0537109V86.5
			z"/>
		<path class="st2" d="M377.3837891,86.5v-4.5009766c0-0.5664062-0.1289062-0.9902344-0.387207-1.269043
			c-0.2583008-0.2792969-0.6621094-0.4189453-1.2124023-0.4189453c-0.7280273,0-1.2612305,0.1967773-1.5996094,0.590332
			s-0.5078125,1.0429688-0.5078125,1.9482422V86.5h-1.0537109v-6.9570312h0.8569336l0.1713867,0.9521484h0.0507812
			c0.2158203-0.3427734,0.5185547-0.6083984,0.9077148-0.796875c0.3891602-0.1879883,0.8232422-0.2822266,1.3012695-0.2822266
			c0.8378906,0,1.4682617,0.2021484,1.8916016,0.6064453c0.4233398,0.4038086,0.6347656,1.0498047,0.6347656,1.9384766V86.5
			H377.3837891z"/>
		<path class="st2" d="M386.2958984,79.5429688v0.6665039l-1.2885742,0.1523438
			c0.1186523,0.1479492,0.2241211,0.3417969,0.3173828,0.5805664c0.0932617,0.2392578,0.1396484,0.5087891,0.1396484,0.8095703
			c0,0.6806641-0.2329102,1.2246094-0.6982422,1.6308594s-1.1044922,0.609375-1.9169922,0.609375
			c-0.2075195,0-0.4018555-0.0166016-0.5839844-0.0507812c-0.4487305,0.2373047-0.6728516,0.5351562-0.6728516,0.8955078
			c0,0.1904297,0.078125,0.3310547,0.2348633,0.421875s0.425293,0.1367188,0.8061523,0.1367188h1.2314453
			c0.753418,0,1.3320312,0.1582031,1.7363281,0.4755859c0.4038086,0.3173828,0.605957,0.7792969,0.605957,1.3837891
			c0,0.7705078-0.309082,1.3574219-0.9267578,1.7617188s-1.519043,0.6064453-2.7041016,0.6064453
			c-0.909668,0-1.6113281-0.1699219-2.1040039-0.5078125c-0.4931641-0.3388672-0.7397461-0.8173828-0.7397461-1.4345703
			c0-0.4238281,0.1352539-0.7890625,0.40625-1.0986328c0.2709961-0.3085938,0.6518555-0.5185547,1.1425781-0.6279297
			c-0.1777344-0.0810547-0.3266602-0.2050781-0.4477539-0.375c-0.1201172-0.1689453-0.1806641-0.3662109-0.1806641-0.5898438
			c0-0.2539062,0.0678711-0.4765625,0.203125-0.6669922s0.3491211-0.3740234,0.6411133-0.5517578
			c-0.3598633-0.1484375-0.652832-0.4003906-0.8793945-0.7558594c-0.2260742-0.3554688-0.3393555-0.7617188-0.3393555-1.21875
			c0-0.7617188,0.2285156-1.3486328,0.6855469-1.7607422c0.4570312-0.4130859,1.1044922-0.6191406,1.9423828-0.6191406
			c0.3637695,0,0.6918945,0.0424805,0.9838867,0.1269531H386.2958984z M380.7480469,87.6679688
			c0,0.3759766,0.1586914,0.6621094,0.4760742,0.8564453c0.3173828,0.1953125,0.7724609,0.2919922,1.3647461,0.2919922
			c0.8842773,0,1.5395508-0.1318359,1.9643555-0.3964844c0.4257812-0.2646484,0.6381836-0.6230469,0.6381836-1.0761719
			c0-0.3759766-0.1162109-0.6376953-0.3491211-0.7832031c-0.2329102-0.1464844-0.6708984-0.2197266-1.3139648-0.2197266h-1.2631836
			c-0.4780273,0-0.8505859,0.1142578-1.1171875,0.3427734S380.7480469,87.2402344,380.7480469,87.6679688z M381.3193359,81.7705078
			c0,0.4873047,0.1376953,0.8554688,0.4125977,1.1044922c0.2749023,0.25,0.6582031,0.375,1.1489258,0.375
			c1.0283203,0,1.5424805-0.5,1.5424805-1.4980469c0-1.0454102-0.5205078-1.5678711-1.5615234-1.5678711
			c-0.4951172,0-0.8759766,0.1333008-1.1425781,0.3999023S381.3193359,81.2460938,381.3193359,81.7705078z"/>
	</g>
	<g>
		<path class="st2" d="M441,87h-11V74h11V87z M431,86h9V75h-9V86z"/>
	</g>
	<g>
		<polygon class="st2" points="443,89 432,89 432,86.5 433,86.5 433,88 442,88 442,77 440.5,77 440.5,76 443,76 		"/>
	</g>
	<g>
		<rect x="433" y="78" class="st2" width="5" height="1"/>
	</g>
	<g>
		<rect x="433" y="80" class="st2" width="5" height="1"/>
	</g>
	<g>
		<rect x="433" y="82" class="st2" width="5" height="1"/>
	</g>
	<g>
		<path class="st2" d="M456.9995117,79.4033203c0,0.5922852-0.1660156,1.0771484-0.4980469,1.4536133
			c-0.3325195,0.3764648-0.8032227,0.628418-1.4125977,0.7553711v0.0507812
			c0.7446289,0.0927734,1.296875,0.3300781,1.6567383,0.7109375s0.5395508,0.8798828,0.5395508,1.4980469
			c0,0.8837891-0.3066406,1.5644531-0.9204102,2.0410156c-0.6137695,0.4755859-1.4853516,0.7138672-2.6152344,0.7138672
			c-0.4907227,0-0.9404297-0.0371094-1.3486328-0.1113281c-0.4086914-0.0742188-0.8051758-0.2041016-1.1904297-0.390625v-1.0029297
			c0.4018555,0.1992188,0.8305664,0.3505859,1.2851562,0.4541016c0.4550781,0.1035156,0.8857422,0.1552734,1.2919922,0.1552734
			c1.6040039,0,2.4057617-0.6279297,2.4057617-1.8847656c0-1.1259766-0.8842773-1.6884766-2.6533203-1.6884766h-0.9140625V81.25
			h0.9267578c0.7236328,0,1.296875-0.1591797,1.7202148-0.4785156c0.4233398-0.3198242,0.6347656-0.7631836,0.6347656-1.3300781
			c0-0.4526367-0.1552734-0.8081055-0.4667969-1.0664062c-0.3105469-0.2583008-0.7329102-0.387207-1.2661133-0.387207
			c-0.40625,0-0.7890625,0.0551758-1.1489258,0.1650391s-0.7700195,0.3129883-1.2314453,0.609375l-0.5332031-0.7109375
			c0.3808594-0.300293,0.8198242-0.5366211,1.3173828-0.7075195c0.4970703-0.171875,1.0205078-0.2573242,1.5708008-0.2573242
			c0.9013672,0,1.6015625,0.206543,2.1010742,0.6186523C456.75,78.1181641,456.9995117,78.684082,456.9995117,79.4033203z"/>
		<path class="st2" d="M459.0117188,85.8271484c0-0.2841797,0.0644531-0.4980469,0.1933594-0.6445312
			c0.1293945-0.1455078,0.3144531-0.21875,0.5556641-0.21875c0.2456055,0,0.4370117,0.0732422,0.5742188,0.21875
			c0.1376953,0.1464844,0.206543,0.3603516,0.206543,0.6445312c0,0.2744141-0.0698242,0.4863281-0.2094727,0.6347656
			c-0.1396484,0.1474609-0.3300781,0.2216797-0.5712891,0.2216797c-0.2158203,0-0.3945312-0.0664062-0.5361328-0.1992188
			C459.0825195,86.3505859,459.0117188,86.1318359,459.0117188,85.8271484z"/>
		<path class="st2" d="M474.2143555,81.8466797c0,1.4853516-0.3754883,2.6533203-1.1269531,3.5039062
			c-0.7509766,0.8505859-1.7949219,1.2763672-3.1323242,1.2763672c-1.3666992,0-2.4213867-0.4179688-3.1645508-1.2539062
			c-0.7421875-0.8359375-1.1137695-2.015625-1.1137695-3.5390625c0-1.5102539,0.3725586-2.6816406,1.1171875-3.5126953
			c0.7446289-0.8320312,1.8027344-1.2475586,3.1738281-1.2475586c1.3330078,0,2.3740234,0.4233398,3.1230469,1.2695312
			S474.2143555,80.3574219,474.2143555,81.8466797z M466.8193359,81.8466797c0,1.2568359,0.2675781,2.2099609,0.8032227,2.8603516
			c0.5351562,0.6494141,1.3125,0.9736328,2.3325195,0.9736328c1.0283203,0,1.8046875-0.3232422,2.3295898-0.9707031
			s0.7871094-1.6015625,0.7871094-2.8632812c0-1.2480469-0.2612305-2.1948242-0.7841797-2.8398438
			c-0.5224609-0.6455078-1.2958984-0.9682617-2.3198242-0.9682617c-1.0283203,0-1.8100586,0.324707-2.3452148,0.9741211
			C467.0869141,79.6625977,466.8193359,80.6074219,466.8193359,81.8466797z"/>
		<path class="st2" d="M479.2988281,79.4160156c0.309082,0,0.5859375,0.0253906,0.831543,0.0761719l-0.1459961,0.9775391
			c-0.2875977-0.0634766-0.5415039-0.0952148-0.7617188-0.0952148c-0.5629883,0-1.0439453,0.2285156-1.4443359,0.6850586
			c-0.3994141,0.4570312-0.5996094,1.0263672-0.5996094,1.7080078V86.5H476.125v-6.9570312h0.8696289l0.1206055,1.2885742h0.0507812
			c0.2583008-0.4526367,0.5693359-0.8017578,0.9331055-1.0473633S478.862793,79.4160156,479.2988281,79.4160156z"/>
		<path class="st2" d="M486.1669922,85.5664062h-0.0571289c-0.4868164,0.7070312-1.2143555,1.0605469-2.1835938,1.0605469
			c-0.909668,0-1.6176758-0.3115234-2.1235352-0.9335938c-0.5053711-0.6220703-0.7583008-1.5058594-0.7583008-2.6533203
			c0-1.1464844,0.2539062-2.0371094,0.7617188-2.671875s1.2143555-0.9521484,2.1201172-0.9521484
			c0.9438477,0,1.6674805,0.3427734,2.1708984,1.0283203h0.0825195l-0.0444336-0.5014648l-0.0253906-0.4887695v-2.8310547h1.0537109
			V86.5h-0.8569336L486.1669922,85.5664062z M484.0595703,85.7441406c0.7192383,0,1.2412109-0.1953125,1.5644531-0.5869141
			c0.3242188-0.3916016,0.4858398-1.0234375,0.4858398-1.8945312v-0.2226562c0-0.9853516-0.1640625-1.6894531-0.4916992-2.1103516
			c-0.328125-0.4208984-0.8520508-0.6313477-1.5712891-0.6313477c-0.6176758,0-1.0908203,0.2402344-1.4189453,0.7202148
			c-0.3276367,0.4804688-0.4916992,1.1582031-0.4916992,2.0341797c0,0.8886719,0.1630859,1.5595703,0.4887695,2.0126953
			C482.9506836,85.5175781,483.4291992,85.7441406,484.0595703,85.7441406z"/>
		<path class="st2" d="M492.3369141,86.6269531c-1.0283203,0-1.8398438-0.3134766-2.434082-0.9394531
			c-0.5947266-0.6269531-0.8920898-1.4960938-0.8920898-2.609375c0-1.1210938,0.2758789-2.0117188,0.8286133-2.671875
			c0.5517578-0.6601562,1.293457-0.9902344,2.2246094-0.9902344c0.871582,0,1.5615234,0.2866211,2.0693359,0.8603516
			c0.5078125,0.5732422,0.7617188,1.3291016,0.7617188,2.2685547v0.6669922h-4.7924805
			c0.0209961,0.8164062,0.2275391,1.4365234,0.6186523,1.859375c0.3916016,0.4238281,0.9428711,0.6347656,1.6538086,0.6347656
			c0.7490234,0,1.4897461-0.15625,2.2216797-0.4697266v0.9394531c-0.3725586,0.1611328-0.7246094,0.2763672-1.0571289,0.3466797
			C493.2075195,86.5917969,492.8066406,86.6269531,492.3369141,86.6269531z M492.0512695,80.2983398
			c-0.5585938,0-1.0039062,0.1821289-1.3359375,0.5458984c-0.3325195,0.3637695-0.5283203,0.8676758-0.5874023,1.5102539h3.637207
			c0-0.6640625-0.1479492-1.1728516-0.4443359-1.5263672C493.0244141,80.4750977,492.6015625,80.2983398,492.0512695,80.2983398z"/>
		<path class="st2" d="M499.8652344,79.4160156c0.309082,0,0.5859375,0.0253906,0.831543,0.0761719l-0.1459961,0.9775391
			c-0.2875977-0.0634766-0.5415039-0.0952148-0.7617188-0.0952148c-0.5629883,0-1.0439453,0.2285156-1.4443359,0.6850586
			c-0.3994141,0.4570312-0.5996094,1.0263672-0.5996094,1.7080078V86.5h-1.0537109v-6.9570312h0.8696289l0.1206055,1.2885742
			h0.0507812c0.2583008-0.4526367,0.5693359-0.8017578,0.9331055-1.0473633S499.4291992,79.4160156,499.8652344,79.4160156z"/>
		<path class="st2" d="M505.5336914,86.5v-9.2802734h1.0791016V86.5H505.5336914z"/>
		<path class="st2" d="M513.7602539,86.5v-4.5009766c0-0.5664062-0.1289062-0.9902344-0.387207-1.269043
			c-0.2583008-0.2792969-0.6621094-0.4189453-1.2124023-0.4189453c-0.7280273,0-1.2612305,0.1967773-1.5996094,0.590332
			s-0.5078125,1.0429688-0.5078125,1.9482422V86.5h-1.0537109v-6.9570312h0.8569336l0.1713867,0.9521484h0.0507812
			c0.2158203-0.3427734,0.5185547-0.6083984,0.9077148-0.796875c0.3891602-0.1879883,0.8232422-0.2822266,1.3012695-0.2822266
			c0.8378906,0,1.4682617,0.2021484,1.8916016,0.6064453c0.4233398,0.4038086,0.6347656,1.0498047,0.6347656,1.9384766V86.5
			H513.7602539z"/>
		<path class="st2" d="M520.1142578,80.3618164h-1.7709961V86.5h-1.0537109v-6.1381836h-1.2441406v-0.4760742l1.2441406-0.3808594
			v-0.387207c0-1.7094727,0.7470703-2.5644531,2.2407227-2.5644531c0.3681641,0,0.7998047,0.0742188,1.2949219,0.222168
			l-0.2729492,0.8442383c-0.40625-0.1313477-0.753418-0.1967773-1.0410156-0.1967773
			c-0.3979492,0-0.6918945,0.1323242-0.8823242,0.3964844c-0.1904297,0.2646484-0.2856445,0.6889648-0.2856445,1.2729492v0.4506836
			h1.7709961V80.3618164z"/>
		<path class="st2" d="M527.3886719,83.0146484c0,1.1347656-0.2856445,2.0195312-0.8569336,2.6572266
			c-0.5712891,0.6367188-1.3603516,0.9550781-2.3676758,0.9550781c-0.6220703,0-1.1743164-0.1464844-1.6567383-0.4384766
			s-0.8549805-0.7109375-1.1171875-1.2568359s-0.3935547-1.1845703-0.3935547-1.9169922
			c0-1.1337891,0.2836914-2.0170898,0.8505859-2.6494141c0.5668945-0.6328125,1.3540039-0.9492188,2.3613281-0.9492188
			c0.9731445,0,1.746582,0.3237305,2.3198242,0.9711914C527.1020508,81.0341797,527.3886719,81.9101562,527.3886719,83.0146484z
			 M522.0883789,83.0146484c0,0.8886719,0.1777344,1.5664062,0.5332031,2.03125
			c0.3554688,0.4658203,0.8779297,0.6982422,1.5678711,0.6982422s1.2133789-0.2314453,1.5712891-0.6943359
			c0.3574219-0.4638672,0.5361328-1.1416016,0.5361328-2.0351562c0-0.8837891-0.1787109-1.5556641-0.5361328-2.0146484
			c-0.3579102-0.4594727-0.8857422-0.6889648-1.5839844-0.6889648c-0.6899414,0-1.2104492,0.2265625-1.5615234,0.6791992
			C522.2641602,81.4423828,522.0883789,82.1181641,522.0883789,83.0146484z"/>
	</g>
	<g>
		<path class="st3" d="M274.9057617,87.5947266c-0.2558594,0-0.5117188-0.0976562-0.7070312-0.2929688
			c-0.390625-0.390625-0.390625-1.0234375,0-1.4140625L277.5859375,82.5l-3.387207-3.387207
			c-0.390625-0.390625-0.390625-1.0234375,0-1.4140625s1.0234375-0.390625,1.4140625,0l4.0942383,4.0942383
			c0.390625,0.390625,0.390625,1.0234375,0,1.4140625l-4.0942383,4.0947266
			C275.4174805,87.4970703,275.1616211,87.5947266,274.9057617,87.5947266z"/>
	</g>
	<g>
		<path class="st3" d="M407.9121094,87.0947266c-0.1279297,0-0.2558594-0.0488281-0.3535156-0.1464844
			c-0.1953125-0.1953125-0.1953125-0.5117188,0-0.7070312L411.2998047,82.5l-3.7412109-3.7407227
			c-0.1953125-0.1953125-0.1953125-0.5117188,0-0.7070312s0.5117188-0.1953125,0.7070312,0l4.0947266,4.0942383
			c0.09375,0.09375,0.1464844,0.2207031,0.1464844,0.3535156s-0.0527344,0.2597656-0.1464844,0.3535156l-4.0947266,4.0947266
			C408.1679688,87.0458984,408.0400391,87.0947266,407.9121094,87.0947266z"/>
	</g>
</g>
</svg>
