<?xml version="1.0" encoding="utf-8"?>
<!-- Generator: Adobe Illustrator 27.3.1, SVG Export Plug-In . SVG Version: 6.00 Build 0)  -->
<svg version="1.1" xmlns="http://www.w3.org/2000/svg" xmlns:xlink="http://www.w3.org/1999/xlink" x="0px" y="0px"
	 viewBox="0 0 710 160" style="enable-background:new 0 0 710 160;" xml:space="preserve">
<style type="text/css">
	.st0{fill:#B6B6B6;}
	.st1{fill:#6136DA;}
	.st2{fill:#333333;}
	.st3{fill:#5B5B5B;}
	.st4{fill:#FFFFFF;}
	.st5{fill:#E5E5E5;}
</style>
<g id="Warstwa_2">
</g>
<g id="Warstwa_1">
	<g>
		<rect x="610.3300781" y="60" class="st0" width="92.6699219" height="1"/>
	</g>
	<g>
		<rect x="376.0708008" y="60" class="st0" width="190.2441406" height="1"/>
	</g>
	<g>
		<rect x="144.831543" y="60" class="st0" width="188.5874023" height="1"/>
	</g>
	<g>
		<rect x="6" y="60" class="st0" width="93.6708984" height="1"/>
	</g>
	<g>
		<path class="st1" d="M104.5351562,109.6142578h2.7548828c1.2783203,0,2.2021484,0.1865234,2.7714844,0.5585938
			c0.5683594,0.3730469,0.8535156,0.9609375,0.8535156,1.7646484c0,0.5419922-0.1396484,0.9921875-0.4189453,1.3525391
			c-0.2792969,0.359375-0.6816406,0.5859375-1.2060547,0.6787109v0.0634766
			c0.6513672,0.1230469,1.1308594,0.3652344,1.4375,0.7265625c0.3066406,0.3623047,0.4599609,0.8525391,0.4599609,1.4697266
			c0,0.8339844-0.2910156,1.4863281-0.8720703,1.9580078c-0.5820312,0.4726562-1.3916016,0.7080078-2.4287109,0.7080078h-3.3515625
			V109.6142578z M106.0527344,113.4482422h1.4599609c0.6347656,0,1.0976562-0.1005859,1.3896484-0.3017578
			c0.2919922-0.2001953,0.4384766-0.5419922,0.4384766-1.0244141c0-0.4365234-0.1582031-0.7509766-0.4726562-0.9462891
			c-0.3154297-0.1943359-0.8164062-0.2919922-1.5019531-0.2919922h-1.3134766V113.4482422z M106.0527344,114.6796875v2.9394531
			h1.6123047c0.6347656,0,1.1142578-0.1220703,1.4375-0.3652344c0.3242188-0.2431641,0.4853516-0.6269531,0.4853516-1.1523438
			c0-0.4824219-0.1650391-0.8398438-0.4951172-1.0722656c-0.3300781-0.2333984-0.8310547-0.3496094-1.5039062-0.3496094H106.0527344
			z"/>
		<path class="st1" d="M112.8701172,110.0146484c0-0.2666016,0.0732422-0.4716797,0.21875-0.6162109
			c0.1464844-0.1435547,0.3544922-0.2158203,0.625-0.2158203c0.2626953,0,0.4667969,0.0722656,0.6132812,0.2158203
			c0.1455078,0.1445312,0.21875,0.3496094,0.21875,0.6162109c0,0.2539062-0.0732422,0.453125-0.21875,0.5996094
			c-0.1464844,0.1455078-0.3505859,0.21875-0.6132812,0.21875c-0.2705078,0-0.4785156-0.0732422-0.625-0.21875
			C112.9433594,110.4677734,112.8701172,110.2685547,112.8701172,110.0146484z M114.4501953,118.8945312h-1.4912109v-7.0205078
			h1.4912109V118.8945312z"/>
		<path class="st1" d="M118.0751953,118.8945312h-1.4921875v-9.8769531h1.4921875V118.8945312z"/>
		<path class="st1" d="M121.6992188,118.8945312h-1.4912109v-9.8769531h1.4912109V118.8945312z"/>
		<path class="st1" d="M123.7431641,110.0146484c0-0.2666016,0.0732422-0.4716797,0.21875-0.6162109
			c0.1464844-0.1435547,0.3544922-0.2158203,0.6259766-0.2158203c0.2617188,0,0.4658203,0.0722656,0.6123047,0.2158203
			c0.1455078,0.1445312,0.21875,0.3496094,0.21875,0.6162109c0,0.2539062-0.0732422,0.453125-0.21875,0.5996094
			c-0.1464844,0.1455078-0.3505859,0.21875-0.6123047,0.21875c-0.2714844,0-0.4794922-0.0732422-0.6259766-0.21875
			C123.8164062,110.4677734,123.7431641,110.2685547,123.7431641,110.0146484z M125.3242188,118.8945312h-1.4921875v-7.0205078
			h1.4921875V118.8945312z"/>
		<path class="st1" d="M133.6328125,118.8945312h-1.4980469v-4.3164062c0-0.5410156-0.1083984-0.9453125-0.3261719-1.2119141
			c-0.21875-0.2666016-0.5644531-0.4003906-1.0380859-0.4003906c-0.6308594,0-1.0917969,0.1865234-1.3837891,0.5585938
			c-0.2919922,0.3730469-0.4384766,0.9970703-0.4384766,1.8730469v3.4970703h-1.4912109v-7.0205078H128.625l0.2089844,0.9208984
			h0.0761719c0.2119141-0.3349609,0.5126953-0.5927734,0.9013672-0.7744141
			c0.3896484-0.1826172,0.8212891-0.2734375,1.2949219-0.2734375c1.6845703,0,2.5263672,0.8574219,2.5263672,2.5712891V118.8945312z
			"/>
		<path class="st1" d="M141.6376953,111.8740234v0.8193359l-1.2001953,0.2216797
			c0.1103516,0.1484375,0.2011719,0.3300781,0.2734375,0.5458984c0.0712891,0.2158203,0.1074219,0.4443359,0.1074219,0.6855469
			c0,0.7236328-0.2490234,1.2929688-0.7490234,1.7080078c-0.4990234,0.4140625-1.1865234,0.6220703-2.0625,0.6220703
			c-0.2246094,0-0.4277344-0.0175781-0.609375-0.0507812c-0.3222656,0.1982422-0.4824219,0.4316406-0.4824219,0.6982422
			c0,0.1601562,0.0751953,0.28125,0.2255859,0.3613281c0.1494141,0.0810547,0.4257812,0.1210938,0.828125,0.1210938h1.2246094
			c0.7744141,0,1.3632812,0.1650391,1.7646484,0.4951172c0.4023438,0.3300781,0.6035156,0.8056641,0.6035156,1.4277344
			c0,0.7958984-0.328125,1.4091797-0.984375,1.8408203c-0.6552734,0.4316406-1.6035156,0.6474609-2.84375,0.6474609
			c-0.9560547,0-1.6865234-0.1689453-2.1894531-0.5078125c-0.5039062-0.3378906-0.7558594-0.8203125-0.7558594-1.4472656
			c0-0.4316406,0.1367188-0.7939453,0.4101562-1.0888672c0.2724609-0.2939453,0.6542969-0.4980469,1.1455078-0.6123047
			c-0.1992188-0.0839844-0.3632812-0.2207031-0.4921875-0.4091797s-0.1933594-0.3857422-0.1933594-0.59375
			c0-0.2617188,0.0742188-0.484375,0.2216797-0.6660156c0.1484375-0.1826172,0.3681641-0.3623047,0.6601562-0.5400391
			c-0.3632812-0.15625-0.6591797-0.4111328-0.8847656-0.7646484c-0.2265625-0.3535156-0.3398438-0.7666016-0.3398438-1.2412109
			c0-0.7617188,0.2402344-1.3515625,0.7207031-1.7705078c0.4794922-0.4189453,1.1640625-0.6289062,2.0527344-0.6289062
			c0.1992188,0,0.4072266,0.0136719,0.6259766,0.0410156c0.2177734,0.0283203,0.3818359,0.0566406,0.4912109,0.0859375H141.6376953z
			 M136.1210938,119.9863281c0,0.3222656,0.1455078,0.5693359,0.4355469,0.7431641
			c0.2890625,0.1728516,0.6962891,0.2597656,1.2216797,0.2597656c0.8125,0,1.4169922-0.1162109,1.8154297-0.3486328
			c0.3974609-0.2333984,0.5966797-0.5419922,0.5966797-0.9267578c0-0.3046875-0.109375-0.5214844-0.3271484-0.6513672
			c-0.2177734-0.1289062-0.6230469-0.1933594-1.2158203-0.1933594h-1.1298828c-0.4267578,0-0.7666016,0.1005859-1.0185547,0.3017578
			S136.1210938,119.6435547,136.1210938,119.9863281z M136.7626953,114.1464844c0,0.4404297,0.1132812,0.7792969,0.3398438,1.015625
			c0.2255859,0.2373047,0.5507812,0.3554688,0.9736328,0.3554688c0.8632812,0,1.2949219-0.4609375,1.2949219-1.3837891
			c0-0.4570312-0.1064453-0.8095703-0.3203125-1.0566406c-0.2138672-0.2480469-0.5380859-0.3710938-0.9746094-0.3710938
			c-0.4316406,0-0.7578125,0.1220703-0.9804688,0.3681641C136.8740234,113.3193359,136.7626953,113.6767578,136.7626953,114.1464844
			z"/>
	</g>
	<g>
		<path class="st2" d="M335.5595703,116.0302734c0,0.8173828-0.2958984,1.4541016-0.8886719,1.9111328
			c-0.5917969,0.4570312-1.3964844,0.6855469-2.4121094,0.6855469c-1.0996094,0-1.9462891-0.1416016-2.5390625-0.4257812v-1.0410156
			c0.3808594,0.1611328,0.7958984,0.2880859,1.2441406,0.3808594c0.4492188,0.09375,0.8935547,0.1396484,1.3330078,0.1396484
			c0.7197266,0,1.2617188-0.1357422,1.625-0.4091797c0.3642578-0.2724609,0.5458984-0.6523438,0.5458984-1.1396484
			c0-0.3212891-0.0644531-0.5849609-0.1933594-0.7900391s-0.3447266-0.3945312-0.6474609-0.5683594
			c-0.3027344-0.1728516-0.7626953-0.3701172-1.3808594-0.5898438c-0.8632812-0.3095703-1.4794922-0.6748047-1.8505859-1.0986328
			c-0.3701172-0.4228516-0.5546875-0.9755859-0.5546875-1.65625c0-0.7158203,0.2685547-1.2841797,0.8056641-1.7080078
			c0.5380859-0.4228516,1.2490234-0.6347656,2.1328125-0.6347656c0.9228516,0,1.7714844,0.1699219,2.5458984,0.5078125
			l-0.3369141,0.9394531c-0.765625-0.3212891-1.5107422-0.4824219-2.234375-0.4824219
			c-0.5712891,0-1.0175781,0.1230469-1.3388672,0.3681641c-0.3222656,0.2460938-0.4824219,0.5859375-0.4824219,1.0224609
			c0,0.3212891,0.0585938,0.5849609,0.1777344,0.7900391c0.1181641,0.2050781,0.3183594,0.3935547,0.5996094,0.5654297
			c0.28125,0.1708984,0.7119141,0.3603516,1.2919922,0.5673828c0.9726562,0.3476562,1.6425781,0.7197266,2.0087891,1.1171875
			C335.3769531,114.8798828,335.5595703,115.3955078,335.5595703,116.0302734z"/>
		<path class="st2" d="M342.0595703,118.5v-4.5009766c0-0.5664062-0.1289062-0.9902344-0.3867188-1.2695312
			c-0.2587891-0.2792969-0.6621094-0.4189453-1.2128906-0.4189453c-0.7314453,0-1.2666016,0.1992188-1.6025391,0.5966797
			c-0.3369141,0.3984375-0.5048828,1.0498047-0.5048828,1.9550781V118.5h-1.0537109v-9.8769531h1.0537109v2.9892578
			c0,0.3603516-0.0166016,0.6582031-0.0507812,0.8955078h0.0634766c0.2080078-0.3349609,0.5029297-0.5976562,0.8857422-0.7900391
			c0.3828125-0.1933594,0.8203125-0.2890625,1.3105469-0.2890625c0.8505859,0,1.4882812,0.2021484,1.9140625,0.6064453
			c0.4248047,0.4033203,0.6376953,1.0458984,0.6376953,1.9257812V118.5H342.0595703z"/>
		<path class="st2" d="M345.1894531,109.6572266c0-0.2412109,0.0585938-0.4179688,0.1777344-0.5292969
			c0.1181641-0.1123047,0.2666016-0.1689453,0.4443359-0.1689453c0.1689453,0,0.3154297,0.0576172,0.4375,0.171875
			c0.1230469,0.1142578,0.1845703,0.2900391,0.1845703,0.5263672c0,0.2373047-0.0615234,0.4140625-0.1845703,0.5302734
			c-0.1220703,0.1162109-0.2685547,0.1748047-0.4375,0.1748047c-0.1777344,0-0.3261719-0.0585938-0.4443359-0.1748047
			C345.2480469,110.0712891,345.1894531,109.8945312,345.1894531,109.6572266z M346.3320312,118.5h-1.0537109v-6.9570312h1.0537109
			V118.5z"/>
		<path class="st2" d="M351.8037109,118.6269531c-0.453125,0-0.8662109-0.0839844-1.2412109-0.2509766
			c-0.3740234-0.1669922-0.6884766-0.4238281-0.9423828-0.7714844h-0.0761719
			c0.0507812,0.40625,0.0761719,0.7919922,0.0761719,1.1552734v2.8632812h-1.0537109v-10.0800781h0.8564453l0.1464844,0.9521484
			h0.0507812c0.2705078-0.3808594,0.5859375-0.65625,0.9453125-0.8251953
			c0.3603516-0.1699219,0.7724609-0.2539062,1.2382812-0.2539062c0.921875,0,1.6347656,0.3154297,2.1357422,0.9453125
			c0.5019531,0.6308594,0.7519531,1.515625,0.7519531,2.6533203c0,1.1425781-0.2548828,2.0302734-0.7646484,2.6630859
			S352.7089844,118.6269531,351.8037109,118.6269531z M351.6513672,112.3105469
			c-0.7109375,0-1.2255859,0.1972656-1.5429688,0.5908203s-0.4804688,1.0195312-0.4882812,1.8789062v0.234375
			c0,0.9775391,0.1630859,1.6767578,0.4882812,2.0986328c0.3261719,0.4208984,0.8486328,0.6308594,1.5683594,0.6308594
			c0.6005859,0,1.0712891-0.2431641,1.4121094-0.7294922c0.3408203-0.4873047,0.5107422-1.1572266,0.5107422-2.0126953
			c0-0.8671875-0.1699219-1.5322266-0.5107422-1.9960938C352.7480469,112.5429688,352.2685547,112.3105469,351.6513672,112.3105469z
			"/>
		<path class="st2" d="M359.7695312,118.6269531c-0.4521484,0-0.8662109-0.0839844-1.2412109-0.2509766
			c-0.3740234-0.1669922-0.6884766-0.4238281-0.9423828-0.7714844h-0.0761719
			c0.0507812,0.40625,0.0761719,0.7919922,0.0761719,1.1552734v2.8632812h-1.0537109v-10.0800781h0.8574219l0.1455078,0.9521484
			h0.0507812c0.2714844-0.3808594,0.5859375-0.65625,0.9462891-0.8251953
			c0.359375-0.1699219,0.7724609-0.2539062,1.2373047-0.2539062c0.9228516,0,1.6347656,0.3154297,2.1357422,0.9453125
			c0.5019531,0.6308594,0.7529297,1.515625,0.7529297,2.6533203c0,1.1425781-0.2548828,2.0302734-0.765625,2.6630859
			C361.3828125,118.3105469,360.6757812,118.6269531,359.7695312,118.6269531z M359.6171875,112.3105469
			c-0.7109375,0-1.2246094,0.1972656-1.5419922,0.5908203s-0.4804688,1.0195312-0.4892578,1.8789062v0.234375
			c0,0.9775391,0.1630859,1.6767578,0.4892578,2.0986328c0.3251953,0.4208984,0.8486328,0.6308594,1.5673828,0.6308594
			c0.6015625,0,1.0722656-0.2431641,1.4121094-0.7294922c0.3408203-0.4873047,0.5117188-1.1572266,0.5117188-2.0126953
			c0-0.8671875-0.1708984-1.5322266-0.5117188-1.9960938C360.7148438,112.5429688,360.2353516,112.3105469,359.6171875,112.3105469z
			"/>
		<path class="st2" d="M364.4101562,109.6572266c0-0.2412109,0.0585938-0.4179688,0.1777344-0.5292969
			c0.1181641-0.1123047,0.2666016-0.1689453,0.4443359-0.1689453c0.1689453,0,0.3154297,0.0576172,0.4375,0.171875
			c0.1230469,0.1142578,0.1845703,0.2900391,0.1845703,0.5263672c0,0.2373047-0.0615234,0.4140625-0.1845703,0.5302734
			c-0.1220703,0.1162109-0.2685547,0.1748047-0.4375,0.1748047c-0.1777344,0-0.3261719-0.0585938-0.4443359-0.1748047
			C364.46875,110.0712891,364.4101562,109.8945312,364.4101562,109.6572266z M365.5527344,118.5h-1.0537109v-6.9570312h1.0537109
			V118.5z"/>
		<path class="st2" d="M372.5478516,118.5v-4.5009766c0-0.5664062-0.1289062-0.9902344-0.3876953-1.2695312
			c-0.2578125-0.2792969-0.6621094-0.4189453-1.2119141-0.4189453c-0.7285156,0-1.2617188,0.1972656-1.5996094,0.5908203
			c-0.3388672,0.3935547-0.5078125,1.0429688-0.5078125,1.9482422V118.5h-1.0537109v-6.9570312h0.8564453l0.171875,0.9521484
			h0.0507812c0.2158203-0.3427734,0.5185547-0.6083984,0.9072266-0.796875
			c0.3896484-0.1884766,0.8232422-0.2822266,1.3017578-0.2822266c0.8378906,0,1.4677734,0.2021484,1.8916016,0.6064453
			c0.4228516,0.4033203,0.6347656,1.0498047,0.6347656,1.9384766V118.5H372.5478516z"/>
		<path class="st2" d="M381.4599609,111.5429688v0.6660156l-1.2890625,0.1523438
			c0.1191406,0.1484375,0.2246094,0.3417969,0.3173828,0.5810547c0.09375,0.2392578,0.1396484,0.5087891,0.1396484,0.8095703
			c0,0.6806641-0.2324219,1.2246094-0.6982422,1.6308594c-0.4648438,0.40625-1.1044922,0.609375-1.9169922,0.609375
			c-0.2070312,0-0.4013672-0.0166016-0.5839844-0.0507812c-0.4482422,0.2373047-0.6728516,0.5351562-0.6728516,0.8955078
			c0,0.1904297,0.078125,0.3310547,0.2353516,0.421875c0.15625,0.0908203,0.4248047,0.1367188,0.8056641,0.1367188h1.2314453
			c0.7539062,0,1.3320312,0.1582031,1.7363281,0.4755859s0.6064453,0.7792969,0.6064453,1.3837891
			c0,0.7705078-0.3095703,1.3574219-0.9267578,1.7617188c-0.6181641,0.4042969-1.5195312,0.6064453-2.7041016,0.6064453
			c-0.9101562,0-1.6113281-0.1699219-2.1044922-0.5078125c-0.4931641-0.3388672-0.7392578-0.8173828-0.7392578-1.4345703
			c0-0.4238281,0.1347656-0.7890625,0.40625-1.0986328c0.2705078-0.3085938,0.6513672-0.5185547,1.1425781-0.6279297
			c-0.1777344-0.0810547-0.3271484-0.2050781-0.4482422-0.375c-0.1201172-0.1689453-0.1806641-0.3662109-0.1806641-0.5898438
			c0-0.2539062,0.0683594-0.4765625,0.203125-0.6669922c0.1357422-0.1904297,0.3496094-0.3740234,0.6416016-0.5517578
			c-0.3603516-0.1484375-0.6533203-0.4003906-0.8798828-0.7558594c-0.2255859-0.3554688-0.3388672-0.7617188-0.3388672-1.21875
			c0-0.7617188,0.2285156-1.3486328,0.6855469-1.7607422c0.4570312-0.4130859,1.1044922-0.6191406,1.9423828-0.6191406
			c0.3632812,0,0.6914062,0.0419922,0.9833984,0.1269531H381.4599609z M375.9121094,119.6679688
			c0,0.3759766,0.1582031,0.6621094,0.4755859,0.8564453c0.3173828,0.1953125,0.7724609,0.2919922,1.3652344,0.2919922
			c0.8837891,0,1.5390625-0.1318359,1.9638672-0.3964844c0.4257812-0.2646484,0.6386719-0.6230469,0.6386719-1.0761719
			c0-0.3759766-0.1162109-0.6376953-0.3496094-0.7832031c-0.2324219-0.1464844-0.6708984-0.2197266-1.3134766-0.2197266h-1.2636719
			c-0.4775391,0-0.8505859,0.1142578-1.1171875,0.3427734S375.9121094,119.2402344,375.9121094,119.6679688z
			 M376.4833984,113.7705078c0,0.4873047,0.1376953,0.8554688,0.4121094,1.1044922c0.2753906,0.25,0.6582031,0.375,1.1494141,0.375
			c1.0283203,0,1.5419922-0.5,1.5419922-1.4980469c0-1.0458984-0.5205078-1.5683594-1.5615234-1.5683594
			c-0.4951172,0-0.8759766,0.1337891-1.1425781,0.4003906S376.4833984,113.2460938,376.4833984,113.7705078z"/>
	</g>
	<g>
		<path class="st2" d="M565.1220703,113.8466797c0,1.4853516-0.375,2.6533203-1.1269531,3.5039062
			c-0.7509766,0.8505859-1.7949219,1.2763672-3.1318359,1.2763672c-1.3671875,0-2.421875-0.4179688-3.1650391-1.2539062
			c-0.7421875-0.8359375-1.1132812-2.015625-1.1132812-3.5390625c0-1.5107422,0.3720703-2.6816406,1.1171875-3.5126953
			c0.7441406-0.8320312,1.8027344-1.2480469,3.1738281-1.2480469c1.3330078,0,2.3740234,0.4238281,3.1230469,1.2695312
			C564.7480469,111.1894531,565.1220703,112.3574219,565.1220703,113.8466797z M557.7275391,113.8466797
			c0,1.2568359,0.2675781,2.2099609,0.8027344,2.8603516c0.5351562,0.6494141,1.3125,0.9736328,2.3330078,0.9736328
			c1.0283203,0,1.8046875-0.3232422,2.3291016-0.9707031c0.5253906-0.6474609,0.7871094-1.6015625,0.7871094-2.8632812
			c0-1.2480469-0.2607422-2.1953125-0.7841797-2.8398438c-0.5224609-0.6455078-1.2958984-0.96875-2.3193359-0.96875
			c-1.0283203,0-1.8105469,0.3251953-2.3457031,0.9746094S557.7275391,112.6074219,557.7275391,113.8466797z"/>
		<path class="st2" d="M570.2070312,111.4160156c0.3085938,0,0.5859375,0.0253906,0.8310547,0.0761719l-0.1455078,0.9775391
			c-0.2880859-0.0634766-0.5419922-0.0957031-0.7617188-0.0957031c-0.5634766,0-1.0439453,0.2285156-1.4443359,0.6855469
			c-0.3994141,0.4570312-0.5996094,1.0263672-0.5996094,1.7080078V118.5h-1.0537109v-6.9570312h0.8691406l0.1210938,1.2880859
			h0.0507812c0.2578125-0.4521484,0.5693359-0.8017578,0.9326172-1.046875
			C569.3710938,111.5380859,569.7705078,111.4160156,570.2070312,111.4160156z"/>
		<path class="st2" d="M577.0751953,117.5664062h-0.0576172c-0.4863281,0.7070312-1.2138672,1.0605469-2.1835938,1.0605469
			c-0.9091797,0-1.6171875-0.3115234-2.1230469-0.9335938s-0.7587891-1.5058594-0.7587891-2.6533203
			c0-1.1464844,0.2539062-2.0371094,0.7617188-2.671875s1.2148438-0.9521484,2.1201172-0.9521484
			c0.9443359,0,1.6679688,0.3427734,2.1708984,1.0283203h0.0830078l-0.0449219-0.5019531l-0.0253906-0.4882812v-2.8310547h1.0537109
			V118.5h-0.8564453L577.0751953,117.5664062z M574.9677734,117.7441406c0.71875,0,1.2412109-0.1953125,1.5644531-0.5869141
			c0.3242188-0.3916016,0.4853516-1.0234375,0.4853516-1.8945312v-0.2226562c0-0.9853516-0.1640625-1.6894531-0.4912109-2.1103516
			c-0.328125-0.4208984-0.8525391-0.6318359-1.5712891-0.6318359c-0.6181641,0-1.0908203,0.2402344-1.4189453,0.7207031
			s-0.4921875,1.1582031-0.4921875,2.0341797c0,0.8886719,0.1630859,1.5595703,0.4892578,2.0126953
			C573.8583984,117.5175781,574.3369141,117.7441406,574.9677734,117.7441406z"/>
		<path class="st2" d="M583.2451172,118.6269531c-1.0283203,0-1.8398438-0.3134766-2.4345703-0.9394531
			c-0.5947266-0.6269531-0.8916016-1.4960938-0.8916016-2.609375c0-1.1210938,0.2753906-2.0117188,0.828125-2.671875
			c0.5517578-0.6601562,1.2939453-0.9902344,2.2246094-0.9902344c0.8720703,0,1.5615234,0.2861328,2.0693359,0.8603516
			c0.5078125,0.5732422,0.7617188,1.3291016,0.7617188,2.2685547v0.6669922h-4.7919922
			c0.0205078,0.8164062,0.2275391,1.4365234,0.6181641,1.859375c0.3916016,0.4238281,0.9433594,0.6347656,1.6542969,0.6347656
			c0.7490234,0,1.4892578-0.15625,2.2216797-0.4697266v0.9394531c-0.3730469,0.1611328-0.7246094,0.2763672-1.0576172,0.3466797
			C584.1152344,118.5917969,583.7148438,118.6269531,583.2451172,118.6269531z M582.9589844,112.2978516
			c-0.5585938,0-1.0039062,0.1826172-1.3359375,0.5458984c-0.3320312,0.3642578-0.5283203,0.8681641-0.5869141,1.5107422h3.6367188
			c0-0.6640625-0.1474609-1.1728516-0.4443359-1.5263672C583.9326172,112.4746094,583.5097656,112.2978516,582.9589844,112.2978516z
			"/>
		<path class="st2" d="M590.7734375,111.4160156c0.3085938,0,0.5859375,0.0253906,0.8310547,0.0761719l-0.1455078,0.9775391
			c-0.2880859-0.0634766-0.5419922-0.0957031-0.7617188-0.0957031c-0.5634766,0-1.0439453,0.2285156-1.4443359,0.6855469
			c-0.3994141,0.4570312-0.5996094,1.0263672-0.5996094,1.7080078V118.5h-1.0537109v-6.9570312h0.8691406l0.1210938,1.2880859
			h0.0507812c0.2578125-0.4521484,0.5693359-0.8017578,0.9326172-1.046875
			C589.9375,111.5380859,590.3369141,111.4160156,590.7734375,111.4160156z"/>
		<path class="st2" d="M596.4414062,118.5v-9.2802734h1.0791016V118.5H596.4414062z"/>
		<path class="st2" d="M604.6679688,118.5v-4.5009766c0-0.5664062-0.1289062-0.9902344-0.3867188-1.2695312
			c-0.2587891-0.2792969-0.6621094-0.4189453-1.2128906-0.4189453c-0.7275391,0-1.2607422,0.1972656-1.5996094,0.5908203
			c-0.3378906,0.3935547-0.5078125,1.0429688-0.5078125,1.9482422V118.5h-1.0537109v-6.9570312h0.8574219l0.1708984,0.9521484
			h0.0507812c0.2158203-0.3427734,0.5185547-0.6083984,0.9082031-0.796875
			c0.3886719-0.1884766,0.8232422-0.2822266,1.3007812-0.2822266c0.8378906,0,1.46875,0.2021484,1.8916016,0.6064453
			c0.4238281,0.4033203,0.6347656,1.0498047,0.6347656,1.9384766V118.5H604.6679688z"/>
		<path class="st2" d="M611.0224609,112.3613281h-1.7714844V118.5h-1.0537109v-6.1386719h-1.2441406v-0.4755859l1.2441406-0.3808594
			v-0.3876953c0-1.7089844,0.7470703-2.5644531,2.2412109-2.5644531c0.3681641,0,0.7998047,0.0742188,1.2949219,0.2226562
			l-0.2734375,0.84375c-0.40625-0.1308594-0.7529297-0.1962891-1.0410156-0.1962891
			c-0.3974609,0-0.6914062,0.1318359-0.8818359,0.3964844s-0.2861328,0.6884766-0.2861328,1.2724609v0.4511719h1.7714844
			V112.3613281z"/>
		<path class="st2" d="M618.296875,115.0146484c0,1.1347656-0.2861328,2.0195312-0.8574219,2.6572266
			c-0.5712891,0.6367188-1.3603516,0.9550781-2.3671875,0.9550781c-0.6220703,0-1.1748047-0.1464844-1.6572266-0.4384766
			s-0.8544922-0.7109375-1.1171875-1.2568359c-0.2617188-0.5458984-0.3935547-1.1845703-0.3935547-1.9169922
			c0-1.1337891,0.2841797-2.0175781,0.8505859-2.6494141c0.5673828-0.6328125,1.3544922-0.9492188,2.3613281-0.9492188
			c0.9736328,0,1.7470703,0.3232422,2.3203125,0.9707031S618.296875,113.9101562,618.296875,115.0146484z M612.9960938,115.0146484
			c0,0.8886719,0.1777344,1.5664062,0.5332031,2.03125c0.3554688,0.4658203,0.8779297,0.6982422,1.5683594,0.6982422
			c0.6894531,0,1.2128906-0.2314453,1.5712891-0.6943359c0.3574219-0.4638672,0.5361328-1.1416016,0.5361328-2.0351562
			c0-0.8837891-0.1787109-1.5556641-0.5361328-2.0146484c-0.3583984-0.4599609-0.8857422-0.6894531-1.5839844-0.6894531
			c-0.6904297,0-1.2109375,0.2265625-1.5615234,0.6796875C613.171875,113.4423828,612.9960938,114.1181641,612.9960938,115.0146484z
			"/>
	</g>
	<circle class="st1" cx="122.2102432" cy="65.6152039" r="24.8999233"/>
	<g>
		<path class="st4" d="M123.800293,71.3862305h-2.3198242v-6.3505859l0.0224609-1.0439453l0.0375977-1.140625
			c-0.3852539,0.3847656-0.6533203,0.6376953-0.8032227,0.7578125l-1.2612305,1.0136719l-1.1186523-1.3964844l3.5361328-2.8154297
			h1.9067383V71.3862305z"/>
	</g>
	<circle class="st5" cx="355" cy="65.6152039" r="24.8999233"/>
	<g>
		<path class="st2" d="M358.2358398,71.3862305h-7.2143555v-1.0732422l2.8901367-2.9052734
			c0.8808594-0.890625,1.4614258-1.5263672,1.7416992-1.9072266c0.2802734-0.3798828,0.4907227-0.75,0.6308594-1.1103516
			s0.2099609-0.7480469,0.2099609-1.1640625c0-0.5849609-0.1777344-1.0498047-0.5327148-1.3925781
			c-0.3554688-0.3427734-0.8486328-0.5136719-1.4790039-0.5136719c-0.4555664,0-0.887207,0.0742188-1.2949219,0.2246094
			c-0.4082031,0.1503906-0.8623047,0.4228516-1.362793,0.8183594l-0.6601562-0.8486328
			c1.0107422-0.8398438,2.1118164-1.2607422,3.3027344-1.2607422c1.0307617,0,1.8393555,0.2636719,2.4248047,0.7919922
			s0.878418,1.2373047,0.878418,2.1279297c0,0.6962891-0.1953125,1.3837891-0.5854492,2.0644531
			c-0.390625,0.6806641-1.1210938,1.5419922-2.1923828,2.5830078l-2.4018555,2.3496094v0.0595703h5.6450195V71.3862305z"/>
	</g>
	<circle class="st5" cx="587.888916" cy="65.6152039" r="24.8999233"/>
	<g>
		<path class="st2" d="M590.5654297,62.9936523c0,0.7001953-0.1962891,1.2734375-0.5888672,1.71875
			c-0.3930664,0.4453125-0.949707,0.7431641-1.6704102,0.8935547v0.0595703
			c0.8808594,0.1103516,1.5336914,0.390625,1.9589844,0.8408203c0.4257812,0.4511719,0.6381836,1.0410156,0.6381836,1.7724609
			c0,1.0458984-0.362793,1.8496094-1.0883789,2.4130859c-0.7255859,0.5625-1.7568359,0.8447266-3.0927734,0.8447266
			c-0.5805664,0-1.1123047-0.0439453-1.5952148-0.1318359c-0.4829102-0.0869141-0.9521484-0.2412109-1.4077148-0.4619141v-1.1855469
			c0.4755859,0.2353516,0.9824219,0.4140625,1.5200195,0.5371094c0.5380859,0.1220703,1.0473633,0.1835938,1.527832,0.1835938
			c1.8964844,0,2.8452148-0.7431641,2.8452148-2.2294922c0-1.3310547-1.0458984-1.9970703-3.1381836-1.9970703h-1.0805664
			v-1.0732422h1.0957031c0.855957,0,1.5341797-0.1894531,2.034668-0.5673828c0.5-0.3769531,0.7504883-0.9013672,0.7504883-1.5722656
			c0-0.5351562-0.184082-0.9560547-0.5517578-1.2607422c-0.3676758-0.3056641-0.8671875-0.4580078-1.4975586-0.4580078
			c-0.4804688,0-0.9335938,0.0644531-1.3588867,0.1943359c-0.425293,0.1308594-0.9106445,0.3710938-1.4560547,0.7207031
			l-0.6308594-0.8408203c0.4506836-0.3544922,0.9697266-0.6337891,1.5576172-0.8369141
			c0.5883789-0.2021484,1.2075195-0.3037109,1.8579102-0.3037109c1.0664062,0,1.8945312,0.2441406,2.4848633,0.7324219
			C590.2705078,61.4731445,590.5654297,62.1430664,590.5654297,62.9936523z"/>
	</g>
</g>
</svg>
