<?xml version="1.0" encoding="utf-8"?>
<!-- Generator: Adobe Illustrator 27.3.1, SVG Export Plug-In . SVG Version: 6.00 Build 0)  -->
<svg version="1.1" xmlns="http://www.w3.org/2000/svg" xmlns:xlink="http://www.w3.org/1999/xlink" x="0px" y="0px"
	 viewBox="0 0 710 160" style="enable-background:new 0 0 710 160;" xml:space="preserve">
<style type="text/css">
	.st0{fill:#B6B6B6;}
	.st1{fill:#6136DA;}
	.st2{fill:#333333;}
	.st3{fill:#5B5B5B;}
	.st4{fill:#FFFFFF;}
	.st5{fill:#E5E5E5;}
</style>
<g id="Warstwa_2">
</g>
<g id="Warstwa_1">
	<rect x="188.9706116" y="93" class="st1" width="103.8501892" height="5"/>
	<rect x="302.8208008" y="93" class="st0" width="103.8501892" height="5"/>
	<rect x="416.67099" y="93" class="st0" width="103.8501892" height="5"/>
	<g>
		<path class="st1" d="M214,75h-11V62h11V75z M204,74h9V63h-9V74z"/>
	</g>
	<g>
		<polygon class="st1" points="216,77 205,77 205,74.5 206,74.5 206,76 215,76 215,65 213.5,65 213.5,64 216,64 		"/>
	</g>
	<g>
		<rect x="206" y="66" class="st1" width="5" height="1"/>
	</g>
	<g>
		<rect x="206" y="68" class="st1" width="5" height="1"/>
	</g>
	<g>
		<rect x="206" y="70" class="st1" width="5" height="1"/>
	</g>
	<g>
		<path class="st1" d="M226.7470703,74.8950195h-1.4916992V68.902832c0-0.715332,0.0170898-1.2822266,0.0507812-1.7011719
			c-0.097168,0.1015625-0.2167969,0.2138672-0.3588867,0.3364258c-0.1416016,0.1225586-0.6166992,0.512207-1.4248047,1.1679688
			l-0.7490234-0.9458008l2.7294922-2.1455078h1.2441406V74.8950195z"/>
		<path class="st1" d="M230.0605469,74.1015625c0-0.309082,0.0805664-0.5458984,0.2412109-0.7109375
			S230.6953125,73.1430664,231,73.1430664c0.309082,0,0.5439453,0.0859375,0.7045898,0.2568359
			c0.1606445,0.171875,0.2412109,0.4052734,0.2412109,0.7016602c0,0.300293-0.081543,0.5385742-0.2441406,0.7143555
			c-0.1630859,0.175293-0.3969727,0.2631836-0.7016602,0.2631836s-0.5375977-0.0869141-0.6982422-0.2602539
			S230.0605469,74.40625,230.0605469,74.1015625z"/>
		<path class="st1" d="M237.3920898,65.6147461h2.7548828c1.277832,0,2.2016602,0.1860352,2.7709961,0.5585938
			c0.5688477,0.3725586,0.8535156,0.9604492,0.8535156,1.7646484c0,0.5415039-0.1396484,0.9921875-0.4189453,1.3520508
			s-0.6811523,0.5859375-1.2060547,0.6791992v0.0634766c0.6518555,0.1225586,1.1308594,0.3652344,1.4375,0.7265625
			c0.3071289,0.3623047,0.4604492,0.8520508,0.4604492,1.4697266c0,0.8334961-0.2910156,1.4863281-0.8725586,1.9580078
			c-0.5820312,0.472168-1.3916016,0.7080078-2.4282227,0.7080078h-3.3515625V65.6147461z M238.9091797,69.4487305h1.4599609
			c0.6347656,0,1.0981445-0.1005859,1.3901367-0.3017578c0.2919922-0.2006836,0.4379883-0.5424805,0.4379883-1.0249023
			c0-0.4360352-0.1577148-0.7509766-0.4726562-0.9458008c-0.3154297-0.1948242-0.815918-0.2919922-1.5014648-0.2919922h-1.3139648
			V69.4487305z M238.9091797,70.6801758v2.9389648h1.6123047c0.6347656,0,1.1142578-0.121582,1.4375-0.3647461
			c0.3242188-0.2436523,0.4858398-0.6274414,0.4858398-1.1523438c0-0.4824219-0.1650391-0.8398438-0.4951172-1.0727539
			s-0.831543-0.3491211-1.5043945-0.3491211H238.9091797z"/>
		<path class="st1" d="M245.7265625,66.0146484c0-0.2666016,0.0732422-0.4716797,0.21875-0.6157227
			c0.1464844-0.144043,0.3544922-0.2158203,0.6254883-0.2158203c0.262207,0,0.4663086,0.0717773,0.612793,0.2158203
			c0.1455078,0.144043,0.21875,0.3491211,0.21875,0.6157227c0,0.2539062-0.0732422,0.4536133-0.21875,0.6000977
			c-0.1464844,0.1455078-0.3505859,0.21875-0.612793,0.21875c-0.2709961,0-0.4790039-0.0732422-0.6254883-0.21875
			C245.7998047,66.4682617,245.7265625,66.2685547,245.7265625,66.0146484z M247.3071289,74.8950195h-1.4916992v-7.0205078
			h1.4916992V74.8950195z"/>
		<path class="st1" d="M250.9316406,74.8950195h-1.4916992v-9.8769531h1.4916992V74.8950195z"/>
		<path class="st1" d="M254.5561523,74.8950195h-1.4916992v-9.8769531h1.4916992V74.8950195z"/>
		<path class="st1" d="M256.6000977,66.0146484c0-0.2666016,0.0732422-0.4716797,0.21875-0.6157227
			c0.1464844-0.144043,0.3544922-0.2158203,0.6254883-0.2158203c0.262207,0,0.4663086,0.0717773,0.612793,0.2158203
			c0.1455078,0.144043,0.21875,0.3491211,0.21875,0.6157227c0,0.2539062-0.0732422,0.4536133-0.21875,0.6000977
			c-0.1464844,0.1455078-0.3505859,0.21875-0.612793,0.21875c-0.2709961,0-0.4790039-0.0732422-0.6254883-0.21875
			C256.6733398,66.4682617,256.6000977,66.2685547,256.6000977,66.0146484z M258.1806641,74.8950195h-1.4916992v-7.0205078
			h1.4916992V74.8950195z"/>
		<path class="st1" d="M266.4897461,74.8950195h-1.4980469v-4.3164062c0-0.5415039-0.1088867-0.9458008-0.3266602-1.2124023
			c-0.2182617-0.2666016-0.5639648-0.3999023-1.0380859-0.3999023c-0.6303711,0-1.0917969,0.1860352-1.3837891,0.5585938
			s-0.4379883,0.996582-0.4379883,1.8725586v3.4975586h-1.4916992v-7.0205078h1.1679688l0.2094727,0.9204102h0.0761719
			c0.2114258-0.3344727,0.512207-0.5922852,0.9013672-0.7744141s0.8208008-0.2729492,1.2949219-0.2729492
			c1.684082,0,2.5263672,0.8569336,2.5263672,2.5708008V74.8950195z"/>
		<path class="st1" d="M274.4941406,67.8745117v0.8188477l-1.199707,0.222168
			c0.1098633,0.1479492,0.2011719,0.3300781,0.2729492,0.5458984s0.1079102,0.4443359,0.1079102,0.6855469
			c0,0.7236328-0.2495117,1.2929688-0.7490234,1.7075195s-1.1870117,0.6220703-2.0629883,0.6220703
			c-0.2241211,0-0.4272461-0.0170898-0.609375-0.0507812c-0.3217773,0.1987305-0.4824219,0.4316406-0.4824219,0.6982422
			c0,0.1606445,0.0751953,0.28125,0.2255859,0.3618164c0.1499023,0.0805664,0.4262695,0.1206055,0.828125,0.1206055h1.2250977
			c0.7744141,0,1.362793,0.1650391,1.7646484,0.4951172s0.6030273,0.8061523,0.6030273,1.4282227
			c0,0.7954102-0.328125,1.4091797-0.9838867,1.8408203s-1.6040039,0.6474609-2.84375,0.6474609
			c-0.956543,0-1.6865234-0.1694336-2.1899414-0.5078125s-0.7553711-0.8208008-0.7553711-1.4472656
			c0-0.4316406,0.1362305-0.7944336,0.409668-1.0888672c0.2724609-0.2939453,0.6547852-0.4980469,1.1455078-0.6123047
			c-0.1987305-0.0844727-0.362793-0.2211914-0.4921875-0.4091797c-0.1289062-0.1884766-0.1933594-0.3862305-0.1933594-0.59375
			c0-0.262207,0.0742188-0.484375,0.222168-0.6665039s0.3681641-0.3618164,0.6601562-0.5395508
			c-0.3637695-0.1567383-0.6591797-0.4116211-0.8852539-0.7646484c-0.2265625-0.3535156-0.3398438-0.7670898-0.3398438-1.2412109
			c0-0.7617188,0.2402344-1.3520508,0.7207031-1.7709961c0.4799805-0.4189453,1.1645508-0.628418,2.0532227-0.628418
			c0.1987305,0,0.4072266,0.0136719,0.6254883,0.0410156c0.2177734,0.027832,0.3818359,0.0561523,0.4916992,0.0859375H274.4941406z
			 M268.9780273,75.9868164c0,0.3217773,0.1450195,0.5693359,0.4350586,0.7426758
			c0.2895508,0.1733398,0.6967773,0.2602539,1.2216797,0.2602539c0.8125,0,1.4174805-0.1162109,1.8154297-0.3491211
			s0.5966797-0.5415039,0.5966797-0.9267578c0-0.3046875-0.1088867-0.5214844-0.3271484-0.6508789
			c-0.2177734-0.1289062-0.6230469-0.1933594-1.215332-0.1933594h-1.1298828c-0.4272461,0-0.7670898,0.1005859-1.019043,0.3017578
			C269.1040039,75.3720703,268.9780273,75.644043,268.9780273,75.9868164z M269.6191406,70.1469727
			c0,0.4399414,0.1132812,0.7788086,0.3398438,1.015625c0.2260742,0.2368164,0.5507812,0.3554688,0.9741211,0.3554688
			c0.8632812,0,1.2949219-0.4614258,1.2949219-1.3837891c0-0.4570312-0.1069336-0.8095703-0.3208008-1.0566406
			c-0.2133789-0.2480469-0.5380859-0.371582-0.9741211-0.371582c-0.4316406,0-0.7583008,0.1225586-0.980957,0.3681641
			C269.7304688,69.3198242,269.6191406,69.6772461,269.6191406,70.1469727z"/>
	</g>
	<g>
		<path class="st2" d="M320,75h-11V62h11V75z M310,74h9V63h-9V74z"/>
	</g>
	<g>
		<polygon class="st2" points="322,77 311,77 311,74.5 312,74.5 312,76 321,76 321,65 319.5,65 319.5,64 322,64 		"/>
	</g>
	<g>
		<rect x="312" y="66" class="st2" width="5" height="1"/>
	</g>
	<g>
		<rect x="312" y="68" class="st2" width="5" height="1"/>
	</g>
	<g>
		<rect x="312" y="70" class="st2" width="5" height="1"/>
	</g>
	<g>
		<path class="st2" d="M336.3486328,74.5h-6.1000977v-0.9077148l2.4438477-2.456543
			c0.7446289-0.753418,1.2358398-1.2905273,1.4726562-1.6123047s0.4145508-0.6347656,0.5332031-0.9394531
			s0.1777344-0.6328125,0.1777344-0.9838867c0-0.4951172-0.1503906-0.8876953-0.4506836-1.1772461
			c-0.300293-0.2900391-0.7172852-0.4350586-1.2504883-0.4350586c-0.3852539,0-0.75,0.0634766-1.0952148,0.1904297
			c-0.3447266,0.1269531-0.7285156,0.3574219-1.1518555,0.6918945l-0.5585938-0.7172852
			c0.8549805-0.7109375,1.7856445-1.0664062,2.7929688-1.0664062c0.871582,0,1.5551758,0.2231445,2.050293,0.6694336
			c0.4951172,0.4467773,0.7426758,1.0463867,0.7426758,1.7998047c0,0.5883789-0.1650391,1.1699219-0.4951172,1.7456055
			s-0.9477539,1.3032227-1.8535156,2.1835938l-2.03125,1.9868164v0.0507812h4.7734375V74.5z"/>
		<path class="st2" d="M338.0117188,73.8271484c0-0.2836914,0.0644531-0.4980469,0.1933594-0.6445312
			c0.1293945-0.1455078,0.3144531-0.21875,0.5556641-0.21875c0.2456055,0,0.4370117,0.0732422,0.5742188,0.21875
			c0.1376953,0.1464844,0.206543,0.3608398,0.206543,0.6445312c0,0.2749023-0.0698242,0.4868164-0.2094727,0.6347656
			s-0.3300781,0.222168-0.5712891,0.222168c-0.2158203,0-0.3945312-0.0668945-0.5361328-0.199707
			C338.0825195,74.3505859,338.0117188,74.1318359,338.0117188,73.8271484z"/>
		<path class="st2" d="M350.3959961,72.0307617c0,0.8168945-0.2963867,1.4536133-0.8886719,1.9106445
			s-1.3964844,0.6855469-2.4121094,0.6855469c-1.1000977,0-1.9467773-0.1416016-2.5390625-0.425293v-1.0410156
			c0.3808594,0.1606445,0.7954102,0.2875977,1.2441406,0.3808594s0.8930664,0.1396484,1.3330078,0.1396484
			c0.7192383,0,1.2612305-0.1362305,1.625-0.409668c0.3637695-0.2724609,0.5458984-0.6523438,0.5458984-1.1391602
			c0-0.3217773-0.0644531-0.5849609-0.1933594-0.7905273c-0.1293945-0.2050781-0.3452148-0.3945312-0.6474609-0.5678711
			c-0.3027344-0.1733398-0.7631836-0.3701172-1.3808594-0.590332c-0.8632812-0.309082-1.4799805-0.6748047-1.8505859-1.0981445
			c-0.3701172-0.4233398-0.5551758-0.9755859-0.5551758-1.6567383c0-0.715332,0.2685547-1.2841797,0.8061523-1.7075195
			s1.2485352-0.6347656,2.1328125-0.6347656c0.9223633,0,1.7709961,0.1694336,2.5454102,0.5078125l-0.3364258,0.9394531
			c-0.7661133-0.3217773-1.5107422-0.4824219-2.234375-0.4824219c-0.5712891,0-1.0175781,0.1225586-1.3393555,0.3681641
			s-0.4824219,0.5859375-0.4824219,1.0219727c0,0.3217773,0.059082,0.5849609,0.1777344,0.7900391
			c0.1186523,0.2055664,0.3183594,0.3935547,0.6000977,0.5654297c0.28125,0.1708984,0.7119141,0.3603516,1.2915039,0.5678711
			c0.9731445,0.347168,1.6430664,0.7192383,2.0092773,1.1171875
			C350.2128906,70.8798828,350.3959961,71.3959961,350.3959961,72.0307617z"/>
		<path class="st2" d="M356.8959961,74.5v-4.5004883c0-0.5668945-0.1289062-0.9902344-0.387207-1.2695312
			s-0.6621094-0.4189453-1.2124023-0.4189453c-0.7319336,0-1.2666016,0.1987305-1.6025391,0.5966797
			c-0.3369141,0.3979492-0.5048828,1.0493164-0.5048828,1.9550781V74.5h-1.0537109v-9.8769531h1.0537109v2.9897461
			c0,0.3598633-0.0170898,0.6582031-0.0507812,0.8950195h0.0634766c0.2075195-0.3344727,0.5024414-0.5976562,0.8857422-0.7900391
			c0.3828125-0.1928711,0.8198242-0.2890625,1.3105469-0.2890625c0.8505859,0,1.4882812,0.2021484,1.9140625,0.6064453
			c0.4248047,0.4038086,0.6376953,1.0458984,0.6376953,1.9262695V74.5H356.8959961z"/>
		<path class="st2" d="M360.0253906,65.6577148c0-0.2412109,0.059082-0.4179688,0.1777344-0.5297852
			c0.1186523-0.1123047,0.2666016-0.168457,0.4443359-0.168457c0.1694336,0,0.3154297,0.0571289,0.4379883,0.1713867
			s0.184082,0.2900391,0.184082,0.5268555s-0.0615234,0.4135742-0.184082,0.5297852
			c-0.1225586,0.1166992-0.2685547,0.1748047-0.4379883,0.1748047c-0.1777344,0-0.3256836-0.0581055-0.4443359-0.1748047
			C360.0844727,66.0712891,360.0253906,65.8945312,360.0253906,65.6577148z M361.1679688,74.5h-1.0537109v-6.9570312h1.0537109V74.5
			z"/>
		<path class="st2" d="M366.6396484,74.6269531c-0.4526367,0-0.8662109-0.0834961-1.2412109-0.2509766
			c-0.3740234-0.1669922-0.6884766-0.4238281-0.9423828-0.7709961h-0.0761719
			c0.0507812,0.40625,0.0761719,0.7915039,0.0761719,1.1552734v2.862793h-1.0537109V67.5429688h0.8569336l0.1459961,0.9521484
			h0.0507812c0.2709961-0.3808594,0.5859375-0.6557617,0.9458008-0.8251953s0.7724609-0.2539062,1.237793-0.2539062
			c0.9223633,0,1.6347656,0.3154297,2.1357422,0.9458008c0.5019531,0.6303711,0.7524414,1.5151367,0.7524414,2.6533203
			c0,1.1425781-0.2548828,2.0302734-0.7651367,2.6625977C368.2529297,74.3105469,367.5454102,74.6269531,366.6396484,74.6269531z
			 M366.4873047,68.3110352c-0.7109375,0-1.2250977,0.1967773-1.5424805,0.590332s-0.4804688,1.0200195-0.4887695,1.8789062
			v0.2348633c0,0.9775391,0.1630859,1.6767578,0.4887695,2.0981445c0.3256836,0.4208984,0.8486328,0.6313477,1.5678711,0.6313477
			c0.6010742,0,1.0717773-0.2431641,1.4121094-0.7299805c0.3408203-0.4868164,0.5112305-1.1572266,0.5112305-2.012207
			c0-0.8676758-0.1704102-1.5327148-0.5112305-1.996582C367.5844727,68.5429688,367.1049805,68.3110352,366.4873047,68.3110352z"/>
		<path class="st2" d="M374.605957,74.6269531c-0.4526367,0-0.8662109-0.0834961-1.2412109-0.2509766
			c-0.3740234-0.1669922-0.6884766-0.4238281-0.9423828-0.7709961h-0.0761719
			c0.0507812,0.40625,0.0761719,0.7915039,0.0761719,1.1552734v2.862793h-1.0537109V67.5429688h0.8569336l0.1459961,0.9521484
			h0.0507812c0.2709961-0.3808594,0.5859375-0.6557617,0.9458008-0.8251953s0.7724609-0.2539062,1.237793-0.2539062
			c0.9223633,0,1.6347656,0.3154297,2.1357422,0.9458008c0.5019531,0.6303711,0.7524414,1.5151367,0.7524414,2.6533203
			c0,1.1425781-0.2548828,2.0302734-0.7651367,2.6625977C376.2192383,74.3105469,375.5117188,74.6269531,374.605957,74.6269531z
			 M374.4536133,68.3110352c-0.7109375,0-1.2250977,0.1967773-1.5424805,0.590332s-0.4804688,1.0200195-0.4887695,1.8789062
			v0.2348633c0,0.9775391,0.1630859,1.6767578,0.4887695,2.0981445c0.3256836,0.4208984,0.8486328,0.6313477,1.5678711,0.6313477
			c0.6010742,0,1.0717773-0.2431641,1.4121094-0.7299805c0.3408203-0.4868164,0.5112305-1.1572266,0.5112305-2.012207
			c0-0.8676758-0.1704102-1.5327148-0.5112305-1.996582C375.5507812,68.5429688,375.0712891,68.3110352,374.4536133,68.3110352z"/>
		<path class="st2" d="M379.2460938,65.6577148c0-0.2412109,0.059082-0.4179688,0.1777344-0.5297852
			c0.1186523-0.1123047,0.2666016-0.168457,0.4443359-0.168457c0.1694336,0,0.3154297,0.0571289,0.4379883,0.1713867
			s0.184082,0.2900391,0.184082,0.5268555s-0.0615234,0.4135742-0.184082,0.5297852
			c-0.1225586,0.1166992-0.2685547,0.1748047-0.4379883,0.1748047c-0.1777344,0-0.3256836-0.0581055-0.4443359-0.1748047
			C379.3051758,66.0712891,379.2460938,65.8945312,379.2460938,65.6577148z M380.3886719,74.5h-1.0537109v-6.9570312h1.0537109V74.5
			z"/>
		<path class="st2" d="M387.3837891,74.5v-4.5004883c0-0.5668945-0.1289062-0.9902344-0.387207-1.2695312
			s-0.6621094-0.4189453-1.2124023-0.4189453c-0.7280273,0-1.2612305,0.1967773-1.5996094,0.590332
			s-0.5078125,1.0429688-0.5078125,1.9487305V74.5h-1.0537109v-6.9570312h0.8569336l0.1713867,0.9521484h0.0507812
			c0.2158203-0.3427734,0.5185547-0.6083984,0.9077148-0.796875c0.3891602-0.1879883,0.8232422-0.2822266,1.3012695-0.2822266
			c0.8378906,0,1.4682617,0.2021484,1.8916016,0.6064453c0.4233398,0.4038086,0.6347656,1.050293,0.6347656,1.9389648V74.5
			H387.3837891z"/>
		<path class="st2" d="M396.2958984,67.5429688v0.6665039l-1.2885742,0.1523438
			c0.1186523,0.1479492,0.2241211,0.3417969,0.3173828,0.5805664c0.0932617,0.2392578,0.1396484,0.5092773,0.1396484,0.8095703
			c0,0.6811523-0.2329102,1.2250977-0.6982422,1.6313477s-1.1044922,0.609375-1.9169922,0.609375
			c-0.2075195,0-0.4018555-0.0170898-0.5839844-0.0507812c-0.4487305,0.2368164-0.6728516,0.5351562-0.6728516,0.8950195
			c0,0.1904297,0.078125,0.3310547,0.2348633,0.421875c0.1567383,0.0913086,0.425293,0.1367188,0.8061523,0.1367188h1.2314453
			c0.753418,0,1.3320312,0.1586914,1.7363281,0.4760742c0.4038086,0.3173828,0.605957,0.7788086,0.605957,1.3837891
			c0,0.7700195-0.309082,1.3574219-0.9267578,1.7612305c-0.6176758,0.4042969-1.519043,0.6064453-2.7041016,0.6064453
			c-0.909668,0-1.6113281-0.1694336-2.1040039-0.5078125c-0.4931641-0.3383789-0.7397461-0.8168945-0.7397461-1.4345703
			c0-0.4233398,0.1352539-0.7890625,0.40625-1.0981445s0.6518555-0.5185547,1.1425781-0.628418
			c-0.1777344-0.0805664-0.3266602-0.2050781-0.4477539-0.3745117c-0.1201172-0.1694336-0.1806641-0.3662109-0.1806641-0.590332
			c0-0.2539062,0.0678711-0.4760742,0.203125-0.6665039s0.3491211-0.3745117,0.6411133-0.5522461
			c-0.3598633-0.1479492-0.652832-0.3999023-0.8793945-0.7553711c-0.2260742-0.3554688-0.3393555-0.7617188-0.3393555-1.21875
			c0-0.7617188,0.2285156-1.3491211,0.6855469-1.7612305c0.4570312-0.4130859,1.1044922-0.6191406,1.9423828-0.6191406
			c0.3637695,0,0.6918945,0.0424805,0.9838867,0.1269531H396.2958984z M390.7480469,75.6679688
			c0,0.3764648,0.1586914,0.6621094,0.4760742,0.8569336s0.7724609,0.2919922,1.3647461,0.2919922
			c0.8842773,0,1.5395508-0.1323242,1.9643555-0.3969727c0.4257812-0.2641602,0.6381836-0.6230469,0.6381836-1.0756836
			c0-0.3764648-0.1162109-0.6381836-0.3491211-0.7836914c-0.2329102-0.1464844-0.6708984-0.2192383-1.3139648-0.2192383h-1.2631836
			c-0.4780273,0-0.8505859,0.1142578-1.1171875,0.3427734S390.7480469,75.2407227,390.7480469,75.6679688z M391.3193359,69.7709961
			c0,0.4868164,0.1376953,0.8549805,0.4125977,1.1044922S392.3901367,71.25,392.8808594,71.25
			c1.0283203,0,1.5424805-0.4995117,1.5424805-1.4980469c0-1.0454102-0.5205078-1.5678711-1.5615234-1.5678711
			c-0.4951172,0-0.8759766,0.1333008-1.1425781,0.3999023S391.3193359,69.2460938,391.3193359,69.7709961z"/>
	</g>
	<g>
		<path class="st2" d="M429,75h-11V62h11V75z M419,74h9V63h-9V74z"/>
	</g>
	<g>
		<polygon class="st2" points="431,77 420,77 420,74.5 421,74.5 421,76 430,76 430,65 428.5,65 428.5,64 431,64 		"/>
	</g>
	<g>
		<rect x="421" y="66" class="st2" width="5" height="1"/>
	</g>
	<g>
		<rect x="421" y="68" class="st2" width="5" height="1"/>
	</g>
	<g>
		<rect x="421" y="70" class="st2" width="5" height="1"/>
	</g>
	<g>
		<path class="st2" d="M444.9995117,67.4033203c0,0.5922852-0.1660156,1.0771484-0.4980469,1.4536133
			c-0.3325195,0.3764648-0.8032227,0.628418-1.4125977,0.7553711v0.0507812
			c0.7446289,0.0932617,1.296875,0.3300781,1.6567383,0.7109375s0.5395508,0.8803711,0.5395508,1.4980469
			c0,0.8842773-0.3066406,1.5644531-0.9204102,2.0410156c-0.6137695,0.4755859-1.4853516,0.7138672-2.6152344,0.7138672
			c-0.4907227,0-0.9404297-0.0371094-1.3486328-0.1113281c-0.4086914-0.0737305-0.8051758-0.2041016-1.1904297-0.3901367v-1.0029297
			c0.4018555,0.1987305,0.8305664,0.3500977,1.2851562,0.4536133c0.4550781,0.1040039,0.8857422,0.1557617,1.2919922,0.1557617
			c1.6040039,0,2.4057617-0.628418,2.4057617-1.8852539c0-1.1254883-0.8842773-1.6884766-2.6533203-1.6884766h-0.9140625v-0.9077148
			h0.9267578c0.7236328,0,1.296875-0.159668,1.7202148-0.4790039c0.4233398-0.3198242,0.6347656-0.7631836,0.6347656-1.3300781
			c0-0.4526367-0.1552734-0.8081055-0.4667969-1.0664062c-0.3105469-0.2583008-0.7329102-0.387207-1.2661133-0.387207
			c-0.40625,0-0.7890625,0.0551758-1.1489258,0.1650391s-0.7700195,0.3129883-1.2314453,0.609375l-0.5332031-0.7109375
			c0.3808594-0.300293,0.8198242-0.5366211,1.3173828-0.7075195c0.4970703-0.171875,1.0205078-0.2573242,1.5708008-0.2573242
			c0.9013672,0,1.6015625,0.206543,2.1010742,0.6186523C444.75,66.1181641,444.9995117,66.684082,444.9995117,67.4033203z"/>
		<path class="st2" d="M447.0117188,73.8271484c0-0.2836914,0.0644531-0.4980469,0.1933594-0.6445312
			c0.1293945-0.1455078,0.3144531-0.21875,0.5556641-0.21875c0.2456055,0,0.4370117,0.0732422,0.5742188,0.21875
			c0.1376953,0.1464844,0.206543,0.3608398,0.206543,0.6445312c0,0.2749023-0.0698242,0.4868164-0.2094727,0.6347656
			s-0.3300781,0.222168-0.5712891,0.222168c-0.2158203,0-0.3945312-0.0668945-0.5361328-0.199707
			C447.0825195,74.3505859,447.0117188,74.1318359,447.0117188,73.8271484z"/>
		<path class="st2" d="M462.2143555,69.847168c0,1.4853516-0.3754883,2.6533203-1.1269531,3.5039062
			c-0.7509766,0.8505859-1.7949219,1.2758789-3.1323242,1.2758789c-1.3666992,0-2.4213867-0.4179688-3.1645508-1.2539062
			c-0.7421875-0.8354492-1.1137695-2.0151367-1.1137695-3.5385742c0-1.5107422,0.3725586-2.6821289,1.1171875-3.5131836
			c0.7446289-0.8320312,1.8027344-1.2475586,3.1738281-1.2475586c1.3330078,0,2.3740234,0.4233398,3.1230469,1.2695312
			S462.2143555,68.3574219,462.2143555,69.847168z M454.8193359,69.847168c0,1.2568359,0.2675781,2.2099609,0.8032227,2.8598633
			c0.5351562,0.6494141,1.3125,0.9741211,2.3325195,0.9741211c1.0283203,0,1.8046875-0.3237305,2.3295898-0.9711914
			s0.7871094-1.6015625,0.7871094-2.862793c0-1.2485352-0.2612305-2.1953125-0.7841797-2.840332
			c-0.5224609-0.6455078-1.2958984-0.9682617-2.3198242-0.9682617c-1.0283203,0-1.8100586,0.324707-2.3452148,0.9741211
			C455.0869141,67.6625977,454.8193359,68.6074219,454.8193359,69.847168z"/>
		<path class="st2" d="M467.2988281,67.4160156c0.309082,0,0.5859375,0.0253906,0.831543,0.0761719l-0.1459961,0.9775391
			c-0.2875977-0.0634766-0.5415039-0.0952148-0.7617188-0.0952148c-0.5629883,0-1.0439453,0.2285156-1.4443359,0.6855469
			c-0.3994141,0.4570312-0.5996094,1.0263672-0.5996094,1.7075195V74.5H464.125v-6.9570312h0.8696289l0.1206055,1.2885742h0.0507812
			c0.2583008-0.4526367,0.5693359-0.8017578,0.9331055-1.0473633S466.862793,67.4160156,467.2988281,67.4160156z"/>
		<path class="st2" d="M474.1669922,73.5668945h-0.0571289c-0.4868164,0.706543-1.2143555,1.0600586-2.1835938,1.0600586
			c-0.909668,0-1.6176758-0.3110352-2.1235352-0.9331055c-0.5053711-0.6220703-0.7583008-1.5063477-0.7583008-2.6533203
			s0.2539062-2.0375977,0.7617188-2.6723633s1.2143555-0.9521484,2.1201172-0.9521484
			c0.9438477,0,1.6674805,0.3427734,2.1708984,1.0283203h0.0825195l-0.0444336-0.5014648l-0.0253906-0.4887695v-2.8310547h1.0537109
			V74.5h-0.8569336L474.1669922,73.5668945z M472.0595703,73.7446289c0.7192383,0,1.2412109-0.1958008,1.5644531-0.5874023
			c0.3242188-0.3911133,0.4858398-1.0229492,0.4858398-1.8945312v-0.222168c0-0.9858398-0.1640625-1.6894531-0.4916992-2.1108398
			c-0.328125-0.4208984-0.8520508-0.6313477-1.5712891-0.6313477c-0.6176758,0-1.0908203,0.2402344-1.4189453,0.7202148
			c-0.3276367,0.4804688-0.4916992,1.1586914-0.4916992,2.034668c0,0.8886719,0.1630859,1.5595703,0.4887695,2.012207
			S471.4291992,73.7446289,472.0595703,73.7446289z"/>
		<path class="st2" d="M480.3369141,74.6269531c-1.0283203,0-1.8398438-0.3129883-2.434082-0.9394531
			c-0.5947266-0.6264648-0.8920898-1.4960938-0.8920898-2.6088867c0-1.121582,0.2758789-2.012207,0.8286133-2.6723633
			c0.5517578-0.6601562,1.293457-0.9902344,2.2246094-0.9902344c0.871582,0,1.5615234,0.2866211,2.0693359,0.8603516
			c0.5078125,0.5732422,0.7617188,1.3295898,0.7617188,2.269043v0.6665039h-4.7924805
			c0.0209961,0.8168945,0.2275391,1.4365234,0.6186523,1.8598633c0.3916016,0.4233398,0.9428711,0.6347656,1.6538086,0.6347656
			c0.7490234,0,1.4897461-0.1567383,2.2216797-0.4697266v0.9394531c-0.3725586,0.1606445-0.7246094,0.2758789-1.0571289,0.3461914
			C481.2075195,74.5917969,480.8066406,74.6269531,480.3369141,74.6269531z M480.0512695,68.2983398
			c-0.5585938,0-1.0039062,0.1821289-1.3359375,0.5458984c-0.3325195,0.3637695-0.5283203,0.8676758-0.5874023,1.5107422h3.637207
			c0-0.6645508-0.1479492-1.1733398-0.4443359-1.5268555C481.0244141,68.4750977,480.6015625,68.2983398,480.0512695,68.2983398z"/>
		<path class="st2" d="M487.8652344,67.4160156c0.309082,0,0.5859375,0.0253906,0.831543,0.0761719l-0.1459961,0.9775391
			c-0.2875977-0.0634766-0.5415039-0.0952148-0.7617188-0.0952148c-0.5629883,0-1.0439453,0.2285156-1.4443359,0.6855469
			c-0.3994141,0.4570312-0.5996094,1.0263672-0.5996094,1.7075195V74.5h-1.0537109v-6.9570312h0.8696289l0.1206055,1.2885742
			h0.0507812c0.2583008-0.4526367,0.5693359-0.8017578,0.9331055-1.0473633S487.4291992,67.4160156,487.8652344,67.4160156z"/>
		<path class="st2" d="M493.5336914,74.5v-9.2802734h1.0791016V74.5H493.5336914z"/>
		<path class="st2" d="M501.7602539,74.5v-4.5004883c0-0.5668945-0.1289062-0.9902344-0.387207-1.2695312
			s-0.6621094-0.4189453-1.2124023-0.4189453c-0.7280273,0-1.2612305,0.1967773-1.5996094,0.590332
			s-0.5078125,1.0429688-0.5078125,1.9487305V74.5h-1.0537109v-6.9570312h0.8569336l0.1713867,0.9521484h0.0507812
			c0.2158203-0.3427734,0.5185547-0.6083984,0.9077148-0.796875c0.3891602-0.1879883,0.8232422-0.2822266,1.3012695-0.2822266
			c0.8378906,0,1.4682617,0.2021484,1.8916016,0.6064453c0.4233398,0.4038086,0.6347656,1.050293,0.6347656,1.9389648V74.5
			H501.7602539z"/>
		<path class="st2" d="M508.1142578,68.3618164h-1.7709961V74.5h-1.0537109v-6.1381836h-1.2441406v-0.4760742l1.2441406-0.3808594
			v-0.387207c0-1.7094727,0.7470703-2.5644531,2.2407227-2.5644531c0.3681641,0,0.7998047,0.0742188,1.2949219,0.222168
			l-0.2729492,0.8442383c-0.40625-0.1313477-0.753418-0.1967773-1.0410156-0.1967773
			c-0.3979492,0-0.6918945,0.1323242-0.8823242,0.3964844c-0.1904297,0.2646484-0.2856445,0.6889648-0.2856445,1.2729492v0.4506836
			h1.7709961V68.3618164z"/>
		<path class="st2" d="M515.3886719,71.0151367c0,1.1342773-0.2856445,2.0195312-0.8569336,2.6567383
			c-0.5712891,0.6367188-1.3603516,0.9550781-2.3676758,0.9550781c-0.6220703,0-1.1743164-0.1459961-1.6567383-0.4379883
			s-0.8549805-0.7109375-1.1171875-1.2568359s-0.3935547-1.1850586-0.3935547-1.9169922
			c0-1.1342773,0.2836914-2.0175781,0.8505859-2.6499023c0.5668945-0.6328125,1.3540039-0.9492188,2.3613281-0.9492188
			c0.9731445,0,1.746582,0.3237305,2.3198242,0.9711914C515.1020508,69.034668,515.3886719,69.9106445,515.3886719,71.0151367z
			 M510.0883789,71.0151367c0,0.8886719,0.1777344,1.565918,0.5332031,2.03125s0.8779297,0.6982422,1.5678711,0.6982422
			s1.2133789-0.2319336,1.5712891-0.6948242c0.3574219-0.4638672,0.5361328-1.1416016,0.5361328-2.034668
			c0-0.8842773-0.1787109-1.5561523-0.5361328-2.0151367c-0.3579102-0.4594727-0.8857422-0.6889648-1.5839844-0.6889648
			c-0.6899414,0-1.2104492,0.2265625-1.5615234,0.6791992S510.0883789,70.1181641,510.0883789,71.0151367z"/>
	</g>
</g>
</svg>
