<svg width="18" height="18" viewBox="0 0 18 18" fill="none" xmlns="http://www.w3.org/2000/svg">
<path d="M17.7802 16.7198L12.6615 11.601C13.653 10.3763 14.25 8.82 14.25 7.12501C14.25 3.19651 11.0535 0 7.12498 0C3.19648 0 0 3.19648 0 7.12498C0 11.0535 3.19651 14.25 7.12501 14.25C8.82 14.25 10.3763 13.653 11.601 12.6615L16.7198 17.7802C16.866 17.9265 17.058 18 17.25 18C17.442 18 17.634 17.9265 17.7803 17.7802C18.0735 17.487 18.0735 17.013 17.7802 16.7198ZM7.12501 12.75C4.023 12.75 1.50001 10.227 1.50001 7.12498C1.50001 4.02296 4.023 1.49998 7.12501 1.49998C10.227 1.49998 12.75 4.02296 12.75 7.12498C12.75 10.227 10.227 12.75 7.12501 12.75Z" fill="#F6724C"/>
<path d="M3.59998 5.22026V9.18032L7.02949 11.1603L10.459 9.18028V5.22023L7.02949 3.24023L3.59998 5.22026ZM8.91386 5.51762L7.02949 6.60558L5.14513 5.51762L7.02949 4.42966L8.91386 5.51762ZM4.63008 6.40972L6.51444 7.49765V9.67353L4.63008 8.58561V6.40972ZM7.54455 9.67353V7.49765L9.42891 6.40972V8.58561L7.54455 9.67353Z" fill="#F6724C"/>
</svg>
