<svg width="24" height="20" viewBox="0 0 24 20" fill="none" xmlns="http://www.w3.org/2000/svg">
<g clip-path="url(#clip0_1637_6436)">
<path d="M19.6602 20H4.09017C3.52 20.0038 2.95535 19.8882 2.43264 19.6604C1.90993 19.4327 1.44076 19.0979 1.05539 18.6776C0.670025 18.2574 0.377015 17.7611 0.195262 17.2206C0.0135086 16.6802 -0.0529522 16.1077 0.000165712 15.54L1.18017 2.70997C1.25195 1.97075 1.59539 1.28443 2.14402 0.783827C2.69265 0.283222 3.40748 0.0039217 4.15017 -2.81154e-05H19.6002C20.348 -0.00352974 21.0702 0.272429 21.6252 0.77375C22.1802 1.27507 22.5279 1.9656 22.6002 2.70997L23.7602 15.54C23.8134 16.1085 23.7466 16.6819 23.5643 17.223C23.382 17.7642 23.088 18.261 22.7016 18.6814C22.3151 19.1018 21.8447 19.4363 21.3208 19.6635C20.7969 19.8906 20.2312 20.0053 19.6602 20V20ZM4.15017 1.19997C3.70626 1.20067 3.27864 1.36721 2.95118 1.66691C2.62372 1.96662 2.42007 2.37786 2.38017 2.81997L1.22017 15.65C1.18479 16.0527 1.2361 16.4583 1.37065 16.8395C1.50519 17.2207 1.71985 17.5687 2.00017 17.86C2.26983 18.1568 2.5987 18.3938 2.96557 18.5557C3.33244 18.7176 3.72916 18.8008 4.13017 18.8H19.6602C20.0613 18.7987 20.4578 18.7142 20.8246 18.5519C21.1914 18.3895 21.5206 18.1529 21.7912 17.8568C22.0619 17.5608 22.2682 17.2118 22.3971 16.8319C22.526 16.4521 22.5747 16.0496 22.5402 15.65L21.3702 2.81997C21.3325 2.377 21.1295 1.96443 20.8016 1.66428C20.4736 1.36413 20.0447 1.19837 19.6002 1.19997H4.15017Z" fill="#F6724C"/>
<path d="M18.2004 4H15.7404C15.4616 4.00814 15.1923 4.10307 14.97 4.27158C14.7477 4.44008 14.5836 4.67375 14.5004 4.94L13.8804 7.13H5.88043C5.73091 7.12392 5.58179 7.14956 5.44289 7.20525C5.30399 7.26094 5.17846 7.3454 5.07455 7.45309C4.97064 7.56078 4.89071 7.68925 4.84001 7.83005C4.78932 7.97085 4.76902 8.12079 4.78043 8.27L5.15043 12C5.18217 12.2865 5.31768 12.5515 5.53138 12.7449C5.74509 12.9383 6.0222 13.0469 6.31043 13.05H12.4704C12.7492 13.0419 13.0186 12.9469 13.2409 12.7784C13.4631 12.6099 13.6273 12.3763 13.7104 12.11L14.4804 9.26L15.6204 5.26C15.6333 5.23764 15.6505 5.21813 15.6712 5.20266C15.6918 5.18718 15.7154 5.17607 15.7404 5.17H18.2004C18.3556 5.17 18.5044 5.10837 18.6141 4.99866C18.7238 4.88895 18.7854 4.74015 18.7854 4.585C18.7854 4.42985 18.7238 4.28105 18.6141 4.17134C18.5044 4.06163 18.3556 4 18.2004 4ZM12.5804 11.85C12.5556 11.89 12.5162 11.9187 12.4704 11.93H6.31043L6.00043 8.26H13.6004L12.5804 11.85Z" fill="#F6724C"/>
<path d="M7.47992 13.77C7.22083 13.77 6.96755 13.8468 6.75213 13.9907C6.5367 14.1347 6.36879 14.3393 6.26964 14.5786C6.17049 14.818 6.14455 15.0814 6.19509 15.3355C6.24564 15.5896 6.37041 15.8231 6.55361 16.0063C6.73682 16.1895 6.97024 16.3142 7.22435 16.3648C7.47847 16.4153 7.74187 16.3894 7.98124 16.2902C8.22061 16.1911 8.4252 16.0232 8.56915 15.8078C8.71309 15.5923 8.78992 15.3391 8.78992 15.08C8.78992 14.7325 8.65191 14.3993 8.40623 14.1536C8.16056 13.908 7.82736 13.77 7.47992 13.77V13.77ZM7.47992 15.46C7.38847 15.4452 7.30526 15.3983 7.24521 15.3278C7.18515 15.2572 7.15217 15.1676 7.15217 15.075C7.15217 14.9823 7.18515 14.8927 7.24521 14.8222C7.30526 14.7516 7.38847 14.7047 7.47992 14.69C7.53568 14.6809 7.59273 14.6841 7.64713 14.6993C7.70152 14.7145 7.75197 14.7414 7.79498 14.778C7.83799 14.8146 7.87253 14.8601 7.89622 14.9114C7.9199 14.9627 7.93217 15.0185 7.93217 15.075C7.93217 15.1314 7.9199 15.1872 7.89622 15.2385C7.87253 15.2898 7.83799 15.3353 7.79498 15.3719C7.75197 15.4085 7.70152 15.4354 7.64713 15.4506C7.59273 15.4658 7.53568 15.469 7.47992 15.46V15.46Z" fill="#F6724C"/>
<path d="M11.4304 13.77C11.1708 13.768 10.9166 13.8432 10.6999 13.9859C10.4831 14.1286 10.3136 14.3325 10.213 14.5717C10.1123 14.8109 10.0849 15.0746 10.1343 15.3294C10.1837 15.5841 10.3077 15.8185 10.4905 16.0027C10.6733 16.1869 10.9067 16.3127 11.1611 16.364C11.4155 16.4154 11.6794 16.3901 11.9193 16.2912C12.1593 16.1924 12.3645 16.0245 12.5089 15.8088C12.6533 15.5932 12.7303 15.3395 12.7304 15.08C12.7304 14.7343 12.5937 14.4026 12.3502 14.1572C12.1067 13.9118 11.7761 13.7726 11.4304 13.77V13.77ZM11.4304 15.46C11.3524 15.462 11.2756 15.4405 11.21 15.3985C11.1444 15.3564 11.0928 15.2956 11.0621 15.2239C11.0313 15.1523 11.0228 15.073 11.0375 14.9965C11.0522 14.9199 11.0896 14.8495 11.1447 14.7943C11.1998 14.7392 11.2702 14.7019 11.3468 14.6871C11.4234 14.6724 11.5026 14.681 11.5743 14.7117C11.6459 14.7425 11.7067 14.794 11.7488 14.8596C11.7909 14.9253 11.8123 15.002 11.8104 15.08C11.8104 15.1299 11.8005 15.1793 11.7814 15.2254C11.7623 15.2715 11.7343 15.3134 11.6991 15.3487C11.6638 15.384 11.6219 15.412 11.5758 15.4311C11.5297 15.4502 11.4803 15.46 11.4304 15.46Z" fill="#F6724C"/>
<path d="M18.7702 7.16998H15.8802C15.7647 7.1932 15.6608 7.25569 15.5861 7.34684C15.5115 7.43799 15.4707 7.55217 15.4707 7.66998C15.4707 7.7878 15.5115 7.90198 15.5861 7.99313C15.6608 8.08428 15.7647 8.14677 15.8802 8.16998H18.7702C18.8857 8.14677 18.9896 8.08428 19.0643 7.99313C19.1389 7.90198 19.1797 7.7878 19.1797 7.66998C19.1797 7.55217 19.1389 7.43799 19.0643 7.34684C18.9896 7.25569 18.8857 7.1932 18.7702 7.16998Z" fill="#F6724C"/>
<path d="M18.0006 8.70996H15.4006C15.2919 8.741 15.1964 8.80659 15.1283 8.89681C15.0603 8.98703 15.0234 9.09695 15.0234 9.20996C15.0234 9.32297 15.0603 9.4329 15.1283 9.52311C15.1964 9.61333 15.2919 9.67892 15.4006 9.70996H18.0006C18.1093 9.67892 18.2049 9.61333 18.2729 9.52311C18.341 9.4329 18.3778 9.32297 18.3778 9.20996C18.3778 9.09695 18.341 8.98703 18.2729 8.89681C18.2049 8.80659 18.1093 8.741 18.0006 8.70996V8.70996Z" fill="#F6724C"/>
<path d="M17.2803 10.25H15.0803C14.9716 10.281 14.876 10.3466 14.808 10.4368C14.7399 10.5271 14.7031 10.637 14.7031 10.75C14.7031 10.863 14.7399 10.9729 14.808 11.0632C14.876 11.1534 14.9716 11.219 15.0803 11.25H17.2803C17.389 11.219 17.4845 11.1534 17.5526 11.0632C17.6207 10.9729 17.6575 10.863 17.6575 10.75C17.6575 10.637 17.6207 10.5271 17.5526 10.4368C17.4845 10.3466 17.389 10.281 17.2803 10.25V10.25Z" fill="#F6724C"/>
</g>
<defs>
<clipPath id="clip0_1637_6436">
<rect width="23.75" height="20" fill="white"/>
</clipPath>
</defs>
</svg>
