<?xml version="1.0" encoding="UTF-8"?> <svg xmlns="http://www.w3.org/2000/svg" width="262" height="200" viewBox="0 0 262 200" fill="none"><g clip-path="url(#clip0_5041_97470)"><rect width="262" height="200" fill="#F3F4F5"></rect><g filter="url(#filter0_ddd_5041_97470)"><rect x="30" y="41" width="203.304" height="196" rx="2" fill="white"></rect><path d="M47.8068 69.8262H49.3665L51.1179 63.7026H51.1861L52.9332 69.8262H54.4929L56.956 61.0989H55.2557L53.6832 67.5165H53.6065L51.9233 61.0989H50.3764L48.6974 67.5123H48.6165L47.044 61.0989H45.3438L47.8068 69.8262ZM60.2138 69.954C61.7393 69.954 62.7876 69.2083 63.0604 68.0705L61.62 67.9086C61.4112 68.4625 60.8999 68.7523 60.2351 68.7523C59.2379 68.7523 58.5774 68.0961 58.5646 66.9753H63.1243V66.5023C63.1243 64.2054 61.7436 63.1955 60.1328 63.1955C58.2578 63.1955 57.0348 64.5719 57.0348 66.5918C57.0348 68.6458 58.2408 69.954 60.2138 69.954ZM58.5689 65.9355C58.6158 65.1003 59.2337 64.3972 60.1541 64.3972C61.0405 64.3972 61.6371 65.0449 61.6456 65.9355H58.5689ZM65.7376 61.0989H64.5103V61.9767C64.5103 62.6713 64.2376 63.204 63.9265 63.6728L64.6424 64.1373C65.2688 63.6174 65.7376 62.7225 65.7376 61.9682V61.0989ZM66.7379 69.8262H68.2805V65.9782C68.2805 65.1472 68.907 64.5591 69.755 64.5591C70.0149 64.5591 70.3388 64.606 70.4709 64.6486V63.2296C70.3303 63.204 70.0874 63.187 69.9169 63.187C69.1669 63.187 68.5405 63.6131 68.3018 64.3716H68.2337V63.2807H66.7379V69.8262ZM74.1239 69.954C75.6495 69.954 76.6978 69.2083 76.9705 68.0705L75.5302 67.9086C75.3214 68.4625 74.81 68.7523 74.1452 68.7523C73.1481 68.7523 72.4876 68.0961 72.4748 66.9753H77.0344V66.5023C77.0344 64.2054 75.6538 63.1955 74.043 63.1955C72.168 63.1955 70.945 64.5719 70.945 66.5918C70.945 68.6458 72.1509 69.954 74.1239 69.954ZM72.479 65.9355C72.5259 65.1003 73.1438 64.3972 74.0643 64.3972C74.9506 64.3972 75.5472 65.0449 75.5558 65.9355H72.479ZM84.1712 69.954C86.0888 69.954 87.3075 68.6032 87.3075 66.579C87.3075 64.5506 86.0888 63.1955 84.1712 63.1955C82.2536 63.1955 81.0348 64.5506 81.0348 66.579C81.0348 68.6032 82.2536 69.954 84.1712 69.954ZM84.1797 68.7182C83.1186 68.7182 82.5987 67.7722 82.5987 66.5748C82.5987 65.3773 83.1186 64.4185 84.1797 64.4185C85.2237 64.4185 85.7436 65.3773 85.7436 66.5748C85.7436 67.7722 85.2237 68.7182 84.1797 68.7182ZM90.1594 65.9909C90.1594 65.0449 90.7305 64.4995 91.5444 64.4995C92.3413 64.4995 92.8185 65.0236 92.8185 65.8972V69.8262H94.3612V65.6586C94.3654 64.0904 93.4705 63.1955 92.1197 63.1955C91.1396 63.1955 90.4663 63.6642 90.168 64.3929H90.0913V63.2807H88.6168V69.8262H90.1594V65.9909ZM98.9741 69.8262H100.555V66.1188H104.181V64.7935H100.555V62.4242H104.565V61.0989H98.9741V69.8262ZM107.762 69.9583C108.789 69.9583 109.403 69.4767 109.684 68.927H109.735V69.8262H111.218V65.4455C111.218 63.7154 109.808 63.1955 108.559 63.1955C107.183 63.1955 106.126 63.8091 105.785 65.0023L107.225 65.2069C107.379 64.7594 107.813 64.3759 108.567 64.3759C109.283 64.3759 109.675 64.7424 109.675 65.3858V65.4114C109.675 65.8546 109.211 65.8759 108.056 65.9995C106.786 66.1358 105.572 66.5151 105.572 67.9895C105.572 69.2765 106.513 69.9583 107.762 69.9583ZM108.163 68.8248C107.519 68.8248 107.059 68.5307 107.059 67.964C107.059 67.3716 107.575 67.1245 108.265 67.0265C108.67 66.9711 109.479 66.8688 109.68 66.7069V67.4782C109.68 68.2069 109.092 68.8248 108.163 68.8248ZM115.624 69.954C117.269 69.954 118.317 68.9782 118.428 67.589H116.954C116.822 68.2921 116.315 68.6969 115.637 68.6969C114.674 68.6969 114.052 67.8915 114.052 66.5534C114.052 65.2324 114.687 64.4398 115.637 64.4398C116.379 64.4398 116.835 64.9171 116.954 65.5478H118.428C118.322 64.1287 117.214 63.1955 115.616 63.1955C113.698 63.1955 112.488 64.5804 112.488 66.579C112.488 68.5605 113.668 69.954 115.624 69.954ZM122.593 69.954C124.118 69.954 125.167 69.2083 125.439 68.0705L123.999 67.9086C123.79 68.4625 123.279 68.7523 122.614 68.7523C121.617 68.7523 120.956 68.0961 120.944 66.9753H125.503V66.5023C125.503 64.2054 124.123 63.1955 122.512 63.1955C120.637 63.1955 119.414 64.5719 119.414 66.5918C119.414 68.6458 120.62 69.954 122.593 69.954ZM120.948 65.9355C120.995 65.1003 121.613 64.3972 122.533 64.3972C123.419 64.3972 124.016 65.0449 124.025 65.9355H120.948ZM126.876 69.8262H128.393V68.7949H128.483C128.726 69.2722 129.233 69.9412 130.358 69.9412C131.901 69.9412 133.055 68.7182 133.055 66.562C133.055 64.3801 131.866 63.1955 130.354 63.1955C129.199 63.1955 128.717 63.8901 128.483 64.3631H128.419V61.0989H126.876V69.8262ZM128.389 66.5534C128.389 65.2836 128.935 64.4611 129.928 64.4611C130.955 64.4611 131.483 65.3347 131.483 66.5534C131.483 67.7807 130.946 68.6756 129.928 68.6756C128.943 68.6756 128.389 67.8233 128.389 66.5534ZM137.222 69.954C139.14 69.954 140.358 68.6032 140.358 66.579C140.358 64.5506 139.14 63.1955 137.222 63.1955C135.304 63.1955 134.086 64.5506 134.086 66.579C134.086 68.6032 135.304 69.954 137.222 69.954ZM137.23 68.7182C136.169 68.7182 135.65 67.7722 135.65 66.5748C135.65 65.3773 136.169 64.4185 137.23 64.4185C138.275 64.4185 138.794 65.3773 138.794 66.5748C138.794 67.7722 138.275 68.7182 137.23 68.7182ZM144.523 69.954C146.44 69.954 147.659 68.6032 147.659 66.579C147.659 64.5506 146.44 63.1955 144.523 63.1955C142.605 63.1955 141.386 64.5506 141.386 66.579C141.386 68.6032 142.605 69.954 144.523 69.954ZM144.531 68.7182C143.47 68.7182 142.95 67.7722 142.95 66.5748C142.95 65.3773 143.47 64.4185 144.531 64.4185C145.575 64.4185 146.095 65.3773 146.095 66.5748C146.095 67.7722 145.575 68.7182 144.531 68.7182ZM148.968 69.8262H150.511V67.6273L151.074 67.0265L153.076 69.8262H154.922L152.237 66.106L154.772 63.2807H152.97L150.618 65.91H150.511V61.0989H148.968V69.8262ZM157.688 61.0989H156.039L156.175 67.2608H157.548L157.688 61.0989ZM156.862 69.9199C157.364 69.9199 157.795 69.5023 157.799 68.9824C157.795 68.4711 157.364 68.0534 156.862 68.0534C156.342 68.0534 155.92 68.4711 155.924 68.9824C155.92 69.5023 156.342 69.9199 156.862 69.9199Z" fill="#141B38"></path><rect x="60" y="146" width="25" height="4" rx="0.5" fill="#D0D1D7"></rect><rect x="119" y="146" width="25" height="4" rx="0.5" fill="#D0D1D7"></rect><rect x="178" y="146" width="25" height="4" rx="0.5" fill="#D0D1D7"></rect><g clip-path="url(#clip1_5041_97470)"><rect x="44.6094" y="84.8262" width="56" height="56" rx="1" fill="#43A6DB"></rect><circle cx="100" cy="142.5" r="34.5" fill="#86D0F9"></circle></g><rect x="103.043" y="84.8262" width="57.2174" height="56" rx="1" fill="#43A6DB"></rect><g clip-path="url(#clip2_5041_97470)"><rect x="162.695" y="84.8262" width="56" height="56" rx="1" fill="#43A6DB"></rect><rect x="165.5" y="143.234" width="47" height="47" transform="rotate(-45 165.5 143.234)" fill="#86D0F9"></rect></g><rect x="44.6094" y="159.261" width="56" height="56" rx="1" fill="#43A6DB"></rect><g clip-path="url(#clip3_5041_97470)"><rect x="103.043" y="159.261" width="57.2174" height="56" rx="1" fill="#43A6DB"></rect><circle cx="154" cy="219" r="33" fill="#86D0F9"></circle></g><rect x="162.695" y="159.261" width="56" height="56" rx="1" fill="#43A6DB"></rect></g></g><defs><filter id="filter0_ddd_5041_97470" x="17" y="34" width="229.305" height="222" filterUnits="userSpaceOnUse" color-interpolation-filters="sRGB"><feFlood flood-opacity="0" result="BackgroundImageFix"></feFlood><feColorMatrix in="SourceAlpha" type="matrix" values="0 0 0 0 0 0 0 0 0 0 0 0 0 0 0 0 0 0 127 0" result="hardAlpha"></feColorMatrix><feOffset dy="6"></feOffset><feGaussianBlur stdDeviation="6.5"></feGaussianBlur><feColorMatrix type="matrix" values="0 0 0 0 0 0 0 0 0 0 0 0 0 0 0 0 0 0 0.03 0"></feColorMatrix><feBlend mode="normal" in2="BackgroundImageFix" result="effect1_dropShadow_5041_97470"></feBlend><feColorMatrix in="SourceAlpha" type="matrix" values="0 0 0 0 0 0 0 0 0 0 0 0 0 0 0 0 0 0 127 0" result="hardAlpha"></feColorMatrix><feOffset dy="1"></feOffset><feGaussianBlur stdDeviation="1"></feGaussianBlur><feColorMatrix type="matrix" values="0 0 0 0 0 0 0 0 0 0 0 0 0 0 0 0 0 0 0.11 0"></feColorMatrix><feBlend mode="normal" in2="effect1_dropShadow_5041_97470" result="effect2_dropShadow_5041_97470"></feBlend><feColorMatrix in="SourceAlpha" type="matrix" values="0 0 0 0 0 0 0 0 0 0 0 0 0 0 0 0 0 0 127 0" result="hardAlpha"></feColorMatrix><feOffset dy="3"></feOffset><feGaussianBlur stdDeviation="3"></feGaussianBlur><feColorMatrix type="matrix" values="0 0 0 0 0 0 0 0 0 0 0 0 0 0 0 0 0 0 0.04 0"></feColorMatrix><feBlend mode="normal" in2="effect2_dropShadow_5041_97470" result="effect3_dropShadow_5041_97470"></feBlend><feBlend mode="normal" in="SourceGraphic" in2="effect3_dropShadow_5041_97470" result="shape"></feBlend></filter><clipPath id="clip0_5041_97470"><rect width="262" height="200" fill="white"></rect></clipPath><clipPath id="clip1_5041_97470"><rect x="44.6094" y="84.8262" width="56" height="56" rx="1" fill="white"></rect></clipPath><clipPath id="clip2_5041_97470"><rect x="162.695" y="84.8262" width="56" height="56" rx="1" fill="white"></rect></clipPath><clipPath id="clip3_5041_97470"><rect x="103.043" y="159.261" width="57.2174" height="56" rx="1" fill="white"></rect></clipPath></defs></svg> 