<?xml version="1.0" encoding="UTF-8"?> <svg xmlns="http://www.w3.org/2000/svg" width="86" height="83" viewBox="0 0 86 83" fill="none"><rect x="1" y="4.43494" width="65.6329" height="65.6329" rx="12" transform="rotate(-3 1 4.43494)" fill="white"></rect><rect x="1" y="4.43494" width="65.6329" height="65.6329" rx="12" transform="rotate(-3 1 4.43494)" stroke="#CED0D9" stroke-width="2.5003"></rect><path d="M54.2493 60.4452C54.2493 68.7888 59.2323 75.931 66.0155 77.1715L65.6194 78.4257L65.2177 79.6978L66.547 79.5848L71.0345 79.2031L72.7237 79.0594L71.6502 77.7473L71.0255 76.9839C77.3765 75.3291 81.9509 68.4326 81.9509 60.4452C81.9509 51.2906 75.9193 43.5316 68.1014 43.5316C60.2838 43.5316 54.2493 51.2904 54.2493 60.4452Z" fill="#FE544F" stroke="white" stroke-width="1.78661"></path><path fill-rule="evenodd" clip-rule="evenodd" d="M71.1909 50.0573L71.8144 56.491L78.2752 56.6766L73.6016 61.0221L77.2929 66.3611L71.0743 65.1921L69.189 71.4108L66.3266 65.842L60.5468 68.4904L62.7702 62.5204L57.1333 59.6772L63.1675 57.7366L61.5024 51.7922L67.2111 55.0468L71.1909 50.0573Z" fill="white"></path><path d="M34.8208 18.4374C26.2378 18.8872 19.5825 26.2621 20.0348 34.8919C20.4437 42.6946 26.4947 48.8716 34.0155 49.651L33.443 38.7272L29.4792 38.935L29.242 34.4094L33.2058 34.2017L33.0251 30.7528C32.8198 26.8359 35.0321 24.5605 38.6058 24.3732C40.3068 24.284 42.1014 24.4873 42.1014 24.4873L42.3034 28.3418L40.3371 28.4449C38.402 28.5463 37.8564 29.7798 37.921 31.0127L38.0747 33.9465L42.413 33.7191L41.948 38.2815L38.3119 38.4721L38.8844 49.3959C42.5313 48.6224 45.7815 46.5706 48.0483 43.6109C50.3151 40.6513 51.4492 36.9787 51.2457 33.2562C50.7935 24.6264 43.4038 17.9876 34.8208 18.4374Z" fill="#006BFA"></path></svg> 