<?xml version="1.0" encoding="UTF-8"?> <svg viewBox="0 0 18 18"><path d="M9.00035 11.9167C8.22681 11.9167 7.48494 11.6095 6.93796 11.0625C6.39098 10.5155 6.08369 9.77363 6.08369 9.00008C6.08369 8.22653 6.39098 7.48467 6.93796 6.93769C7.48494 6.39071 8.22681 6.08342 9.00035 6.08342C9.7739 6.08342 10.5158 6.39071 11.0627 6.93769C11.6097 7.48467 11.917 8.22653 11.917 9.00008C11.917 9.77363 11.6097 10.5155 11.0627 11.0625C10.5158 11.6095 9.7739 11.9167 9.00035 11.9167ZM15.192 9.80842C15.2254 9.54175 15.2504 9.27508 15.2504 9.00008C15.2504 8.72508 15.2254 8.45008 15.192 8.16675L16.9504 6.80842C17.1087 6.68342 17.1504 6.45842 17.0504 6.27508L15.3837 3.39175C15.2837 3.20842 15.0587 3.13342 14.8754 3.20842L12.8004 4.04175C12.367 3.71675 11.917 3.43342 11.392 3.22508L11.0837 1.01675C11.0668 0.918597 11.0156 0.829605 10.9394 0.765542C10.8631 0.70148 10.7666 0.666482 10.667 0.66675H7.33369C7.12535 0.66675 6.95035 0.81675 6.91702 1.01675L6.60869 3.22508C6.08369 3.43342 5.63369 3.71675 5.20035 4.04175L3.12535 3.20842C2.94202 3.13342 2.71702 3.20842 2.61702 3.39175L0.950354 6.27508C0.842021 6.45842 0.892021 6.68342 1.05035 6.80842L2.80869 8.16675C2.77535 8.45008 2.75035 8.72508 2.75035 9.00008C2.75035 9.27508 2.77535 9.54175 2.80869 9.80842L1.05035 11.1917C0.892021 11.3167 0.842021 11.5417 0.950354 11.7251L2.61702 14.6084C2.71702 14.7917 2.94202 14.8584 3.12535 14.7917L5.20035 13.9501C5.63369 14.2834 6.08369 14.5667 6.60869 14.7751L6.91702 16.9834C6.95035 17.1834 7.12535 17.3334 7.33369 17.3334H10.667C10.8754 17.3334 11.0504 17.1834 11.0837 16.9834L11.392 14.7751C11.917 14.5584 12.367 14.2834 12.8004 13.9501L14.8754 14.7917C15.0587 14.8584 15.2837 14.7917 15.3837 14.6084L17.0504 11.7251C17.1504 11.5417 17.1087 11.3167 16.9504 11.1917L15.192 9.80842Z"></path></svg> 