<svg xmlns="http://www.w3.org/2000/svg" width="262" height="200" fill="none"><g clip-path="url(#a)"><path fill="#F3F4F5" d="M0 0h262v200H0z"/><g filter="url(#b)"><rect width="203.304" height="196" x="30" y="41" fill="#fff" rx="2"/><path fill="#141B38" d="M47.807 69.826h1.56l1.75-6.123h.07l1.746 6.123h1.56l2.463-8.727h-1.7l-1.573 6.417h-.077L51.924 61.1h-1.547l-1.679 6.413h-.08L47.044 61.1h-1.7zm12.407.128c1.525 0 2.574-.746 2.846-1.883l-1.44-.162c-.209.553-.72.843-1.385.843-.997 0-1.658-.656-1.67-1.777h4.56v-.473c0-2.297-1.381-3.306-2.992-3.306-1.875 0-3.098 1.376-3.098 3.396 0 2.054 1.206 3.362 3.179 3.362m-1.645-4.018c.047-.836.665-1.539 1.585-1.539.886 0 1.483.648 1.492 1.538zm7.169-4.837H64.51v.878c0 .694-.272 1.227-.584 1.696l.716.464c.627-.52 1.096-1.415 1.096-2.169zm1 8.727h1.543v-3.848c0-.83.626-1.419 1.474-1.419.26 0 .584.047.716.09v-1.42a4 4 0 0 0-.554-.042c-.75 0-1.377.426-1.615 1.185h-.068V63.28h-1.496zm7.386.128c1.526 0 2.574-.746 2.847-1.883l-1.44-.162c-.21.553-.721.843-1.386.843-.997 0-1.657-.656-1.67-1.777h4.56v-.473c0-2.297-1.381-3.306-2.992-3.306-1.875 0-3.098 1.376-3.098 3.396 0 2.054 1.206 3.362 3.179 3.362m-1.645-4.018c.047-.836.665-1.539 1.585-1.539.887 0 1.483.648 1.492 1.538zm11.692 4.018c1.918 0 3.136-1.35 3.136-3.375 0-2.028-1.218-3.383-3.136-3.383-1.917 0-3.136 1.355-3.136 3.383 0 2.024 1.219 3.375 3.136 3.375m.009-1.236c-1.061 0-1.581-.946-1.581-2.143 0-1.198.52-2.157 1.58-2.157 1.045 0 1.565.96 1.565 2.157s-.52 2.143-1.564 2.143m5.98-2.727c0-.946.57-1.492 1.384-1.492.797 0 1.275.525 1.275 1.398v3.93h1.542v-4.168c.004-1.569-.89-2.464-2.241-2.464-.98 0-1.654.47-1.952 1.198h-.077V63.28h-1.474v6.545h1.542zm8.814 3.835h1.581V66.12h3.626v-1.326h-3.626v-2.369h4.01V61.1h-5.59zm8.788.132c1.027 0 1.641-.481 1.922-1.031h.051v.9h1.483v-4.382c0-1.73-1.41-2.25-2.659-2.25-1.376 0-2.433.614-2.774 1.807l1.44.205c.154-.448.588-.831 1.342-.831.716 0 1.108.366 1.108 1.01v.025c0 .444-.464.465-1.619.588-1.27.137-2.484.516-2.484 1.99 0 1.287.941 1.97 2.19 1.97m.401-1.133c-.644 0-1.104-.294-1.104-.861 0-.592.516-.84 1.206-.937.405-.056 1.214-.158 1.415-.32v.771c0 .729-.588 1.347-1.517 1.347m7.461 1.129c1.645 0 2.693-.976 2.804-2.365h-1.474c-.132.703-.639 1.108-1.317 1.108-.963 0-1.585-.806-1.585-2.144 0-1.32.635-2.113 1.585-2.113.742 0 1.198.477 1.317 1.108h1.474c-.106-1.42-1.214-2.352-2.812-2.352-1.918 0-3.128 1.384-3.128 3.383 0 1.982 1.18 3.375 3.136 3.375m6.969 0c1.525 0 2.574-.746 2.846-1.883l-1.44-.162c-.209.553-.72.843-1.385.843-.997 0-1.658-.656-1.67-1.777h4.559v-.473c0-2.297-1.38-3.306-2.991-3.306-1.875 0-3.098 1.376-3.098 3.396 0 2.054 1.206 3.362 3.179 3.362m-1.645-4.018c.047-.836.665-1.539 1.585-1.539.886 0 1.483.648 1.492 1.538zm5.928 3.89h1.517v-1.031h.09c.243.477.75 1.146 1.875 1.146 1.543 0 2.697-1.223 2.697-3.379 0-2.182-1.189-3.366-2.701-3.366-1.155 0-1.637.694-1.871 1.167h-.064V61.1h-1.543zm1.513-3.273c0-1.27.546-2.092 1.539-2.092 1.027 0 1.555.874 1.555 2.092 0 1.228-.537 2.123-1.555 2.123-.985 0-1.539-.853-1.539-2.123m8.833 3.401c1.918 0 3.136-1.35 3.136-3.375 0-2.028-1.218-3.383-3.136-3.383s-3.136 1.355-3.136 3.383c0 2.024 1.218 3.375 3.136 3.375m.008-1.236c-1.061 0-1.58-.946-1.58-2.143 0-1.198.519-2.157 1.58-2.157 1.045 0 1.564.96 1.564 2.157s-.519 2.143-1.564 2.143m7.293 1.236c1.917 0 3.136-1.35 3.136-3.375 0-2.028-1.219-3.383-3.136-3.383s-3.137 1.355-3.137 3.383c0 2.024 1.219 3.375 3.137 3.375m.008-1.236c-1.061 0-1.581-.946-1.581-2.143 0-1.198.52-2.157 1.581-2.157 1.044 0 1.564.96 1.564 2.157s-.52 2.143-1.564 2.143m4.437 1.108h1.543v-2.199l.563-.6 2.002 2.8h1.846l-2.685-3.721 2.535-2.825h-1.802l-2.352 2.629h-.107v-4.811h-1.543zm8.72-8.727h-1.649l.136 6.162h1.373zm-.826 8.82a.95.95 0 0 0 .937-.937.947.947 0 0 0-.937-.929.93.93 0 0 0-.938.93.933.933 0 0 0 .938.937"/><rect width="25" height="4" x="60" y="146" fill="#D0D1D7" rx=".5"/><rect width="25" height="4" x="119" y="146" fill="#D0D1D7" rx=".5"/><rect width="25" height="4" x="178" y="146" fill="#D0D1D7" rx=".5"/><g clip-path="url(#c)"><rect width="56" height="56" x="44.609" y="84.826" fill="#43A6DB" rx="1"/><circle cx="100" cy="142.5" r="34.5" fill="#86D0F9"/></g><rect width="57.217" height="56" x="103.043" y="84.826" fill="#43A6DB" rx="1"/><g clip-path="url(#d)"><rect width="56" height="56" x="162.695" y="84.826" fill="#43A6DB" rx="1"/><path fill="#86D0F9" d="M165.5 143.234 198.734 110l33.234 33.234-33.234 33.234z"/></g><rect width="56" height="56" x="44.609" y="159.261" fill="#43A6DB" rx="1"/><g clip-path="url(#e)"><rect width="57.217" height="56" x="103.043" y="159.261" fill="#43A6DB" rx="1"/><circle cx="154" cy="219" r="33" fill="#86D0F9"/></g><rect width="56" height="56" x="162.695" y="159.261" fill="#43A6DB" rx="1"/></g></g><defs><clipPath id="a"><path fill="#fff" d="M0 0h262v200H0z"/></clipPath><clipPath id="c"><rect width="56" height="56" x="44.609" y="84.826" fill="#fff" rx="1"/></clipPath><clipPath id="d"><rect width="56" height="56" x="162.695" y="84.826" fill="#fff" rx="1"/></clipPath><clipPath id="e"><rect width="57.217" height="56" x="103.043" y="159.261" fill="#fff" rx="1"/></clipPath><filter id="b" width="229.305" height="222" x="17" y="34" color-interpolation-filters="sRGB" filterUnits="userSpaceOnUse"><feFlood flood-opacity="0" result="BackgroundImageFix"/><feColorMatrix in="SourceAlpha" result="hardAlpha" values="0 0 0 0 0 0 0 0 0 0 0 0 0 0 0 0 0 0 127 0"/><feOffset dy="6"/><feGaussianBlur stdDeviation="6.5"/><feColorMatrix values="0 0 0 0 0 0 0 0 0 0 0 0 0 0 0 0 0 0 0.03 0"/><feBlend in2="BackgroundImageFix" result="effect1_dropShadow_5041_97470"/><feColorMatrix in="SourceAlpha" result="hardAlpha" values="0 0 0 0 0 0 0 0 0 0 0 0 0 0 0 0 0 0 127 0"/><feOffset dy="1"/><feGaussianBlur stdDeviation="1"/><feColorMatrix values="0 0 0 0 0 0 0 0 0 0 0 0 0 0 0 0 0 0 0.11 0"/><feBlend in2="effect1_dropShadow_5041_97470" result="effect2_dropShadow_5041_97470"/><feColorMatrix in="SourceAlpha" result="hardAlpha" values="0 0 0 0 0 0 0 0 0 0 0 0 0 0 0 0 0 0 127 0"/><feOffset dy="3"/><feGaussianBlur stdDeviation="3"/><feColorMatrix values="0 0 0 0 0 0 0 0 0 0 0 0 0 0 0 0 0 0 0.04 0"/><feBlend in2="effect2_dropShadow_5041_97470" result="effect3_dropShadow_5041_97470"/><feBlend in="SourceGraphic" in2="effect3_dropShadow_5041_97470" result="shape"/></filter></defs></svg>