<?xml version="1.0" encoding="UTF-8"?> <svg xmlns="http://www.w3.org/2000/svg" width="16" height="14" viewBox="0 0 16 14" fill="none"><path d="M14.0013 9.66659H2.0013V1.66659H14.0013V9.66659ZM14.0013 0.333252H2.0013C1.2613 0.333252 0.667969 0.926585 0.667969 1.66659V9.66659C0.667969 10.0202 0.808445 10.3593 1.05849 10.6094C1.30854 10.8594 1.64768 10.9999 2.0013 10.9999H6.66797V12.3333H5.33464V13.6666H10.668V12.3333H9.33463V10.9999H14.0013C14.3549 10.9999 14.6941 10.8594 14.9441 10.6094C15.1942 10.3593 15.3346 10.0202 15.3346 9.66659V1.66659C15.3346 1.31296 15.1942 0.973825 14.9441 0.723776C14.6941 0.473728 14.3549 0.333252 14.0013 0.333252Z" fill="#141B38"></path></svg> 