<?xml version="1.0" encoding="UTF-8"?> <svg xmlns="http://www.w3.org/2000/svg" width="262" height="200" viewBox="0 0 262 200" fill="none"><rect width="262" height="200" fill="#FEF4EF"></rect><path d="M37.7564 49.8262H39.576L41.6193 42.682H41.6989L43.7372 49.8262H45.5568L48.4304 39.6444H46.4467L44.6122 47.1316H44.5227L42.5589 39.6444H40.7543L38.7955 47.1266H38.701L36.8665 39.6444H34.8828L37.7564 49.8262ZM52.2312 49.9753C54.011 49.9753 55.234 49.1053 55.5522 47.7779L53.8718 47.589C53.6282 48.2353 53.0316 48.5733 52.256 48.5733C51.0927 48.5733 50.3221 47.8077 50.3072 46.5002H55.6268V45.9483C55.6268 43.2686 54.016 42.0904 52.1367 42.0904C49.9492 42.0904 48.5224 43.6962 48.5224 46.0527C48.5224 48.449 49.9293 49.9753 52.2312 49.9753ZM50.3121 45.2871C50.3668 44.3127 51.0877 43.4924 52.1616 43.4924C53.1957 43.4924 53.8917 44.248 53.9016 45.2871H50.3121ZM58.6756 39.6444H57.2438V40.6685C57.2438 41.4789 56.9256 42.1003 56.5627 42.6472L57.3979 43.1891C58.1287 42.5826 58.6756 41.5385 58.6756 40.6586V39.6444ZM59.8427 49.8262H61.6424V45.3368C61.6424 44.3674 62.3732 43.6813 63.3626 43.6813C63.6658 43.6813 64.0437 43.736 64.1978 43.7857V42.1301C64.0337 42.1003 63.7504 42.0804 63.5515 42.0804C62.6765 42.0804 61.9457 42.5776 61.6673 43.4625H61.5877V42.1898H59.8427V49.8262ZM68.4597 49.9753C70.2395 49.9753 71.4625 49.1053 71.7807 47.7779L70.1003 47.589C69.8567 48.2353 69.2601 48.5733 68.4846 48.5733C67.3212 48.5733 66.5506 47.8077 66.5357 46.5002H71.8553V45.9483C71.8553 43.2686 70.2445 42.0904 68.3652 42.0904C66.1777 42.0904 64.7509 43.6962 64.7509 46.0527C64.7509 48.449 66.1578 49.9753 68.4597 49.9753ZM66.5407 45.2871C66.5953 44.3127 67.3162 43.4924 68.3901 43.4924C69.4242 43.4924 70.1202 44.248 70.1301 45.2871H66.5407ZM80.1815 49.9753C82.4187 49.9753 83.8406 48.3993 83.8406 46.0378C83.8406 43.6713 82.4187 42.0904 80.1815 42.0904C77.9442 42.0904 76.5224 43.6713 76.5224 46.0378C76.5224 48.3993 77.9442 49.9753 80.1815 49.9753ZM80.1914 48.5336C78.9535 48.5336 78.3469 47.4299 78.3469 46.0328C78.3469 44.6358 78.9535 43.5172 80.1914 43.5172C81.4094 43.5172 82.016 44.6358 82.016 46.0328C82.016 47.4299 81.4094 48.5336 80.1914 48.5336ZM87.1678 45.3517C87.1678 44.248 87.834 43.6117 88.7836 43.6117C89.7132 43.6117 90.2701 44.2232 90.2701 45.2424V49.8262H92.0698V44.964C92.0748 43.1344 91.0307 42.0904 89.4547 42.0904C88.3113 42.0904 87.5257 42.6373 87.1777 43.4874H87.0882V42.1898H85.3681V49.8262H87.1678V45.3517ZM97.4515 49.8262H99.296V45.5009H103.527V43.9547H99.296V41.1905H103.974V39.6444H97.4515V49.8262ZM107.704 49.9803C108.902 49.9803 109.618 49.4185 109.946 48.7772H110.006V49.8262H111.736V44.7154C111.736 42.6969 110.091 42.0904 108.634 42.0904C107.028 42.0904 105.795 42.8063 105.397 44.1983L107.078 44.437C107.257 43.915 107.764 43.4675 108.644 43.4675C109.479 43.4675 109.936 43.8951 109.936 44.6458V44.6756C109.936 45.1926 109.395 45.2175 108.047 45.3617C106.566 45.5208 105.149 45.9632 105.149 47.6834C105.149 49.1848 106.248 49.9803 107.704 49.9803ZM108.172 48.6578C107.421 48.6578 106.884 48.3148 106.884 47.6536C106.884 46.9625 107.485 46.6742 108.291 46.5598C108.763 46.4952 109.708 46.3759 109.941 46.187V47.0868C109.941 47.937 109.255 48.6578 108.172 48.6578ZM116.877 49.9753C118.796 49.9753 120.019 48.8368 120.148 47.2161H118.428C118.274 48.0364 117.682 48.5087 116.892 48.5087C115.768 48.5087 115.042 47.5691 115.042 46.008C115.042 44.4668 115.783 43.5421 116.892 43.5421C117.757 43.5421 118.289 44.0989 118.428 44.8347H120.148C120.024 43.1792 118.731 42.0904 116.867 42.0904C114.63 42.0904 113.218 43.7061 113.218 46.0378C113.218 48.3496 114.595 49.9753 116.877 49.9753ZM125.007 49.9753C126.786 49.9753 128.009 49.1053 128.328 47.7779L126.647 47.589C126.404 48.2353 125.807 48.5733 125.031 48.5733C123.868 48.5733 123.097 47.8077 123.083 46.5002H128.402V45.9483C128.402 43.2686 126.791 42.0904 124.912 42.0904C122.725 42.0904 121.298 43.6962 121.298 46.0527C121.298 48.449 122.705 49.9753 125.007 49.9753ZM123.088 45.2871C123.142 44.3127 123.863 43.4924 124.937 43.4924C125.971 43.4924 126.667 44.248 126.677 45.2871H123.088ZM130.004 49.8262H131.774V48.623H131.879C132.162 49.1799 132.754 49.9604 134.066 49.9604C135.866 49.9604 137.213 48.5336 137.213 46.0179C137.213 43.4725 135.826 42.0904 134.061 42.0904C132.714 42.0904 132.152 42.9007 131.879 43.4526H131.804V39.6444H130.004V49.8262ZM131.769 46.008C131.769 44.5265 132.406 43.5669 133.564 43.5669C134.762 43.5669 135.379 44.5861 135.379 46.008C135.379 47.4398 134.752 48.4838 133.564 48.4838C132.415 48.4838 131.769 47.4895 131.769 46.008ZM142.074 49.9753C144.311 49.9753 145.733 48.3993 145.733 46.0378C145.733 43.6713 144.311 42.0904 142.074 42.0904C139.837 42.0904 138.415 43.6713 138.415 46.0378C138.415 48.3993 139.837 49.9753 142.074 49.9753ZM142.084 48.5336C140.846 48.5336 140.24 47.4299 140.24 46.0328C140.24 44.6358 140.846 43.5172 142.084 43.5172C143.302 43.5172 143.909 44.6358 143.909 46.0328C143.909 47.4299 143.302 48.5336 142.084 48.5336ZM150.592 49.9753C152.829 49.9753 154.251 48.3993 154.251 46.0378C154.251 43.6713 152.829 42.0904 150.592 42.0904C148.354 42.0904 146.933 43.6713 146.933 46.0378C146.933 48.3993 148.354 49.9753 150.592 49.9753ZM150.602 48.5336C149.364 48.5336 148.757 47.4299 148.757 46.0328C148.757 44.6358 149.364 43.5172 150.602 43.5172C151.82 43.5172 152.426 44.6358 152.426 46.0328C152.426 47.4299 151.82 48.5336 150.602 48.5336ZM155.778 49.8262H157.578V47.2608L158.234 46.5598L160.571 49.8262H162.724L159.591 45.486L162.55 42.1898H160.447L157.702 45.2573H157.578V39.6444H155.778V49.8262ZM165.951 39.6444H164.027L164.186 46.8333H165.787L165.951 39.6444ZM164.987 49.9355C165.574 49.9355 166.076 49.4483 166.081 48.8418C166.076 48.2452 165.574 47.758 164.987 47.758C164.38 47.758 163.888 48.2452 163.893 48.8418C163.888 49.4483 164.38 49.9355 164.987 49.9355Z" fill="#141B38"></path><g filter="url(#filter0_dd_5041_97653)"><g clip-path="url(#clip0_5041_97653)"><rect x="100.5" y="69" width="62" height="79" rx="1" fill="white"></rect><g clip-path="url(#clip1_5041_97653)"><rect width="62" height="66" transform="translate(100.5 69)" fill="#F9BBA0"></rect><rect x="89.5" y="152.74" width="76" height="76" transform="rotate(-45 89.5 152.74)" fill="#F6966B"></rect></g><rect x="119" y="139" width="25" height="4" rx="0.5" fill="#D0D1D7"></rect></g><rect x="100.589" y="69.0894" width="61.8212" height="78.8212" rx="0.910615" stroke="#F3F4F5" stroke-width="0.178771"></rect></g><g filter="url(#filter1_dd_5041_97653)"><g clip-path="url(#clip2_5041_97653)"><rect x="166.5" y="69" width="61" height="79" rx="1" fill="white"></rect><g clip-path="url(#clip3_5041_97653)"><rect width="61" height="66" transform="translate(166.5 69)" fill="#F9BBA0"></rect><circle cx="224.5" cy="143" r="43" fill="#F6966B"></circle></g><rect x="184.5" y="139" width="25" height="4" rx="0.5" fill="#D0D1D7"></rect></g><rect x="166.589" y="69.0894" width="60.8212" height="78.8212" rx="0.910615" stroke="#F3F4F5" stroke-width="0.178771"></rect></g><circle cx="115.5" cy="164" r="2" fill="#2C324C"></circle><circle cx="123.5" cy="164" r="2" fill="#D0D1D7"></circle><circle cx="131.5" cy="164" r="2" fill="#D0D1D7"></circle><circle cx="139.5" cy="164" r="2" fill="#D0D1D7"></circle><circle cx="147.5" cy="164" r="2" fill="#D0D1D7"></circle><g filter="url(#filter2_dd_5041_97653)"><g clip-path="url(#clip4_5041_97653)"><rect x="35.5" y="69" width="61" height="79" rx="1" fill="white"></rect><g clip-path="url(#clip5_5041_97653)"><rect width="61" height="66" transform="translate(35.5 69)" fill="#F9BBA0"></rect><circle cx="28.5" cy="141" r="43" fill="#F6966B"></circle></g><rect x="53.5" y="139" width="25" height="4" rx="0.5" fill="#D0D1D7"></rect></g><rect x="35.5894" y="69.0894" width="60.8212" height="78.8212" rx="0.910615" stroke="#F3F4F5" stroke-width="0.178771"></rect></g><defs><filter id="filter0_dd_5041_97653" x="99.6061" y="68.8212" width="63.7877" height="80.7877" filterUnits="userSpaceOnUse" color-interpolation-filters="sRGB"><feFlood flood-opacity="0" result="BackgroundImageFix"></feFlood><feColorMatrix in="SourceAlpha" type="matrix" values="0 0 0 0 0 0 0 0 0 0 0 0 0 0 0 0 0 0 127 0" result="hardAlpha"></feColorMatrix><feOffset dy="0.715083"></feOffset><feGaussianBlur stdDeviation="0.446927"></feGaussianBlur><feColorMatrix type="matrix" values="0 0 0 0 0 0 0 0 0 0 0 0 0 0 0 0 0 0 0.05 0"></feColorMatrix><feBlend mode="normal" in2="BackgroundImageFix" result="effect1_dropShadow_5041_97653"></feBlend><feColorMatrix in="SourceAlpha" type="matrix" values="0 0 0 0 0 0 0 0 0 0 0 0 0 0 0 0 0 0 127 0" result="hardAlpha"></feColorMatrix><feOffset dy="0.178771"></feOffset><feGaussianBlur stdDeviation="0.178771"></feGaussianBlur><feColorMatrix type="matrix" values="0 0 0 0 0 0 0 0 0 0 0 0 0 0 0 0 0 0 0.05 0"></feColorMatrix><feBlend mode="normal" in2="effect1_dropShadow_5041_97653" result="effect2_dropShadow_5041_97653"></feBlend><feBlend mode="normal" in="SourceGraphic" in2="effect2_dropShadow_5041_97653" result="shape"></feBlend></filter><filter id="filter1_dd_5041_97653" x="165.606" y="68.8212" width="62.7877" height="80.7877" filterUnits="userSpaceOnUse" color-interpolation-filters="sRGB"><feFlood flood-opacity="0" result="BackgroundImageFix"></feFlood><feColorMatrix in="SourceAlpha" type="matrix" values="0 0 0 0 0 0 0 0 0 0 0 0 0 0 0 0 0 0 127 0" result="hardAlpha"></feColorMatrix><feOffset dy="0.715083"></feOffset><feGaussianBlur stdDeviation="0.446927"></feGaussianBlur><feColorMatrix type="matrix" values="0 0 0 0 0 0 0 0 0 0 0 0 0 0 0 0 0 0 0.05 0"></feColorMatrix><feBlend mode="normal" in2="BackgroundImageFix" result="effect1_dropShadow_5041_97653"></feBlend><feColorMatrix in="SourceAlpha" type="matrix" values="0 0 0 0 0 0 0 0 0 0 0 0 0 0 0 0 0 0 127 0" result="hardAlpha"></feColorMatrix><feOffset dy="0.178771"></feOffset><feGaussianBlur stdDeviation="0.178771"></feGaussianBlur><feColorMatrix type="matrix" values="0 0 0 0 0 0 0 0 0 0 0 0 0 0 0 0 0 0 0.05 0"></feColorMatrix><feBlend mode="normal" in2="effect1_dropShadow_5041_97653" result="effect2_dropShadow_5041_97653"></feBlend><feBlend mode="normal" in="SourceGraphic" in2="effect2_dropShadow_5041_97653" result="shape"></feBlend></filter><filter id="filter2_dd_5041_97653" x="34.6061" y="68.8212" width="62.7877" height="80.7877" filterUnits="userSpaceOnUse" color-interpolation-filters="sRGB"><feFlood flood-opacity="0" result="BackgroundImageFix"></feFlood><feColorMatrix in="SourceAlpha" type="matrix" values="0 0 0 0 0 0 0 0 0 0 0 0 0 0 0 0 0 0 127 0" result="hardAlpha"></feColorMatrix><feOffset dy="0.715083"></feOffset><feGaussianBlur stdDeviation="0.446927"></feGaussianBlur><feColorMatrix type="matrix" values="0 0 0 0 0 0 0 0 0 0 0 0 0 0 0 0 0 0 0.05 0"></feColorMatrix><feBlend mode="normal" in2="BackgroundImageFix" result="effect1_dropShadow_5041_97653"></feBlend><feColorMatrix in="SourceAlpha" type="matrix" values="0 0 0 0 0 0 0 0 0 0 0 0 0 0 0 0 0 0 127 0" result="hardAlpha"></feColorMatrix><feOffset dy="0.178771"></feOffset><feGaussianBlur stdDeviation="0.178771"></feGaussianBlur><feColorMatrix type="matrix" values="0 0 0 0 0 0 0 0 0 0 0 0 0 0 0 0 0 0 0.05 0"></feColorMatrix><feBlend mode="normal" in2="effect1_dropShadow_5041_97653" result="effect2_dropShadow_5041_97653"></feBlend><feBlend mode="normal" in="SourceGraphic" in2="effect2_dropShadow_5041_97653" result="shape"></feBlend></filter><clipPath id="clip0_5041_97653"><rect x="100.5" y="69" width="62" height="79" rx="1" fill="white"></rect></clipPath><clipPath id="clip1_5041_97653"><rect width="62" height="66" fill="white" transform="translate(100.5 69)"></rect></clipPath><clipPath id="clip2_5041_97653"><rect x="166.5" y="69" width="61" height="79" rx="1" fill="white"></rect></clipPath><clipPath id="clip3_5041_97653"><rect width="61" height="66" fill="white" transform="translate(166.5 69)"></rect></clipPath><clipPath id="clip4_5041_97653"><rect x="35.5" y="69" width="61" height="79" rx="1" fill="white"></rect></clipPath><clipPath id="clip5_5041_97653"><rect width="61" height="66" fill="white" transform="translate(35.5 69)"></rect></clipPath></defs></svg> 