<?xml version="1.0" encoding="UTF-8"?> <svg xmlns="http://www.w3.org/2000/svg" width="207" height="129" viewBox="0 0 207 129" fill="none"><rect width="207" height="129" fill="#E2F5FF"></rect><g filter="url(#filter0_ddd_6431_95420)"><rect x="21.4277" y="34.7188" width="160" height="64" rx="2" fill="white"></rect></g><g clip-path="url(#clip0_6431_95420)"><rect width="55" height="56" transform="translate(122.227 38.7188)" fill="#43A6DB"></rect><circle cx="197.727" cy="101.219" r="55.5" fill="#86D0F9"></circle></g><rect x="32.4277" y="63.7188" width="69" height="9" fill="#D8DADD"></rect><rect x="32.4277" y="78.7188" width="43" height="9" fill="#D8DADD"></rect><circle cx="38.9277" cy="49.2188" r="6.5" fill="#D8DADD"></circle><circle cx="171.07" cy="44.7812" r="15.5" fill="#F7756D" stroke="#FEF4EF" stroke-width="2"></circle><path d="M173.586 44.7578L173.281 41.9688H174.289C174.594 41.9688 174.852 41.7344 174.852 41.4062V40.2812C174.852 39.9766 174.594 39.7188 174.289 39.7188H167.914C167.586 39.7188 167.352 39.9766 167.352 40.2812V41.4062C167.352 41.7344 167.586 41.9688 167.914 41.9688H168.898L168.594 44.7578C167.469 45.2734 166.602 46.2344 166.602 47.4062C166.602 47.7344 166.836 47.9688 167.164 47.9688H170.352V50.4297C170.352 50.4531 170.352 50.4766 170.352 50.5L170.914 51.625C170.984 51.7656 171.195 51.7656 171.266 51.625L171.828 50.5C171.828 50.4766 171.852 50.4531 171.852 50.4297V47.9688H175.039C175.344 47.9688 175.602 47.7344 175.602 47.4062C175.602 46.2109 174.711 45.2734 173.586 44.7578Z" fill="white"></path><defs><filter id="filter0_ddd_6431_95420" x="8.42773" y="27.7188" width="186" height="90" filterUnits="userSpaceOnUse" color-interpolation-filters="sRGB"><feFlood flood-opacity="0" result="BackgroundImageFix"></feFlood><feColorMatrix in="SourceAlpha" type="matrix" values="0 0 0 0 0 0 0 0 0 0 0 0 0 0 0 0 0 0 127 0" result="hardAlpha"></feColorMatrix><feOffset dy="6"></feOffset><feGaussianBlur stdDeviation="6.5"></feGaussianBlur><feColorMatrix type="matrix" values="0 0 0 0 0 0 0 0 0 0 0 0 0 0 0 0 0 0 0.03 0"></feColorMatrix><feBlend mode="normal" in2="BackgroundImageFix" result="effect1_dropShadow_6431_95420"></feBlend><feColorMatrix in="SourceAlpha" type="matrix" values="0 0 0 0 0 0 0 0 0 0 0 0 0 0 0 0 0 0 127 0" result="hardAlpha"></feColorMatrix><feOffset dy="1"></feOffset><feGaussianBlur stdDeviation="1"></feGaussianBlur><feColorMatrix type="matrix" values="0 0 0 0 0 0 0 0 0 0 0 0 0 0 0 0 0 0 0.11 0"></feColorMatrix><feBlend mode="normal" in2="effect1_dropShadow_6431_95420" result="effect2_dropShadow_6431_95420"></feBlend><feColorMatrix in="SourceAlpha" type="matrix" values="0 0 0 0 0 0 0 0 0 0 0 0 0 0 0 0 0 0 127 0" result="hardAlpha"></feColorMatrix><feOffset dy="3"></feOffset><feGaussianBlur stdDeviation="3"></feGaussianBlur><feColorMatrix type="matrix" values="0 0 0 0 0 0 0 0 0 0 0 0 0 0 0 0 0 0 0.04 0"></feColorMatrix><feBlend mode="normal" in2="effect2_dropShadow_6431_95420" result="effect3_dropShadow_6431_95420"></feBlend><feBlend mode="normal" in="SourceGraphic" in2="effect3_dropShadow_6431_95420" result="shape"></feBlend></filter><clipPath id="clip0_6431_95420"><rect width="55" height="56" fill="white" transform="translate(122.227 38.7188)"></rect></clipPath></defs></svg> 