<?xml version="1.0" encoding="UTF-8"?> <svg xmlns="http://www.w3.org/2000/svg" width="14" height="15" viewBox="0 0 14 15" fill="none"><mask id="mask0_6001_94583" style="mask-type:alpha" maskUnits="userSpaceOnUse" x="0" y="0" width="14" height="15"><rect y="0.5" width="14" height="14" fill="#D9D9D9"></rect></mask><g mask="url(#mask0_6001_94583)"><path d="M7.00065 7.49984C7.32148 7.49984 7.59623 7.3855 7.8249 7.15684C8.05318 6.92856 8.16732 6.654 8.16732 6.33317C8.16732 6.01234 8.05318 5.73759 7.8249 5.50892C7.59623 5.28064 7.32148 5.1665 7.00065 5.1665C6.67982 5.1665 6.40526 5.28064 6.17698 5.50892C5.94832 5.73759 5.83398 6.01234 5.83398 6.33317C5.83398 6.654 5.94832 6.92856 6.17698 7.15684C6.40526 7.3855 6.67982 7.49984 7.00065 7.49984ZM7.00065 11.7873C8.18676 10.6984 9.06662 9.70912 9.64023 8.81934C10.2138 7.92995 10.5007 7.14012 10.5007 6.44984C10.5007 5.39012 10.1627 4.52231 9.48682 3.84642C8.81132 3.17092 7.9826 2.83317 7.00065 2.83317C6.01871 2.83317 5.18979 3.17092 4.5139 3.84642C3.8384 4.52231 3.50065 5.39012 3.50065 6.44984C3.50065 7.14012 3.78746 7.92995 4.36107 8.81934C4.93468 9.70912 5.81454 10.6984 7.00065 11.7873ZM7.00065 13.1144C6.92287 13.1144 6.8451 13.0998 6.76732 13.0707C6.68954 13.0415 6.62148 13.0026 6.56315 12.954C5.14371 11.6998 4.08398 10.5357 3.38398 9.46159C2.68398 8.38709 2.33398 7.38317 2.33398 6.44984C2.33398 4.9915 2.80318 3.8297 3.74157 2.96442C4.67957 2.09914 5.76593 1.6665 7.00065 1.6665C8.23537 1.6665 9.32173 2.09914 10.2597 2.96442C11.1981 3.8297 11.6673 4.9915 11.6673 6.44984C11.6673 7.38317 11.3173 8.38709 10.6173 9.46159C9.91732 10.5357 8.8576 11.6998 7.43815 12.954C7.37982 13.0026 7.31176 13.0415 7.23398 13.0707C7.15621 13.0998 7.07843 13.1144 7.00065 13.1144Z" fill="#696D80"></path></g></svg> 