<?xml version="1.0" encoding="UTF-8"?> <svg xmlns="http://www.w3.org/2000/svg" width="263" height="200" viewBox="0 0 263 200" fill="none"><g clip-path="url(#clip0_5041_97009)"><rect width="262" height="200" transform="translate(0.5)" fill="#F3F4F5"></rect><g filter="url(#filter0_ddd_5041_97009)"><g clip-path="url(#clip1_5041_97009)"><rect x="29.5" y="41" width="203" height="186" rx="2" fill="white"></rect><rect width="37.551" height="35.9184" transform="translate(50.5 67)" fill="#B6DDAD"></rect><g clip-path="url(#clip2_5041_97009)"><rect width="37.551" height="45.7143" transform="translate(50.5 106.184)" fill="#B6DDAD"></rect><rect x="50.5" y="153.87" width="38" height="38" transform="rotate(-45 50.5 153.87)" fill="#96CE89"></rect></g><rect width="37.551" height="45.7143" transform="translate(50.5 155)" fill="#B6DDAD"></rect><g clip-path="url(#clip3_5041_97009)"><rect width="37.551" height="51.4286" transform="translate(91.3164 67)" fill="#B6DDAD"></rect><circle cx="128.5" cy="114" r="30" fill="#96CE89"></circle></g><g clip-path="url(#clip4_5041_97009)"><rect width="37" height="45" transform="translate(91.5 122)" fill="#B6DDAD"></rect><circle cx="131.5" cy="171" r="27" fill="#96CE89"></circle></g><rect width="37" height="45" transform="translate(91.5 170)" fill="#B6DDAD"></rect><rect width="37.551" height="41.6327" transform="translate(132.133 67)" fill="#B6DDAD"></rect><rect width="37.551" height="40" transform="translate(132.133 111.898)" fill="#B6DDAD"></rect><g clip-path="url(#clip5_5041_97009)"><rect width="37" height="49" transform="translate(132.5 155)" fill="#B6DDAD"></rect><circle cx="172.5" cy="204" r="27" fill="#96CE89"></circle></g><g clip-path="url(#clip6_5041_97009)"><rect width="37.551" height="35.9184" transform="translate(172.949 67)" fill="#B6DDAD"></rect><circle cx="212" cy="107.5" r="23.5" fill="#96CE89"></circle></g><g clip-path="url(#clip7_5041_97009)"><rect width="38" height="61" transform="translate(172.5 106)" fill="#B6DDAD"></rect><rect x="168.5" y="164.405" width="43" height="43" transform="rotate(-45 168.5 164.405)" fill="#96CE89"></rect></g><rect width="38" height="61" transform="translate(172.5 170)" fill="#B6DDAD"></rect></g></g></g><defs><filter id="filter0_ddd_5041_97009" x="16.5" y="34" width="229" height="212" filterUnits="userSpaceOnUse" color-interpolation-filters="sRGB"><feFlood flood-opacity="0" result="BackgroundImageFix"></feFlood><feColorMatrix in="SourceAlpha" type="matrix" values="0 0 0 0 0 0 0 0 0 0 0 0 0 0 0 0 0 0 127 0" result="hardAlpha"></feColorMatrix><feOffset dy="6"></feOffset><feGaussianBlur stdDeviation="6.5"></feGaussianBlur><feColorMatrix type="matrix" values="0 0 0 0 0 0 0 0 0 0 0 0 0 0 0 0 0 0 0.03 0"></feColorMatrix><feBlend mode="normal" in2="BackgroundImageFix" result="effect1_dropShadow_5041_97009"></feBlend><feColorMatrix in="SourceAlpha" type="matrix" values="0 0 0 0 0 0 0 0 0 0 0 0 0 0 0 0 0 0 127 0" result="hardAlpha"></feColorMatrix><feOffset dy="1"></feOffset><feGaussianBlur stdDeviation="1"></feGaussianBlur><feColorMatrix type="matrix" values="0 0 0 0 0 0 0 0 0 0 0 0 0 0 0 0 0 0 0.11 0"></feColorMatrix><feBlend mode="normal" in2="effect1_dropShadow_5041_97009" result="effect2_dropShadow_5041_97009"></feBlend><feColorMatrix in="SourceAlpha" type="matrix" values="0 0 0 0 0 0 0 0 0 0 0 0 0 0 0 0 0 0 127 0" result="hardAlpha"></feColorMatrix><feOffset dy="3"></feOffset><feGaussianBlur stdDeviation="3"></feGaussianBlur><feColorMatrix type="matrix" values="0 0 0 0 0 0 0 0 0 0 0 0 0 0 0 0 0 0 0.04 0"></feColorMatrix><feBlend mode="normal" in2="effect2_dropShadow_5041_97009" result="effect3_dropShadow_5041_97009"></feBlend><feBlend mode="normal" in="SourceGraphic" in2="effect3_dropShadow_5041_97009" result="shape"></feBlend></filter><clipPath id="clip0_5041_97009"><rect width="262" height="200" fill="white" transform="translate(0.5)"></rect></clipPath><clipPath id="clip1_5041_97009"><rect x="29.5" y="41" width="203" height="186" rx="2" fill="white"></rect></clipPath><clipPath id="clip2_5041_97009"><rect width="37.551" height="45.7143" fill="white" transform="translate(50.5 106.184)"></rect></clipPath><clipPath id="clip3_5041_97009"><rect width="37.551" height="51.4286" fill="white" transform="translate(91.3164 67)"></rect></clipPath><clipPath id="clip4_5041_97009"><rect width="37" height="45" fill="white" transform="translate(91.5 122)"></rect></clipPath><clipPath id="clip5_5041_97009"><rect width="37" height="49" fill="white" transform="translate(132.5 155)"></rect></clipPath><clipPath id="clip6_5041_97009"><rect width="37.551" height="35.9184" fill="white" transform="translate(172.949 67)"></rect></clipPath><clipPath id="clip7_5041_97009"><rect width="38" height="61" fill="white" transform="translate(172.5 106)"></rect></clipPath></defs></svg> 