<?xml version="1.0" encoding="UTF-8"?> <svg xmlns="http://www.w3.org/2000/svg" width="262" height="200" viewBox="0 0 262 200" fill="none"><rect width="262" height="200" fill="#F3F4F5"></rect><path d="M40.647 39.8262H42.4666L44.5099 32.682H44.5895L46.6278 39.8262H48.4474L51.321 29.6444H49.3374L47.5028 37.1316H47.4134L45.4496 29.6444H43.6449L41.6861 37.1266H41.5916L39.7571 29.6444H37.7734L40.647 39.8262ZM55.1218 39.9753C56.9016 39.9753 58.1246 39.1053 58.4428 37.7779L56.7624 37.589C56.5188 38.2353 55.9222 38.5733 55.1467 38.5733C53.9833 38.5733 53.2127 37.8077 53.1978 36.5002H58.5174V35.9483C58.5174 33.2686 56.9066 32.0904 55.0273 32.0904C52.8398 32.0904 51.413 33.6962 51.413 36.0527C51.413 38.449 52.82 39.9753 55.1218 39.9753ZM53.2028 35.2871C53.2575 34.3127 53.9783 33.4924 55.0522 33.4924C56.0863 33.4924 56.7823 34.248 56.7923 35.2871H53.2028ZM61.5662 29.6444H60.1344V30.6685C60.1344 31.4789 59.8162 32.1003 59.4533 32.6472L60.2885 33.1891C61.0194 32.5826 61.5662 31.5385 61.5662 30.6586V29.6444ZM62.7333 39.8262H64.533V35.3368C64.533 34.3674 65.2638 33.6813 66.2532 33.6813C66.5565 33.6813 66.9343 33.736 67.0884 33.7857V32.1301C66.9244 32.1003 66.641 32.0804 66.4421 32.0804C65.5671 32.0804 64.8363 32.5776 64.5579 33.4625H64.4783V32.1898H62.7333V39.8262ZM71.3503 39.9753C73.1301 39.9753 74.3532 39.1053 74.6713 37.7779L72.9909 37.589C72.7473 38.2353 72.1507 38.5733 71.3752 38.5733C70.2118 38.5733 69.4412 37.8077 69.4263 36.5002H74.7459V35.9483C74.7459 33.2686 73.1351 32.0904 71.2559 32.0904C69.0684 32.0904 67.6415 33.6962 67.6415 36.0527C67.6415 38.449 69.0485 39.9753 71.3503 39.9753ZM69.4313 35.2871C69.486 34.3127 70.2069 33.4924 71.2807 33.4924C72.3148 33.4924 73.0108 34.248 73.0208 35.2871H69.4313ZM83.0721 39.9753C85.3093 39.9753 86.7312 38.3993 86.7312 36.0378C86.7312 33.6713 85.3093 32.0904 83.0721 32.0904C80.8349 32.0904 79.413 33.6713 79.413 36.0378C79.413 38.3993 80.8349 39.9753 83.0721 39.9753ZM83.082 38.5336C81.8441 38.5336 81.2376 37.4299 81.2376 36.0328C81.2376 34.6358 81.8441 33.5172 83.082 33.5172C84.3001 33.5172 84.9066 34.6358 84.9066 36.0328C84.9066 37.4299 84.3001 38.5336 83.082 38.5336ZM90.0584 35.3517C90.0584 34.248 90.7246 33.6117 91.6742 33.6117C92.6039 33.6117 93.1607 34.2232 93.1607 35.2424V39.8262H94.9604V34.964C94.9654 33.1344 93.9213 32.0904 92.3453 32.0904C91.2019 32.0904 90.4164 32.6373 90.0684 33.4874H89.9789V32.1898H88.2587V39.8262H90.0584V35.3517ZM100.342 39.8262H102.187V35.5009H106.417V33.9547H102.187V31.1905H106.865V29.6444H100.342V39.8262ZM110.595 39.9803C111.793 39.9803 112.509 39.4185 112.837 38.7772H112.897V39.8262H114.627V34.7154C114.627 32.6969 112.981 32.0904 111.525 32.0904C109.919 32.0904 108.686 32.8063 108.288 34.1983L109.968 34.437C110.147 33.915 110.654 33.4675 111.534 33.4675C112.37 33.4675 112.827 33.8951 112.827 34.6458V34.6756C112.827 35.1926 112.285 35.2175 110.938 35.3617C109.456 35.5208 108.039 35.9632 108.039 37.6834C108.039 39.1848 109.138 39.9803 110.595 39.9803ZM111.062 38.6578C110.311 38.6578 109.775 38.3148 109.775 37.6536C109.775 36.9625 110.376 36.6742 111.181 36.5598C111.654 36.4952 112.598 36.3759 112.832 36.187V37.0868C112.832 37.937 112.146 38.6578 111.062 38.6578ZM119.767 39.9753C121.686 39.9753 122.909 38.8368 123.039 37.2161H121.319C121.164 38.0364 120.573 38.5087 119.782 38.5087C118.659 38.5087 117.933 37.5691 117.933 36.008C117.933 34.4668 118.674 33.5421 119.782 33.5421C120.647 33.5421 121.179 34.0989 121.319 34.8347H123.039C122.914 33.1792 121.622 32.0904 119.757 32.0904C117.52 32.0904 116.108 33.7061 116.108 36.0378C116.108 38.3496 117.485 39.9753 119.767 39.9753ZM127.897 39.9753C129.677 39.9753 130.9 39.1053 131.218 37.7779L129.538 37.589C129.294 38.2353 128.698 38.5733 127.922 38.5733C126.759 38.5733 125.988 37.8077 125.973 36.5002H131.293V35.9483C131.293 33.2686 129.682 32.0904 127.803 32.0904C125.615 32.0904 124.188 33.6962 124.188 36.0527C124.188 38.449 125.595 39.9753 127.897 39.9753ZM125.978 35.2871C126.033 34.3127 126.754 33.4924 127.828 33.4924C128.862 33.4924 129.558 34.248 129.568 35.2871H125.978ZM132.895 39.8262H134.665V38.623H134.769C135.053 39.1799 135.644 39.9604 136.957 39.9604C138.756 39.9604 140.104 38.5336 140.104 36.0179C140.104 33.4725 138.717 32.0904 136.952 32.0904C135.604 32.0904 135.043 32.9007 134.769 33.4526H134.695V29.6444H132.895V39.8262ZM134.66 36.008C134.66 34.5265 135.296 33.5669 136.455 33.5669C137.653 33.5669 138.269 34.5861 138.269 36.008C138.269 37.4398 137.643 38.4838 136.455 38.4838C135.306 38.4838 134.66 37.4895 134.66 36.008ZM144.965 39.9753C147.202 39.9753 148.624 38.3993 148.624 36.0378C148.624 33.6713 147.202 32.0904 144.965 32.0904C142.727 32.0904 141.306 33.6713 141.306 36.0378C141.306 38.3993 142.727 39.9753 144.965 39.9753ZM144.975 38.5336C143.737 38.5336 143.13 37.4299 143.13 36.0328C143.13 34.6358 143.737 33.5172 144.975 33.5172C146.193 33.5172 146.799 34.6358 146.799 36.0328C146.799 37.4299 146.193 38.5336 144.975 38.5336ZM153.482 39.9753C155.719 39.9753 157.141 38.3993 157.141 36.0378C157.141 33.6713 155.719 32.0904 153.482 32.0904C151.245 32.0904 149.823 33.6713 149.823 36.0378C149.823 38.3993 151.245 39.9753 153.482 39.9753ZM153.492 38.5336C152.254 38.5336 151.648 37.4299 151.648 36.0328C151.648 34.6358 152.254 33.5172 153.492 33.5172C154.71 33.5172 155.317 34.6358 155.317 36.0328C155.317 37.4299 154.71 38.5336 153.492 38.5336ZM158.669 39.8262H160.469V37.2608L161.125 36.5598L163.461 39.8262H165.614L162.482 35.486L165.44 32.1898H163.337L160.593 35.2573H160.469V29.6444H158.669V39.8262ZM168.842 29.6444H166.918L167.077 36.8333H168.678L168.842 29.6444ZM167.877 39.9355C168.464 39.9355 168.966 39.4483 168.971 38.8418C168.966 38.2452 168.464 37.758 167.877 37.758C167.271 37.758 166.779 38.2452 166.784 38.8418C166.779 39.4483 167.271 39.9355 167.877 39.9355Z" fill="#141B38"></path><g clip-path="url(#clip0_5041_97100)"><rect width="188" height="108" transform="translate(37.5 52)" fill="#FFDF99"></rect><circle cx="35" cy="186.5" r="94.5" fill="#FFD066"></circle></g><defs><clipPath id="clip0_5041_97100"><rect width="188" height="108" fill="white" transform="translate(37.5 52)"></rect></clipPath></defs></svg> 