<?xml version="1.0" encoding="UTF-8"?> <svg xmlns="http://www.w3.org/2000/svg" width="263" height="200" viewBox="0 0 263 200" fill="none"><rect width="262" height="200" transform="translate(0.5)" fill="#FEF4EF"></rect><path d="M40.7564 45H42.576L44.6193 37.8558H44.6989L46.7372 45H48.5568L51.4304 34.8182H49.4467L47.6122 42.3054H47.5227L45.5589 34.8182H43.7543L41.7955 42.3004H41.701L39.8665 34.8182H37.8828L40.7564 45ZM55.2312 45.1491C57.011 45.1491 58.234 44.2791 58.5522 42.9517L56.8718 42.7628C56.6282 43.4091 56.0316 43.7472 55.256 43.7472C54.0927 43.7472 53.3221 42.9815 53.3072 41.674H58.6268V41.1222C58.6268 38.4425 57.016 37.2642 55.1367 37.2642C52.9492 37.2642 51.5224 38.87 51.5224 41.2266C51.5224 43.6229 52.9293 45.1491 55.2312 45.1491ZM53.3121 40.4609C53.3668 39.4865 54.0877 38.6662 55.1616 38.6662C56.1957 38.6662 56.8917 39.4219 56.9016 40.4609H53.3121ZM61.6756 34.8182H60.2438V35.8423C60.2438 36.6527 59.9256 37.2741 59.5627 37.821L60.3979 38.3629C61.1287 37.7564 61.6756 36.7124 61.6756 35.8324V34.8182ZM62.8427 45H64.6424V40.5107C64.6424 39.5412 65.3732 38.8551 66.3626 38.8551C66.6658 38.8551 67.0437 38.9098 67.1978 38.9595V37.304C67.0337 37.2741 66.7504 37.2543 66.5515 37.2543C65.6765 37.2543 64.9457 37.7514 64.6673 38.6364H64.5877V37.3636H62.8427V45ZM71.4597 45.1491C73.2395 45.1491 74.4625 44.2791 74.7807 42.9517L73.1003 42.7628C72.8567 43.4091 72.2601 43.7472 71.4846 43.7472C70.3212 43.7472 69.5506 42.9815 69.5357 41.674H74.8553V41.1222C74.8553 38.4425 73.2445 37.2642 71.3652 37.2642C69.1777 37.2642 67.7509 38.87 67.7509 41.2266C67.7509 43.6229 69.1578 45.1491 71.4597 45.1491ZM69.5407 40.4609C69.5953 39.4865 70.3162 38.6662 71.3901 38.6662C72.4242 38.6662 73.1202 39.4219 73.1301 40.4609H69.5407ZM83.1815 45.1491C85.4187 45.1491 86.8406 43.5732 86.8406 41.2116C86.8406 38.8452 85.4187 37.2642 83.1815 37.2642C80.9442 37.2642 79.5224 38.8452 79.5224 41.2116C79.5224 43.5732 80.9442 45.1491 83.1815 45.1491ZM83.1914 43.7074C81.9535 43.7074 81.3469 42.6037 81.3469 41.2067C81.3469 39.8097 81.9535 38.6911 83.1914 38.6911C84.4094 38.6911 85.016 39.8097 85.016 41.2067C85.016 42.6037 84.4094 43.7074 83.1914 43.7074ZM90.1678 40.5256C90.1678 39.4219 90.834 38.7855 91.7836 38.7855C92.7132 38.7855 93.2701 39.397 93.2701 40.4162V45H95.0698V40.1378C95.0748 38.3082 94.0307 37.2642 92.4547 37.2642C91.3113 37.2642 90.5257 37.8111 90.1777 38.6612H90.0882V37.3636H88.3681V45H90.1678V40.5256ZM100.452 45H102.296V40.6747H106.527V39.1286H102.296V36.3643H106.974V34.8182H100.452V45ZM110.704 45.1541C111.902 45.1541 112.618 44.5923 112.946 43.951H113.006V45H114.736V39.8892C114.736 37.8707 113.091 37.2642 111.634 37.2642C110.028 37.2642 108.795 37.9801 108.397 39.3722L110.078 39.6108C110.257 39.0888 110.764 38.6413 111.644 38.6413C112.479 38.6413 112.936 39.0689 112.936 39.8196V39.8494C112.936 40.3665 112.395 40.3913 111.047 40.5355C109.566 40.6946 108.149 41.1371 108.149 42.8572C108.149 44.3587 109.248 45.1541 110.704 45.1541ZM111.172 43.8317C110.421 43.8317 109.884 43.4886 109.884 42.8274C109.884 42.1364 110.485 41.848 111.291 41.7337C111.763 41.669 112.708 41.5497 112.941 41.3608V42.2607C112.941 43.1108 112.255 43.8317 111.172 43.8317ZM119.877 45.1491C121.796 45.1491 123.019 44.0107 123.148 42.3899H121.428C121.274 43.2102 120.682 43.6825 119.892 43.6825C118.768 43.6825 118.042 42.7429 118.042 41.1818C118.042 39.6406 118.783 38.7159 119.892 38.7159C120.757 38.7159 121.289 39.2727 121.428 40.0085H123.148C123.024 38.353 121.731 37.2642 119.867 37.2642C117.63 37.2642 116.218 38.88 116.218 41.2116C116.218 43.5234 117.595 45.1491 119.877 45.1491ZM128.007 45.1491C129.786 45.1491 131.009 44.2791 131.328 42.9517L129.647 42.7628C129.404 43.4091 128.807 43.7472 128.031 43.7472C126.868 43.7472 126.097 42.9815 126.083 41.674H131.402V41.1222C131.402 38.4425 129.791 37.2642 127.912 37.2642C125.725 37.2642 124.298 38.87 124.298 41.2266C124.298 43.6229 125.705 45.1491 128.007 45.1491ZM126.088 40.4609C126.142 39.4865 126.863 38.6662 127.937 38.6662C128.971 38.6662 129.667 39.4219 129.677 40.4609H126.088ZM133.004 45H134.774V43.7969H134.879C135.162 44.3537 135.754 45.1342 137.066 45.1342C138.866 45.1342 140.213 43.7074 140.213 41.1918C140.213 38.6463 138.826 37.2642 137.061 37.2642C135.714 37.2642 135.152 38.0746 134.879 38.6264H134.804V34.8182H133.004V45ZM134.769 41.1818C134.769 39.7003 135.406 38.7408 136.564 38.7408C137.762 38.7408 138.379 39.7599 138.379 41.1818C138.379 42.6136 137.752 43.6577 136.564 43.6577C135.415 43.6577 134.769 42.6634 134.769 41.1818ZM145.074 45.1491C147.311 45.1491 148.733 43.5732 148.733 41.2116C148.733 38.8452 147.311 37.2642 145.074 37.2642C142.837 37.2642 141.415 38.8452 141.415 41.2116C141.415 43.5732 142.837 45.1491 145.074 45.1491ZM145.084 43.7074C143.846 43.7074 143.24 42.6037 143.24 41.2067C143.24 39.8097 143.846 38.6911 145.084 38.6911C146.302 38.6911 146.909 39.8097 146.909 41.2067C146.909 42.6037 146.302 43.7074 145.084 43.7074ZM153.592 45.1491C155.829 45.1491 157.251 43.5732 157.251 41.2116C157.251 38.8452 155.829 37.2642 153.592 37.2642C151.354 37.2642 149.933 38.8452 149.933 41.2116C149.933 43.5732 151.354 45.1491 153.592 45.1491ZM153.602 43.7074C152.364 43.7074 151.757 42.6037 151.757 41.2067C151.757 39.8097 152.364 38.6911 153.602 38.6911C154.82 38.6911 155.426 39.8097 155.426 41.2067C155.426 42.6037 154.82 43.7074 153.602 43.7074ZM158.778 45H160.578V42.4347L161.234 41.7337L163.571 45H165.724L162.591 40.6598L165.55 37.3636H163.447L160.702 40.4311H160.578V34.8182H158.778V45ZM168.951 34.8182H167.027L167.186 42.0071H168.787L168.951 34.8182ZM167.987 45.1094C168.574 45.1094 169.076 44.6222 169.081 44.0156C169.076 43.419 168.574 42.9318 167.987 42.9318C167.38 42.9318 166.888 43.419 166.893 44.0156C166.888 44.6222 167.38 45.1094 167.987 45.1094Z" fill="#141B38"></path><circle cx="120.5" cy="159.174" r="2" fill="#2C324C"></circle><circle cx="128.5" cy="159.174" r="2" fill="#D0D1D7"></circle><circle cx="136.5" cy="159.174" r="2" fill="#D0D1D7"></circle><circle cx="144.5" cy="159.174" r="2" fill="#D0D1D7"></circle><circle cx="152.5" cy="159.174" r="2" fill="#D0D1D7"></circle><g clip-path="url(#clip0_5041_97109)"><rect x="37.5" y="57.1738" width="188" height="86" rx="2" fill="#F9BBA0"></rect><circle cx="52.5" cy="174.174" r="77" fill="#F6966B"></circle></g><defs><clipPath id="clip0_5041_97109"><rect x="37.5" y="57.1738" width="188" height="86" rx="2" fill="white"></rect></clipPath></defs></svg> 