<?xml version="1.0" encoding="UTF-8"?> <svg xmlns="http://www.w3.org/2000/svg" width="262" height="200" viewBox="0 0 262 200" fill="none"><g clip-path="url(#clip0_5041_96983)"><rect width="262" height="200" fill="#F3F4F5"></rect><g filter="url(#filter0_ddd_5041_96983)"><g clip-path="url(#clip1_5041_96983)"><rect x="30" y="41" width="203.304" height="196" rx="2" fill="white"></rect><g clip-path="url(#clip2_5041_96983)"><rect x="55" y="138.826" width="50.4154" height="50.4154" rx="0.900275" fill="#43A6DB"></rect><circle cx="104.868" cy="190.749" r="31.0595" fill="#86D0F9"></circle></g><rect x="55" y="191.434" width="50.4154" height="50.4154" rx="0.900275" fill="#43A6DB"></rect><rect x="107.605" y="138.826" width="51.5114" height="50.4154" rx="0.900275" fill="#43A6DB"></rect><g clip-path="url(#clip3_5041_96983)"><rect x="107.605" y="191.434" width="51.5114" height="50.4154" rx="0.900275" fill="#43A6DB"></rect></g><g clip-path="url(#clip4_5041_96983)"><rect x="161.312" y="138.826" width="50.4154" height="50.4154" rx="0.900275" fill="#43A6DB"></rect><rect x="163.836" y="191.409" width="42.3129" height="42.3129" transform="rotate(-45 163.836 191.409)" fill="#86D0F9"></rect></g><rect x="161.312" y="191.434" width="50.4154" height="50.4154" rx="0.900275" fill="#43A6DB"></rect><g clip-path="url(#clip5_5041_96983)"><rect x="55" y="59" width="157" height="48" rx="1" fill="#43A6DB"></rect><circle cx="201" cy="144" r="63" fill="#86D0F9"></circle></g><rect x="61.5" y="101.5" width="23" height="23" rx="1.5" fill="#86D0F9" stroke="white"></rect><rect x="91" y="113" width="38" height="3" rx="0.5" fill="#DCDDE1"></rect><rect x="91" y="119" width="27" height="3" rx="0.5" fill="#DCDDE1"></rect></g></g></g><defs><filter id="filter0_ddd_5041_96983" x="17" y="34" width="229.305" height="222" filterUnits="userSpaceOnUse" color-interpolation-filters="sRGB"><feFlood flood-opacity="0" result="BackgroundImageFix"></feFlood><feColorMatrix in="SourceAlpha" type="matrix" values="0 0 0 0 0 0 0 0 0 0 0 0 0 0 0 0 0 0 127 0" result="hardAlpha"></feColorMatrix><feOffset dy="6"></feOffset><feGaussianBlur stdDeviation="6.5"></feGaussianBlur><feColorMatrix type="matrix" values="0 0 0 0 0 0 0 0 0 0 0 0 0 0 0 0 0 0 0.03 0"></feColorMatrix><feBlend mode="normal" in2="BackgroundImageFix" result="effect1_dropShadow_5041_96983"></feBlend><feColorMatrix in="SourceAlpha" type="matrix" values="0 0 0 0 0 0 0 0 0 0 0 0 0 0 0 0 0 0 127 0" result="hardAlpha"></feColorMatrix><feOffset dy="1"></feOffset><feGaussianBlur stdDeviation="1"></feGaussianBlur><feColorMatrix type="matrix" values="0 0 0 0 0 0 0 0 0 0 0 0 0 0 0 0 0 0 0.11 0"></feColorMatrix><feBlend mode="normal" in2="effect1_dropShadow_5041_96983" result="effect2_dropShadow_5041_96983"></feBlend><feColorMatrix in="SourceAlpha" type="matrix" values="0 0 0 0 0 0 0 0 0 0 0 0 0 0 0 0 0 0 127 0" result="hardAlpha"></feColorMatrix><feOffset dy="3"></feOffset><feGaussianBlur stdDeviation="3"></feGaussianBlur><feColorMatrix type="matrix" values="0 0 0 0 0 0 0 0 0 0 0 0 0 0 0 0 0 0 0.04 0"></feColorMatrix><feBlend mode="normal" in2="effect2_dropShadow_5041_96983" result="effect3_dropShadow_5041_96983"></feBlend><feBlend mode="normal" in="SourceGraphic" in2="effect3_dropShadow_5041_96983" result="shape"></feBlend></filter><clipPath id="clip0_5041_96983"><rect width="262" height="200" fill="white"></rect></clipPath><clipPath id="clip1_5041_96983"><rect x="30" y="41" width="203.304" height="196" rx="2" fill="white"></rect></clipPath><clipPath id="clip2_5041_96983"><rect x="55" y="138.826" width="50.4154" height="50.4154" rx="0.900275" fill="white"></rect></clipPath><clipPath id="clip3_5041_96983"><rect x="107.605" y="191.434" width="51.5114" height="50.4154" rx="0.900275" fill="white"></rect></clipPath><clipPath id="clip4_5041_96983"><rect x="161.312" y="138.826" width="50.4154" height="50.4154" rx="0.900275" fill="white"></rect></clipPath><clipPath id="clip5_5041_96983"><rect x="55" y="59" width="157" height="48" rx="1" fill="white"></rect></clipPath></defs></svg> 