<?xml version="1.0" encoding="UTF-8"?> <svg xmlns="http://www.w3.org/2000/svg" width="207" height="129" viewBox="0 0 207 129" fill="none"><rect width="207" height="129" fill="#E2F5FF"></rect><g filter="url(#filter0_ddd_6431_95402)"><rect x="23.5" y="32.5" width="160" height="64" rx="2" fill="white"></rect></g><path d="M61.0044 42.8004C61.048 42.6917 61.202 42.6917 61.2456 42.8004L62.7757 46.6105C62.7942 46.6568 62.8377 46.6884 62.8875 46.6917L66.9839 46.9695C67.1008 46.9774 67.1484 47.1238 67.0584 47.199L63.9077 49.8315C63.8694 49.8635 63.8528 49.9145 63.8649 49.9629L64.8666 53.9447C64.8952 54.0583 64.7707 54.1488 64.6714 54.0865L61.1941 51.9034C61.1519 51.8769 61.0981 51.8769 61.0559 51.9034L57.5786 54.0865C57.4793 54.1488 57.3548 54.0583 57.3834 53.9447L58.3851 49.9629C58.3972 49.9145 58.3806 49.8635 58.3423 49.8315L55.1916 47.199C55.1016 47.1238 55.1492 46.9774 55.2661 46.9695L59.3625 46.6917C59.4123 46.6884 59.4558 46.6568 59.4743 46.6105L61.0044 42.8004Z" fill="#FE544F"></path><path d="M76.604 42.8004C76.6476 42.6917 76.8016 42.6917 76.8452 42.8004L78.3753 46.6105C78.3939 46.6568 78.4373 46.6884 78.4871 46.6917L82.5835 46.9695C82.7004 46.9774 82.748 47.1238 82.658 47.199L79.5073 49.8315C79.469 49.8635 79.4524 49.9145 79.4645 49.9629L80.4662 53.9447C80.4948 54.0583 80.3703 54.1488 80.271 54.0865L76.7937 51.9034C76.7515 51.8769 76.6977 51.8769 76.6555 51.9034L73.1782 54.0865C73.0789 54.1488 72.9544 54.0583 72.983 53.9447L73.9847 49.9629C73.9969 49.9145 73.9802 49.8635 73.942 49.8315L70.7912 47.199C70.7012 47.1238 70.7488 46.9774 70.8657 46.9695L74.9621 46.6917C75.0119 46.6884 75.0554 46.6568 75.074 46.6105L76.604 42.8004Z" fill="#FE544F"></path><path d="M92.2036 42.8004C92.2472 42.6917 92.4012 42.6917 92.4449 42.8004L93.9749 46.6105C93.9935 46.6568 94.0369 46.6884 94.0867 46.6917L98.1831 46.9695C98.3 46.9774 98.3476 47.1238 98.2577 47.199L95.1069 49.8315C95.0686 49.8635 95.052 49.9145 95.0642 49.9629L96.0658 53.9447C96.0944 54.0583 95.9699 54.1488 95.8706 54.0865L92.3933 51.9034C92.3511 51.8769 92.2974 51.8769 92.2551 51.9034L88.7778 54.0865C88.6785 54.1488 88.554 54.0583 88.5826 53.9447L89.5843 49.9629C89.5965 49.9145 89.5799 49.8635 89.5416 49.8315L86.3908 47.199C86.3009 47.1238 86.3484 46.9774 86.4653 46.9695L90.5617 46.6917C90.6115 46.6884 90.655 46.6568 90.6736 46.6105L92.2036 42.8004Z" fill="#FE544F"></path><path d="M107.805 42.8004C107.849 42.6917 108.003 42.6917 108.046 42.8004L109.576 46.6105C109.595 46.6568 109.638 46.6884 109.688 46.6917L113.785 46.9695C113.902 46.9774 113.949 47.1238 113.859 47.199L110.708 49.8315C110.67 49.8635 110.654 49.9145 110.666 49.9629L111.667 53.9447C111.696 54.0583 111.571 54.1488 111.472 54.0865L107.995 51.9034C107.953 51.8769 107.899 51.8769 107.857 51.9034L104.379 54.0865C104.28 54.1488 104.156 54.0583 104.184 53.9447L105.186 49.9629C105.198 49.9145 105.181 49.8635 105.143 49.8315L101.992 47.199C101.902 47.1238 101.95 46.9774 102.067 46.9695L106.163 46.6917C106.213 46.6884 106.257 46.6568 106.275 46.6105L107.805 42.8004Z" fill="#FE544F"></path><path d="M123.405 42.8004C123.448 42.6917 123.602 42.6917 123.646 42.8004L125.176 46.6105C125.195 46.6568 125.238 46.6884 125.288 46.6917L129.384 46.9695C129.501 46.9774 129.549 47.1238 129.459 47.199L126.308 49.8315C126.27 49.8635 126.253 49.9145 126.265 49.9629L127.267 53.9447C127.296 54.0583 127.171 54.1488 127.072 54.0865L123.595 51.9034C123.552 51.8769 123.499 51.8769 123.456 51.9034L119.979 54.0865C119.88 54.1488 119.755 54.0583 119.784 53.9447L120.785 49.9629C120.798 49.9145 120.781 49.8635 120.743 49.8315L117.592 47.199C117.502 47.1238 117.55 46.9774 117.667 46.9695L121.763 46.6917C121.813 46.6884 121.856 46.6568 121.875 46.6105L123.405 42.8004Z" fill="#FE544F"></path><rect x="54.625" y="65.5" width="70" height="7" fill="#D8DADD"></rect><rect x="54.625" y="78.5" width="43" height="7" fill="#D8DADD"></rect><circle cx="39" cy="49" r="6.5" fill="#D8DADD"></circle><defs><filter id="filter0_ddd_6431_95402" x="10.5" y="25.5" width="186" height="90" filterUnits="userSpaceOnUse" color-interpolation-filters="sRGB"><feFlood flood-opacity="0" result="BackgroundImageFix"></feFlood><feColorMatrix in="SourceAlpha" type="matrix" values="0 0 0 0 0 0 0 0 0 0 0 0 0 0 0 0 0 0 127 0" result="hardAlpha"></feColorMatrix><feOffset dy="6"></feOffset><feGaussianBlur stdDeviation="6.5"></feGaussianBlur><feColorMatrix type="matrix" values="0 0 0 0 0 0 0 0 0 0 0 0 0 0 0 0 0 0 0.03 0"></feColorMatrix><feBlend mode="normal" in2="BackgroundImageFix" result="effect1_dropShadow_6431_95402"></feBlend><feColorMatrix in="SourceAlpha" type="matrix" values="0 0 0 0 0 0 0 0 0 0 0 0 0 0 0 0 0 0 127 0" result="hardAlpha"></feColorMatrix><feOffset dy="1"></feOffset><feGaussianBlur stdDeviation="1"></feGaussianBlur><feColorMatrix type="matrix" values="0 0 0 0 0 0 0 0 0 0 0 0 0 0 0 0 0 0 0.11 0"></feColorMatrix><feBlend mode="normal" in2="effect1_dropShadow_6431_95402" result="effect2_dropShadow_6431_95402"></feBlend><feColorMatrix in="SourceAlpha" type="matrix" values="0 0 0 0 0 0 0 0 0 0 0 0 0 0 0 0 0 0 127 0" result="hardAlpha"></feColorMatrix><feOffset dy="3"></feOffset><feGaussianBlur stdDeviation="3"></feGaussianBlur><feColorMatrix type="matrix" values="0 0 0 0 0 0 0 0 0 0 0 0 0 0 0 0 0 0 0.04 0"></feColorMatrix><feBlend mode="normal" in2="effect2_dropShadow_6431_95402" result="effect3_dropShadow_6431_95402"></feBlend><feBlend mode="normal" in="SourceGraphic" in2="effect3_dropShadow_6431_95402" result="shape"></feBlend></filter></defs></svg> 