<?xml version="1.0" encoding="UTF-8"?> <svg xmlns="http://www.w3.org/2000/svg" width="17" height="16" fill="none"><path d="M8.853 14.793 7.767 12.24a14.037 14.037 0 0 0 2.933-1.513l-1.847 4.066ZM3.86 8.333 1.307 7.247 5.373 5.4A14.032 14.032 0 0 0 3.86 8.333Zm10.647-6.74s-3.3-1.414-7.074 2.36c-1.46 1.46-2.333 3.067-2.9 4.474-.186.5-.06 1.046.307 1.42l1.42 1.413a1.32 1.32 0 0 0 1.413.307 12.733 12.733 0 0 0 4.474-2.9c3.773-3.774 2.36-7.074 2.36-7.074ZM9.793 6.307a1.336 1.336 0 0 1 0-1.887c.52-.52 1.367-.52 1.887 0 .513.52.52 1.367 0 1.887s-1.367.52-1.887 0ZM4.927 14l1.76-1.76a2.037 2.037 0 0 1-.647-.3L3.987 14h.94ZM2.1 14h.94l2.513-2.507-.946-.94L2.1 13.06V14Zm0-1.887 2.06-2.053c-.14-.2-.24-.413-.3-.647l-1.76 1.76v.94Z" fill="#0068A0"></path></svg> 