<?xml version="1.0" encoding="UTF-8"?> <svg xmlns="http://www.w3.org/2000/svg" width="262" height="200" viewBox="0 0 262 200" fill="none"><rect width="262" height="200" fill="#FEF4EF"></rect><path d="M35.7564 49.8262H37.576L39.6193 42.682H39.6989L41.7372 49.8262H43.5568L46.4304 39.6444H44.4467L42.6122 47.1316H42.5227L40.5589 39.6444H38.7543L36.7955 47.1266H36.701L34.8665 39.6444H32.8828L35.7564 49.8262ZM50.2312 49.9753C52.011 49.9753 53.234 49.1053 53.5522 47.7779L51.8718 47.589C51.6282 48.2353 51.0316 48.5733 50.256 48.5733C49.0927 48.5733 48.3221 47.8077 48.3072 46.5002H53.6268V45.9483C53.6268 43.2686 52.016 42.0904 50.1367 42.0904C47.9492 42.0904 46.5224 43.6962 46.5224 46.0527C46.5224 48.449 47.9293 49.9753 50.2312 49.9753ZM48.3121 45.2871C48.3668 44.3127 49.0877 43.4924 50.1616 43.4924C51.1957 43.4924 51.8917 44.248 51.9016 45.2871H48.3121ZM56.6756 39.6444H55.2438V40.6685C55.2438 41.4789 54.9256 42.1003 54.5627 42.6472L55.3979 43.1891C56.1287 42.5826 56.6756 41.5385 56.6756 40.6586V39.6444ZM57.8427 49.8262H59.6424V45.3368C59.6424 44.3674 60.3732 43.6813 61.3626 43.6813C61.6658 43.6813 62.0437 43.736 62.1978 43.7857V42.1301C62.0337 42.1003 61.7504 42.0804 61.5515 42.0804C60.6765 42.0804 59.9457 42.5776 59.6673 43.4625H59.5877V42.1898H57.8427V49.8262ZM66.4597 49.9753C68.2395 49.9753 69.4625 49.1053 69.7807 47.7779L68.1003 47.589C67.8567 48.2353 67.2601 48.5733 66.4846 48.5733C65.3212 48.5733 64.5506 47.8077 64.5357 46.5002H69.8553V45.9483C69.8553 43.2686 68.2445 42.0904 66.3652 42.0904C64.1777 42.0904 62.7509 43.6962 62.7509 46.0527C62.7509 48.449 64.1578 49.9753 66.4597 49.9753ZM64.5407 45.2871C64.5953 44.3127 65.3162 43.4924 66.3901 43.4924C67.4242 43.4924 68.1202 44.248 68.1301 45.2871H64.5407ZM78.1815 49.9753C80.4187 49.9753 81.8406 48.3993 81.8406 46.0378C81.8406 43.6713 80.4187 42.0904 78.1815 42.0904C75.9442 42.0904 74.5224 43.6713 74.5224 46.0378C74.5224 48.3993 75.9442 49.9753 78.1815 49.9753ZM78.1914 48.5336C76.9535 48.5336 76.3469 47.4299 76.3469 46.0328C76.3469 44.6358 76.9535 43.5172 78.1914 43.5172C79.4094 43.5172 80.016 44.6358 80.016 46.0328C80.016 47.4299 79.4094 48.5336 78.1914 48.5336ZM85.1678 45.3517C85.1678 44.248 85.834 43.6117 86.7836 43.6117C87.7132 43.6117 88.2701 44.2232 88.2701 45.2424V49.8262H90.0698V44.964C90.0748 43.1344 89.0307 42.0904 87.4547 42.0904C86.3113 42.0904 85.5257 42.6373 85.1777 43.4874H85.0882V42.1898H83.3681V49.8262H85.1678V45.3517ZM95.4515 49.8262H97.296V45.5009H101.527V43.9547H97.296V41.1905H101.974V39.6444H95.4515V49.8262ZM105.704 49.9803C106.902 49.9803 107.618 49.4185 107.946 48.7772H108.006V49.8262H109.736V44.7154C109.736 42.6969 108.091 42.0904 106.634 42.0904C105.028 42.0904 103.795 42.8063 103.397 44.1983L105.078 44.437C105.257 43.915 105.764 43.4675 106.644 43.4675C107.479 43.4675 107.936 43.8951 107.936 44.6458V44.6756C107.936 45.1926 107.395 45.2175 106.047 45.3617C104.566 45.5208 103.149 45.9632 103.149 47.6834C103.149 49.1848 104.248 49.9803 105.704 49.9803ZM106.172 48.6578C105.421 48.6578 104.884 48.3148 104.884 47.6536C104.884 46.9625 105.485 46.6742 106.291 46.5598C106.763 46.4952 107.708 46.3759 107.941 46.187V47.0868C107.941 47.937 107.255 48.6578 106.172 48.6578ZM114.877 49.9753C116.796 49.9753 118.019 48.8368 118.148 47.2161H116.428C116.274 48.0364 115.682 48.5087 114.892 48.5087C113.768 48.5087 113.042 47.5691 113.042 46.008C113.042 44.4668 113.783 43.5421 114.892 43.5421C115.757 43.5421 116.289 44.0989 116.428 44.8347H118.148C118.024 43.1792 116.731 42.0904 114.867 42.0904C112.63 42.0904 111.218 43.7061 111.218 46.0378C111.218 48.3496 112.595 49.9753 114.877 49.9753ZM123.007 49.9753C124.786 49.9753 126.009 49.1053 126.328 47.7779L124.647 47.589C124.404 48.2353 123.807 48.5733 123.031 48.5733C121.868 48.5733 121.097 47.8077 121.083 46.5002H126.402V45.9483C126.402 43.2686 124.791 42.0904 122.912 42.0904C120.725 42.0904 119.298 43.6962 119.298 46.0527C119.298 48.449 120.705 49.9753 123.007 49.9753ZM121.088 45.2871C121.142 44.3127 121.863 43.4924 122.937 43.4924C123.971 43.4924 124.667 44.248 124.677 45.2871H121.088ZM128.004 49.8262H129.774V48.623H129.879C130.162 49.1799 130.754 49.9604 132.066 49.9604C133.866 49.9604 135.213 48.5336 135.213 46.0179C135.213 43.4725 133.826 42.0904 132.061 42.0904C130.714 42.0904 130.152 42.9007 129.879 43.4526H129.804V39.6444H128.004V49.8262ZM129.769 46.008C129.769 44.5265 130.406 43.5669 131.564 43.5669C132.762 43.5669 133.379 44.5861 133.379 46.008C133.379 47.4398 132.752 48.4838 131.564 48.4838C130.415 48.4838 129.769 47.4895 129.769 46.008ZM140.074 49.9753C142.311 49.9753 143.733 48.3993 143.733 46.0378C143.733 43.6713 142.311 42.0904 140.074 42.0904C137.837 42.0904 136.415 43.6713 136.415 46.0378C136.415 48.3993 137.837 49.9753 140.074 49.9753ZM140.084 48.5336C138.846 48.5336 138.24 47.4299 138.24 46.0328C138.24 44.6358 138.846 43.5172 140.084 43.5172C141.302 43.5172 141.909 44.6358 141.909 46.0328C141.909 47.4299 141.302 48.5336 140.084 48.5336ZM148.592 49.9753C150.829 49.9753 152.251 48.3993 152.251 46.0378C152.251 43.6713 150.829 42.0904 148.592 42.0904C146.354 42.0904 144.933 43.6713 144.933 46.0378C144.933 48.3993 146.354 49.9753 148.592 49.9753ZM148.602 48.5336C147.364 48.5336 146.757 47.4299 146.757 46.0328C146.757 44.6358 147.364 43.5172 148.602 43.5172C149.82 43.5172 150.426 44.6358 150.426 46.0328C150.426 47.4299 149.82 48.5336 148.602 48.5336ZM153.778 49.8262H155.578V47.2608L156.234 46.5598L158.571 49.8262H160.724L157.591 45.486L160.55 42.1898H158.447L155.702 45.2573H155.578V39.6444H153.778V49.8262ZM163.951 39.6444H162.027L162.186 46.8333H163.787L163.951 39.6444ZM162.987 49.9355C163.574 49.9355 164.076 49.4483 164.081 48.8418C164.076 48.2452 163.574 47.758 162.987 47.758C162.38 47.758 161.888 48.2452 161.893 48.8418C161.888 49.4483 162.38 49.9355 162.987 49.9355Z" fill="#141B38"></path><g clip-path="url(#clip0_5041_97125)"><rect x="33.5" y="69" width="61" height="66" rx="2" fill="#F9BBA0"></rect><circle cx="26.5" cy="141" r="43" fill="#F6966B"></circle></g><g clip-path="url(#clip1_5041_97125)"><rect x="98.5" y="69" width="62" height="66" rx="2" fill="#F9BBA0"></rect><rect x="87.5" y="152.74" width="76" height="76" transform="rotate(-45 87.5 152.74)" fill="#F6966B"></rect></g><g clip-path="url(#clip2_5041_97125)"><rect x="164.5" y="69" width="61" height="66" rx="2" fill="#F9BBA0"></rect><circle cx="222.5" cy="143" r="43" fill="#F6966B"></circle></g><circle cx="115.5" cy="154" r="2" fill="#2C324C"></circle><circle cx="123.5" cy="154" r="2" fill="#D0D1D7"></circle><circle cx="131.5" cy="154" r="2" fill="#D0D1D7"></circle><circle cx="139.5" cy="154" r="2" fill="#D0D1D7"></circle><circle cx="147.5" cy="154" r="2" fill="#D0D1D7"></circle><defs><clipPath id="clip0_5041_97125"><rect x="33.5" y="69" width="61" height="66" rx="2" fill="white"></rect></clipPath><clipPath id="clip1_5041_97125"><rect x="98.5" y="69" width="62" height="66" rx="2" fill="white"></rect></clipPath><clipPath id="clip2_5041_97125"><rect x="164.5" y="69" width="61" height="66" rx="2" fill="white"></rect></clipPath></defs></svg> 