<?xml version="1.0" encoding="UTF-8"?> <svg viewBox="0 0 13 17" fill="none"><path fill-rule="evenodd" clip-rule="evenodd" d="M5.83932 4.33552C4.69523 3.81557 3.50355 3.03908 2.39114 2.67764C2.78638 3.63091 3.11997 4.64653 3.46516 5.65042C2.77664 6.17368 1.9724 6.57989 1.20404 7.02245C1.85789 7.67608 2.78389 8.05444 3.52169 8.62317C2.93071 9.36069 1.76961 10.1272 1.48669 10.7956C2.71012 10.6406 4.13575 10.3892 5.27404 10.3382C5.52417 11.6097 5.65317 13.0038 6.0089 14.1685C6.53865 12.6272 7.01763 11.0344 7.6482 9.59503C8.62132 10.0021 9.80728 10.4984 10.7572 10.7384C10.0907 9.7927 9.48245 8.78807 8.89181 7.76564C9.76584 7.12506 10.6499 6.49463 11.4921 5.82189C10.3017 5.71097 9.06826 5.64347 7.81778 5.59325C7.61906 4.28876 7.67127 2.73053 7.36556 1.53428C6.903 2.51475 6.35713 3.41093 5.83932 4.33552ZM6.40459 15.1404C6.24738 15.8209 6.76536 16.1 6.68723 16.5124C6.17579 16.3342 5.79106 16.2426 5.10446 16.3409C5.12594 15.81 5.59809 15.7349 5.50015 15.0832C-1.81657 14.2419 -1.83127 0.870844 5.44362 0.0479086C14.5398 -0.981072 14.8252 14.9039 6.40459 15.1404Z"></path></svg> 