<?xml version="1.0" encoding="UTF-8"?> <svg xmlns="http://www.w3.org/2000/svg" width="263" height="200" viewBox="0 0 263 200" fill="none"><g clip-path="url(#clip0_5167_95450)"><rect width="262.5" height="200" fill="#F3F4F5"></rect><g filter="url(#filter0_dd_5167_95450)"><rect x="87" y="86" width="89" height="83.3481" rx="0.893854" fill="white"></rect><g clip-path="url(#clip1_5167_95450)"><rect x="91" y="90" width="81" height="50.89" rx="1" fill="#43A6DB"></rect><circle cx="106.5" cy="158.5" r="46.5" fill="#86D0F9"></circle></g><rect x="91" y="144.89" width="81" height="3" rx="0.5" fill="#D0D1D7"></rect><path d="M91 151.39C91 151.114 91.2239 150.89 91.5 150.89H123.5C123.776 150.89 124 151.114 124 151.39V153.39C124 153.666 123.776 153.89 123.5 153.89H91.5C91.2239 153.89 91 153.666 91 153.39V151.39Z" fill="#D0D1D7"></path><path d="M94.4131 162.168C94.4424 162.33 94.4204 162.483 94.3472 162.63C94.3545 162.718 94.3472 162.798 94.3252 162.886C94.3032 162.974 94.2666 163.055 94.2227 163.121C94.2153 163.34 94.1494 163.501 94.0176 163.619C93.8711 163.75 93.666 163.816 93.395 163.816H93.2339C93.0288 163.816 92.8384 163.794 92.6699 163.75C92.5674 163.729 92.4502 163.685 92.3037 163.626C92.2158 163.597 92.1499 163.567 92.1133 163.553C92.0474 163.538 91.9888 163.523 91.9302 163.523C91.9155 163.575 91.8862 163.619 91.8423 163.648C91.7983 163.685 91.7544 163.699 91.7031 163.699H91.2344C91.1685 163.699 91.1099 163.677 91.0659 163.633C91.022 163.589 91 163.531 91 163.465V161.707C91 161.648 91.022 161.59 91.0659 161.546C91.1099 161.502 91.1685 161.473 91.2344 161.473H91.9595C92.0034 161.429 92.0913 161.333 92.2085 161.18C92.3257 161.026 92.4062 160.923 92.4648 160.865C92.4795 160.85 92.5015 160.777 92.5308 160.652C92.5747 160.477 92.6187 160.352 92.6626 160.271C92.7358 160.14 92.8457 160.066 92.9849 160.066C93.2046 160.066 93.373 160.132 93.4976 160.25C93.6221 160.381 93.688 160.579 93.688 160.835C93.688 160.953 93.666 161.062 93.6221 161.172H93.8857C94.0615 161.172 94.208 161.238 94.3325 161.363C94.4497 161.495 94.5156 161.641 94.5156 161.802C94.5156 161.934 94.479 162.051 94.4131 162.168ZM93.9663 162.564C94.0396 162.491 94.0762 162.41 94.0762 162.315C94.0762 162.22 94.0542 162.139 94.0029 162.081C94.0322 162.081 94.0688 162.051 94.1055 161.993C94.1421 161.934 94.1641 161.875 94.1641 161.802C94.1641 161.736 94.1348 161.67 94.0835 161.612C94.0249 161.553 93.959 161.524 93.8857 161.524H93.124C93.124 161.465 93.1313 161.407 93.1606 161.341C93.168 161.312 93.1899 161.26 93.2266 161.187C93.2559 161.121 93.2852 161.07 93.2998 161.026C93.3218 160.967 93.3364 160.901 93.3364 160.835C93.3364 160.711 93.3218 160.616 93.2925 160.557C93.2339 160.469 93.1313 160.418 92.9849 160.418C92.9556 160.447 92.9336 160.491 92.9189 160.542C92.9043 160.572 92.897 160.623 92.8823 160.696C92.8604 160.799 92.8457 160.872 92.8311 160.916C92.8018 160.997 92.7578 161.062 92.7065 161.114C92.6626 161.158 92.5967 161.246 92.4941 161.377C92.3843 161.524 92.3037 161.626 92.2524 161.678C92.1572 161.78 92.0767 161.824 92.0181 161.824H91.9375V163.187C92.0181 163.187 92.106 163.201 92.2085 163.223C92.2671 163.238 92.355 163.267 92.4722 163.311C92.6187 163.362 92.7285 163.399 92.8091 163.414C92.9409 163.45 93.0654 163.465 93.1973 163.465H93.4683C93.6074 163.465 93.71 163.428 93.7832 163.355C93.8564 163.282 93.8857 163.157 93.8638 162.981C93.9224 162.952 93.959 162.894 93.9883 162.806C94.0103 162.718 94.0029 162.637 93.9663 162.564ZM91.6445 163.23C91.6445 163.187 91.6226 163.143 91.5933 163.106C91.5566 163.077 91.5127 163.055 91.4688 163.055C91.4175 163.055 91.3735 163.077 91.3442 163.106C91.3076 163.143 91.293 163.187 91.293 163.23C91.293 163.282 91.3076 163.326 91.3442 163.355C91.3735 163.392 91.4175 163.406 91.4688 163.406C91.5127 163.406 91.5566 163.392 91.5933 163.355C91.6226 163.326 91.6445 163.282 91.6445 163.23Z" fill="#434960"></path><path d="M101.257 161.458C101.323 161.531 101.359 161.612 101.359 161.707C101.359 161.81 101.323 161.89 101.257 161.956L99.9678 163.245C99.8945 163.318 99.8066 163.348 99.7114 163.348C99.6162 163.348 99.5356 163.318 99.4697 163.252C99.3965 163.187 99.3672 163.099 99.3672 162.996V162.425C99.0156 162.447 98.7593 162.491 98.5981 162.564C98.437 162.637 98.3491 162.747 98.3198 162.879C98.2979 162.996 98.3198 163.157 98.3857 163.362C98.415 163.465 98.4004 163.553 98.3491 163.641C98.2979 163.729 98.2246 163.78 98.1294 163.809C98.0342 163.838 97.9463 163.816 97.8584 163.758C97.6313 163.611 97.4556 163.436 97.3311 163.216C97.1992 162.996 97.1406 162.747 97.1406 162.483C97.1406 161.927 97.3823 161.531 97.873 161.29C98.2173 161.128 98.7153 161.033 99.3672 161.011V160.418C99.3672 160.315 99.3965 160.235 99.4697 160.169C99.5356 160.103 99.6162 160.066 99.7114 160.066C99.8066 160.066 99.8945 160.103 99.9678 160.169L101.257 161.458ZM99.7188 162.996L101.008 161.707L99.7188 160.418V161.355C99.2793 161.355 98.9277 161.377 98.6787 161.421C98.3052 161.48 98.0269 161.583 97.8364 161.729C97.6021 161.912 97.4922 162.161 97.4922 162.483C97.4922 162.71 97.5508 162.916 97.6753 163.091C97.7632 163.238 97.8877 163.362 98.0488 163.465C97.9316 163.099 97.9316 162.806 98.0562 162.586C98.1587 162.396 98.3638 162.256 98.6714 162.168C98.9204 162.103 99.272 162.066 99.7188 162.059V162.996Z" fill="#434960"></path><path d="M105.625 160.301C105.962 160.301 106.277 160.374 106.562 160.506C106.848 160.645 107.075 160.828 107.244 161.062C107.412 161.297 107.5 161.546 107.5 161.824C107.5 162.103 107.412 162.359 107.244 162.593C107.075 162.828 106.848 163.011 106.562 163.143C106.277 163.282 105.962 163.348 105.625 163.348C105.391 163.348 105.164 163.318 104.944 163.245C104.622 163.472 104.285 163.582 103.926 163.582C103.889 163.582 103.86 163.575 103.831 163.553C103.801 163.538 103.779 163.509 103.765 163.479C103.75 163.45 103.743 163.414 103.75 163.377C103.757 163.348 103.772 163.318 103.794 163.296C103.816 163.274 103.86 163.216 103.926 163.128C104.021 162.996 104.094 162.872 104.138 162.747C103.875 162.476 103.75 162.168 103.75 161.824C103.75 161.546 103.831 161.297 103.999 161.062C104.167 160.828 104.395 160.645 104.68 160.506C104.966 160.374 105.281 160.301 105.625 160.301ZM105.625 162.996C105.896 162.996 106.152 162.945 106.387 162.842C106.621 162.74 106.804 162.593 106.943 162.41C107.075 162.234 107.148 162.037 107.148 161.824C107.148 161.619 107.075 161.421 106.943 161.238C106.804 161.062 106.621 160.916 106.387 160.813C106.152 160.711 105.896 160.652 105.625 160.652C105.347 160.652 105.098 160.711 104.863 160.813C104.629 160.916 104.438 161.062 104.307 161.238C104.167 161.421 104.102 161.619 104.102 161.824C104.102 162.073 104.197 162.3 104.395 162.505L104.541 162.667L104.468 162.872C104.424 162.974 104.38 163.069 104.321 163.172C104.468 163.128 104.607 163.055 104.739 162.952L104.885 162.857L105.054 162.908C105.237 162.967 105.427 162.996 105.625 162.996Z" fill="#434960"></path></g><g filter="url(#filter1_dd_5167_95450)"><rect x="87" y="172.7" width="89" height="77.9235" rx="0.893854" fill="white"></rect><g clip-path="url(#clip2_5167_95450)"><rect x="91" y="176.7" width="81" height="50.89" rx="1" fill="#43A6DB"></rect><circle cx="106.5" cy="245.2" r="46.5" fill="#86D0F9"></circle><g clip-path="url(#clip3_5167_95450)"><rect x="91" y="176.7" width="89" height="50.89" rx="1" fill="#43A6DB"></rect><rect x="53.8203" y="240.621" width="67" height="67" transform="rotate(-45 53.8203 240.621)" fill="#86D0F9"></rect></g></g></g><rect x="87" y="31" width="88.3125" height="27" rx="1" fill="#43A6DB"></rect><rect x="93.5" y="52.5" width="23" height="23" rx="1.5" fill="#86D0F9" stroke="white"></rect><rect x="123" y="64" width="38" height="3" rx="0.5" fill="#D0D1D7"></rect><rect x="123" y="70" width="27" height="3" rx="0.5" fill="#D0D1D7"></rect></g><defs><filter id="filter0_dd_5167_95450" x="85.8827" y="85.7765" width="91.2346" height="85.5823" filterUnits="userSpaceOnUse" color-interpolation-filters="sRGB"><feFlood flood-opacity="0" result="BackgroundImageFix"></feFlood><feColorMatrix in="SourceAlpha" type="matrix" values="0 0 0 0 0 0 0 0 0 0 0 0 0 0 0 0 0 0 127 0" result="hardAlpha"></feColorMatrix><feOffset dy="0.893854"></feOffset><feGaussianBlur stdDeviation="0.558659"></feGaussianBlur><feColorMatrix type="matrix" values="0 0 0 0 0 0 0 0 0 0 0 0 0 0 0 0 0 0 0.05 0"></feColorMatrix><feBlend mode="normal" in2="BackgroundImageFix" result="effect1_dropShadow_5167_95450"></feBlend><feColorMatrix in="SourceAlpha" type="matrix" values="0 0 0 0 0 0 0 0 0 0 0 0 0 0 0 0 0 0 127 0" result="hardAlpha"></feColorMatrix><feOffset dy="0.223464"></feOffset><feGaussianBlur stdDeviation="0.223464"></feGaussianBlur><feColorMatrix type="matrix" values="0 0 0 0 0 0 0 0 0 0 0 0 0 0 0 0 0 0 0.05 0"></feColorMatrix><feBlend mode="normal" in2="effect1_dropShadow_5167_95450" result="effect2_dropShadow_5167_95450"></feBlend><feBlend mode="normal" in="SourceGraphic" in2="effect2_dropShadow_5167_95450" result="shape"></feBlend></filter><filter id="filter1_dd_5167_95450" x="85.8827" y="172.477" width="91.2346" height="80.1585" filterUnits="userSpaceOnUse" color-interpolation-filters="sRGB"><feFlood flood-opacity="0" result="BackgroundImageFix"></feFlood><feColorMatrix in="SourceAlpha" type="matrix" values="0 0 0 0 0 0 0 0 0 0 0 0 0 0 0 0 0 0 127 0" result="hardAlpha"></feColorMatrix><feOffset dy="0.893854"></feOffset><feGaussianBlur stdDeviation="0.558659"></feGaussianBlur><feColorMatrix type="matrix" values="0 0 0 0 0 0 0 0 0 0 0 0 0 0 0 0 0 0 0.05 0"></feColorMatrix><feBlend mode="normal" in2="BackgroundImageFix" result="effect1_dropShadow_5167_95450"></feBlend><feColorMatrix in="SourceAlpha" type="matrix" values="0 0 0 0 0 0 0 0 0 0 0 0 0 0 0 0 0 0 127 0" result="hardAlpha"></feColorMatrix><feOffset dy="0.223464"></feOffset><feGaussianBlur stdDeviation="0.223464"></feGaussianBlur><feColorMatrix type="matrix" values="0 0 0 0 0 0 0 0 0 0 0 0 0 0 0 0 0 0 0.05 0"></feColorMatrix><feBlend mode="normal" in2="effect1_dropShadow_5167_95450" result="effect2_dropShadow_5167_95450"></feBlend><feBlend mode="normal" in="SourceGraphic" in2="effect2_dropShadow_5167_95450" result="shape"></feBlend></filter><clipPath id="clip0_5167_95450"><rect width="262.5" height="200" fill="white"></rect></clipPath><clipPath id="clip1_5167_95450"><rect x="91" y="90" width="81" height="50.89" rx="1" fill="white"></rect></clipPath><clipPath id="clip2_5167_95450"><rect x="91" y="176.7" width="81" height="50.89" rx="1" fill="white"></rect></clipPath><clipPath id="clip3_5167_95450"><rect x="91" y="176.7" width="89" height="50.89" rx="1" fill="white"></rect></clipPath></defs></svg> 