<?xml version="1.0" encoding="UTF-8"?> <svg xmlns="http://www.w3.org/2000/svg" width="263" height="200" viewBox="0 0 263 200" fill="none"><g clip-path="url(#clip0_5167_95309)"><rect width="262" height="200" transform="translate(0.5)" fill="#F3F4F5"></rect><g filter="url(#filter0_dd_5167_95309)"><rect x="34" y="33" width="63.6871" height="97" rx="0.893854" fill="white"></rect><circle cx="42" cy="41" r="4" fill="#DCDDE1"></circle><rect x="50" y="38" width="18.4925" height="2" rx="0.40201" fill="#DCDDE1"></rect><rect x="50" y="42" width="11.2563" height="2" rx="0.40201" fill="#DCDDE1"></rect><rect x="38" y="51" width="55.6871" height="3" rx="0.5" fill="#D0D1D7"></rect><path d="M38 57.5C38 57.2239 38.2239 57 38.5 57H70.5C70.7761 57 71 57.2239 71 57.5V59.5C71 59.7761 70.7761 60 70.5 60H38.5C38.2239 60 38 59.7761 38 59.5V57.5Z" fill="#D0D1D7"></path><g clip-path="url(#clip1_5167_95309)"><rect width="55.6871" height="52" transform="translate(38 66)" fill="#B6DDAD"></rect><circle cx="21.5" cy="136.5" r="54.5" fill="#96CE89"></circle></g><path d="M41.4131 123.821C41.4424 123.982 41.4204 124.136 41.3472 124.282C41.3545 124.37 41.3472 124.451 41.3252 124.539C41.3032 124.626 41.2666 124.707 41.2227 124.773C41.2153 124.993 41.1494 125.154 41.0176 125.271C40.8711 125.403 40.666 125.469 40.395 125.469H40.2339C40.0288 125.469 39.8384 125.447 39.6699 125.403C39.5674 125.381 39.4502 125.337 39.3037 125.278C39.2158 125.249 39.1499 125.22 39.1133 125.205C39.0474 125.19 38.9888 125.176 38.9302 125.176C38.9155 125.227 38.8862 125.271 38.8423 125.3C38.7983 125.337 38.7544 125.352 38.7031 125.352H38.2344C38.1685 125.352 38.1099 125.33 38.0659 125.286C38.022 125.242 38 125.183 38 125.117V123.359C38 123.301 38.022 123.242 38.0659 123.198C38.1099 123.154 38.1685 123.125 38.2344 123.125H38.9595C39.0034 123.081 39.0913 122.986 39.2085 122.832C39.3257 122.678 39.4062 122.576 39.4648 122.517C39.4795 122.502 39.5015 122.429 39.5308 122.305C39.5747 122.129 39.6187 122.004 39.6626 121.924C39.7358 121.792 39.8457 121.719 39.9849 121.719C40.2046 121.719 40.373 121.785 40.4976 121.902C40.6221 122.034 40.688 122.231 40.688 122.488C40.688 122.605 40.666 122.715 40.6221 122.825H40.8857C41.0615 122.825 41.208 122.891 41.3325 123.015C41.4497 123.147 41.5156 123.293 41.5156 123.455C41.5156 123.586 41.479 123.704 41.4131 123.821ZM40.9663 124.216C41.0396 124.143 41.0762 124.062 41.0762 123.967C41.0762 123.872 41.0542 123.792 41.0029 123.733C41.0322 123.733 41.0688 123.704 41.1055 123.645C41.1421 123.586 41.1641 123.528 41.1641 123.455C41.1641 123.389 41.1348 123.323 41.0835 123.264C41.0249 123.206 40.959 123.176 40.8857 123.176H40.124C40.124 123.118 40.1313 123.059 40.1606 122.993C40.168 122.964 40.1899 122.913 40.2266 122.839C40.2559 122.773 40.2852 122.722 40.2998 122.678C40.3218 122.62 40.3364 122.554 40.3364 122.488C40.3364 122.363 40.3218 122.268 40.2925 122.209C40.2339 122.122 40.1313 122.07 39.9849 122.07C39.9556 122.1 39.9336 122.144 39.9189 122.195C39.9043 122.224 39.897 122.275 39.8823 122.349C39.8604 122.451 39.8457 122.524 39.8311 122.568C39.8018 122.649 39.7578 122.715 39.7065 122.766C39.6626 122.81 39.5967 122.898 39.4941 123.03C39.3843 123.176 39.3037 123.279 39.2524 123.33C39.1572 123.433 39.0767 123.477 39.0181 123.477H38.9375V124.839C39.0181 124.839 39.106 124.854 39.2085 124.875C39.2671 124.89 39.355 124.919 39.4722 124.963C39.6187 125.015 39.7285 125.051 39.8091 125.066C39.9409 125.103 40.0654 125.117 40.1973 125.117H40.4683C40.6074 125.117 40.71 125.081 40.7832 125.007C40.8564 124.934 40.8857 124.81 40.8638 124.634C40.9224 124.604 40.959 124.546 40.9883 124.458C41.0103 124.37 41.0029 124.29 40.9663 124.216ZM38.6445 124.883C38.6445 124.839 38.6226 124.795 38.5933 124.758C38.5566 124.729 38.5127 124.707 38.4688 124.707C38.4175 124.707 38.3735 124.729 38.3442 124.758C38.3076 124.795 38.293 124.839 38.293 124.883C38.293 124.934 38.3076 124.978 38.3442 125.007C38.3735 125.044 38.4175 125.059 38.4688 125.059C38.5127 125.059 38.5566 125.044 38.5933 125.007C38.6226 124.978 38.6445 124.934 38.6445 124.883Z" fill="#434960"></path><path d="M48.2568 123.11C48.3228 123.184 48.3594 123.264 48.3594 123.359C48.3594 123.462 48.3228 123.542 48.2568 123.608L46.9678 124.897C46.8945 124.971 46.8066 125 46.7114 125C46.6162 125 46.5356 124.971 46.4697 124.905C46.3965 124.839 46.3672 124.751 46.3672 124.648V124.077C46.0156 124.099 45.7593 124.143 45.5981 124.216C45.437 124.29 45.3491 124.399 45.3198 124.531C45.2979 124.648 45.3198 124.81 45.3857 125.015C45.415 125.117 45.4004 125.205 45.3491 125.293C45.2979 125.381 45.2246 125.432 45.1294 125.461C45.0342 125.491 44.9463 125.469 44.8584 125.41C44.6313 125.264 44.4556 125.088 44.3311 124.868C44.1992 124.648 44.1406 124.399 44.1406 124.136C44.1406 123.579 44.3823 123.184 44.873 122.942C45.2173 122.781 45.7153 122.686 46.3672 122.664V122.07C46.3672 121.968 46.3965 121.887 46.4697 121.821C46.5356 121.755 46.6162 121.719 46.7114 121.719C46.8066 121.719 46.8945 121.755 46.9678 121.821L48.2568 123.11ZM46.7188 124.648L48.0078 123.359L46.7188 122.07V123.008C46.2793 123.008 45.9277 123.03 45.6787 123.074C45.3052 123.132 45.0269 123.235 44.8364 123.381C44.6021 123.564 44.4922 123.813 44.4922 124.136C44.4922 124.363 44.5508 124.568 44.6753 124.744C44.7632 124.89 44.8877 125.015 45.0488 125.117C44.9316 124.751 44.9316 124.458 45.0562 124.238C45.1587 124.048 45.3638 123.909 45.6714 123.821C45.9204 123.755 46.272 123.718 46.7188 123.711V124.648Z" fill="#434960"></path><path d="M52.625 121.953C52.9619 121.953 53.2769 122.026 53.5625 122.158C53.8481 122.297 54.0752 122.48 54.2437 122.715C54.4121 122.949 54.5 123.198 54.5 123.477C54.5 123.755 54.4121 124.011 54.2437 124.246C54.0752 124.48 53.8481 124.663 53.5625 124.795C53.2769 124.934 52.9619 125 52.625 125C52.3906 125 52.1636 124.971 51.9438 124.897C51.6216 125.125 51.2847 125.234 50.9258 125.234C50.8892 125.234 50.8599 125.227 50.8306 125.205C50.8013 125.19 50.7793 125.161 50.7646 125.132C50.75 125.103 50.7427 125.066 50.75 125.029C50.7573 125 50.772 124.971 50.7939 124.949C50.8159 124.927 50.8599 124.868 50.9258 124.78C51.021 124.648 51.0942 124.524 51.1382 124.399C50.8745 124.128 50.75 123.821 50.75 123.477C50.75 123.198 50.8306 122.949 50.999 122.715C51.1675 122.48 51.3945 122.297 51.6802 122.158C51.9658 122.026 52.2808 121.953 52.625 121.953ZM52.625 124.648C52.896 124.648 53.1523 124.597 53.3867 124.495C53.6211 124.392 53.8042 124.246 53.9434 124.062C54.0752 123.887 54.1484 123.689 54.1484 123.477C54.1484 123.271 54.0752 123.074 53.9434 122.891C53.8042 122.715 53.6211 122.568 53.3867 122.466C53.1523 122.363 52.896 122.305 52.625 122.305C52.3467 122.305 52.0977 122.363 51.8633 122.466C51.6289 122.568 51.4385 122.715 51.3066 122.891C51.1675 123.074 51.1016 123.271 51.1016 123.477C51.1016 123.726 51.1968 123.953 51.3945 124.158L51.541 124.319L51.4678 124.524C51.4238 124.626 51.3799 124.722 51.3213 124.824C51.4678 124.78 51.6069 124.707 51.7388 124.604L51.8853 124.509L52.0537 124.561C52.2368 124.619 52.4272 124.648 52.625 124.648Z" fill="#434960"></path></g><g filter="url(#filter1_dd_5167_95309)"><rect x="34" y="134" width="63.6871" height="95.5754" rx="0.893854" fill="white"></rect><circle cx="42" cy="142" r="4" fill="#DCDDE1"></circle><rect x="50" y="139" width="18.4925" height="2" rx="0.40201" fill="#DCDDE1"></rect><rect x="50" y="143" width="11.2563" height="2" rx="0.40201" fill="#DCDDE1"></rect><rect x="38" y="152" width="55.6871" height="3" rx="0.5" fill="#D0D1D7"></rect><path d="M38 158.5C38 158.224 38.2239 158 38.5 158H70.5C70.7761 158 71 158.224 71 158.5V160.5C71 160.776 70.7761 161 70.5 161H38.5C38.2239 161 38 160.776 38 160.5V158.5Z" fill="#D0D1D7"></path><g clip-path="url(#clip2_5167_95309)"><rect width="55.6871" height="52" transform="translate(38 167)" fill="#B6DDAD"></rect><circle cx="101.5" cy="252.5" r="54.5" fill="#96CE89"></circle></g></g><g filter="url(#filter2_dd_5167_95309)"><rect x="102.156" y="33.001" width="63.6871" height="85" rx="0.893854" fill="white"></rect><circle cx="110.156" cy="41.001" r="4" fill="#DCDDE1"></circle><rect x="118.156" y="38.001" width="18.4925" height="2" rx="0.40201" fill="#DCDDE1"></rect><rect x="118.156" y="42.001" width="11.2563" height="2" rx="0.40201" fill="#DCDDE1"></rect><rect x="106.156" y="51.001" width="55.6871" height="3" rx="0.5" fill="#D0D1D7"></rect><path d="M106.156 57.501C106.156 57.2248 106.38 57.001 106.656 57.001H138.656C138.932 57.001 139.156 57.2248 139.156 57.501V59.501C139.156 59.7771 138.932 60.001 138.656 60.001H106.656C106.38 60.001 106.156 59.7771 106.156 59.501V57.501Z" fill="#D0D1D7"></path><g clip-path="url(#clip3_5167_95309)"><rect width="55.6871" height="40" transform="translate(106.156 66.001)" fill="#B6DDAD"></rect><rect x="115" y="114.5" width="55" height="55" transform="rotate(-45 115 114.5)" fill="#96CE89"></rect><rect x="126" y="78" width="16.9832" height="16.9832" rx="8.49161" fill="white"></rect><path d="M132.48 84.3958C132.48 84.2296 132.655 84.1216 132.804 84.1959L137.667 86.6276C137.832 86.71 137.832 86.945 137.667 87.0273L132.804 89.4591C132.655 89.5334 132.48 89.4253 132.48 89.2592V84.3958Z" fill="black"></path></g><path d="M109.569 111.822C109.599 111.983 109.577 112.137 109.503 112.283C109.511 112.371 109.503 112.452 109.481 112.54C109.459 112.627 109.423 112.708 109.379 112.774C109.372 112.994 109.306 113.155 109.174 113.272C109.027 113.404 108.822 113.47 108.551 113.47H108.39C108.185 113.47 107.995 113.448 107.826 113.404C107.724 113.382 107.606 113.338 107.46 113.279C107.372 113.25 107.306 113.221 107.27 113.206C107.204 113.191 107.145 113.177 107.086 113.177C107.072 113.228 107.042 113.272 106.999 113.301C106.955 113.338 106.911 113.353 106.859 113.353H106.391C106.325 113.353 106.266 113.331 106.222 113.287C106.178 113.243 106.156 113.184 106.156 113.118V111.36C106.156 111.302 106.178 111.243 106.222 111.199C106.266 111.155 106.325 111.126 106.391 111.126H107.116C107.16 111.082 107.248 110.987 107.365 110.833C107.482 110.679 107.562 110.577 107.621 110.518C107.636 110.503 107.658 110.43 107.687 110.306C107.731 110.13 107.775 110.005 107.819 109.925C107.892 109.793 108.002 109.72 108.141 109.72C108.361 109.72 108.529 109.786 108.654 109.903C108.778 110.035 108.844 110.232 108.844 110.489C108.844 110.606 108.822 110.716 108.778 110.826H109.042C109.218 110.826 109.364 110.892 109.489 111.016C109.606 111.148 109.672 111.294 109.672 111.456C109.672 111.587 109.635 111.705 109.569 111.822ZM109.123 112.217C109.196 112.144 109.232 112.063 109.232 111.968C109.232 111.873 109.21 111.792 109.159 111.734C109.188 111.734 109.225 111.705 109.262 111.646C109.298 111.587 109.32 111.529 109.32 111.456C109.32 111.39 109.291 111.324 109.24 111.265C109.181 111.207 109.115 111.177 109.042 111.177H108.28C108.28 111.119 108.288 111.06 108.317 110.994C108.324 110.965 108.346 110.914 108.383 110.84C108.412 110.774 108.441 110.723 108.456 110.679C108.478 110.621 108.493 110.555 108.493 110.489C108.493 110.364 108.478 110.269 108.449 110.21C108.39 110.123 108.288 110.071 108.141 110.071C108.112 110.101 108.09 110.145 108.075 110.196C108.061 110.225 108.053 110.276 108.039 110.35C108.017 110.452 108.002 110.525 107.987 110.569C107.958 110.65 107.914 110.716 107.863 110.767C107.819 110.811 107.753 110.899 107.65 111.031C107.541 111.177 107.46 111.28 107.409 111.331C107.313 111.434 107.233 111.478 107.174 111.478H107.094V112.84C107.174 112.84 107.262 112.854 107.365 112.876C107.423 112.891 107.511 112.92 107.628 112.964C107.775 113.016 107.885 113.052 107.965 113.067C108.097 113.104 108.222 113.118 108.354 113.118H108.625C108.764 113.118 108.866 113.082 108.939 113.008C109.013 112.935 109.042 112.811 109.02 112.635C109.079 112.605 109.115 112.547 109.145 112.459C109.167 112.371 109.159 112.291 109.123 112.217ZM106.801 112.884C106.801 112.84 106.779 112.796 106.75 112.759C106.713 112.73 106.669 112.708 106.625 112.708C106.574 112.708 106.53 112.73 106.5 112.759C106.464 112.796 106.449 112.84 106.449 112.884C106.449 112.935 106.464 112.979 106.5 113.008C106.53 113.045 106.574 113.06 106.625 113.06C106.669 113.06 106.713 113.045 106.75 113.008C106.779 112.979 106.801 112.935 106.801 112.884Z" fill="#434960"></path><path d="M116.413 111.111C116.479 111.185 116.516 111.265 116.516 111.36C116.516 111.463 116.479 111.543 116.413 111.609L115.124 112.898C115.051 112.972 114.963 113.001 114.868 113.001C114.772 113.001 114.692 112.972 114.626 112.906C114.553 112.84 114.523 112.752 114.523 112.649V112.078C114.172 112.1 113.916 112.144 113.754 112.217C113.593 112.291 113.505 112.4 113.476 112.532C113.454 112.649 113.476 112.811 113.542 113.016C113.571 113.118 113.557 113.206 113.505 113.294C113.454 113.382 113.381 113.433 113.286 113.462C113.19 113.492 113.103 113.47 113.015 113.411C112.788 113.265 112.612 113.089 112.487 112.869C112.355 112.649 112.297 112.4 112.297 112.137C112.297 111.58 112.539 111.185 113.029 110.943C113.374 110.782 113.872 110.687 114.523 110.665V110.071C114.523 109.969 114.553 109.888 114.626 109.822C114.692 109.756 114.772 109.72 114.868 109.72C114.963 109.72 115.051 109.756 115.124 109.822L116.413 111.111ZM114.875 112.649L116.164 111.36L114.875 110.071V111.009C114.436 111.009 114.084 111.031 113.835 111.075C113.461 111.133 113.183 111.236 112.993 111.382C112.758 111.565 112.648 111.814 112.648 112.137C112.648 112.364 112.707 112.569 112.832 112.745C112.919 112.891 113.044 113.016 113.205 113.118C113.088 112.752 113.088 112.459 113.212 112.239C113.315 112.049 113.52 111.91 113.828 111.822C114.077 111.756 114.428 111.719 114.875 111.712V112.649Z" fill="#434960"></path><path d="M120.781 109.954C121.118 109.954 121.433 110.027 121.719 110.159C122.004 110.298 122.231 110.481 122.4 110.716C122.568 110.95 122.656 111.199 122.656 111.478C122.656 111.756 122.568 112.012 122.4 112.247C122.231 112.481 122.004 112.664 121.719 112.796C121.433 112.935 121.118 113.001 120.781 113.001C120.547 113.001 120.32 112.972 120.1 112.898C119.778 113.125 119.441 113.235 119.082 113.235C119.045 113.235 119.016 113.228 118.987 113.206C118.958 113.191 118.936 113.162 118.921 113.133C118.906 113.104 118.899 113.067 118.906 113.03C118.914 113.001 118.928 112.972 118.95 112.95C118.972 112.928 119.016 112.869 119.082 112.781C119.177 112.649 119.25 112.525 119.294 112.4C119.031 112.129 118.906 111.822 118.906 111.478C118.906 111.199 118.987 110.95 119.155 110.716C119.324 110.481 119.551 110.298 119.836 110.159C120.122 110.027 120.437 109.954 120.781 109.954ZM120.781 112.649C121.052 112.649 121.309 112.598 121.543 112.496C121.777 112.393 121.96 112.247 122.1 112.063C122.231 111.888 122.305 111.69 122.305 111.478C122.305 111.272 122.231 111.075 122.1 110.892C121.96 110.716 121.777 110.569 121.543 110.467C121.309 110.364 121.052 110.306 120.781 110.306C120.503 110.306 120.254 110.364 120.02 110.467C119.785 110.569 119.595 110.716 119.463 110.892C119.324 111.075 119.258 111.272 119.258 111.478C119.258 111.727 119.353 111.954 119.551 112.159L119.697 112.32L119.624 112.525C119.58 112.627 119.536 112.723 119.478 112.825C119.624 112.781 119.763 112.708 119.895 112.605L120.042 112.51L120.21 112.562C120.393 112.62 120.583 112.649 120.781 112.649Z" fill="#434960"></path></g><g filter="url(#filter3_dd_5167_95309)"><rect x="102.156" y="122.001" width="63.6871" height="107.575" rx="0.893854" fill="white"></rect><circle cx="110.156" cy="130.001" r="4" fill="#DCDDE1"></circle><rect x="118.156" y="127.001" width="18.4925" height="2" rx="0.40201" fill="#DCDDE1"></rect><rect x="118.156" y="131.001" width="11.2563" height="2" rx="0.40201" fill="#DCDDE1"></rect><rect x="106.156" y="140.001" width="55.6871" height="3" rx="0.5" fill="#D0D1D7"></rect><path d="M106.156 146.501C106.156 146.225 106.38 146.001 106.656 146.001H138.656C138.932 146.001 139.156 146.225 139.156 146.501V148.501C139.156 148.777 138.932 149.001 138.656 149.001H106.656C106.38 149.001 106.156 148.777 106.156 148.501V146.501Z" fill="#D0D1D7"></path><g clip-path="url(#clip4_5167_95309)"><rect width="55.6871" height="64" transform="translate(106.156 155.001)" fill="#B6DDAD"></rect><circle cx="114" cy="224.559" r="30" fill="#96CE89"></circle></g></g><g filter="url(#filter4_dd_5167_95309)"><rect x="170.312" y="33.001" width="63.6871" height="103" rx="0.893854" fill="white"></rect><circle cx="178.312" cy="41.001" r="4" fill="#DCDDE1"></circle><rect x="186.312" y="38.001" width="18.4925" height="2" rx="0.40201" fill="#DCDDE1"></rect><rect x="186.312" y="42.001" width="11.2563" height="2" rx="0.40201" fill="#DCDDE1"></rect><rect x="174.312" y="51.001" width="55.6871" height="3" rx="0.5" fill="#D0D1D7"></rect><path d="M174.312 57.501C174.312 57.2248 174.536 57.001 174.812 57.001H206.812C207.089 57.001 207.312 57.2248 207.312 57.501V59.501C207.312 59.7771 207.089 60.001 206.812 60.001H174.812C174.536 60.001 174.312 59.7771 174.312 59.501V57.501Z" fill="#D0D1D7"></path><g clip-path="url(#clip5_5167_95309)"><rect width="55.6871" height="58" transform="translate(174.312 66.001)" fill="#B6DDAD"></rect><circle cx="238.125" cy="135.502" r="54.5" fill="#96CE89"></circle></g><path d="M177.726 129.822C177.755 129.983 177.733 130.137 177.66 130.283C177.667 130.371 177.66 130.452 177.638 130.54C177.616 130.627 177.579 130.708 177.535 130.774C177.528 130.994 177.462 131.155 177.33 131.272C177.184 131.404 176.979 131.47 176.708 131.47H176.546C176.341 131.47 176.151 131.448 175.982 131.404C175.88 131.382 175.763 131.338 175.616 131.279C175.528 131.25 175.462 131.221 175.426 131.206C175.36 131.191 175.301 131.177 175.243 131.177C175.228 131.228 175.199 131.272 175.155 131.301C175.111 131.338 175.067 131.353 175.016 131.353H174.547C174.481 131.353 174.422 131.331 174.378 131.287C174.334 131.243 174.312 131.184 174.312 131.118V129.36C174.312 129.302 174.334 129.243 174.378 129.199C174.422 129.155 174.481 129.126 174.547 129.126H175.272C175.316 129.082 175.404 128.987 175.521 128.833C175.638 128.679 175.719 128.577 175.777 128.518C175.792 128.503 175.814 128.43 175.843 128.306C175.887 128.13 175.931 128.005 175.975 127.925C176.048 127.793 176.158 127.72 176.297 127.72C176.517 127.72 176.686 127.786 176.81 127.903C176.935 128.035 177 128.232 177 128.489C177 128.606 176.979 128.716 176.935 128.826H177.198C177.374 128.826 177.521 128.892 177.645 129.016C177.762 129.148 177.828 129.294 177.828 129.456C177.828 129.587 177.792 129.705 177.726 129.822ZM177.279 130.217C177.352 130.144 177.389 130.063 177.389 129.968C177.389 129.873 177.367 129.792 177.315 129.734C177.345 129.734 177.381 129.705 177.418 129.646C177.455 129.587 177.477 129.529 177.477 129.456C177.477 129.39 177.447 129.324 177.396 129.265C177.337 129.207 177.271 129.177 177.198 129.177H176.437C176.437 129.119 176.444 129.06 176.473 128.994C176.48 128.965 176.502 128.914 176.539 128.84C176.568 128.774 176.598 128.723 176.612 128.679C176.634 128.621 176.649 128.555 176.649 128.489C176.649 128.364 176.634 128.269 176.605 128.21C176.546 128.123 176.444 128.071 176.297 128.071C176.268 128.101 176.246 128.145 176.231 128.196C176.217 128.225 176.209 128.276 176.195 128.35C176.173 128.452 176.158 128.525 176.144 128.569C176.114 128.65 176.07 128.716 176.019 128.767C175.975 128.811 175.909 128.899 175.807 129.031C175.697 129.177 175.616 129.28 175.565 129.331C175.47 129.434 175.389 129.478 175.331 129.478H175.25V130.84C175.331 130.84 175.418 130.854 175.521 130.876C175.58 130.891 175.667 130.92 175.785 130.964C175.931 131.016 176.041 131.052 176.122 131.067C176.253 131.104 176.378 131.118 176.51 131.118H176.781C176.92 131.118 177.022 131.082 177.096 131.008C177.169 130.935 177.198 130.811 177.176 130.635C177.235 130.605 177.271 130.547 177.301 130.459C177.323 130.371 177.315 130.291 177.279 130.217ZM174.957 130.884C174.957 130.84 174.935 130.796 174.906 130.759C174.869 130.73 174.825 130.708 174.781 130.708C174.73 130.708 174.686 130.73 174.657 130.759C174.62 130.796 174.605 130.84 174.605 130.884C174.605 130.935 174.62 130.979 174.657 131.008C174.686 131.045 174.73 131.06 174.781 131.06C174.825 131.06 174.869 131.045 174.906 131.008C174.935 130.979 174.957 130.935 174.957 130.884Z" fill="#434960"></path><path d="M184.569 129.111C184.635 129.185 184.672 129.265 184.672 129.36C184.672 129.463 184.635 129.543 184.569 129.609L183.28 130.898C183.207 130.972 183.119 131.001 183.024 131.001C182.929 131.001 182.848 130.972 182.782 130.906C182.709 130.84 182.68 130.752 182.68 130.649V130.078C182.328 130.1 182.072 130.144 181.911 130.217C181.75 130.291 181.662 130.4 181.632 130.532C181.61 130.649 181.632 130.811 181.698 131.016C181.728 131.118 181.713 131.206 181.662 131.294C181.61 131.382 181.537 131.433 181.442 131.462C181.347 131.492 181.259 131.47 181.171 131.411C180.944 131.265 180.768 131.089 180.644 130.869C180.512 130.649 180.453 130.4 180.453 130.137C180.453 129.58 180.695 129.185 181.186 128.943C181.53 128.782 182.028 128.687 182.68 128.665V128.071C182.68 127.969 182.709 127.888 182.782 127.822C182.848 127.756 182.929 127.72 183.024 127.72C183.119 127.72 183.207 127.756 183.28 127.822L184.569 129.111ZM183.031 130.649L184.32 129.36L183.031 128.071V129.009C182.592 129.009 182.24 129.031 181.991 129.075C181.618 129.133 181.339 129.236 181.149 129.382C180.915 129.565 180.805 129.814 180.805 130.137C180.805 130.364 180.863 130.569 180.988 130.745C181.076 130.891 181.2 131.016 181.361 131.118C181.244 130.752 181.244 130.459 181.369 130.239C181.471 130.049 181.676 129.91 181.984 129.822C182.233 129.756 182.584 129.719 183.031 129.712V130.649Z" fill="#434960"></path><path d="M188.938 127.954C189.274 127.954 189.589 128.027 189.875 128.159C190.161 128.298 190.388 128.481 190.556 128.716C190.725 128.95 190.812 129.199 190.812 129.478C190.812 129.756 190.725 130.012 190.556 130.247C190.388 130.481 190.161 130.664 189.875 130.796C189.589 130.935 189.274 131.001 188.938 131.001C188.703 131.001 188.476 130.972 188.256 130.898C187.934 131.125 187.597 131.235 187.238 131.235C187.202 131.235 187.172 131.228 187.143 131.206C187.114 131.191 187.092 131.162 187.077 131.133C187.062 131.104 187.055 131.067 187.062 131.03C187.07 131.001 187.084 130.972 187.106 130.95C187.128 130.928 187.172 130.869 187.238 130.781C187.333 130.649 187.407 130.525 187.451 130.4C187.187 130.129 187.062 129.822 187.062 129.478C187.062 129.199 187.143 128.95 187.312 128.716C187.48 128.481 187.707 128.298 187.993 128.159C188.278 128.027 188.593 127.954 188.938 127.954ZM188.938 130.649C189.208 130.649 189.465 130.598 189.699 130.496C189.934 130.393 190.117 130.247 190.256 130.063C190.388 129.888 190.461 129.69 190.461 129.478C190.461 129.272 190.388 129.075 190.256 128.892C190.117 128.716 189.934 128.569 189.699 128.467C189.465 128.364 189.208 128.306 188.938 128.306C188.659 128.306 188.41 128.364 188.176 128.467C187.941 128.569 187.751 128.716 187.619 128.892C187.48 129.075 187.414 129.272 187.414 129.478C187.414 129.727 187.509 129.954 187.707 130.159L187.854 130.32L187.78 130.525C187.736 130.627 187.692 130.723 187.634 130.825C187.78 130.781 187.919 130.708 188.051 130.605L188.198 130.51L188.366 130.562C188.549 130.62 188.74 130.649 188.938 130.649Z" fill="#434960"></path></g><g filter="url(#filter5_dd_5167_95309)"><rect x="170.312" y="140.001" width="63.6871" height="46" rx="0.893854" fill="white"></rect><circle cx="178.312" cy="148.001" r="4" fill="#DCDDE1"></circle><rect x="186.312" y="145.001" width="18.4925" height="2" rx="0.40201" fill="#DCDDE1"></rect><rect x="186.312" y="149.001" width="11.2563" height="2" rx="0.40201" fill="#DCDDE1"></rect><rect x="174.312" y="158.001" width="55.6871" height="3" rx="0.5" fill="#D0D1D7"></rect><path d="M174.312 164.501C174.312 164.225 174.536 164.001 174.812 164.001H206.812C207.089 164.001 207.312 164.225 207.312 164.501V166.501C207.312 166.777 207.089 167.001 206.812 167.001H174.812C174.536 167.001 174.312 166.777 174.312 166.501V164.501Z" fill="#D0D1D7"></path><path d="M177.726 178.822C177.755 178.983 177.733 179.137 177.66 179.283C177.667 179.371 177.66 179.452 177.638 179.54C177.616 179.627 177.579 179.708 177.535 179.774C177.528 179.994 177.462 180.155 177.33 180.272C177.184 180.404 176.979 180.47 176.708 180.47H176.546C176.341 180.47 176.151 180.448 175.982 180.404C175.88 180.382 175.763 180.338 175.616 180.279C175.528 180.25 175.462 180.221 175.426 180.206C175.36 180.191 175.301 180.177 175.243 180.177C175.228 180.228 175.199 180.272 175.155 180.301C175.111 180.338 175.067 180.353 175.016 180.353H174.547C174.481 180.353 174.422 180.331 174.378 180.287C174.334 180.243 174.312 180.184 174.312 180.118V178.36C174.312 178.302 174.334 178.243 174.378 178.199C174.422 178.155 174.481 178.126 174.547 178.126H175.272C175.316 178.082 175.404 177.987 175.521 177.833C175.638 177.679 175.719 177.577 175.777 177.518C175.792 177.503 175.814 177.43 175.843 177.306C175.887 177.13 175.931 177.005 175.975 176.925C176.048 176.793 176.158 176.72 176.297 176.72C176.517 176.72 176.686 176.786 176.81 176.903C176.935 177.035 177 177.232 177 177.489C177 177.606 176.979 177.716 176.935 177.826H177.198C177.374 177.826 177.521 177.892 177.645 178.016C177.762 178.148 177.828 178.294 177.828 178.456C177.828 178.587 177.792 178.705 177.726 178.822ZM177.279 179.217C177.352 179.144 177.389 179.063 177.389 178.968C177.389 178.873 177.367 178.792 177.315 178.734C177.345 178.734 177.381 178.705 177.418 178.646C177.455 178.587 177.477 178.529 177.477 178.456C177.477 178.39 177.447 178.324 177.396 178.265C177.337 178.207 177.271 178.177 177.198 178.177H176.437C176.437 178.119 176.444 178.06 176.473 177.994C176.48 177.965 176.502 177.914 176.539 177.84C176.568 177.774 176.598 177.723 176.612 177.679C176.634 177.621 176.649 177.555 176.649 177.489C176.649 177.364 176.634 177.269 176.605 177.21C176.546 177.123 176.444 177.071 176.297 177.071C176.268 177.101 176.246 177.145 176.231 177.196C176.217 177.225 176.209 177.276 176.195 177.35C176.173 177.452 176.158 177.525 176.144 177.569C176.114 177.65 176.07 177.716 176.019 177.767C175.975 177.811 175.909 177.899 175.807 178.031C175.697 178.177 175.616 178.28 175.565 178.331C175.47 178.434 175.389 178.478 175.331 178.478H175.25V179.84C175.331 179.84 175.418 179.854 175.521 179.876C175.58 179.891 175.667 179.92 175.785 179.964C175.931 180.016 176.041 180.052 176.122 180.067C176.253 180.104 176.378 180.118 176.51 180.118H176.781C176.92 180.118 177.022 180.082 177.096 180.008C177.169 179.935 177.198 179.811 177.176 179.635C177.235 179.605 177.271 179.547 177.301 179.459C177.323 179.371 177.315 179.291 177.279 179.217ZM174.957 179.884C174.957 179.84 174.935 179.796 174.906 179.759C174.869 179.73 174.825 179.708 174.781 179.708C174.73 179.708 174.686 179.73 174.657 179.759C174.62 179.796 174.605 179.84 174.605 179.884C174.605 179.935 174.62 179.979 174.657 180.008C174.686 180.045 174.73 180.06 174.781 180.06C174.825 180.06 174.869 180.045 174.906 180.008C174.935 179.979 174.957 179.935 174.957 179.884Z" fill="#434960"></path><path d="M184.569 178.111C184.635 178.185 184.672 178.265 184.672 178.36C184.672 178.463 184.635 178.543 184.569 178.609L183.28 179.898C183.207 179.972 183.119 180.001 183.024 180.001C182.929 180.001 182.848 179.972 182.782 179.906C182.709 179.84 182.68 179.752 182.68 179.649V179.078C182.328 179.1 182.072 179.144 181.911 179.217C181.75 179.291 181.662 179.4 181.632 179.532C181.61 179.649 181.632 179.811 181.698 180.016C181.728 180.118 181.713 180.206 181.662 180.294C181.61 180.382 181.537 180.433 181.442 180.462C181.347 180.492 181.259 180.47 181.171 180.411C180.944 180.265 180.768 180.089 180.644 179.869C180.512 179.649 180.453 179.4 180.453 179.137C180.453 178.58 180.695 178.185 181.186 177.943C181.53 177.782 182.028 177.687 182.68 177.665V177.071C182.68 176.969 182.709 176.888 182.782 176.822C182.848 176.756 182.929 176.72 183.024 176.72C183.119 176.72 183.207 176.756 183.28 176.822L184.569 178.111ZM183.031 179.649L184.32 178.36L183.031 177.071V178.009C182.592 178.009 182.24 178.031 181.991 178.075C181.618 178.133 181.339 178.236 181.149 178.382C180.915 178.565 180.805 178.814 180.805 179.137C180.805 179.364 180.863 179.569 180.988 179.745C181.076 179.891 181.2 180.016 181.361 180.118C181.244 179.752 181.244 179.459 181.369 179.239C181.471 179.049 181.676 178.91 181.984 178.822C182.233 178.756 182.584 178.719 183.031 178.712V179.649Z" fill="#434960"></path><path d="M188.938 176.954C189.274 176.954 189.589 177.027 189.875 177.159C190.161 177.298 190.388 177.481 190.556 177.716C190.725 177.95 190.812 178.199 190.812 178.478C190.812 178.756 190.725 179.012 190.556 179.247C190.388 179.481 190.161 179.664 189.875 179.796C189.589 179.935 189.274 180.001 188.938 180.001C188.703 180.001 188.476 179.972 188.256 179.898C187.934 180.125 187.597 180.235 187.238 180.235C187.202 180.235 187.172 180.228 187.143 180.206C187.114 180.191 187.092 180.162 187.077 180.133C187.062 180.104 187.055 180.067 187.062 180.03C187.07 180.001 187.084 179.972 187.106 179.95C187.128 179.928 187.172 179.869 187.238 179.781C187.333 179.649 187.407 179.525 187.451 179.4C187.187 179.129 187.062 178.822 187.062 178.478C187.062 178.199 187.143 177.95 187.312 177.716C187.48 177.481 187.707 177.298 187.993 177.159C188.278 177.027 188.593 176.954 188.938 176.954ZM188.938 179.649C189.208 179.649 189.465 179.598 189.699 179.496C189.934 179.393 190.117 179.247 190.256 179.063C190.388 178.888 190.461 178.69 190.461 178.478C190.461 178.272 190.388 178.075 190.256 177.892C190.117 177.716 189.934 177.569 189.699 177.467C189.465 177.364 189.208 177.306 188.938 177.306C188.659 177.306 188.41 177.364 188.176 177.467C187.941 177.569 187.751 177.716 187.619 177.892C187.48 178.075 187.414 178.272 187.414 178.478C187.414 178.727 187.509 178.954 187.707 179.159L187.854 179.32L187.78 179.525C187.736 179.627 187.692 179.723 187.634 179.825C187.78 179.781 187.919 179.708 188.051 179.605L188.198 179.51L188.366 179.562C188.549 179.62 188.74 179.649 188.938 179.649Z" fill="#434960"></path></g><g filter="url(#filter6_dd_5167_95309)"><g clip-path="url(#clip6_5167_95309)"><rect x="170.312" y="190.001" width="63.6871" height="101.229" rx="0.893854" fill="white"></rect><rect x="170.312" y="190.001" width="63.6871" height="76.648" fill="#B6DDAD"></rect></g><rect x="170.424" y="190.113" width="63.4636" height="101.005" rx="0.782122" stroke="#F3F4F5" stroke-width="0.223464"></rect></g></g><defs><filter id="filter0_dd_5167_95309" x="32.8827" y="32.7765" width="65.9221" height="99.2346" filterUnits="userSpaceOnUse" color-interpolation-filters="sRGB"><feFlood flood-opacity="0" result="BackgroundImageFix"></feFlood><feColorMatrix in="SourceAlpha" type="matrix" values="0 0 0 0 0 0 0 0 0 0 0 0 0 0 0 0 0 0 127 0" result="hardAlpha"></feColorMatrix><feOffset dy="0.893854"></feOffset><feGaussianBlur stdDeviation="0.558659"></feGaussianBlur><feColorMatrix type="matrix" values="0 0 0 0 0 0 0 0 0 0 0 0 0 0 0 0 0 0 0.05 0"></feColorMatrix><feBlend mode="normal" in2="BackgroundImageFix" result="effect1_dropShadow_5167_95309"></feBlend><feColorMatrix in="SourceAlpha" type="matrix" values="0 0 0 0 0 0 0 0 0 0 0 0 0 0 0 0 0 0 127 0" result="hardAlpha"></feColorMatrix><feOffset dy="0.223464"></feOffset><feGaussianBlur stdDeviation="0.223464"></feGaussianBlur><feColorMatrix type="matrix" values="0 0 0 0 0 0 0 0 0 0 0 0 0 0 0 0 0 0 0.05 0"></feColorMatrix><feBlend mode="normal" in2="effect1_dropShadow_5167_95309" result="effect2_dropShadow_5167_95309"></feBlend><feBlend mode="normal" in="SourceGraphic" in2="effect2_dropShadow_5167_95309" result="shape"></feBlend></filter><filter id="filter1_dd_5167_95309" x="32.8827" y="133.777" width="65.9221" height="97.8098" filterUnits="userSpaceOnUse" color-interpolation-filters="sRGB"><feFlood flood-opacity="0" result="BackgroundImageFix"></feFlood><feColorMatrix in="SourceAlpha" type="matrix" values="0 0 0 0 0 0 0 0 0 0 0 0 0 0 0 0 0 0 127 0" result="hardAlpha"></feColorMatrix><feOffset dy="0.893854"></feOffset><feGaussianBlur stdDeviation="0.558659"></feGaussianBlur><feColorMatrix type="matrix" values="0 0 0 0 0 0 0 0 0 0 0 0 0 0 0 0 0 0 0.05 0"></feColorMatrix><feBlend mode="normal" in2="BackgroundImageFix" result="effect1_dropShadow_5167_95309"></feBlend><feColorMatrix in="SourceAlpha" type="matrix" values="0 0 0 0 0 0 0 0 0 0 0 0 0 0 0 0 0 0 127 0" result="hardAlpha"></feColorMatrix><feOffset dy="0.223464"></feOffset><feGaussianBlur stdDeviation="0.223464"></feGaussianBlur><feColorMatrix type="matrix" values="0 0 0 0 0 0 0 0 0 0 0 0 0 0 0 0 0 0 0.05 0"></feColorMatrix><feBlend mode="normal" in2="effect1_dropShadow_5167_95309" result="effect2_dropShadow_5167_95309"></feBlend><feBlend mode="normal" in="SourceGraphic" in2="effect2_dropShadow_5167_95309" result="shape"></feBlend></filter><filter id="filter2_dd_5167_95309" x="101.039" y="32.7775" width="65.9221" height="87.2346" filterUnits="userSpaceOnUse" color-interpolation-filters="sRGB"><feFlood flood-opacity="0" result="BackgroundImageFix"></feFlood><feColorMatrix in="SourceAlpha" type="matrix" values="0 0 0 0 0 0 0 0 0 0 0 0 0 0 0 0 0 0 127 0" result="hardAlpha"></feColorMatrix><feOffset dy="0.893854"></feOffset><feGaussianBlur stdDeviation="0.558659"></feGaussianBlur><feColorMatrix type="matrix" values="0 0 0 0 0 0 0 0 0 0 0 0 0 0 0 0 0 0 0.05 0"></feColorMatrix><feBlend mode="normal" in2="BackgroundImageFix" result="effect1_dropShadow_5167_95309"></feBlend><feColorMatrix in="SourceAlpha" type="matrix" values="0 0 0 0 0 0 0 0 0 0 0 0 0 0 0 0 0 0 127 0" result="hardAlpha"></feColorMatrix><feOffset dy="0.223464"></feOffset><feGaussianBlur stdDeviation="0.223464"></feGaussianBlur><feColorMatrix type="matrix" values="0 0 0 0 0 0 0 0 0 0 0 0 0 0 0 0 0 0 0.05 0"></feColorMatrix><feBlend mode="normal" in2="effect1_dropShadow_5167_95309" result="effect2_dropShadow_5167_95309"></feBlend><feBlend mode="normal" in="SourceGraphic" in2="effect2_dropShadow_5167_95309" result="shape"></feBlend></filter><filter id="filter3_dd_5167_95309" x="101.039" y="121.778" width="65.9221" height="109.81" filterUnits="userSpaceOnUse" color-interpolation-filters="sRGB"><feFlood flood-opacity="0" result="BackgroundImageFix"></feFlood><feColorMatrix in="SourceAlpha" type="matrix" values="0 0 0 0 0 0 0 0 0 0 0 0 0 0 0 0 0 0 127 0" result="hardAlpha"></feColorMatrix><feOffset dy="0.893854"></feOffset><feGaussianBlur stdDeviation="0.558659"></feGaussianBlur><feColorMatrix type="matrix" values="0 0 0 0 0 0 0 0 0 0 0 0 0 0 0 0 0 0 0.05 0"></feColorMatrix><feBlend mode="normal" in2="BackgroundImageFix" result="effect1_dropShadow_5167_95309"></feBlend><feColorMatrix in="SourceAlpha" type="matrix" values="0 0 0 0 0 0 0 0 0 0 0 0 0 0 0 0 0 0 127 0" result="hardAlpha"></feColorMatrix><feOffset dy="0.223464"></feOffset><feGaussianBlur stdDeviation="0.223464"></feGaussianBlur><feColorMatrix type="matrix" values="0 0 0 0 0 0 0 0 0 0 0 0 0 0 0 0 0 0 0.05 0"></feColorMatrix><feBlend mode="normal" in2="effect1_dropShadow_5167_95309" result="effect2_dropShadow_5167_95309"></feBlend><feBlend mode="normal" in="SourceGraphic" in2="effect2_dropShadow_5167_95309" result="shape"></feBlend></filter><filter id="filter4_dd_5167_95309" x="169.195" y="32.7775" width="65.9221" height="105.235" filterUnits="userSpaceOnUse" color-interpolation-filters="sRGB"><feFlood flood-opacity="0" result="BackgroundImageFix"></feFlood><feColorMatrix in="SourceAlpha" type="matrix" values="0 0 0 0 0 0 0 0 0 0 0 0 0 0 0 0 0 0 127 0" result="hardAlpha"></feColorMatrix><feOffset dy="0.893854"></feOffset><feGaussianBlur stdDeviation="0.558659"></feGaussianBlur><feColorMatrix type="matrix" values="0 0 0 0 0 0 0 0 0 0 0 0 0 0 0 0 0 0 0.05 0"></feColorMatrix><feBlend mode="normal" in2="BackgroundImageFix" result="effect1_dropShadow_5167_95309"></feBlend><feColorMatrix in="SourceAlpha" type="matrix" values="0 0 0 0 0 0 0 0 0 0 0 0 0 0 0 0 0 0 127 0" result="hardAlpha"></feColorMatrix><feOffset dy="0.223464"></feOffset><feGaussianBlur stdDeviation="0.223464"></feGaussianBlur><feColorMatrix type="matrix" values="0 0 0 0 0 0 0 0 0 0 0 0 0 0 0 0 0 0 0.05 0"></feColorMatrix><feBlend mode="normal" in2="effect1_dropShadow_5167_95309" result="effect2_dropShadow_5167_95309"></feBlend><feBlend mode="normal" in="SourceGraphic" in2="effect2_dropShadow_5167_95309" result="shape"></feBlend></filter><filter id="filter5_dd_5167_95309" x="169.195" y="139.778" width="65.9221" height="48.2346" filterUnits="userSpaceOnUse" color-interpolation-filters="sRGB"><feFlood flood-opacity="0" result="BackgroundImageFix"></feFlood><feColorMatrix in="SourceAlpha" type="matrix" values="0 0 0 0 0 0 0 0 0 0 0 0 0 0 0 0 0 0 127 0" result="hardAlpha"></feColorMatrix><feOffset dy="0.893854"></feOffset><feGaussianBlur stdDeviation="0.558659"></feGaussianBlur><feColorMatrix type="matrix" values="0 0 0 0 0 0 0 0 0 0 0 0 0 0 0 0 0 0 0.05 0"></feColorMatrix><feBlend mode="normal" in2="BackgroundImageFix" result="effect1_dropShadow_5167_95309"></feBlend><feColorMatrix in="SourceAlpha" type="matrix" values="0 0 0 0 0 0 0 0 0 0 0 0 0 0 0 0 0 0 127 0" result="hardAlpha"></feColorMatrix><feOffset dy="0.223464"></feOffset><feGaussianBlur stdDeviation="0.223464"></feGaussianBlur><feColorMatrix type="matrix" values="0 0 0 0 0 0 0 0 0 0 0 0 0 0 0 0 0 0 0.05 0"></feColorMatrix><feBlend mode="normal" in2="effect1_dropShadow_5167_95309" result="effect2_dropShadow_5167_95309"></feBlend><feBlend mode="normal" in="SourceGraphic" in2="effect2_dropShadow_5167_95309" result="shape"></feBlend></filter><filter id="filter6_dd_5167_95309" x="169.195" y="189.778" width="65.9221" height="103.463" filterUnits="userSpaceOnUse" color-interpolation-filters="sRGB"><feFlood flood-opacity="0" result="BackgroundImageFix"></feFlood><feColorMatrix in="SourceAlpha" type="matrix" values="0 0 0 0 0 0 0 0 0 0 0 0 0 0 0 0 0 0 127 0" result="hardAlpha"></feColorMatrix><feOffset dy="0.893854"></feOffset><feGaussianBlur stdDeviation="0.558659"></feGaussianBlur><feColorMatrix type="matrix" values="0 0 0 0 0 0 0 0 0 0 0 0 0 0 0 0 0 0 0.05 0"></feColorMatrix><feBlend mode="normal" in2="BackgroundImageFix" result="effect1_dropShadow_5167_95309"></feBlend><feColorMatrix in="SourceAlpha" type="matrix" values="0 0 0 0 0 0 0 0 0 0 0 0 0 0 0 0 0 0 127 0" result="hardAlpha"></feColorMatrix><feOffset dy="0.223464"></feOffset><feGaussianBlur stdDeviation="0.223464"></feGaussianBlur><feColorMatrix type="matrix" values="0 0 0 0 0 0 0 0 0 0 0 0 0 0 0 0 0 0 0.05 0"></feColorMatrix><feBlend mode="normal" in2="effect1_dropShadow_5167_95309" result="effect2_dropShadow_5167_95309"></feBlend><feBlend mode="normal" in="SourceGraphic" in2="effect2_dropShadow_5167_95309" result="shape"></feBlend></filter><clipPath id="clip0_5167_95309"><rect width="262" height="200" fill="white" transform="translate(0.5)"></rect></clipPath><clipPath id="clip1_5167_95309"><rect width="55.6871" height="52" fill="white" transform="translate(38 66)"></rect></clipPath><clipPath id="clip2_5167_95309"><rect width="55.6871" height="52" fill="white" transform="translate(38 167)"></rect></clipPath><clipPath id="clip3_5167_95309"><rect width="55.6871" height="40" fill="white" transform="translate(106.156 66.001)"></rect></clipPath><clipPath id="clip4_5167_95309"><rect width="55.6871" height="64" fill="white" transform="translate(106.156 155.001)"></rect></clipPath><clipPath id="clip5_5167_95309"><rect width="55.6871" height="58" fill="white" transform="translate(174.312 66.001)"></rect></clipPath><clipPath id="clip6_5167_95309"><rect x="170.312" y="190.001" width="63.6871" height="101.229" rx="0.893854" fill="white"></rect></clipPath></defs></svg> 