<?xml version="1.0" encoding="UTF-8"?> <svg xmlns="http://www.w3.org/2000/svg" width="263" height="200" viewBox="0 0 263 200" fill="none"><rect width="262" height="200" transform="translate(0.5)" fill="#FEF4EF"></rect><path d="M34.7564 48H36.576L38.6193 40.8558H38.6989L40.7372 48H42.5568L45.4304 37.8182H43.4467L41.6122 45.3054H41.5227L39.5589 37.8182H37.7543L35.7955 45.3004H35.701L33.8665 37.8182H31.8828L34.7564 48ZM49.2312 48.1491C51.011 48.1491 52.234 47.2791 52.5522 45.9517L50.8718 45.7628C50.6282 46.4091 50.0316 46.7472 49.256 46.7472C48.0927 46.7472 47.3221 45.9815 47.3072 44.674H52.6268V44.1222C52.6268 41.4425 51.016 40.2642 49.1367 40.2642C46.9492 40.2642 45.5224 41.87 45.5224 44.2266C45.5224 46.6229 46.9293 48.1491 49.2312 48.1491ZM47.3121 43.4609C47.3668 42.4865 48.0877 41.6662 49.1616 41.6662C50.1957 41.6662 50.8917 42.4219 50.9016 43.4609H47.3121ZM55.6756 37.8182H54.2438V38.8423C54.2438 39.6527 53.9256 40.2741 53.5627 40.821L54.3979 41.3629C55.1287 40.7564 55.6756 39.7124 55.6756 38.8324V37.8182ZM56.8427 48H58.6424V43.5107C58.6424 42.5412 59.3732 41.8551 60.3626 41.8551C60.6658 41.8551 61.0437 41.9098 61.1978 41.9595V40.304C61.0337 40.2741 60.7504 40.2543 60.5515 40.2543C59.6765 40.2543 58.9457 40.7514 58.6673 41.6364H58.5877V40.3636H56.8427V48ZM65.4597 48.1491C67.2395 48.1491 68.4625 47.2791 68.7807 45.9517L67.1003 45.7628C66.8567 46.4091 66.2601 46.7472 65.4846 46.7472C64.3212 46.7472 63.5506 45.9815 63.5357 44.674H68.8553V44.1222C68.8553 41.4425 67.2445 40.2642 65.3652 40.2642C63.1777 40.2642 61.7509 41.87 61.7509 44.2266C61.7509 46.6229 63.1578 48.1491 65.4597 48.1491ZM63.5407 43.4609C63.5953 42.4865 64.3162 41.6662 65.3901 41.6662C66.4242 41.6662 67.1202 42.4219 67.1301 43.4609H63.5407ZM77.1815 48.1491C79.4187 48.1491 80.8406 46.5732 80.8406 44.2116C80.8406 41.8452 79.4187 40.2642 77.1815 40.2642C74.9442 40.2642 73.5224 41.8452 73.5224 44.2116C73.5224 46.5732 74.9442 48.1491 77.1815 48.1491ZM77.1914 46.7074C75.9535 46.7074 75.3469 45.6037 75.3469 44.2067C75.3469 42.8097 75.9535 41.6911 77.1914 41.6911C78.4094 41.6911 79.016 42.8097 79.016 44.2067C79.016 45.6037 78.4094 46.7074 77.1914 46.7074ZM84.1678 43.5256C84.1678 42.4219 84.834 41.7855 85.7836 41.7855C86.7132 41.7855 87.2701 42.397 87.2701 43.4162V48H89.0698V43.1378C89.0748 41.3082 88.0307 40.2642 86.4547 40.2642C85.3113 40.2642 84.5257 40.8111 84.1777 41.6612H84.0882V40.3636H82.3681V48H84.1678V43.5256ZM94.4515 48H96.296V43.6747H100.527V42.1286H96.296V39.3643H100.974V37.8182H94.4515V48ZM104.704 48.1541C105.902 48.1541 106.618 47.5923 106.946 46.951H107.006V48H108.736V42.8892C108.736 40.8707 107.091 40.2642 105.634 40.2642C104.028 40.2642 102.795 40.9801 102.397 42.3722L104.078 42.6108C104.257 42.0888 104.764 41.6413 105.644 41.6413C106.479 41.6413 106.936 42.0689 106.936 42.8196V42.8494C106.936 43.3665 106.395 43.3913 105.047 43.5355C103.566 43.6946 102.149 44.1371 102.149 45.8572C102.149 47.3587 103.248 48.1541 104.704 48.1541ZM105.172 46.8317C104.421 46.8317 103.884 46.4886 103.884 45.8274C103.884 45.1364 104.485 44.848 105.291 44.7337C105.763 44.669 106.708 44.5497 106.941 44.3608V45.2607C106.941 46.1108 106.255 46.8317 105.172 46.8317ZM113.877 48.1491C115.796 48.1491 117.019 47.0107 117.148 45.3899H115.428C115.274 46.2102 114.682 46.6825 113.892 46.6825C112.768 46.6825 112.042 45.7429 112.042 44.1818C112.042 42.6406 112.783 41.7159 113.892 41.7159C114.757 41.7159 115.289 42.2727 115.428 43.0085H117.148C117.024 41.353 115.731 40.2642 113.867 40.2642C111.63 40.2642 110.218 41.88 110.218 44.2116C110.218 46.5234 111.595 48.1491 113.877 48.1491ZM122.007 48.1491C123.786 48.1491 125.009 47.2791 125.328 45.9517L123.647 45.7628C123.404 46.4091 122.807 46.7472 122.031 46.7472C120.868 46.7472 120.097 45.9815 120.083 44.674H125.402V44.1222C125.402 41.4425 123.791 40.2642 121.912 40.2642C119.725 40.2642 118.298 41.87 118.298 44.2266C118.298 46.6229 119.705 48.1491 122.007 48.1491ZM120.088 43.4609C120.142 42.4865 120.863 41.6662 121.937 41.6662C122.971 41.6662 123.667 42.4219 123.677 43.4609H120.088ZM127.004 48H128.774V46.7969H128.879C129.162 47.3537 129.754 48.1342 131.066 48.1342C132.866 48.1342 134.213 46.7074 134.213 44.1918C134.213 41.6463 132.826 40.2642 131.061 40.2642C129.714 40.2642 129.152 41.0746 128.879 41.6264H128.804V37.8182H127.004V48ZM128.769 44.1818C128.769 42.7003 129.406 41.7408 130.564 41.7408C131.762 41.7408 132.379 42.7599 132.379 44.1818C132.379 45.6136 131.752 46.6577 130.564 46.6577C129.415 46.6577 128.769 45.6634 128.769 44.1818ZM139.074 48.1491C141.311 48.1491 142.733 46.5732 142.733 44.2116C142.733 41.8452 141.311 40.2642 139.074 40.2642C136.837 40.2642 135.415 41.8452 135.415 44.2116C135.415 46.5732 136.837 48.1491 139.074 48.1491ZM139.084 46.7074C137.846 46.7074 137.24 45.6037 137.24 44.2067C137.24 42.8097 137.846 41.6911 139.084 41.6911C140.302 41.6911 140.909 42.8097 140.909 44.2067C140.909 45.6037 140.302 46.7074 139.084 46.7074ZM147.592 48.1491C149.829 48.1491 151.251 46.5732 151.251 44.2116C151.251 41.8452 149.829 40.2642 147.592 40.2642C145.354 40.2642 143.933 41.8452 143.933 44.2116C143.933 46.5732 145.354 48.1491 147.592 48.1491ZM147.602 46.7074C146.364 46.7074 145.757 45.6037 145.757 44.2067C145.757 42.8097 146.364 41.6911 147.602 41.6911C148.82 41.6911 149.426 42.8097 149.426 44.2067C149.426 45.6037 148.82 46.7074 147.602 46.7074ZM152.778 48H154.578V45.4347L155.234 44.7337L157.571 48H159.724L156.591 43.6598L159.55 40.3636H157.447L154.702 43.4311H154.578V37.8182H152.778V48ZM162.951 37.8182H161.027L161.186 45.0071H162.787L162.951 37.8182ZM161.987 48.1094C162.574 48.1094 163.076 47.6222 163.081 47.0156C163.076 46.419 162.574 45.9318 161.987 45.9318C161.38 45.9318 160.888 46.419 160.893 47.0156C160.888 47.6222 161.38 48.1094 161.987 48.1094Z" fill="#141B38"></path><circle cx="116.5" cy="166.174" r="2" fill="#2C324C"></circle><circle cx="123.5" cy="166.174" r="2" fill="#D0D1D7"></circle><circle cx="130.5" cy="166.174" r="2" fill="#D0D1D7"></circle><circle cx="137.5" cy="166.174" r="2" fill="#D0D1D7"></circle><circle cx="144.5" cy="166.174" r="2" fill="#D0D1D7"></circle><g filter="url(#filter0_dd_5167_95599)"><rect x="31.5" y="62.1738" width="199" height="93" rx="0.893854" fill="white"></rect><g clip-path="url(#clip0_5167_95599)"><rect x="34" y="64" width="74" height="89" rx="2" fill="#F9BBA0"></rect><circle cx="119.5" cy="141.5" r="66.5" fill="#F6966B"></circle></g><circle cx="124" cy="78" r="7" fill="#DCDDE1"></circle><rect x="136" y="74" width="23" height="3" rx="0.5" fill="#DCDDE1"></rect><rect x="136" y="80" width="14" height="3" rx="0.5" fill="#DCDDE1"></rect><rect x="120" y="99" width="94" height="5" rx="0.5" fill="#DCDDE1"></rect><rect x="120" y="108" width="94" height="5" rx="0.5" fill="#DCDDE1"></rect><rect x="120" y="117" width="58" height="5" rx="0.5" fill="#DCDDE1"></rect><path d="M124.551 142.428C124.59 142.643 124.561 142.848 124.463 143.043C124.473 143.16 124.463 143.268 124.434 143.385C124.404 143.502 124.355 143.609 124.297 143.697C124.287 143.99 124.199 144.205 124.023 144.361C123.828 144.537 123.555 144.625 123.193 144.625H122.979C122.705 144.625 122.451 144.596 122.227 144.537C122.09 144.508 121.934 144.449 121.738 144.371C121.621 144.332 121.533 144.293 121.484 144.273C121.396 144.254 121.318 144.234 121.24 144.234C121.221 144.303 121.182 144.361 121.123 144.4C121.064 144.449 121.006 144.469 120.938 144.469H120.312C120.225 144.469 120.146 144.439 120.088 144.381C120.029 144.322 120 144.244 120 144.156V141.812C120 141.734 120.029 141.656 120.088 141.598C120.146 141.539 120.225 141.5 120.312 141.5H121.279C121.338 141.441 121.455 141.314 121.611 141.109C121.768 140.904 121.875 140.768 121.953 140.689C121.973 140.67 122.002 140.572 122.041 140.406C122.1 140.172 122.158 140.006 122.217 139.898C122.314 139.723 122.461 139.625 122.646 139.625C122.939 139.625 123.164 139.713 123.33 139.869C123.496 140.045 123.584 140.309 123.584 140.65C123.584 140.807 123.555 140.953 123.496 141.1H123.848C124.082 141.1 124.277 141.188 124.443 141.354C124.6 141.529 124.688 141.725 124.688 141.939C124.688 142.115 124.639 142.271 124.551 142.428ZM123.955 142.955C124.053 142.857 124.102 142.75 124.102 142.623C124.102 142.496 124.072 142.389 124.004 142.311C124.043 142.311 124.092 142.271 124.141 142.193C124.189 142.115 124.219 142.037 124.219 141.939C124.219 141.852 124.18 141.764 124.111 141.686C124.033 141.607 123.945 141.568 123.848 141.568H122.832C122.832 141.49 122.842 141.412 122.881 141.324C122.891 141.285 122.92 141.217 122.969 141.119C123.008 141.031 123.047 140.963 123.066 140.904C123.096 140.826 123.115 140.738 123.115 140.65C123.115 140.484 123.096 140.357 123.057 140.279C122.979 140.162 122.842 140.094 122.646 140.094C122.607 140.133 122.578 140.191 122.559 140.26C122.539 140.299 122.529 140.367 122.51 140.465C122.48 140.602 122.461 140.699 122.441 140.758C122.402 140.865 122.344 140.953 122.275 141.021C122.217 141.08 122.129 141.197 121.992 141.373C121.846 141.568 121.738 141.705 121.67 141.773C121.543 141.91 121.436 141.969 121.357 141.969H121.25V143.785C121.357 143.785 121.475 143.805 121.611 143.834C121.689 143.854 121.807 143.893 121.963 143.951C122.158 144.02 122.305 144.068 122.412 144.088C122.588 144.137 122.754 144.156 122.93 144.156H123.291C123.477 144.156 123.613 144.107 123.711 144.01C123.809 143.912 123.848 143.746 123.818 143.512C123.896 143.473 123.945 143.395 123.984 143.277C124.014 143.16 124.004 143.053 123.955 142.955ZM120.859 143.844C120.859 143.785 120.83 143.727 120.791 143.678C120.742 143.639 120.684 143.609 120.625 143.609C120.557 143.609 120.498 143.639 120.459 143.678C120.41 143.727 120.391 143.785 120.391 143.844C120.391 143.912 120.41 143.971 120.459 144.01C120.498 144.059 120.557 144.078 120.625 144.078C120.684 144.078 120.742 144.059 120.791 144.01C120.83 143.971 120.859 143.912 120.859 143.844Z" fill="#434960"></path><path d="M133.676 141.48C133.764 141.578 133.812 141.686 133.812 141.812C133.812 141.949 133.764 142.057 133.676 142.145L131.957 143.863C131.859 143.961 131.742 144 131.615 144C131.488 144 131.381 143.961 131.293 143.873C131.195 143.785 131.156 143.668 131.156 143.531V142.77C130.688 142.799 130.346 142.857 130.131 142.955C129.916 143.053 129.799 143.199 129.76 143.375C129.73 143.531 129.76 143.746 129.848 144.02C129.887 144.156 129.867 144.273 129.799 144.391C129.73 144.508 129.633 144.576 129.506 144.615C129.379 144.654 129.262 144.625 129.145 144.547C128.842 144.352 128.607 144.117 128.441 143.824C128.266 143.531 128.188 143.199 128.188 142.848C128.188 142.105 128.51 141.578 129.164 141.256C129.623 141.041 130.287 140.914 131.156 140.885V140.094C131.156 139.957 131.195 139.85 131.293 139.762C131.381 139.674 131.488 139.625 131.615 139.625C131.742 139.625 131.859 139.674 131.957 139.762L133.676 141.48ZM131.625 143.531L133.344 141.812L131.625 140.094V141.344C131.039 141.344 130.57 141.373 130.238 141.432C129.74 141.51 129.369 141.646 129.115 141.842C128.803 142.086 128.656 142.418 128.656 142.848C128.656 143.15 128.734 143.424 128.9 143.658C129.018 143.854 129.184 144.02 129.398 144.156C129.242 143.668 129.242 143.277 129.408 142.984C129.545 142.73 129.818 142.545 130.229 142.428C130.561 142.34 131.029 142.291 131.625 142.281V143.531Z" fill="#434960"></path><path d="M139.5 139.938C139.949 139.938 140.369 140.035 140.75 140.211C141.131 140.396 141.434 140.641 141.658 140.953C141.883 141.266 142 141.598 142 141.969C142 142.34 141.883 142.682 141.658 142.994C141.434 143.307 141.131 143.551 140.75 143.727C140.369 143.912 139.949 144 139.5 144C139.188 144 138.885 143.961 138.592 143.863C138.162 144.166 137.713 144.312 137.234 144.312C137.186 144.312 137.146 144.303 137.107 144.273C137.068 144.254 137.039 144.215 137.02 144.176C137 144.137 136.99 144.088 137 144.039C137.01 144 137.029 143.961 137.059 143.932C137.088 143.902 137.146 143.824 137.234 143.707C137.361 143.531 137.459 143.365 137.518 143.199C137.166 142.838 137 142.428 137 141.969C137 141.598 137.107 141.266 137.332 140.953C137.557 140.641 137.859 140.396 138.24 140.211C138.621 140.035 139.041 139.938 139.5 139.938ZM139.5 143.531C139.861 143.531 140.203 143.463 140.516 143.326C140.828 143.189 141.072 142.994 141.258 142.75C141.434 142.516 141.531 142.252 141.531 141.969C141.531 141.695 141.434 141.432 141.258 141.188C141.072 140.953 140.828 140.758 140.516 140.621C140.203 140.484 139.861 140.406 139.5 140.406C139.129 140.406 138.797 140.484 138.484 140.621C138.172 140.758 137.918 140.953 137.742 141.188C137.557 141.432 137.469 141.695 137.469 141.969C137.469 142.301 137.596 142.604 137.859 142.877L138.055 143.092L137.957 143.365C137.898 143.502 137.84 143.629 137.762 143.766C137.957 143.707 138.143 143.609 138.318 143.473L138.514 143.346L138.738 143.414C138.982 143.492 139.236 143.531 139.5 143.531Z" fill="#434960"></path></g><defs><filter id="filter0_dd_5167_95599" x="30.3827" y="61.9504" width="201.235" height="95.2346" filterUnits="userSpaceOnUse" color-interpolation-filters="sRGB"><feFlood flood-opacity="0" result="BackgroundImageFix"></feFlood><feColorMatrix in="SourceAlpha" type="matrix" values="0 0 0 0 0 0 0 0 0 0 0 0 0 0 0 0 0 0 127 0" result="hardAlpha"></feColorMatrix><feOffset dy="0.893854"></feOffset><feGaussianBlur stdDeviation="0.558659"></feGaussianBlur><feColorMatrix type="matrix" values="0 0 0 0 0 0 0 0 0 0 0 0 0 0 0 0 0 0 0.05 0"></feColorMatrix><feBlend mode="normal" in2="BackgroundImageFix" result="effect1_dropShadow_5167_95599"></feBlend><feColorMatrix in="SourceAlpha" type="matrix" values="0 0 0 0 0 0 0 0 0 0 0 0 0 0 0 0 0 0 127 0" result="hardAlpha"></feColorMatrix><feOffset dy="0.223464"></feOffset><feGaussianBlur stdDeviation="0.223464"></feGaussianBlur><feColorMatrix type="matrix" values="0 0 0 0 0 0 0 0 0 0 0 0 0 0 0 0 0 0 0.05 0"></feColorMatrix><feBlend mode="normal" in2="effect1_dropShadow_5167_95599" result="effect2_dropShadow_5167_95599"></feBlend><feBlend mode="normal" in="SourceGraphic" in2="effect2_dropShadow_5167_95599" result="shape"></feBlend></filter><clipPath id="clip0_5167_95599"><rect x="34" y="64" width="74" height="89" rx="2" fill="white"></rect></clipPath></defs></svg> 