<?xml version="1.0" encoding="UTF-8"?> <svg xmlns="http://www.w3.org/2000/svg" width="262" height="200" viewBox="0 0 262 200" fill="none"><g clip-path="url(#clip0_5167_95248)"><rect width="262" height="200" fill="#F3F4F5"></rect><g filter="url(#filter0_ddd_5167_95248)"><rect x="26" y="33" width="211" height="190" rx="2" fill="white"></rect></g><g clip-path="url(#clip1_5167_95248)"><rect x="56" y="48" width="157" height="48" rx="1" fill="#43A6DB"></rect><circle cx="202" cy="133" r="63" fill="#86D0F9"></circle></g><rect x="62.5" y="90.5" width="23" height="23" rx="1.5" fill="#86D0F9" stroke="white"></rect><rect x="92" y="102" width="38" height="3" rx="0.5" fill="#DCDDE1"></rect><rect x="92" y="108" width="27" height="3" rx="0.5" fill="#DCDDE1"></rect><g clip-path="url(#clip2_5167_95248)"><rect x="56" y="131" width="69" height="40" rx="1" fill="#43A6DB"></rect><circle cx="56" cy="177" r="30" fill="#86D0F9"></circle></g><g clip-path="url(#clip3_5167_95248)"><rect x="56" y="191" width="69" height="40" rx="1" fill="#43A6DB"></rect></g><circle cx="138" cy="137" r="5" fill="#DCDDE1"></circle><rect x="147" y="133.5" width="16" height="2.5" rx="0.5" fill="#DCDDE1"></rect><rect x="147" y="138" width="10" height="2.5" rx="0.5" fill="#DCDDE1"></rect><rect x="133" y="147" width="76" height="2.5" rx="0.5" fill="#DCDDE1"></rect><rect x="133" y="152" width="76" height="2.5" rx="0.5" fill="#DCDDE1"></rect><rect x="133" y="157" width="47" height="2.5" rx="0.5" fill="#DCDDE1"></rect><path d="M136.413 167.321C136.442 167.482 136.42 167.636 136.347 167.782C136.354 167.87 136.347 167.951 136.325 168.039C136.303 168.126 136.267 168.207 136.223 168.273C136.215 168.493 136.149 168.654 136.018 168.771C135.871 168.903 135.666 168.969 135.395 168.969H135.234C135.029 168.969 134.838 168.947 134.67 168.903C134.567 168.881 134.45 168.837 134.304 168.778C134.216 168.749 134.15 168.72 134.113 168.705C134.047 168.69 133.989 168.676 133.93 168.676C133.916 168.727 133.886 168.771 133.842 168.8C133.798 168.837 133.754 168.852 133.703 168.852H133.234C133.168 168.852 133.11 168.83 133.066 168.786C133.022 168.742 133 168.683 133 168.617V166.859C133 166.801 133.022 166.742 133.066 166.698C133.11 166.654 133.168 166.625 133.234 166.625H133.959C134.003 166.581 134.091 166.486 134.208 166.332C134.326 166.178 134.406 166.076 134.465 166.017C134.479 166.002 134.501 165.929 134.531 165.805C134.575 165.629 134.619 165.504 134.663 165.424C134.736 165.292 134.846 165.219 134.985 165.219C135.205 165.219 135.373 165.285 135.498 165.402C135.622 165.534 135.688 165.731 135.688 165.988C135.688 166.105 135.666 166.215 135.622 166.325H135.886C136.062 166.325 136.208 166.391 136.333 166.515C136.45 166.647 136.516 166.793 136.516 166.955C136.516 167.086 136.479 167.204 136.413 167.321ZM135.966 167.716C136.04 167.643 136.076 167.562 136.076 167.467C136.076 167.372 136.054 167.292 136.003 167.233C136.032 167.233 136.069 167.204 136.105 167.145C136.142 167.086 136.164 167.028 136.164 166.955C136.164 166.889 136.135 166.823 136.083 166.764C136.025 166.706 135.959 166.676 135.886 166.676H135.124C135.124 166.618 135.131 166.559 135.161 166.493C135.168 166.464 135.19 166.413 135.227 166.339C135.256 166.273 135.285 166.222 135.3 166.178C135.322 166.12 135.336 166.054 135.336 165.988C135.336 165.863 135.322 165.768 135.292 165.709C135.234 165.622 135.131 165.57 134.985 165.57C134.956 165.6 134.934 165.644 134.919 165.695C134.904 165.724 134.897 165.775 134.882 165.849C134.86 165.951 134.846 166.024 134.831 166.068C134.802 166.149 134.758 166.215 134.707 166.266C134.663 166.31 134.597 166.398 134.494 166.53C134.384 166.676 134.304 166.779 134.252 166.83C134.157 166.933 134.077 166.977 134.018 166.977H133.938V168.339C134.018 168.339 134.106 168.354 134.208 168.375C134.267 168.39 134.355 168.419 134.472 168.463C134.619 168.515 134.729 168.551 134.809 168.566C134.941 168.603 135.065 168.617 135.197 168.617H135.468C135.607 168.617 135.71 168.581 135.783 168.507C135.856 168.434 135.886 168.31 135.864 168.134C135.922 168.104 135.959 168.046 135.988 167.958C136.01 167.87 136.003 167.79 135.966 167.716ZM133.645 168.383C133.645 168.339 133.623 168.295 133.593 168.258C133.557 168.229 133.513 168.207 133.469 168.207C133.417 168.207 133.374 168.229 133.344 168.258C133.308 168.295 133.293 168.339 133.293 168.383C133.293 168.434 133.308 168.478 133.344 168.507C133.374 168.544 133.417 168.559 133.469 168.559C133.513 168.559 133.557 168.544 133.593 168.507C133.623 168.478 133.645 168.434 133.645 168.383Z" fill="#434960"></path><path d="M143.257 166.61C143.323 166.684 143.359 166.764 143.359 166.859C143.359 166.962 143.323 167.042 143.257 167.108L141.968 168.397C141.895 168.471 141.807 168.5 141.711 168.5C141.616 168.5 141.536 168.471 141.47 168.405C141.396 168.339 141.367 168.251 141.367 168.148V167.577C141.016 167.599 140.759 167.643 140.598 167.716C140.437 167.79 140.349 167.899 140.32 168.031C140.298 168.148 140.32 168.31 140.386 168.515C140.415 168.617 140.4 168.705 140.349 168.793C140.298 168.881 140.225 168.932 140.129 168.961C140.034 168.991 139.946 168.969 139.858 168.91C139.631 168.764 139.456 168.588 139.331 168.368C139.199 168.148 139.141 167.899 139.141 167.636C139.141 167.079 139.382 166.684 139.873 166.442C140.217 166.281 140.715 166.186 141.367 166.164V165.57C141.367 165.468 141.396 165.387 141.47 165.321C141.536 165.255 141.616 165.219 141.711 165.219C141.807 165.219 141.895 165.255 141.968 165.321L143.257 166.61ZM141.719 168.148L143.008 166.859L141.719 165.57V166.508C141.279 166.508 140.928 166.53 140.679 166.574C140.305 166.632 140.027 166.735 139.836 166.881C139.602 167.064 139.492 167.313 139.492 167.636C139.492 167.863 139.551 168.068 139.675 168.244C139.763 168.39 139.888 168.515 140.049 168.617C139.932 168.251 139.932 167.958 140.056 167.738C140.159 167.548 140.364 167.409 140.671 167.321C140.92 167.255 141.272 167.218 141.719 167.211V168.148Z" fill="#434960"></path><path d="M147.625 165.453C147.962 165.453 148.277 165.526 148.562 165.658C148.848 165.797 149.075 165.98 149.244 166.215C149.412 166.449 149.5 166.698 149.5 166.977C149.5 167.255 149.412 167.511 149.244 167.746C149.075 167.98 148.848 168.163 148.562 168.295C148.277 168.434 147.962 168.5 147.625 168.5C147.391 168.5 147.164 168.471 146.944 168.397C146.622 168.625 146.285 168.734 145.926 168.734C145.889 168.734 145.86 168.727 145.831 168.705C145.801 168.69 145.779 168.661 145.765 168.632C145.75 168.603 145.743 168.566 145.75 168.529C145.757 168.5 145.772 168.471 145.794 168.449C145.816 168.427 145.86 168.368 145.926 168.28C146.021 168.148 146.094 168.024 146.138 167.899C145.875 167.628 145.75 167.321 145.75 166.977C145.75 166.698 145.831 166.449 145.999 166.215C146.167 165.98 146.395 165.797 146.68 165.658C146.966 165.526 147.281 165.453 147.625 165.453ZM147.625 168.148C147.896 168.148 148.152 168.097 148.387 167.995C148.621 167.892 148.804 167.746 148.943 167.562C149.075 167.387 149.148 167.189 149.148 166.977C149.148 166.771 149.075 166.574 148.943 166.391C148.804 166.215 148.621 166.068 148.387 165.966C148.152 165.863 147.896 165.805 147.625 165.805C147.347 165.805 147.098 165.863 146.863 165.966C146.629 166.068 146.438 166.215 146.307 166.391C146.167 166.574 146.102 166.771 146.102 166.977C146.102 167.226 146.197 167.453 146.395 167.658L146.541 167.819L146.468 168.024C146.424 168.126 146.38 168.222 146.321 168.324C146.468 168.28 146.607 168.207 146.739 168.104L146.885 168.009L147.054 168.061C147.237 168.119 147.427 168.148 147.625 168.148Z" fill="#434960"></path><circle cx="138" cy="196" r="5" fill="#DCDDE1"></circle><rect x="147" y="192.5" width="16" height="2.5" rx="0.5" fill="#DCDDE1"></rect><rect x="147" y="197" width="10" height="2.5" rx="0.5" fill="#DCDDE1"></rect><line x1="56" y1="180.75" x2="213" y2="180.75" stroke="#DCDDE1" stroke-width="0.5"></line></g><defs><filter id="filter0_ddd_5167_95248" x="13" y="26" width="237" height="216" filterUnits="userSpaceOnUse" color-interpolation-filters="sRGB"><feFlood flood-opacity="0" result="BackgroundImageFix"></feFlood><feColorMatrix in="SourceAlpha" type="matrix" values="0 0 0 0 0 0 0 0 0 0 0 0 0 0 0 0 0 0 127 0" result="hardAlpha"></feColorMatrix><feOffset dy="6"></feOffset><feGaussianBlur stdDeviation="6.5"></feGaussianBlur><feColorMatrix type="matrix" values="0 0 0 0 0 0 0 0 0 0 0 0 0 0 0 0 0 0 0.03 0"></feColorMatrix><feBlend mode="normal" in2="BackgroundImageFix" result="effect1_dropShadow_5167_95248"></feBlend><feColorMatrix in="SourceAlpha" type="matrix" values="0 0 0 0 0 0 0 0 0 0 0 0 0 0 0 0 0 0 127 0" result="hardAlpha"></feColorMatrix><feOffset dy="1"></feOffset><feGaussianBlur stdDeviation="1"></feGaussianBlur><feColorMatrix type="matrix" values="0 0 0 0 0 0 0 0 0 0 0 0 0 0 0 0 0 0 0.11 0"></feColorMatrix><feBlend mode="normal" in2="effect1_dropShadow_5167_95248" result="effect2_dropShadow_5167_95248"></feBlend><feColorMatrix in="SourceAlpha" type="matrix" values="0 0 0 0 0 0 0 0 0 0 0 0 0 0 0 0 0 0 127 0" result="hardAlpha"></feColorMatrix><feOffset dy="3"></feOffset><feGaussianBlur stdDeviation="3"></feGaussianBlur><feColorMatrix type="matrix" values="0 0 0 0 0 0 0 0 0 0 0 0 0 0 0 0 0 0 0.04 0"></feColorMatrix><feBlend mode="normal" in2="effect2_dropShadow_5167_95248" result="effect3_dropShadow_5167_95248"></feBlend><feBlend mode="normal" in="SourceGraphic" in2="effect3_dropShadow_5167_95248" result="shape"></feBlend></filter><clipPath id="clip0_5167_95248"><rect width="262" height="200" fill="white"></rect></clipPath><clipPath id="clip1_5167_95248"><rect x="56" y="48" width="157" height="48" rx="1" fill="white"></rect></clipPath><clipPath id="clip2_5167_95248"><rect x="56" y="131" width="69" height="40" rx="1" fill="white"></rect></clipPath><clipPath id="clip3_5167_95248"><rect x="56" y="191" width="69" height="40" rx="1" fill="white"></rect></clipPath></defs></svg> 