<?xml version="1.0" encoding="UTF-8"?> <svg xmlns="http://www.w3.org/2000/svg" width="262" height="200" viewBox="0 0 262 200" fill="none"><rect width="262" height="200" fill="#FEF4EF"></rect><path d="M35.2564 46.8262H37.076L39.1193 39.682H39.1989L41.2372 46.8262H43.0568L45.9304 36.6444H43.9467L42.1122 44.1316H42.0227L40.0589 36.6444H38.2543L36.2955 44.1266H36.201L34.3665 36.6444H32.3828L35.2564 46.8262ZM49.7312 46.9753C51.511 46.9753 52.734 46.1053 53.0522 44.7779L51.3718 44.589C51.1282 45.2353 50.5316 45.5733 49.756 45.5733C48.5927 45.5733 47.8221 44.8077 47.8072 43.5002H53.1268V42.9483C53.1268 40.2686 51.516 39.0904 49.6367 39.0904C47.4492 39.0904 46.0224 40.6962 46.0224 43.0527C46.0224 45.449 47.4293 46.9753 49.7312 46.9753ZM47.8121 42.2871C47.8668 41.3127 48.5877 40.4924 49.6616 40.4924C50.6957 40.4924 51.3917 41.248 51.4016 42.2871H47.8121ZM56.1756 36.6444H54.7438V37.6685C54.7438 38.4789 54.4256 39.1003 54.0627 39.6472L54.8979 40.1891C55.6287 39.5826 56.1756 38.5385 56.1756 37.6586V36.6444ZM57.3427 46.8262H59.1424V42.3368C59.1424 41.3674 59.8732 40.6813 60.8626 40.6813C61.1658 40.6813 61.5437 40.736 61.6978 40.7857V39.1301C61.5337 39.1003 61.2504 39.0804 61.0515 39.0804C60.1765 39.0804 59.4457 39.5776 59.1673 40.4625H59.0877V39.1898H57.3427V46.8262ZM65.9597 46.9753C67.7395 46.9753 68.9625 46.1053 69.2807 44.7779L67.6003 44.589C67.3567 45.2353 66.7601 45.5733 65.9846 45.5733C64.8212 45.5733 64.0506 44.8077 64.0357 43.5002H69.3553V42.9483C69.3553 40.2686 67.7445 39.0904 65.8652 39.0904C63.6777 39.0904 62.2509 40.6962 62.2509 43.0527C62.2509 45.449 63.6578 46.9753 65.9597 46.9753ZM64.0407 42.2871C64.0953 41.3127 64.8162 40.4924 65.8901 40.4924C66.9242 40.4924 67.6202 41.248 67.6301 42.2871H64.0407ZM77.6815 46.9753C79.9187 46.9753 81.3406 45.3993 81.3406 43.0378C81.3406 40.6713 79.9187 39.0904 77.6815 39.0904C75.4442 39.0904 74.0224 40.6713 74.0224 43.0378C74.0224 45.3993 75.4442 46.9753 77.6815 46.9753ZM77.6914 45.5336C76.4535 45.5336 75.8469 44.4299 75.8469 43.0328C75.8469 41.6358 76.4535 40.5172 77.6914 40.5172C78.9094 40.5172 79.516 41.6358 79.516 43.0328C79.516 44.4299 78.9094 45.5336 77.6914 45.5336ZM84.6678 42.3517C84.6678 41.248 85.334 40.6117 86.2836 40.6117C87.2132 40.6117 87.7701 41.2232 87.7701 42.2424V46.8262H89.5698V41.964C89.5748 40.1344 88.5307 39.0904 86.9547 39.0904C85.8113 39.0904 85.0257 39.6373 84.6777 40.4874H84.5882V39.1898H82.8681V46.8262H84.6678V42.3517ZM94.9515 46.8262H96.796V42.5009H101.027V40.9547H96.796V38.1905H101.474V36.6444H94.9515V46.8262ZM105.204 46.9803C106.402 46.9803 107.118 46.4185 107.446 45.7772H107.506V46.8262H109.236V41.7154C109.236 39.6969 107.591 39.0904 106.134 39.0904C104.528 39.0904 103.295 39.8063 102.897 41.1983L104.578 41.437C104.757 40.915 105.264 40.4675 106.144 40.4675C106.979 40.4675 107.436 40.8951 107.436 41.6458V41.6756C107.436 42.1926 106.895 42.2175 105.547 42.3617C104.066 42.5208 102.649 42.9632 102.649 44.6834C102.649 46.1848 103.748 46.9803 105.204 46.9803ZM105.672 45.6578C104.921 45.6578 104.384 45.3148 104.384 44.6536C104.384 43.9625 104.985 43.6742 105.791 43.5598C106.263 43.4952 107.208 43.3759 107.441 43.187V44.0868C107.441 44.937 106.755 45.6578 105.672 45.6578ZM114.377 46.9753C116.296 46.9753 117.519 45.8368 117.648 44.2161H115.928C115.774 45.0364 115.182 45.5087 114.392 45.5087C113.268 45.5087 112.542 44.5691 112.542 43.008C112.542 41.4668 113.283 40.5421 114.392 40.5421C115.257 40.5421 115.789 41.0989 115.928 41.8347H117.648C117.524 40.1792 116.231 39.0904 114.367 39.0904C112.13 39.0904 110.718 40.7061 110.718 43.0378C110.718 45.3496 112.095 46.9753 114.377 46.9753ZM122.507 46.9753C124.286 46.9753 125.509 46.1053 125.828 44.7779L124.147 44.589C123.904 45.2353 123.307 45.5733 122.531 45.5733C121.368 45.5733 120.597 44.8077 120.583 43.5002H125.902V42.9483C125.902 40.2686 124.291 39.0904 122.412 39.0904C120.225 39.0904 118.798 40.6962 118.798 43.0527C118.798 45.449 120.205 46.9753 122.507 46.9753ZM120.588 42.2871C120.642 41.3127 121.363 40.4924 122.437 40.4924C123.471 40.4924 124.167 41.248 124.177 42.2871H120.588ZM127.504 46.8262H129.274V45.623H129.379C129.662 46.1799 130.254 46.9604 131.566 46.9604C133.366 46.9604 134.713 45.5336 134.713 43.0179C134.713 40.4725 133.326 39.0904 131.561 39.0904C130.214 39.0904 129.652 39.9007 129.379 40.4526H129.304V36.6444H127.504V46.8262ZM129.269 43.008C129.269 41.5265 129.906 40.5669 131.064 40.5669C132.262 40.5669 132.879 41.5861 132.879 43.008C132.879 44.4398 132.252 45.4838 131.064 45.4838C129.915 45.4838 129.269 44.4895 129.269 43.008ZM139.574 46.9753C141.811 46.9753 143.233 45.3993 143.233 43.0378C143.233 40.6713 141.811 39.0904 139.574 39.0904C137.337 39.0904 135.915 40.6713 135.915 43.0378C135.915 45.3993 137.337 46.9753 139.574 46.9753ZM139.584 45.5336C138.346 45.5336 137.74 44.4299 137.74 43.0328C137.74 41.6358 138.346 40.5172 139.584 40.5172C140.802 40.5172 141.409 41.6358 141.409 43.0328C141.409 44.4299 140.802 45.5336 139.584 45.5336ZM148.092 46.9753C150.329 46.9753 151.751 45.3993 151.751 43.0378C151.751 40.6713 150.329 39.0904 148.092 39.0904C145.854 39.0904 144.433 40.6713 144.433 43.0378C144.433 45.3993 145.854 46.9753 148.092 46.9753ZM148.102 45.5336C146.864 45.5336 146.257 44.4299 146.257 43.0328C146.257 41.6358 146.864 40.5172 148.102 40.5172C149.32 40.5172 149.926 41.6358 149.926 43.0328C149.926 44.4299 149.32 45.5336 148.102 45.5336ZM153.278 46.8262H155.078V44.2608L155.734 43.5598L158.071 46.8262H160.224L157.091 42.486L160.05 39.1898H157.947L155.202 42.2573H155.078V36.6444H153.278V46.8262ZM163.451 36.6444H161.527L161.686 43.8333H163.287L163.451 36.6444ZM162.487 46.9355C163.074 46.9355 163.576 46.4483 163.581 45.8418C163.576 45.2452 163.074 44.758 162.487 44.758C161.88 44.758 161.388 45.2452 161.393 45.8418C161.388 46.4483 161.88 46.9355 162.487 46.9355Z" fill="#141B38"></path><g filter="url(#filter0_dd_5167_95627)"><rect x="32" y="64" width="63.6871" height="88" rx="0.893854" fill="white"></rect><circle cx="40" cy="72" r="4" fill="#DCDDE1"></circle><rect x="48" y="69" width="18.4925" height="2" rx="0.40201" fill="#DCDDE1"></rect><rect x="48" y="73" width="11.2563" height="2" rx="0.40201" fill="#DCDDE1"></rect><rect x="36" y="82" width="55.6871" height="3" rx="0.5" fill="#D0D1D7"></rect><path d="M36 88.5C36 88.2239 36.2239 88 36.5 88H68.5C68.7761 88 69 88.2239 69 88.5V90.5C69 90.7761 68.7761 91 68.5 91H36.5C36.2239 91 36 90.7761 36 90.5V88.5Z" fill="#D0D1D7"></path><g clip-path="url(#clip0_5167_95627)"><rect x="36" y="97" width="55.6871" height="44" rx="1" fill="#F9BBA0"></rect><circle cx="93" cy="158.5" r="46.5" fill="#F6966B"></circle></g><path d="M39.4131 146.821C39.4424 146.982 39.4204 147.136 39.3472 147.282C39.3545 147.37 39.3472 147.451 39.3252 147.539C39.3032 147.626 39.2666 147.707 39.2227 147.773C39.2153 147.993 39.1494 148.154 39.0176 148.271C38.8711 148.403 38.666 148.469 38.395 148.469H38.2339C38.0288 148.469 37.8384 148.447 37.6699 148.403C37.5674 148.381 37.4502 148.337 37.3037 148.278C37.2158 148.249 37.1499 148.22 37.1133 148.205C37.0474 148.19 36.9888 148.176 36.9302 148.176C36.9155 148.227 36.8862 148.271 36.8423 148.3C36.7983 148.337 36.7544 148.352 36.7031 148.352H36.2344C36.1685 148.352 36.1099 148.33 36.0659 148.286C36.022 148.242 36 148.183 36 148.117V146.359C36 146.301 36.022 146.242 36.0659 146.198C36.1099 146.154 36.1685 146.125 36.2344 146.125H36.9595C37.0034 146.081 37.0913 145.986 37.2085 145.832C37.3257 145.678 37.4062 145.576 37.4648 145.517C37.4795 145.502 37.5015 145.429 37.5308 145.305C37.5747 145.129 37.6187 145.004 37.6626 144.924C37.7358 144.792 37.8457 144.719 37.9849 144.719C38.2046 144.719 38.373 144.785 38.4976 144.902C38.6221 145.034 38.688 145.231 38.688 145.488C38.688 145.605 38.666 145.715 38.6221 145.825H38.8857C39.0615 145.825 39.208 145.891 39.3325 146.015C39.4497 146.147 39.5156 146.293 39.5156 146.455C39.5156 146.586 39.479 146.704 39.4131 146.821ZM38.9663 147.216C39.0396 147.143 39.0762 147.062 39.0762 146.967C39.0762 146.872 39.0542 146.792 39.0029 146.733C39.0322 146.733 39.0688 146.704 39.1055 146.645C39.1421 146.586 39.1641 146.528 39.1641 146.455C39.1641 146.389 39.1348 146.323 39.0835 146.264C39.0249 146.206 38.959 146.176 38.8857 146.176H38.124C38.124 146.118 38.1313 146.059 38.1606 145.993C38.168 145.964 38.1899 145.913 38.2266 145.839C38.2559 145.773 38.2852 145.722 38.2998 145.678C38.3218 145.62 38.3364 145.554 38.3364 145.488C38.3364 145.363 38.3218 145.268 38.2925 145.209C38.2339 145.122 38.1313 145.07 37.9849 145.07C37.9556 145.1 37.9336 145.144 37.9189 145.195C37.9043 145.224 37.897 145.275 37.8823 145.349C37.8604 145.451 37.8457 145.524 37.8311 145.568C37.8018 145.649 37.7578 145.715 37.7065 145.766C37.6626 145.81 37.5967 145.898 37.4941 146.03C37.3843 146.176 37.3037 146.279 37.2524 146.33C37.1572 146.433 37.0767 146.477 37.0181 146.477H36.9375V147.839C37.0181 147.839 37.106 147.854 37.2085 147.875C37.2671 147.89 37.355 147.919 37.4722 147.963C37.6187 148.015 37.7285 148.051 37.8091 148.066C37.9409 148.103 38.0654 148.117 38.1973 148.117H38.4683C38.6074 148.117 38.71 148.081 38.7832 148.007C38.8564 147.934 38.8857 147.81 38.8638 147.634C38.9224 147.604 38.959 147.546 38.9883 147.458C39.0103 147.37 39.0029 147.29 38.9663 147.216ZM36.6445 147.883C36.6445 147.839 36.6226 147.795 36.5933 147.758C36.5566 147.729 36.5127 147.707 36.4688 147.707C36.4175 147.707 36.3735 147.729 36.3442 147.758C36.3076 147.795 36.293 147.839 36.293 147.883C36.293 147.934 36.3076 147.978 36.3442 148.007C36.3735 148.044 36.4175 148.059 36.4688 148.059C36.5127 148.059 36.5566 148.044 36.5933 148.007C36.6226 147.978 36.6445 147.934 36.6445 147.883Z" fill="#434960"></path><path d="M46.2568 146.11C46.3228 146.184 46.3594 146.264 46.3594 146.359C46.3594 146.462 46.3228 146.542 46.2568 146.608L44.9678 147.897C44.8945 147.971 44.8066 148 44.7114 148C44.6162 148 44.5356 147.971 44.4697 147.905C44.3965 147.839 44.3672 147.751 44.3672 147.648V147.077C44.0156 147.099 43.7593 147.143 43.5981 147.216C43.437 147.29 43.3491 147.399 43.3198 147.531C43.2979 147.648 43.3198 147.81 43.3857 148.015C43.415 148.117 43.4004 148.205 43.3491 148.293C43.2979 148.381 43.2246 148.432 43.1294 148.461C43.0342 148.491 42.9463 148.469 42.8584 148.41C42.6313 148.264 42.4556 148.088 42.3311 147.868C42.1992 147.648 42.1406 147.399 42.1406 147.136C42.1406 146.579 42.3823 146.184 42.873 145.942C43.2173 145.781 43.7153 145.686 44.3672 145.664V145.07C44.3672 144.968 44.3965 144.887 44.4697 144.821C44.5356 144.755 44.6162 144.719 44.7114 144.719C44.8066 144.719 44.8945 144.755 44.9678 144.821L46.2568 146.11ZM44.7188 147.648L46.0078 146.359L44.7188 145.07V146.008C44.2793 146.008 43.9277 146.03 43.6787 146.074C43.3052 146.132 43.0269 146.235 42.8364 146.381C42.6021 146.564 42.4922 146.813 42.4922 147.136C42.4922 147.363 42.5508 147.568 42.6753 147.744C42.7632 147.89 42.8877 148.015 43.0488 148.117C42.9316 147.751 42.9316 147.458 43.0562 147.238C43.1587 147.048 43.3638 146.909 43.6714 146.821C43.9204 146.755 44.272 146.718 44.7188 146.711V147.648Z" fill="#434960"></path><path d="M50.625 144.953C50.9619 144.953 51.2769 145.026 51.5625 145.158C51.8481 145.297 52.0752 145.48 52.2437 145.715C52.4121 145.949 52.5 146.198 52.5 146.477C52.5 146.755 52.4121 147.011 52.2437 147.246C52.0752 147.48 51.8481 147.663 51.5625 147.795C51.2769 147.934 50.9619 148 50.625 148C50.3906 148 50.1636 147.971 49.9438 147.897C49.6216 148.125 49.2847 148.234 48.9258 148.234C48.8892 148.234 48.8599 148.227 48.8306 148.205C48.8013 148.19 48.7793 148.161 48.7646 148.132C48.75 148.103 48.7427 148.066 48.75 148.029C48.7573 148 48.772 147.971 48.7939 147.949C48.8159 147.927 48.8599 147.868 48.9258 147.78C49.021 147.648 49.0942 147.524 49.1382 147.399C48.8745 147.128 48.75 146.821 48.75 146.477C48.75 146.198 48.8306 145.949 48.999 145.715C49.1675 145.48 49.3945 145.297 49.6802 145.158C49.9658 145.026 50.2808 144.953 50.625 144.953ZM50.625 147.648C50.896 147.648 51.1523 147.597 51.3867 147.495C51.6211 147.392 51.8042 147.246 51.9434 147.062C52.0752 146.887 52.1484 146.689 52.1484 146.477C52.1484 146.271 52.0752 146.074 51.9434 145.891C51.8042 145.715 51.6211 145.568 51.3867 145.466C51.1523 145.363 50.896 145.305 50.625 145.305C50.3467 145.305 50.0977 145.363 49.8633 145.466C49.6289 145.568 49.4385 145.715 49.3066 145.891C49.1675 146.074 49.1016 146.271 49.1016 146.477C49.1016 146.726 49.1968 146.953 49.3945 147.158L49.541 147.319L49.4678 147.524C49.4238 147.626 49.3799 147.722 49.3213 147.824C49.4678 147.78 49.6069 147.707 49.7388 147.604L49.8853 147.509L50.0537 147.561C50.2368 147.619 50.4272 147.648 50.625 147.648Z" fill="#434960"></path></g><g filter="url(#filter1_dd_5167_95627)"><rect x="99.0391" y="64" width="63.6871" height="96.89" rx="0.893854" fill="white"></rect><circle cx="107.039" cy="72" r="4" fill="#DCDDE1"></circle><rect x="115.039" y="69" width="18.4925" height="2" rx="0.40201" fill="#DCDDE1"></rect><rect x="115.039" y="73" width="11.2563" height="2" rx="0.40201" fill="#DCDDE1"></rect><rect x="103.039" y="82" width="55.6871" height="3" rx="0.5" fill="#D0D1D7"></rect><path d="M103.039 88.5C103.039 88.2239 103.263 88 103.539 88H135.539C135.815 88 136.039 88.2239 136.039 88.5V90.5C136.039 90.7761 135.815 91 135.539 91H103.539C103.263 91 103.039 90.7761 103.039 90.5V88.5Z" fill="#D0D1D7"></path><g clip-path="url(#clip1_5167_95627)"><rect width="55.6871" height="52.89" transform="translate(103.039 97)" fill="#F9BBA0"></rect><rect x="104" y="158.5" width="55" height="55" transform="rotate(-45 104 158.5)" fill="#F6966B"></rect></g><path d="M106.452 155.71C106.481 155.872 106.459 156.025 106.386 156.172C106.394 156.26 106.386 156.34 106.364 156.428C106.342 156.516 106.306 156.597 106.262 156.663C106.254 156.882 106.188 157.043 106.057 157.161C105.91 157.292 105.705 157.358 105.434 157.358H105.273C105.068 157.358 104.877 157.336 104.709 157.292C104.606 157.271 104.489 157.227 104.343 157.168C104.255 157.139 104.189 157.109 104.152 157.095C104.086 157.08 104.028 157.065 103.969 157.065C103.955 157.117 103.925 157.161 103.881 157.19C103.837 157.227 103.793 157.241 103.742 157.241H103.273C103.208 157.241 103.149 157.219 103.105 157.175C103.061 157.131 103.039 157.073 103.039 157.007V155.249C103.039 155.19 103.061 155.132 103.105 155.088C103.149 155.044 103.208 155.015 103.273 155.015H103.999C104.042 154.971 104.13 154.875 104.248 154.722C104.365 154.568 104.445 154.465 104.504 154.407C104.519 154.392 104.541 154.319 104.57 154.194C104.614 154.019 104.658 153.894 104.702 153.813C104.775 153.682 104.885 153.608 105.024 153.608C105.244 153.608 105.412 153.674 105.537 153.792C105.661 153.923 105.727 154.121 105.727 154.377C105.727 154.495 105.705 154.604 105.661 154.714H105.925C106.101 154.714 106.247 154.78 106.372 154.905C106.489 155.037 106.555 155.183 106.555 155.344C106.555 155.476 106.518 155.593 106.452 155.71ZM106.005 156.106C106.079 156.033 106.115 155.952 106.115 155.857C106.115 155.762 106.093 155.681 106.042 155.623C106.071 155.623 106.108 155.593 106.145 155.535C106.181 155.476 106.203 155.417 106.203 155.344C106.203 155.278 106.174 155.212 106.123 155.154C106.064 155.095 105.998 155.066 105.925 155.066H105.163C105.163 155.007 105.17 154.949 105.2 154.883C105.207 154.854 105.229 154.802 105.266 154.729C105.295 154.663 105.324 154.612 105.339 154.568C105.361 154.509 105.375 154.443 105.375 154.377C105.375 154.253 105.361 154.158 105.332 154.099C105.273 154.011 105.17 153.96 105.024 153.96C104.995 153.989 104.973 154.033 104.958 154.084C104.943 154.114 104.936 154.165 104.921 154.238C104.899 154.341 104.885 154.414 104.87 154.458C104.841 154.539 104.797 154.604 104.746 154.656C104.702 154.7 104.636 154.788 104.533 154.919C104.423 155.066 104.343 155.168 104.292 155.22C104.196 155.322 104.116 155.366 104.057 155.366H103.977V156.729C104.057 156.729 104.145 156.743 104.248 156.765C104.306 156.78 104.394 156.809 104.511 156.853C104.658 156.904 104.768 156.941 104.848 156.956C104.98 156.992 105.104 157.007 105.236 157.007H105.507C105.646 157.007 105.749 156.97 105.822 156.897C105.896 156.824 105.925 156.699 105.903 156.523C105.961 156.494 105.998 156.436 106.027 156.348C106.049 156.26 106.042 156.179 106.005 156.106ZM103.684 156.772C103.684 156.729 103.662 156.685 103.632 156.648C103.596 156.619 103.552 156.597 103.508 156.597C103.457 156.597 103.413 156.619 103.383 156.648C103.347 156.685 103.332 156.729 103.332 156.772C103.332 156.824 103.347 156.868 103.383 156.897C103.413 156.934 103.457 156.948 103.508 156.948C103.552 156.948 103.596 156.934 103.632 156.897C103.662 156.868 103.684 156.824 103.684 156.772Z" fill="#434960"></path><path d="M113.296 155C113.362 155.073 113.398 155.154 113.398 155.249C113.398 155.352 113.362 155.432 113.296 155.498L112.007 156.787C111.934 156.86 111.846 156.89 111.75 156.89C111.655 156.89 111.575 156.86 111.509 156.794C111.436 156.729 111.406 156.641 111.406 156.538V155.967C111.055 155.989 110.798 156.033 110.637 156.106C110.476 156.179 110.388 156.289 110.359 156.421C110.337 156.538 110.359 156.699 110.425 156.904C110.454 157.007 110.439 157.095 110.388 157.183C110.337 157.271 110.264 157.322 110.168 157.351C110.073 157.38 109.985 157.358 109.897 157.3C109.67 157.153 109.495 156.978 109.37 156.758C109.238 156.538 109.18 156.289 109.18 156.025C109.18 155.469 109.421 155.073 109.912 154.832C110.256 154.67 110.754 154.575 111.406 154.553V153.96C111.406 153.857 111.436 153.777 111.509 153.711C111.575 153.645 111.655 153.608 111.75 153.608C111.846 153.608 111.934 153.645 112.007 153.711L113.296 155ZM111.758 156.538L113.047 155.249L111.758 153.96V154.897C111.318 154.897 110.967 154.919 110.718 154.963C110.344 155.022 110.066 155.125 109.875 155.271C109.641 155.454 109.531 155.703 109.531 156.025C109.531 156.252 109.59 156.458 109.714 156.633C109.802 156.78 109.927 156.904 110.088 157.007C109.971 156.641 109.971 156.348 110.095 156.128C110.198 155.938 110.403 155.798 110.71 155.71C110.959 155.645 111.311 155.608 111.758 155.601V156.538Z" fill="#434960"></path><path d="M117.664 153.843C118.001 153.843 118.316 153.916 118.602 154.048C118.887 154.187 119.114 154.37 119.283 154.604C119.451 154.839 119.539 155.088 119.539 155.366C119.539 155.645 119.451 155.901 119.283 156.135C119.114 156.37 118.887 156.553 118.602 156.685C118.316 156.824 118.001 156.89 117.664 156.89C117.43 156.89 117.203 156.86 116.983 156.787C116.661 157.014 116.324 157.124 115.965 157.124C115.928 157.124 115.899 157.117 115.87 157.095C115.84 157.08 115.818 157.051 115.804 157.021C115.789 156.992 115.782 156.956 115.789 156.919C115.796 156.89 115.811 156.86 115.833 156.838C115.855 156.816 115.899 156.758 115.965 156.67C116.06 156.538 116.133 156.414 116.177 156.289C115.914 156.018 115.789 155.71 115.789 155.366C115.789 155.088 115.87 154.839 116.038 154.604C116.207 154.37 116.434 154.187 116.719 154.048C117.005 153.916 117.32 153.843 117.664 153.843ZM117.664 156.538C117.935 156.538 118.191 156.487 118.426 156.384C118.66 156.282 118.843 156.135 118.982 155.952C119.114 155.776 119.188 155.579 119.188 155.366C119.188 155.161 119.114 154.963 118.982 154.78C118.843 154.604 118.66 154.458 118.426 154.355C118.191 154.253 117.935 154.194 117.664 154.194C117.386 154.194 117.137 154.253 116.902 154.355C116.668 154.458 116.478 154.604 116.346 154.78C116.207 154.963 116.141 155.161 116.141 155.366C116.141 155.615 116.236 155.842 116.434 156.047L116.58 156.208L116.507 156.414C116.463 156.516 116.419 156.611 116.36 156.714C116.507 156.67 116.646 156.597 116.778 156.494L116.924 156.399L117.093 156.45C117.276 156.509 117.466 156.538 117.664 156.538Z" fill="#434960"></path></g><g filter="url(#filter2_dd_5167_95627)"><rect x="166.078" y="64" width="63.6871" height="87.44" rx="0.893854" fill="white"></rect><circle cx="174.078" cy="72" r="4" fill="#DCDDE1"></circle><rect x="182.078" y="69" width="18.4925" height="2" rx="0.40201" fill="#DCDDE1"></rect><rect x="182.078" y="73" width="11.2563" height="2" rx="0.40201" fill="#DCDDE1"></rect><rect x="170.078" y="82" width="55.6871" height="3" rx="0.5" fill="#D0D1D7"></rect><path d="M170.078 88.5C170.078 88.2239 170.302 88 170.578 88H202.578C202.854 88 203.078 88.2239 203.078 88.5V90.5C203.078 90.7761 202.854 91 202.578 91H170.578C170.302 91 170.078 90.7761 170.078 90.5V88.5Z" fill="#D0D1D7"></path><g clip-path="url(#clip2_5167_95627)"><rect width="55.6871" height="43.44" transform="translate(170.078 97)" fill="#F9BBA0"></rect><circle cx="223" cy="161" r="40" fill="#F6966B"></circle></g><path d="M173.491 146.261C173.521 146.422 173.499 146.576 173.425 146.723C173.433 146.811 173.425 146.891 173.403 146.979C173.381 147.067 173.345 147.147 173.301 147.213C173.293 147.433 173.228 147.594 173.096 147.711C172.949 147.843 172.744 147.909 172.473 147.909H172.312C172.107 147.909 171.917 147.887 171.748 147.843C171.646 147.821 171.528 147.777 171.382 147.719C171.294 147.689 171.228 147.66 171.191 147.646C171.125 147.631 171.067 147.616 171.008 147.616C170.994 147.667 170.964 147.711 170.92 147.741C170.876 147.777 170.833 147.792 170.781 147.792H170.312C170.247 147.792 170.188 147.77 170.144 147.726C170.1 147.682 170.078 147.624 170.078 147.558V145.8C170.078 145.741 170.1 145.683 170.144 145.639C170.188 145.595 170.247 145.565 170.312 145.565H171.038C171.082 145.521 171.169 145.426 171.287 145.272C171.404 145.119 171.484 145.016 171.543 144.958C171.558 144.943 171.58 144.87 171.609 144.745C171.653 144.569 171.697 144.445 171.741 144.364C171.814 144.232 171.924 144.159 172.063 144.159C172.283 144.159 172.451 144.225 172.576 144.342C172.7 144.474 172.766 144.672 172.766 144.928C172.766 145.045 172.744 145.155 172.7 145.265H172.964C173.14 145.265 173.286 145.331 173.411 145.456C173.528 145.587 173.594 145.734 173.594 145.895C173.594 146.027 173.557 146.144 173.491 146.261ZM173.044 146.657C173.118 146.583 173.154 146.503 173.154 146.408C173.154 146.312 173.132 146.232 173.081 146.173C173.11 146.173 173.147 146.144 173.184 146.085C173.22 146.027 173.242 145.968 173.242 145.895C173.242 145.829 173.213 145.763 173.162 145.705C173.103 145.646 173.037 145.617 172.964 145.617H172.202C172.202 145.558 172.209 145.5 172.239 145.434C172.246 145.404 172.268 145.353 172.305 145.28C172.334 145.214 172.363 145.163 172.378 145.119C172.4 145.06 172.415 144.994 172.415 144.928C172.415 144.804 172.4 144.708 172.371 144.65C172.312 144.562 172.209 144.511 172.063 144.511C172.034 144.54 172.012 144.584 171.997 144.635C171.982 144.665 171.975 144.716 171.96 144.789C171.938 144.892 171.924 144.965 171.909 145.009C171.88 145.089 171.836 145.155 171.785 145.207C171.741 145.25 171.675 145.338 171.572 145.47C171.462 145.617 171.382 145.719 171.331 145.771C171.235 145.873 171.155 145.917 171.096 145.917H171.016V147.279C171.096 147.279 171.184 147.294 171.287 147.316C171.345 147.331 171.433 147.36 171.55 147.404C171.697 147.455 171.807 147.492 171.887 147.506C172.019 147.543 172.144 147.558 172.275 147.558H172.546C172.686 147.558 172.788 147.521 172.861 147.448C172.935 147.375 172.964 147.25 172.942 147.074C173 147.045 173.037 146.986 173.066 146.898C173.088 146.811 173.081 146.73 173.044 146.657ZM170.723 147.323C170.723 147.279 170.701 147.235 170.671 147.199C170.635 147.169 170.591 147.147 170.547 147.147C170.496 147.147 170.452 147.169 170.422 147.199C170.386 147.235 170.371 147.279 170.371 147.323C170.371 147.375 170.386 147.418 170.422 147.448C170.452 147.484 170.496 147.499 170.547 147.499C170.591 147.499 170.635 147.484 170.671 147.448C170.701 147.418 170.723 147.375 170.723 147.323Z" fill="#434960"></path><path d="M180.335 145.551C180.401 145.624 180.438 145.705 180.438 145.8C180.438 145.902 180.401 145.983 180.335 146.049L179.046 147.338C178.973 147.411 178.885 147.44 178.79 147.44C178.694 147.44 178.614 147.411 178.548 147.345C178.475 147.279 178.445 147.191 178.445 147.089V146.518C178.094 146.54 177.837 146.583 177.676 146.657C177.515 146.73 177.427 146.84 177.398 146.972C177.376 147.089 177.398 147.25 177.464 147.455C177.493 147.558 177.479 147.646 177.427 147.733C177.376 147.821 177.303 147.873 177.208 147.902C177.112 147.931 177.024 147.909 176.937 147.851C176.709 147.704 176.534 147.528 176.409 147.309C176.277 147.089 176.219 146.84 176.219 146.576C176.219 146.02 176.46 145.624 176.951 145.382C177.295 145.221 177.793 145.126 178.445 145.104V144.511C178.445 144.408 178.475 144.328 178.548 144.262C178.614 144.196 178.694 144.159 178.79 144.159C178.885 144.159 178.973 144.196 179.046 144.262L180.335 145.551ZM178.797 147.089L180.086 145.8L178.797 144.511V145.448C178.357 145.448 178.006 145.47 177.757 145.514C177.383 145.573 177.105 145.675 176.915 145.822C176.68 146.005 176.57 146.254 176.57 146.576C176.57 146.803 176.629 147.008 176.753 147.184C176.841 147.331 176.966 147.455 177.127 147.558C177.01 147.191 177.01 146.898 177.134 146.679C177.237 146.488 177.442 146.349 177.75 146.261C177.999 146.195 178.35 146.159 178.797 146.151V147.089Z" fill="#434960"></path><path d="M184.703 144.394C185.04 144.394 185.355 144.467 185.641 144.599C185.926 144.738 186.153 144.921 186.322 145.155C186.49 145.39 186.578 145.639 186.578 145.917C186.578 146.195 186.49 146.452 186.322 146.686C186.153 146.92 185.926 147.104 185.641 147.235C185.355 147.375 185.04 147.44 184.703 147.44C184.469 147.44 184.242 147.411 184.022 147.338C183.7 147.565 183.363 147.675 183.004 147.675C182.967 147.675 182.938 147.667 182.909 147.646C182.879 147.631 182.857 147.602 182.843 147.572C182.828 147.543 182.821 147.506 182.828 147.47C182.835 147.44 182.85 147.411 182.872 147.389C182.894 147.367 182.938 147.309 183.004 147.221C183.099 147.089 183.172 146.964 183.216 146.84C182.953 146.569 182.828 146.261 182.828 145.917C182.828 145.639 182.909 145.39 183.077 145.155C183.246 144.921 183.473 144.738 183.758 144.599C184.044 144.467 184.359 144.394 184.703 144.394ZM184.703 147.089C184.974 147.089 185.23 147.038 185.465 146.935C185.699 146.833 185.882 146.686 186.021 146.503C186.153 146.327 186.227 146.129 186.227 145.917C186.227 145.712 186.153 145.514 186.021 145.331C185.882 145.155 185.699 145.009 185.465 144.906C185.23 144.804 184.974 144.745 184.703 144.745C184.425 144.745 184.176 144.804 183.941 144.906C183.707 145.009 183.517 145.155 183.385 145.331C183.246 145.514 183.18 145.712 183.18 145.917C183.18 146.166 183.275 146.393 183.473 146.598L183.619 146.759L183.546 146.964C183.502 147.067 183.458 147.162 183.399 147.265C183.546 147.221 183.685 147.147 183.817 147.045L183.963 146.95L184.132 147.001C184.315 147.06 184.505 147.089 184.703 147.089Z" fill="#434960"></path></g><circle cx="117" cy="173" r="2" fill="#2C324C"></circle><circle cx="124" cy="173" r="2" fill="#D0D1D7"></circle><circle cx="131" cy="173" r="2" fill="#D0D1D7"></circle><circle cx="138" cy="173" r="2" fill="#D0D1D7"></circle><circle cx="145" cy="173" r="2" fill="#D0D1D7"></circle><defs><filter id="filter0_dd_5167_95627" x="30.8827" y="63.7765" width="65.9221" height="90.2346" filterUnits="userSpaceOnUse" color-interpolation-filters="sRGB"><feFlood flood-opacity="0" result="BackgroundImageFix"></feFlood><feColorMatrix in="SourceAlpha" type="matrix" values="0 0 0 0 0 0 0 0 0 0 0 0 0 0 0 0 0 0 127 0" result="hardAlpha"></feColorMatrix><feOffset dy="0.893854"></feOffset><feGaussianBlur stdDeviation="0.558659"></feGaussianBlur><feColorMatrix type="matrix" values="0 0 0 0 0 0 0 0 0 0 0 0 0 0 0 0 0 0 0.05 0"></feColorMatrix><feBlend mode="normal" in2="BackgroundImageFix" result="effect1_dropShadow_5167_95627"></feBlend><feColorMatrix in="SourceAlpha" type="matrix" values="0 0 0 0 0 0 0 0 0 0 0 0 0 0 0 0 0 0 127 0" result="hardAlpha"></feColorMatrix><feOffset dy="0.223464"></feOffset><feGaussianBlur stdDeviation="0.223464"></feGaussianBlur><feColorMatrix type="matrix" values="0 0 0 0 0 0 0 0 0 0 0 0 0 0 0 0 0 0 0.05 0"></feColorMatrix><feBlend mode="normal" in2="effect1_dropShadow_5167_95627" result="effect2_dropShadow_5167_95627"></feBlend><feBlend mode="normal" in="SourceGraphic" in2="effect2_dropShadow_5167_95627" result="shape"></feBlend></filter><filter id="filter1_dd_5167_95627" x="97.9217" y="63.7765" width="65.9221" height="99.1243" filterUnits="userSpaceOnUse" color-interpolation-filters="sRGB"><feFlood flood-opacity="0" result="BackgroundImageFix"></feFlood><feColorMatrix in="SourceAlpha" type="matrix" values="0 0 0 0 0 0 0 0 0 0 0 0 0 0 0 0 0 0 127 0" result="hardAlpha"></feColorMatrix><feOffset dy="0.893854"></feOffset><feGaussianBlur stdDeviation="0.558659"></feGaussianBlur><feColorMatrix type="matrix" values="0 0 0 0 0 0 0 0 0 0 0 0 0 0 0 0 0 0 0.05 0"></feColorMatrix><feBlend mode="normal" in2="BackgroundImageFix" result="effect1_dropShadow_5167_95627"></feBlend><feColorMatrix in="SourceAlpha" type="matrix" values="0 0 0 0 0 0 0 0 0 0 0 0 0 0 0 0 0 0 127 0" result="hardAlpha"></feColorMatrix><feOffset dy="0.223464"></feOffset><feGaussianBlur stdDeviation="0.223464"></feGaussianBlur><feColorMatrix type="matrix" values="0 0 0 0 0 0 0 0 0 0 0 0 0 0 0 0 0 0 0.05 0"></feColorMatrix><feBlend mode="normal" in2="effect1_dropShadow_5167_95627" result="effect2_dropShadow_5167_95627"></feBlend><feBlend mode="normal" in="SourceGraphic" in2="effect2_dropShadow_5167_95627" result="shape"></feBlend></filter><filter id="filter2_dd_5167_95627" x="164.961" y="63.7765" width="65.9221" height="89.6751" filterUnits="userSpaceOnUse" color-interpolation-filters="sRGB"><feFlood flood-opacity="0" result="BackgroundImageFix"></feFlood><feColorMatrix in="SourceAlpha" type="matrix" values="0 0 0 0 0 0 0 0 0 0 0 0 0 0 0 0 0 0 127 0" result="hardAlpha"></feColorMatrix><feOffset dy="0.893854"></feOffset><feGaussianBlur stdDeviation="0.558659"></feGaussianBlur><feColorMatrix type="matrix" values="0 0 0 0 0 0 0 0 0 0 0 0 0 0 0 0 0 0 0.05 0"></feColorMatrix><feBlend mode="normal" in2="BackgroundImageFix" result="effect1_dropShadow_5167_95627"></feBlend><feColorMatrix in="SourceAlpha" type="matrix" values="0 0 0 0 0 0 0 0 0 0 0 0 0 0 0 0 0 0 127 0" result="hardAlpha"></feColorMatrix><feOffset dy="0.223464"></feOffset><feGaussianBlur stdDeviation="0.223464"></feGaussianBlur><feColorMatrix type="matrix" values="0 0 0 0 0 0 0 0 0 0 0 0 0 0 0 0 0 0 0.05 0"></feColorMatrix><feBlend mode="normal" in2="effect1_dropShadow_5167_95627" result="effect2_dropShadow_5167_95627"></feBlend><feBlend mode="normal" in="SourceGraphic" in2="effect2_dropShadow_5167_95627" result="shape"></feBlend></filter><clipPath id="clip0_5167_95627"><rect x="36" y="97" width="55.6871" height="44" rx="1" fill="white"></rect></clipPath><clipPath id="clip1_5167_95627"><rect width="55.6871" height="52.89" fill="white" transform="translate(103.039 97)"></rect></clipPath><clipPath id="clip2_5167_95627"><rect width="55.6871" height="43.44" fill="white" transform="translate(170.078 97)"></rect></clipPath></defs></svg> 