<?xml version="1.0" encoding="UTF-8"?> <svg xmlns="http://www.w3.org/2000/svg" width="263" height="200" viewBox="0 0 263 200" fill="none"><g clip-path="url(#clip0_5167_95520)"><rect width="262" height="200" transform="translate(0.5)" fill="#F3F4F5"></rect><g filter="url(#filter0_dd_5167_95520)"><rect x="52.5" y="108.773" width="160" height="74.7739" rx="0.718677" fill="white"></rect><g clip-path="url(#clip1_5167_95520)"><rect x="55" y="111" width="59" height="70" rx="1" fill="#8C8F9A"></rect><rect opacity="0.5" x="55.6055" y="183.118" width="55" height="55" transform="rotate(-45 55.6055 183.118)" fill="#D0D1D7"></rect></g><circle cx="126.628" cy="121.628" r="5.62814" fill="#DCDDE1"></circle><rect x="136.277" y="118.411" width="18.4925" height="2.41206" rx="0.40201" fill="#DCDDE1"></rect><rect x="136.277" y="123.235" width="11.2563" height="2.41206" rx="0.40201" fill="#DCDDE1"></rect><rect x="123.41" y="138.512" width="75.5779" height="4.0201" rx="0.40201" fill="#DCDDE1"></rect><rect x="123.41" y="145.748" width="75.5779" height="4.0201" rx="0.40201" fill="#DCDDE1"></rect><rect x="123.41" y="152.984" width="46.6332" height="4.0201" rx="0.40201" fill="#DCDDE1"></rect><path d="M125.413 175.821C125.442 175.982 125.42 176.136 125.347 176.282C125.354 176.37 125.347 176.451 125.325 176.539C125.303 176.626 125.267 176.707 125.223 176.773C125.215 176.993 125.149 177.154 125.018 177.271C124.871 177.403 124.666 177.469 124.395 177.469H124.234C124.029 177.469 123.838 177.447 123.67 177.403C123.567 177.381 123.45 177.337 123.304 177.278C123.216 177.249 123.15 177.22 123.113 177.205C123.047 177.19 122.989 177.176 122.93 177.176C122.916 177.227 122.886 177.271 122.842 177.3C122.798 177.337 122.754 177.352 122.703 177.352H122.234C122.168 177.352 122.11 177.33 122.066 177.286C122.022 177.242 122 177.183 122 177.117V175.359C122 175.301 122.022 175.242 122.066 175.198C122.11 175.154 122.168 175.125 122.234 175.125H122.959C123.003 175.081 123.091 174.986 123.208 174.832C123.326 174.678 123.406 174.576 123.465 174.517C123.479 174.502 123.501 174.429 123.531 174.305C123.575 174.129 123.619 174.004 123.663 173.924C123.736 173.792 123.846 173.719 123.985 173.719C124.205 173.719 124.373 173.785 124.498 173.902C124.622 174.034 124.688 174.231 124.688 174.488C124.688 174.605 124.666 174.715 124.622 174.825H124.886C125.062 174.825 125.208 174.891 125.333 175.015C125.45 175.147 125.516 175.293 125.516 175.455C125.516 175.586 125.479 175.704 125.413 175.821ZM124.966 176.216C125.04 176.143 125.076 176.062 125.076 175.967C125.076 175.872 125.054 175.792 125.003 175.733C125.032 175.733 125.069 175.704 125.105 175.645C125.142 175.586 125.164 175.528 125.164 175.455C125.164 175.389 125.135 175.323 125.083 175.264C125.025 175.206 124.959 175.176 124.886 175.176H124.124C124.124 175.118 124.131 175.059 124.161 174.993C124.168 174.964 124.19 174.913 124.227 174.839C124.256 174.773 124.285 174.722 124.3 174.678C124.322 174.62 124.336 174.554 124.336 174.488C124.336 174.363 124.322 174.268 124.292 174.209C124.234 174.122 124.131 174.07 123.985 174.07C123.956 174.1 123.934 174.144 123.919 174.195C123.904 174.224 123.897 174.275 123.882 174.349C123.86 174.451 123.846 174.524 123.831 174.568C123.802 174.649 123.758 174.715 123.707 174.766C123.663 174.81 123.597 174.898 123.494 175.03C123.384 175.176 123.304 175.279 123.252 175.33C123.157 175.433 123.077 175.477 123.018 175.477H122.938V176.839C123.018 176.839 123.106 176.854 123.208 176.875C123.267 176.89 123.355 176.919 123.472 176.963C123.619 177.015 123.729 177.051 123.809 177.066C123.941 177.103 124.065 177.117 124.197 177.117H124.468C124.607 177.117 124.71 177.081 124.783 177.007C124.856 176.934 124.886 176.81 124.864 176.634C124.922 176.604 124.959 176.546 124.988 176.458C125.01 176.37 125.003 176.29 124.966 176.216ZM122.645 176.883C122.645 176.839 122.623 176.795 122.593 176.758C122.557 176.729 122.513 176.707 122.469 176.707C122.417 176.707 122.374 176.729 122.344 176.758C122.308 176.795 122.293 176.839 122.293 176.883C122.293 176.934 122.308 176.978 122.344 177.007C122.374 177.044 122.417 177.059 122.469 177.059C122.513 177.059 122.557 177.044 122.593 177.007C122.623 176.978 122.645 176.934 122.645 176.883Z" fill="#434960"></path><path d="M132.257 175.11C132.323 175.184 132.359 175.264 132.359 175.359C132.359 175.462 132.323 175.542 132.257 175.608L130.968 176.897C130.895 176.971 130.807 177 130.711 177C130.616 177 130.536 176.971 130.47 176.905C130.396 176.839 130.367 176.751 130.367 176.648V176.077C130.016 176.099 129.759 176.143 129.598 176.216C129.437 176.29 129.349 176.399 129.32 176.531C129.298 176.648 129.32 176.81 129.386 177.015C129.415 177.117 129.4 177.205 129.349 177.293C129.298 177.381 129.225 177.432 129.129 177.461C129.034 177.491 128.946 177.469 128.858 177.41C128.631 177.264 128.456 177.088 128.331 176.868C128.199 176.648 128.141 176.399 128.141 176.136C128.141 175.579 128.382 175.184 128.873 174.942C129.217 174.781 129.715 174.686 130.367 174.664V174.07C130.367 173.968 130.396 173.887 130.47 173.821C130.536 173.755 130.616 173.719 130.711 173.719C130.807 173.719 130.895 173.755 130.968 173.821L132.257 175.11ZM130.719 176.648L132.008 175.359L130.719 174.07V175.008C130.279 175.008 129.928 175.03 129.679 175.074C129.305 175.132 129.027 175.235 128.836 175.381C128.602 175.564 128.492 175.813 128.492 176.136C128.492 176.363 128.551 176.568 128.675 176.744C128.763 176.89 128.888 177.015 129.049 177.117C128.932 176.751 128.932 176.458 129.056 176.238C129.159 176.048 129.364 175.909 129.671 175.821C129.92 175.755 130.272 175.718 130.719 175.711V176.648Z" fill="#434960"></path><path d="M136.625 173.953C136.962 173.953 137.277 174.026 137.562 174.158C137.848 174.297 138.075 174.48 138.244 174.715C138.412 174.949 138.5 175.198 138.5 175.477C138.5 175.755 138.412 176.011 138.244 176.246C138.075 176.48 137.848 176.663 137.562 176.795C137.277 176.934 136.962 177 136.625 177C136.391 177 136.164 176.971 135.944 176.897C135.622 177.125 135.285 177.234 134.926 177.234C134.889 177.234 134.86 177.227 134.831 177.205C134.801 177.19 134.779 177.161 134.765 177.132C134.75 177.103 134.743 177.066 134.75 177.029C134.757 177 134.772 176.971 134.794 176.949C134.816 176.927 134.86 176.868 134.926 176.78C135.021 176.648 135.094 176.524 135.138 176.399C134.875 176.128 134.75 175.821 134.75 175.477C134.75 175.198 134.831 174.949 134.999 174.715C135.167 174.48 135.395 174.297 135.68 174.158C135.966 174.026 136.281 173.953 136.625 173.953ZM136.625 176.648C136.896 176.648 137.152 176.597 137.387 176.495C137.621 176.392 137.804 176.246 137.943 176.062C138.075 175.887 138.148 175.689 138.148 175.477C138.148 175.271 138.075 175.074 137.943 174.891C137.804 174.715 137.621 174.568 137.387 174.466C137.152 174.363 136.896 174.305 136.625 174.305C136.347 174.305 136.098 174.363 135.863 174.466C135.629 174.568 135.438 174.715 135.307 174.891C135.167 175.074 135.102 175.271 135.102 175.477C135.102 175.726 135.197 175.953 135.395 176.158L135.541 176.319L135.468 176.524C135.424 176.626 135.38 176.722 135.321 176.824C135.468 176.78 135.607 176.707 135.739 176.604L135.885 176.509L136.054 176.561C136.237 176.619 136.427 176.648 136.625 176.648Z" fill="#434960"></path></g><g filter="url(#filter1_dd_5167_95520)"><rect x="52.5" y="30" width="160" height="74.7739" rx="0.718677" fill="white"></rect><g clip-path="url(#clip2_5167_95520)"><rect x="55" y="32" width="59" height="71" rx="1" fill="#8C8F9A"></rect><circle opacity="0.5" cx="123.745" cy="94.3111" r="53.4673" fill="#D0D1D7"></circle></g><circle cx="125.628" cy="42.6281" r="5.62814" fill="#DCDDE1"></circle><rect x="135.258" y="39.2158" width="18.4925" height="2.41206" rx="0.40201" fill="#DCDDE1"></rect><rect x="135.258" y="43.6279" width="11.2563" height="2.41206" rx="0.40201" fill="#DCDDE1"></rect><rect x="122.41" y="59.5117" width="75.5779" height="4.0201" rx="0.40201" fill="#DCDDE1"></rect><rect x="122.41" y="66.748" width="75.5779" height="4.0201" rx="0.40201" fill="#DCDDE1"></rect><rect x="122.41" y="73.9844" width="46.6332" height="4.0201" rx="0.40201" fill="#DCDDE1"></rect><path d="M125.413 96.8208C125.442 96.9819 125.42 97.1357 125.347 97.2822C125.354 97.3701 125.347 97.4507 125.325 97.5386C125.303 97.6265 125.267 97.707 125.223 97.7729C125.215 97.9927 125.149 98.1538 125.018 98.271C124.871 98.4028 124.666 98.4688 124.395 98.4688H124.234C124.029 98.4688 123.838 98.4468 123.67 98.4028C123.567 98.3809 123.45 98.3369 123.304 98.2783C123.216 98.249 123.15 98.2197 123.113 98.2051C123.047 98.1904 122.989 98.1758 122.93 98.1758C122.916 98.2271 122.886 98.271 122.842 98.3003C122.798 98.3369 122.754 98.3516 122.703 98.3516H122.234C122.168 98.3516 122.11 98.3296 122.066 98.2856C122.022 98.2417 122 98.1831 122 98.1172V96.3594C122 96.3008 122.022 96.2422 122.066 96.1982C122.11 96.1543 122.168 96.125 122.234 96.125H122.959C123.003 96.0811 123.091 95.9858 123.208 95.832C123.326 95.6782 123.406 95.5757 123.465 95.5171C123.479 95.5024 123.501 95.4292 123.531 95.3047C123.575 95.1289 123.619 95.0044 123.663 94.9238C123.736 94.792 123.846 94.7188 123.985 94.7188C124.205 94.7188 124.373 94.7847 124.498 94.9019C124.622 95.0337 124.688 95.2314 124.688 95.4878C124.688 95.605 124.666 95.7148 124.622 95.8247H124.886C125.062 95.8247 125.208 95.8906 125.333 96.0151C125.45 96.147 125.516 96.2935 125.516 96.4546C125.516 96.5864 125.479 96.7036 125.413 96.8208ZM124.966 97.2163C125.04 97.1431 125.076 97.0625 125.076 96.9673C125.076 96.8721 125.054 96.7915 125.003 96.7329C125.032 96.7329 125.069 96.7036 125.105 96.645C125.142 96.5864 125.164 96.5278 125.164 96.4546C125.164 96.3887 125.135 96.3228 125.083 96.2642C125.025 96.2056 124.959 96.1763 124.886 96.1763H124.124C124.124 96.1177 124.131 96.0591 124.161 95.9932C124.168 95.9639 124.19 95.9126 124.227 95.8394C124.256 95.7734 124.285 95.7222 124.3 95.6782C124.322 95.6196 124.336 95.5537 124.336 95.4878C124.336 95.3633 124.322 95.2681 124.292 95.2095C124.234 95.1216 124.131 95.0703 123.985 95.0703C123.956 95.0996 123.934 95.1436 123.919 95.1948C123.904 95.2241 123.897 95.2754 123.882 95.3486C123.86 95.4512 123.846 95.5244 123.831 95.5684C123.802 95.6489 123.758 95.7148 123.707 95.7661C123.663 95.8101 123.597 95.8979 123.494 96.0298C123.384 96.1763 123.304 96.2788 123.252 96.3301C123.157 96.4326 123.077 96.4766 123.018 96.4766H122.938V97.8389C123.018 97.8389 123.106 97.8535 123.208 97.8755C123.267 97.8901 123.355 97.9194 123.472 97.9634C123.619 98.0146 123.729 98.0513 123.809 98.0659C123.941 98.1025 124.065 98.1172 124.197 98.1172H124.468C124.607 98.1172 124.71 98.0806 124.783 98.0073C124.856 97.9341 124.886 97.8096 124.864 97.6338C124.922 97.6045 124.959 97.5459 124.988 97.458C125.01 97.3701 125.003 97.2896 124.966 97.2163ZM122.645 97.8828C122.645 97.8389 122.623 97.7949 122.593 97.7583C122.557 97.729 122.513 97.707 122.469 97.707C122.417 97.707 122.374 97.729 122.344 97.7583C122.308 97.7949 122.293 97.8389 122.293 97.8828C122.293 97.9341 122.308 97.978 122.344 98.0073C122.374 98.0439 122.417 98.0586 122.469 98.0586C122.513 98.0586 122.557 98.0439 122.593 98.0073C122.623 97.978 122.645 97.9341 122.645 97.8828Z" fill="#434960"></path><path d="M132.257 96.1104C132.323 96.1836 132.359 96.2642 132.359 96.3594C132.359 96.4619 132.323 96.5425 132.257 96.6084L130.968 97.8975C130.895 97.9707 130.807 98 130.711 98C130.616 98 130.536 97.9707 130.47 97.9048C130.396 97.8389 130.367 97.751 130.367 97.6484V97.0771C130.016 97.0991 129.759 97.1431 129.598 97.2163C129.437 97.2896 129.349 97.3994 129.32 97.5312C129.298 97.6484 129.32 97.8096 129.386 98.0146C129.415 98.1172 129.4 98.2051 129.349 98.293C129.298 98.3809 129.225 98.4321 129.129 98.4614C129.034 98.4907 128.946 98.4688 128.858 98.4102C128.631 98.2637 128.456 98.0879 128.331 97.8682C128.199 97.6484 128.141 97.3994 128.141 97.1357C128.141 96.5791 128.382 96.1836 128.873 95.9419C129.217 95.7808 129.715 95.6855 130.367 95.6636V95.0703C130.367 94.9678 130.396 94.8872 130.47 94.8213C130.536 94.7554 130.616 94.7188 130.711 94.7188C130.807 94.7188 130.895 94.7554 130.968 94.8213L132.257 96.1104ZM130.719 97.6484L132.008 96.3594L130.719 95.0703V96.0078C130.279 96.0078 129.928 96.0298 129.679 96.0737C129.305 96.1323 129.027 96.2349 128.836 96.3813C128.602 96.5645 128.492 96.8135 128.492 97.1357C128.492 97.3628 128.551 97.5679 128.675 97.7437C128.763 97.8901 128.888 98.0146 129.049 98.1172C128.932 97.751 128.932 97.458 129.056 97.2383C129.159 97.0479 129.364 96.9087 129.671 96.8208C129.92 96.7549 130.272 96.7183 130.719 96.7109V97.6484Z" fill="#434960"></path><path d="M136.625 94.9531C136.962 94.9531 137.277 95.0264 137.562 95.1582C137.848 95.2974 138.075 95.4805 138.244 95.7148C138.412 95.9492 138.5 96.1982 138.5 96.4766C138.5 96.7549 138.412 97.0112 138.244 97.2456C138.075 97.48 137.848 97.6631 137.562 97.7949C137.277 97.9341 136.962 98 136.625 98C136.391 98 136.164 97.9707 135.944 97.8975C135.622 98.1245 135.285 98.2344 134.926 98.2344C134.889 98.2344 134.86 98.2271 134.831 98.2051C134.801 98.1904 134.779 98.1611 134.765 98.1318C134.75 98.1025 134.743 98.0659 134.75 98.0293C134.757 98 134.772 97.9707 134.794 97.9487C134.816 97.9268 134.86 97.8682 134.926 97.7803C135.021 97.6484 135.094 97.5239 135.138 97.3994C134.875 97.1284 134.75 96.8208 134.75 96.4766C134.75 96.1982 134.831 95.9492 134.999 95.7148C135.167 95.4805 135.395 95.2974 135.68 95.1582C135.966 95.0264 136.281 94.9531 136.625 94.9531ZM136.625 97.6484C136.896 97.6484 137.152 97.5972 137.387 97.4946C137.621 97.3921 137.804 97.2456 137.943 97.0625C138.075 96.8867 138.148 96.689 138.148 96.4766C138.148 96.2715 138.075 96.0737 137.943 95.8906C137.804 95.7148 137.621 95.5684 137.387 95.4658C137.152 95.3633 136.896 95.3047 136.625 95.3047C136.347 95.3047 136.098 95.3633 135.863 95.4658C135.629 95.5684 135.438 95.7148 135.307 95.8906C135.167 96.0737 135.102 96.2715 135.102 96.4766C135.102 96.7256 135.197 96.9526 135.395 97.1577L135.541 97.3188L135.468 97.5239C135.424 97.6265 135.38 97.7217 135.321 97.8242C135.468 97.7803 135.607 97.707 135.739 97.6045L135.885 97.5093L136.054 97.5605C136.237 97.6191 136.427 97.6484 136.625 97.6484Z" fill="#434960"></path></g><g filter="url(#filter2_dd_5167_95520)"><rect x="52.5" y="187.548" width="160" height="74.7739" rx="0.718677" fill="white"></rect><g clip-path="url(#clip3_5167_95520)"><rect x="55" y="190" width="59.4975" height="71.5578" rx="1" fill="#8C8F9A"></rect><circle opacity="0.5" cx="123.745" cy="248.311" r="53.4673" fill="#D0D1D7"></circle></g><circle cx="126.628" cy="200.628" r="5.62814" fill="#DCDDE1"></circle><rect x="136.277" y="197.412" width="18.4925" height="2.41206" rx="0.40201" fill="#DCDDE1"></rect></g></g><defs><filter id="filter0_dd_5167_95520" x="51.6017" y="108.594" width="161.797" height="76.5701" filterUnits="userSpaceOnUse" color-interpolation-filters="sRGB"><feFlood flood-opacity="0" result="BackgroundImageFix"></feFlood><feColorMatrix in="SourceAlpha" type="matrix" values="0 0 0 0 0 0 0 0 0 0 0 0 0 0 0 0 0 0 127 0" result="hardAlpha"></feColorMatrix><feOffset dy="0.718677"></feOffset><feGaussianBlur stdDeviation="0.449173"></feGaussianBlur><feColorMatrix type="matrix" values="0 0 0 0 0 0 0 0 0 0 0 0 0 0 0 0 0 0 0.05 0"></feColorMatrix><feBlend mode="normal" in2="BackgroundImageFix" result="effect1_dropShadow_5167_95520"></feBlend><feColorMatrix in="SourceAlpha" type="matrix" values="0 0 0 0 0 0 0 0 0 0 0 0 0 0 0 0 0 0 127 0" result="hardAlpha"></feColorMatrix><feOffset dy="0.179669"></feOffset><feGaussianBlur stdDeviation="0.179669"></feGaussianBlur><feColorMatrix type="matrix" values="0 0 0 0 0 0 0 0 0 0 0 0 0 0 0 0 0 0 0.05 0"></feColorMatrix><feBlend mode="normal" in2="effect1_dropShadow_5167_95520" result="effect2_dropShadow_5167_95520"></feBlend><feBlend mode="normal" in="SourceGraphic" in2="effect2_dropShadow_5167_95520" result="shape"></feBlend></filter><filter id="filter1_dd_5167_95520" x="51.6017" y="29.8203" width="161.797" height="76.5701" filterUnits="userSpaceOnUse" color-interpolation-filters="sRGB"><feFlood flood-opacity="0" result="BackgroundImageFix"></feFlood><feColorMatrix in="SourceAlpha" type="matrix" values="0 0 0 0 0 0 0 0 0 0 0 0 0 0 0 0 0 0 127 0" result="hardAlpha"></feColorMatrix><feOffset dy="0.718677"></feOffset><feGaussianBlur stdDeviation="0.449173"></feGaussianBlur><feColorMatrix type="matrix" values="0 0 0 0 0 0 0 0 0 0 0 0 0 0 0 0 0 0 0.05 0"></feColorMatrix><feBlend mode="normal" in2="BackgroundImageFix" result="effect1_dropShadow_5167_95520"></feBlend><feColorMatrix in="SourceAlpha" type="matrix" values="0 0 0 0 0 0 0 0 0 0 0 0 0 0 0 0 0 0 127 0" result="hardAlpha"></feColorMatrix><feOffset dy="0.179669"></feOffset><feGaussianBlur stdDeviation="0.179669"></feGaussianBlur><feColorMatrix type="matrix" values="0 0 0 0 0 0 0 0 0 0 0 0 0 0 0 0 0 0 0.05 0"></feColorMatrix><feBlend mode="normal" in2="effect1_dropShadow_5167_95520" result="effect2_dropShadow_5167_95520"></feBlend><feBlend mode="normal" in="SourceGraphic" in2="effect2_dropShadow_5167_95520" result="shape"></feBlend></filter><filter id="filter2_dd_5167_95520" x="51.6017" y="187.368" width="161.797" height="76.5701" filterUnits="userSpaceOnUse" color-interpolation-filters="sRGB"><feFlood flood-opacity="0" result="BackgroundImageFix"></feFlood><feColorMatrix in="SourceAlpha" type="matrix" values="0 0 0 0 0 0 0 0 0 0 0 0 0 0 0 0 0 0 127 0" result="hardAlpha"></feColorMatrix><feOffset dy="0.718677"></feOffset><feGaussianBlur stdDeviation="0.449173"></feGaussianBlur><feColorMatrix type="matrix" values="0 0 0 0 0 0 0 0 0 0 0 0 0 0 0 0 0 0 0.05 0"></feColorMatrix><feBlend mode="normal" in2="BackgroundImageFix" result="effect1_dropShadow_5167_95520"></feBlend><feColorMatrix in="SourceAlpha" type="matrix" values="0 0 0 0 0 0 0 0 0 0 0 0 0 0 0 0 0 0 127 0" result="hardAlpha"></feColorMatrix><feOffset dy="0.179669"></feOffset><feGaussianBlur stdDeviation="0.179669"></feGaussianBlur><feColorMatrix type="matrix" values="0 0 0 0 0 0 0 0 0 0 0 0 0 0 0 0 0 0 0.05 0"></feColorMatrix><feBlend mode="normal" in2="effect1_dropShadow_5167_95520" result="effect2_dropShadow_5167_95520"></feBlend><feBlend mode="normal" in="SourceGraphic" in2="effect2_dropShadow_5167_95520" result="shape"></feBlend></filter><clipPath id="clip0_5167_95520"><rect width="262" height="200" fill="white" transform="translate(0.5)"></rect></clipPath><clipPath id="clip1_5167_95520"><rect x="55" y="111" width="59" height="70" rx="1" fill="white"></rect></clipPath><clipPath id="clip2_5167_95520"><rect x="55" y="32" width="59" height="71" rx="1" fill="white"></rect></clipPath><clipPath id="clip3_5167_95520"><rect x="55" y="190" width="59.4975" height="71.5578" rx="1" fill="white"></rect></clipPath></defs></svg> 