<?xml version="1.0" encoding="UTF-8"?> <svg xmlns="http://www.w3.org/2000/svg" width="262" height="200" viewBox="0 0 262 200" fill="none"><rect width="262" height="200" fill="#F3F4F5"></rect><g filter="url(#filter0_dd_5167_95579)"><rect x="31.5" y="52.1738" width="199" height="93" rx="0.893854" fill="white"></rect><g clip-path="url(#clip0_5167_95579)"><rect width="74" height="89" transform="translate(33 54)" fill="#FFDF99"></rect><circle cx="118.5" cy="131.5" r="66.5" fill="#FFD066"></circle></g><circle cx="122" cy="68" r="7" fill="#DCDDE1"></circle><rect x="134" y="64" width="23" height="3" rx="0.5" fill="#DCDDE1"></rect><rect x="134" y="70" width="14" height="3" rx="0.5" fill="#DCDDE1"></rect><rect x="118" y="89" width="94" height="5" rx="0.5" fill="#DCDDE1"></rect><rect x="118" y="98" width="94" height="5" rx="0.5" fill="#DCDDE1"></rect><rect x="118" y="107" width="58" height="5" rx="0.5" fill="#DCDDE1"></rect><path d="M124.551 132.428C124.59 132.643 124.561 132.848 124.463 133.043C124.473 133.16 124.463 133.268 124.434 133.385C124.404 133.502 124.355 133.609 124.297 133.697C124.287 133.99 124.199 134.205 124.023 134.361C123.828 134.537 123.555 134.625 123.193 134.625H122.979C122.705 134.625 122.451 134.596 122.227 134.537C122.09 134.508 121.934 134.449 121.738 134.371C121.621 134.332 121.533 134.293 121.484 134.273C121.396 134.254 121.318 134.234 121.24 134.234C121.221 134.303 121.182 134.361 121.123 134.4C121.064 134.449 121.006 134.469 120.938 134.469H120.312C120.225 134.469 120.146 134.439 120.088 134.381C120.029 134.322 120 134.244 120 134.156V131.812C120 131.734 120.029 131.656 120.088 131.598C120.146 131.539 120.225 131.5 120.312 131.5H121.279C121.338 131.441 121.455 131.314 121.611 131.109C121.768 130.904 121.875 130.768 121.953 130.689C121.973 130.67 122.002 130.572 122.041 130.406C122.1 130.172 122.158 130.006 122.217 129.898C122.314 129.723 122.461 129.625 122.646 129.625C122.939 129.625 123.164 129.713 123.33 129.869C123.496 130.045 123.584 130.309 123.584 130.65C123.584 130.807 123.555 130.953 123.496 131.1H123.848C124.082 131.1 124.277 131.188 124.443 131.354C124.6 131.529 124.688 131.725 124.688 131.939C124.688 132.115 124.639 132.271 124.551 132.428ZM123.955 132.955C124.053 132.857 124.102 132.75 124.102 132.623C124.102 132.496 124.072 132.389 124.004 132.311C124.043 132.311 124.092 132.271 124.141 132.193C124.189 132.115 124.219 132.037 124.219 131.939C124.219 131.852 124.18 131.764 124.111 131.686C124.033 131.607 123.945 131.568 123.848 131.568H122.832C122.832 131.49 122.842 131.412 122.881 131.324C122.891 131.285 122.92 131.217 122.969 131.119C123.008 131.031 123.047 130.963 123.066 130.904C123.096 130.826 123.115 130.738 123.115 130.65C123.115 130.484 123.096 130.357 123.057 130.279C122.979 130.162 122.842 130.094 122.646 130.094C122.607 130.133 122.578 130.191 122.559 130.26C122.539 130.299 122.529 130.367 122.51 130.465C122.48 130.602 122.461 130.699 122.441 130.758C122.402 130.865 122.344 130.953 122.275 131.021C122.217 131.08 122.129 131.197 121.992 131.373C121.846 131.568 121.738 131.705 121.67 131.773C121.543 131.91 121.436 131.969 121.357 131.969H121.25V133.785C121.357 133.785 121.475 133.805 121.611 133.834C121.689 133.854 121.807 133.893 121.963 133.951C122.158 134.02 122.305 134.068 122.412 134.088C122.588 134.137 122.754 134.156 122.93 134.156H123.291C123.477 134.156 123.613 134.107 123.711 134.01C123.809 133.912 123.848 133.746 123.818 133.512C123.896 133.473 123.945 133.395 123.984 133.277C124.014 133.16 124.004 133.053 123.955 132.955ZM120.859 133.844C120.859 133.785 120.83 133.727 120.791 133.678C120.742 133.639 120.684 133.609 120.625 133.609C120.557 133.609 120.498 133.639 120.459 133.678C120.41 133.727 120.391 133.785 120.391 133.844C120.391 133.912 120.41 133.971 120.459 134.01C120.498 134.059 120.557 134.078 120.625 134.078C120.684 134.078 120.742 134.059 120.791 134.01C120.83 133.971 120.859 133.912 120.859 133.844Z" fill="#434960"></path><path d="M133.676 131.48C133.764 131.578 133.812 131.686 133.812 131.812C133.812 131.949 133.764 132.057 133.676 132.145L131.957 133.863C131.859 133.961 131.742 134 131.615 134C131.488 134 131.381 133.961 131.293 133.873C131.195 133.785 131.156 133.668 131.156 133.531V132.77C130.688 132.799 130.346 132.857 130.131 132.955C129.916 133.053 129.799 133.199 129.76 133.375C129.73 133.531 129.76 133.746 129.848 134.02C129.887 134.156 129.867 134.273 129.799 134.391C129.73 134.508 129.633 134.576 129.506 134.615C129.379 134.654 129.262 134.625 129.145 134.547C128.842 134.352 128.607 134.117 128.441 133.824C128.266 133.531 128.188 133.199 128.188 132.848C128.188 132.105 128.51 131.578 129.164 131.256C129.623 131.041 130.287 130.914 131.156 130.885V130.094C131.156 129.957 131.195 129.85 131.293 129.762C131.381 129.674 131.488 129.625 131.615 129.625C131.742 129.625 131.859 129.674 131.957 129.762L133.676 131.48ZM131.625 133.531L133.344 131.812L131.625 130.094V131.344C131.039 131.344 130.57 131.373 130.238 131.432C129.74 131.51 129.369 131.646 129.115 131.842C128.803 132.086 128.656 132.418 128.656 132.848C128.656 133.15 128.734 133.424 128.9 133.658C129.018 133.854 129.184 134.02 129.398 134.156C129.242 133.668 129.242 133.277 129.408 132.984C129.545 132.73 129.818 132.545 130.229 132.428C130.561 132.34 131.029 132.291 131.625 132.281V133.531Z" fill="#434960"></path><path d="M139.5 129.938C139.949 129.938 140.369 130.035 140.75 130.211C141.131 130.396 141.434 130.641 141.658 130.953C141.883 131.266 142 131.598 142 131.969C142 132.34 141.883 132.682 141.658 132.994C141.434 133.307 141.131 133.551 140.75 133.727C140.369 133.912 139.949 134 139.5 134C139.188 134 138.885 133.961 138.592 133.863C138.162 134.166 137.713 134.312 137.234 134.312C137.186 134.312 137.146 134.303 137.107 134.273C137.068 134.254 137.039 134.215 137.02 134.176C137 134.137 136.99 134.088 137 134.039C137.01 134 137.029 133.961 137.059 133.932C137.088 133.902 137.146 133.824 137.234 133.707C137.361 133.531 137.459 133.365 137.518 133.199C137.166 132.838 137 132.428 137 131.969C137 131.598 137.107 131.266 137.332 130.953C137.557 130.641 137.859 130.396 138.24 130.211C138.621 130.035 139.041 129.938 139.5 129.938ZM139.5 133.531C139.861 133.531 140.203 133.463 140.516 133.326C140.828 133.189 141.072 132.994 141.258 132.75C141.434 132.516 141.531 132.252 141.531 131.969C141.531 131.695 141.434 131.432 141.258 131.188C141.072 130.953 140.828 130.758 140.516 130.621C140.203 130.484 139.861 130.406 139.5 130.406C139.129 130.406 138.797 130.484 138.484 130.621C138.172 130.758 137.918 130.953 137.742 131.188C137.557 131.432 137.469 131.695 137.469 131.969C137.469 132.301 137.596 132.604 137.859 132.877L138.055 133.092L137.957 133.365C137.898 133.502 137.84 133.629 137.762 133.766C137.957 133.707 138.143 133.609 138.318 133.473L138.514 133.346L138.738 133.414C138.982 133.492 139.236 133.531 139.5 133.531Z" fill="#434960"></path></g><defs><filter id="filter0_dd_5167_95579" x="30.3827" y="51.9504" width="201.235" height="95.2346" filterUnits="userSpaceOnUse" color-interpolation-filters="sRGB"><feFlood flood-opacity="0" result="BackgroundImageFix"></feFlood><feColorMatrix in="SourceAlpha" type="matrix" values="0 0 0 0 0 0 0 0 0 0 0 0 0 0 0 0 0 0 127 0" result="hardAlpha"></feColorMatrix><feOffset dy="0.893854"></feOffset><feGaussianBlur stdDeviation="0.558659"></feGaussianBlur><feColorMatrix type="matrix" values="0 0 0 0 0 0 0 0 0 0 0 0 0 0 0 0 0 0 0.05 0"></feColorMatrix><feBlend mode="normal" in2="BackgroundImageFix" result="effect1_dropShadow_5167_95579"></feBlend><feColorMatrix in="SourceAlpha" type="matrix" values="0 0 0 0 0 0 0 0 0 0 0 0 0 0 0 0 0 0 127 0" result="hardAlpha"></feColorMatrix><feOffset dy="0.223464"></feOffset><feGaussianBlur stdDeviation="0.223464"></feGaussianBlur><feColorMatrix type="matrix" values="0 0 0 0 0 0 0 0 0 0 0 0 0 0 0 0 0 0 0.05 0"></feColorMatrix><feBlend mode="normal" in2="effect1_dropShadow_5167_95579" result="effect2_dropShadow_5167_95579"></feBlend><feBlend mode="normal" in="SourceGraphic" in2="effect2_dropShadow_5167_95579" result="shape"></feBlend></filter><clipPath id="clip0_5167_95579"><rect width="74" height="89" fill="white" transform="translate(33 54)"></rect></clipPath></defs></svg> 