<?xml version="1.0" encoding="UTF-8"?> <svg xmlns="http://www.w3.org/2000/svg" width="210" height="136" viewBox="0 0 210 136" fill="none"><rect width="208.4" height="136" transform="translate(0.800781)" fill="#E2F5FF"></rect><rect x="42" y="31" width="126" height="74" fill="#43A6DB"></rect><path fill-rule="evenodd" clip-rule="evenodd" d="M105 81C112.18 81 118 75.1797 118 68C118 60.8203 112.18 55 105 55C97.8203 55 92 60.8203 92 68C92 75.1797 97.8203 81 105 81ZM102.748 63.2846C102.415 63.0942 102 63.3349 102 63.7188V72.2813C102 72.6652 102.415 72.9059 102.748 72.7154L110.24 68.4342C110.576 68.2422 110.576 67.7579 110.24 67.5659L102.748 63.2846Z" fill="white"></path></svg> 