<?xml version="1.0" encoding="UTF-8"?> <svg xmlns="http://www.w3.org/2000/svg" width="263" height="200" viewBox="0 0 263 200" fill="none"><g clip-path="url(#clip0_5041_97591)"><rect width="262" height="200" transform="translate(0.5)" fill="#F3F4F5"></rect><g filter="url(#filter0_ddd_5041_97591)"><rect x="31" y="41" width="203" height="186" rx="2" fill="white"></rect><rect x="52" y="138" width="24.9278" height="24.9278" rx="1" fill="#8C8F9A"></rect><rect x="52" y="164.928" width="24.9278" height="24.9278" rx="1" fill="#8C8F9A"></rect><g clip-path="url(#clip1_5041_97591)"><rect x="52" y="191.855" width="24.9278" height="24.9278" rx="1" fill="#8C8F9A"></rect></g><rect x="78.9297" y="138" width="24.9278" height="24.9278" rx="1" fill="#8C8F9A"></rect><rect x="78.9297" y="164.928" width="24.9278" height="24.9278" rx="1" fill="#8C8F9A"></rect><rect x="78.9297" y="191.855" width="24.9278" height="24.9278" rx="1" fill="#8C8F9A"></rect><rect x="105.855" y="138" width="24.9278" height="24.9278" rx="1" fill="#8C8F9A"></rect><rect x="105.855" y="164.928" width="24.9278" height="24.9278" rx="1" fill="#8C8F9A"></rect><rect x="105.855" y="191.855" width="24.9278" height="24.9278" rx="1" fill="#8C8F9A"></rect><rect x="132.781" y="138" width="24.9278" height="24.9278" rx="1" fill="#8C8F9A"></rect><rect x="132.781" y="164.928" width="24.9278" height="24.9278" rx="1" fill="#8C8F9A"></rect><rect x="132.781" y="191.855" width="24.9278" height="24.9278" rx="1" fill="#8C8F9A"></rect><rect x="159.711" y="138" width="24.9278" height="24.9278" rx="1" fill="#8C8F9A"></rect><rect x="159.711" y="164.928" width="24.9278" height="24.9278" rx="1" fill="#8C8F9A"></rect><rect x="159.711" y="191.855" width="24.9278" height="24.9278" rx="1" fill="#8C8F9A"></rect><rect x="186.641" y="138" width="24.9278" height="24.9278" rx="1" fill="#8C8F9A"></rect><rect x="186.641" y="164.928" width="24.9278" height="24.9278" rx="1" fill="#8C8F9A"></rect><rect x="186.641" y="191.855" width="24.9278" height="24.9278" rx="1" fill="#8C8F9A"></rect><g clip-path="url(#clip2_5041_97591)"><rect x="52" y="59" width="160" height="48" rx="1" fill="#8C8F9A"></rect><circle opacity="0.5" cx="198" cy="144" r="63" fill="#D0D1D7"></circle></g><rect x="58.5" y="101.5" width="23" height="23" rx="1.5" fill="#8C8F9A" stroke="white"></rect><rect x="88" y="113" width="38" height="3" rx="0.5" fill="#DCDDE1"></rect><rect x="88" y="119" width="27" height="3" rx="0.5" fill="#DCDDE1"></rect></g></g><defs><filter id="filter0_ddd_5041_97591" x="18" y="34" width="229" height="212" filterUnits="userSpaceOnUse" color-interpolation-filters="sRGB"><feFlood flood-opacity="0" result="BackgroundImageFix"></feFlood><feColorMatrix in="SourceAlpha" type="matrix" values="0 0 0 0 0 0 0 0 0 0 0 0 0 0 0 0 0 0 127 0" result="hardAlpha"></feColorMatrix><feOffset dy="6"></feOffset><feGaussianBlur stdDeviation="6.5"></feGaussianBlur><feColorMatrix type="matrix" values="0 0 0 0 0 0 0 0 0 0 0 0 0 0 0 0 0 0 0.03 0"></feColorMatrix><feBlend mode="normal" in2="BackgroundImageFix" result="effect1_dropShadow_5041_97591"></feBlend><feColorMatrix in="SourceAlpha" type="matrix" values="0 0 0 0 0 0 0 0 0 0 0 0 0 0 0 0 0 0 127 0" result="hardAlpha"></feColorMatrix><feOffset dy="1"></feOffset><feGaussianBlur stdDeviation="1"></feGaussianBlur><feColorMatrix type="matrix" values="0 0 0 0 0 0 0 0 0 0 0 0 0 0 0 0 0 0 0.11 0"></feColorMatrix><feBlend mode="normal" in2="effect1_dropShadow_5041_97591" result="effect2_dropShadow_5041_97591"></feBlend><feColorMatrix in="SourceAlpha" type="matrix" values="0 0 0 0 0 0 0 0 0 0 0 0 0 0 0 0 0 0 127 0" result="hardAlpha"></feColorMatrix><feOffset dy="3"></feOffset><feGaussianBlur stdDeviation="3"></feGaussianBlur><feColorMatrix type="matrix" values="0 0 0 0 0 0 0 0 0 0 0 0 0 0 0 0 0 0 0.04 0"></feColorMatrix><feBlend mode="normal" in2="effect2_dropShadow_5041_97591" result="effect3_dropShadow_5041_97591"></feBlend><feBlend mode="normal" in="SourceGraphic" in2="effect3_dropShadow_5041_97591" result="shape"></feBlend></filter><clipPath id="clip0_5041_97591"><rect width="262" height="200" fill="white" transform="translate(0.5)"></rect></clipPath><clipPath id="clip1_5041_97591"><rect x="52" y="191.855" width="24.9278" height="24.9278" rx="1" fill="white"></rect></clipPath><clipPath id="clip2_5041_97591"><rect x="52" y="59" width="160" height="48" rx="1" fill="white"></rect></clipPath></defs></svg> 