<svg xmlns="http://www.w3.org/2000/svg" width="22.564" height="19" viewBox="0 0 22.564 19"><g transform="translate(1085.501 -695.75)"><g transform="translate(-1085.501 695.75)"><g transform="translate(0 0)"><path d="M-1062.952,710.511l-1.108-12.187a2.817,2.817,0,0,0-2.819-2.574h-14.679a2.817,2.817,0,0,0-2.819,2.574l-1.108,12.187a3.9,3.9,0,0,0,1,2.973,3.9,3.9,0,0,0,2.871,1.266h14.789a3.9,3.9,0,0,0,2.871-1.266A3.9,3.9,0,0,0-1062.952,710.511Zm-1.845,2.2a2.716,2.716,0,0,1-2.027.894h-14.789a2.715,2.715,0,0,1-2.026-.894,2.714,2.714,0,0,1-.706-2.1l1.108-12.187a1.68,1.68,0,0,1,1.68-1.535h14.679a1.68,1.68,0,0,1,1.68,1.535l1.108,12.187A2.715,2.715,0,0,1-1064.8,712.713Z" transform="translate(1085.501 -695.75)" fill="#f6724c"/></g></g><g transform="translate(-1081.022 698.441)"><g transform="translate(0 0)"><path d="M-980.987,750.623a.544.544,0,0,0-.429-.127l-1.643.3a.648.648,0,0,0-.127-.177l-.011-.01a.485.485,0,0,0-.443-.11l-1.629.3a.637.637,0,0,0-.127-.177l-.011-.01a.485.485,0,0,0-.443-.11l-8.1,1.472-.011,0a.563.563,0,0,0-.44.535v9.579a.562.562,0,0,0,.44.535h.005l8.111,1.475.015,0h.074a.533.533,0,0,0,.344-.126.516.516,0,0,0,.145-.187l1.647.313h.075a.532.532,0,0,0,.343-.126.513.513,0,0,0,.146-.187l1.647.313h.075a.536.536,0,0,0,.346-.128.534.534,0,0,0,.195-.412V751.035A.534.534,0,0,0-980.987,750.623Zm-5.307,12.29-7.024-1.278v-8.673l7.024-1.278Zm2.21,0-1.129-.2V751.886l1.129-.2Zm2.211,0-1.13-.2V751.886l1.13-.2Z" transform="translate(994.4 -750.483)" fill="#f6724c"/></g><g transform="translate(1.419 2.702)"><path d="M-959.716,810.675h-.684v-1.244a.407.407,0,0,0-.406-.406h-1.209v-.585h.683a.407.407,0,0,0,.406-.406v-2.178a.406.406,0,0,0-.406-.406h-2.177a.406.406,0,0,0-.406.406v2.178a.406.406,0,0,0,.406.406h.683v.586h-1.2a.406.406,0,0,0-.405.4l-.01,1.247h-.687a.407.407,0,0,0-.406.406v2.178a.406.406,0,0,0,.406.406h2.177a.406.406,0,0,0,.406-.406v-2.178a.406.406,0,0,0-.406-.406h-.68l.006-.838h2.411v.838h-.683a.407.407,0,0,0-.406.406v2.178a.406.406,0,0,0,.406.406h2.177a.406.406,0,0,0,.406-.406v-2.178A.406.406,0,0,0-959.716,810.675Zm-3.636.812v1.366h-1.366v-1.366Zm.25-3.86v-1.366h1.366v1.366Zm2.98,5.226h-1.365v-1.366h1.365Z" transform="translate(965.53 -805.45)" fill="#f6724c"/></g></g></g></svg>