<?xml version="1.0" encoding="utf-8"?>
<!-- Generator: Adobe Illustrator 25.2.1, SVG Export Plug-In . SVG Version: 6.00 Build 0)  -->
<svg version="1.1" id="Warstwa_2" xmlns="http://www.w3.org/2000/svg" xmlns:xlink="http://www.w3.org/1999/xlink" x="0px" y="0px"
	 viewBox="0 0 20.1200008 15.96" style="enable-background:new 0 0 20.1200008 15.96;" xml:space="preserve">
<style type="text/css">
	.st0{fill:#6A39E4;}
</style>
<path class="st0" d="M19.2285156,7.8300781l-3.6025391-1.4033203c-0.2119141-0.0810547-0.4443359-0.0810547-0.6542969,0.0004883
	l-3.6015625,1.4033203c-0.3457031,0.1342773-0.5727539,0.4672852-0.5727539,0.8383789v0.3846436
	c-0.3133545-0.236084-0.644104-0.4449463-0.9934082-0.6207886c1.0024414-0.843689,1.6540527-2.0913696,1.6540527-3.5011597
	c0-2.5336914-2.0615234-4.5952148-4.5957031-4.5952148S2.2666016,2.3979492,2.2666016,4.9316406
	c0,1.4099731,0.6517334,2.6578369,1.65448,3.5015259c-2.1370239,1.0799561-3.6090698,3.2913208-3.6090698,5.8451538
	c0,0.1728516,0.0068359,0.3447266,0.0195312,0.5136719c0.0361328,0.4726562,0.4306641,0.8320312,0.8964844,0.8320312
	c0.0229492,0,0.0463867-0.0009766,0.0698242-0.0029297c0.4956055-0.0380859,0.8666992-0.4707031,0.8286133-0.9658203
	c-0.0097656-0.1240234-0.0146484-0.2509766-0.0146484-0.3769531c0-2.6201172,2.1313477-4.7509766,4.7504883-4.7509766
	c1.5773926,0,3.0479126,0.7809448,3.9350586,2.0893555v1.7036133c0,0.3710938,0.2270508,0.7041016,0.5727539,0.8388672
	L14.9716797,15.5625c0.1054688,0.0410156,0.2158203,0.0615234,0.3271484,0.0615234
	c0.1103516,0,0.2216797-0.0205078,0.3271484-0.0615234l3.6025391-1.4033203
	c0.3447266-0.1347656,0.5732422-0.4677734,0.5732422-0.8388672V8.6689453
	C19.8017578,8.2978516,19.5732422,7.9648438,19.2285156,7.8300781z M4.0664062,4.9316406
	c0-1.5415039,1.2543945-2.7954102,2.7958984-2.7954102s2.7958984,1.2539062,2.7958984,2.7954102
	S8.4038086,7.7275391,6.8623047,7.7275391S4.0664062,6.4731445,4.0664062,4.9316406z M18.0009766,12.7050781l-2.7021484,1.0527344
	l-2.7011719-1.0527344V9.2841797l2.7011719-1.0527344l2.7021484,1.0527344V12.7050781z"/>
</svg>
