<?xml version="1.0" encoding="utf-8"?>
<!-- Generator: Adobe Illustrator 25.0.0, SVG Export Plug-In . SVG Version: 6.00 Build 0)  -->
<svg version="1.1" id="Warstwa_1" xmlns="http://www.w3.org/2000/svg" xmlns:xlink="http://www.w3.org/1999/xlink" x="0px" y="0px"
	 viewBox="0 0 20.1200008 15.96" style="enable-background:new 0 0 20.1200008 15.96;" xml:space="preserve">
<style type="text/css">
	.st0{fill:#6A39E4;}
</style>
<path class="st0" d="M19.4365234,2.3579102l-5.5048828-2.1455078c-0.2109375-0.0820312-0.4433594-0.0820312-0.6542969,0
	l-2.829895,1.1030273H1.0107422c-0.4970703,0-0.8999023,0.402832-0.8999023,0.8999023v12.7387695
	c0,0.4970703,0.402832,0.9003906,0.8999023,0.9003906h12.6181641c0.4970703,0,0.9003906-0.4033203,0.9003906-0.9003906v-1.8979492
	l4.9072266-1.9125977c0.3457031-0.1347656,0.5732422-0.4677734,0.5732422-0.8388672V3.1962891
	C20.0097656,2.8251953,19.7822266,2.4921875,19.4365234,2.3579102z M13.6044922,2.0166016l3.2074585,1.2503662l-3.2074585,1.2501221
	l-3.2078247-1.2501831L13.6044922,2.0166016z M8.9995117,9.6894531V4.6538696l3.7045898,1.4439697v5.0355835L8.9995117,9.6894531z
	 M1.9106445,14.0537109V3.1152344h5.3013916C7.2094727,3.1427002,7.199707,3.1682739,7.199707,3.1962891v2.6865845
	C7.1851807,5.8822021,7.1729126,5.8745117,7.1582031,5.8745117H4.315918c-0.4970703,0-0.8999023,0.402832-0.8999023,0.8999023
	s0.402832,0.8999023,0.8999023,0.8999023h2.8422852c0.0147095,0,0.0269775-0.0076904,0.0415039-0.0083618v1.8291626H4.315918
	c-0.4970703,0-0.8999023,0.4033203-0.8999023,0.9003906s0.402832,0.9003906,0.8999023,0.9003906h3.8479004l4.5646973,1.7792358
	v0.9785767H1.9106445z M14.5048828,11.1333618V6.0979004l3.7041016-1.4436646v5.0352173L14.5048828,11.1333618z"/>
</svg>
