<?xml version="1.0" encoding="utf-8"?>
<!-- Generator: Adobe Illustrator 25.0.0, SVG Export Plug-In . SVG Version: 6.00 Build 0)  -->
<svg version="1.1" id="Warstwa_1" xmlns="http://www.w3.org/2000/svg" xmlns:xlink="http://www.w3.org/1999/xlink" x="0px" y="0px"
	 viewBox="0 0 20.1200008 15.96" style="enable-background:new 0 0 20.1200008 15.96;" xml:space="preserve">
<style type="text/css">
	.st0{fill:#6A39E4;}
</style>
<path class="st0" d="M11.190979,6.2712402c0.6245728,0,1.1309814-0.5063477,1.1309814-1.1309204
	c0-0.6246338-0.5064087-1.1309814-1.1309814-1.1309814c-0.6246338,0-1.1309814,0.5063477-1.1309814,1.1309814
	C10.0599976,5.7648926,10.5663452,6.2712402,11.190979,6.2712402z M15.0365601,7.8884277
	c-0.6245728,0-1.1309204,0.5063477-1.1309204,1.1309814c0,0.6245728,0.5063477,1.1309204,1.1309204,1.1309204
	c0.6246338,0,1.1309814-0.5063477,1.1309814-1.1309204C16.1675415,8.3947754,15.6611938,7.8884277,15.0365601,7.8884277z
	 M13.1992188,0.1508789c-1.4078979,0-2.7174072,0.4295654-3.8043213,1.1645508H1.0107422
	c-0.4970703,0-0.8999023,0.402832-0.8999023,0.8999023v12.7387695c0,0.4970703,0.402832,0.9003906,0.8999023,0.9003906h12.6181641
	c0.4970703,0,0.9003906-0.4033203,0.9003906-0.9003906v-1.315979c3.1202393-0.6206665,5.4804688-3.378479,5.4804688-6.6776733
	C20.0097656,3.2055664,16.9541016,0.1508789,13.1992188,0.1508789z M12.7285156,14.0537109H1.9106445V3.1152344h5.6743164
	c-0.5569458,0.81073-0.9367676,1.7487793-1.0997925,2.7592773H4.315918c-0.4970703,0-0.8999023,0.402832-0.8999023,0.8999023
	s0.402832,0.8999023,0.8999023,0.8999023h2.1123047C6.4949951,8.3118896,6.6535034,8.921814,6.8845215,9.4951172H4.315918
	c-0.4970703,0-0.8999023,0.4033203-0.8999023,0.9003906s0.402832,0.9003906,0.8999023,0.9003906h3.6368408
	c1.1557617,1.3966064,2.8588867,2.3186035,4.7757568,2.4507446V14.0537109z M13.1992188,11.9697266
	c-2.762207,0-5.0092773-2.2470703-5.0092773-5.0092773s2.2470703-5.0097656,5.0092773-5.0097656
	c2.7626953,0,5.0097656,2.2475586,5.0097656,5.0097656S15.9619141,11.9697266,13.1992188,11.9697266z M15.0664062,4.0727539
	l-4.7792969,4.7797852c-0.2929688,0.2929688-0.2929688,0.7675781,0,1.0605469
	c0.1464844,0.1464844,0.3383789,0.2197266,0.5302734,0.2197266c0.1923828,0,0.3837891-0.0732422,0.5302734-0.2197266
	l4.7792969-4.7797852c0.2929688-0.2929688,0.2929688-0.7675781,0-1.0605469S15.359375,3.7797852,15.0664062,4.0727539z"/>
</svg>
