<svg xmlns="http://www.w3.org/2000/svg" width="22.591" height="19.022" viewBox="0 0 22.591 19.022"><g transform="translate(-19.799 -52.46)"><g transform="translate(24.318 56.754)"><g transform="translate(0 8.117)"><path d="M115.082,308.716h-3.017a.463.463,0,0,1-.463-.463V305.09a.463.463,0,0,1,.463-.463h3.017a.463.463,0,0,1,.463.463v3.164A.463.463,0,0,1,115.082,308.716Zm-2.554-.925h2.091v-2.239h-2.091Z" transform="translate(-111.603 -304.627)" fill="#f6724c"/></g><g transform="translate(0 0.001)"><path d="M115.082,147.384h-3.017a.463.463,0,0,1-.463-.463v-6.74a.463.463,0,0,1,.463-.463h3.017a.463.463,0,0,1,.463.463v6.74A.463.463,0,0,1,115.082,147.384Zm-2.554-.925h2.091v-5.815h-2.091Z" transform="translate(-111.603 -139.718)" fill="#f6724c"/></g><g transform="translate(4.824 0)"><path d="M213.1,143.8h-3.017a.463.463,0,0,1-.463-.463v-3.164a.463.463,0,0,1,.463-.463H213.1a.463.463,0,0,1,.463.463v3.164A.463.463,0,0,1,213.1,143.8Zm-2.554-.925h2.091v-2.239H210.55Z" transform="translate(-209.625 -139.709)" fill="#f6724c"/></g><g transform="translate(4.824 4.541)"><path d="M213.1,239.625h-3.017a.463.463,0,0,1-.463-.463v-6.74a.463.463,0,0,1,.463-.463H213.1a.463.463,0,0,1,.463.463v6.74A.463.463,0,0,1,213.1,239.625Zm-2.554-.925h2.091v-5.815H210.55Z" transform="translate(-209.625 -231.959)" fill="#f6724c"/></g><g transform="translate(9.612)"><path d="M310.386,151.909H307.37a.463.463,0,0,1-.463-.463V140.166a.463.463,0,0,1,.463-.463h3.017a.463.463,0,0,1,.463.463v11.281A.463.463,0,0,1,310.386,151.909Zm-2.554-.925h2.091V140.628h-2.091Z" transform="translate(-306.907 -139.703)" fill="#f6724c"/></g></g><g transform="translate(19.799 52.46)"><path d="M42.374,67.238l-1.109-12.2a2.82,2.82,0,0,0-2.822-2.577h-14.7a2.82,2.82,0,0,0-2.822,2.577l-1.109,12.2a3.892,3.892,0,0,0,3.876,4.244H38.5a3.892,3.892,0,0,0,3.876-4.244Zm-1.847,2.2a2.719,2.719,0,0,1-2.029.895H23.691a2.747,2.747,0,0,1-2.735-3l1.109-12.2A1.682,1.682,0,0,1,23.746,53.6h14.7a1.682,1.682,0,0,1,1.682,1.537l1.109,12.2A2.718,2.718,0,0,1,40.527,69.443Z" transform="translate(-19.799 -52.46)" fill="#f6724c"/></g><rect width="1.604" height="0.984" rx="0.492" transform="translate(24.308 54.874)" fill="#f6724c"/><rect width="2.756" height="0.984" rx="0.492" transform="translate(26.552 54.874)" fill="#f6724c"/><rect width="4.016" height="0.984" rx="0.492" transform="translate(29.82 54.874)" fill="#f6724c"/></g></svg>