<svg xmlns="http://www.w3.org/2000/svg" width="22.269" height="19" viewBox="0 0 22.269 19"><g transform="translate(0)"><g transform="translate(5.022 3.056)"><path d="M-1793.675,881.357l-5.468-2.246a.645.645,0,0,0-.49,0l-5.468,2.246a.642.642,0,0,0-.4.6v7.107a.642.642,0,0,0,.4.6l5.468,2.246a.65.65,0,0,0,.245.048.653.653,0,0,0,.245-.048v0l.04-.014,5.429-2.23a.642.642,0,0,0,.4-.6v-7.107A.642.642,0,0,0-1793.675,881.357Zm-5.713-.952.68.28-3.7,1.612-.795-.327Zm-.645,9.939-4.178-1.716v-5.679l1.222.5v1.842a.646.646,0,0,0,.645.645.646.646,0,0,0,.645-.645v-1.312l1.666.684Zm.645-6.809-1.353-.556,3.7-1.612,1.468.6Zm4.822,5.093-4.178,1.716v-5.679l4.178-1.716Z" transform="translate(1805.5 -879.063)" fill="#f6724c"/></g><g transform="translate(0 0)"><g transform="translate(0 6.803)"><path d="M-1900.954,954.406l.9-1.348a.868.868,0,0,0-.24-1.2.866.866,0,0,0-.653-.129.862.862,0,0,0-.551.37l-1.219,1.829a.865.865,0,0,0,0,.962l1.22,1.83a.868.868,0,0,0,.722.386.868.868,0,0,0,.481-.146.869.869,0,0,0,.24-1.2Z" transform="translate(1902.865 -951.709)" fill="#f6724c"/><g transform="translate(19.314 0)"><path d="M-1525.616,953.926l-1.22-1.83a.867.867,0,0,0-.722-.386.867.867,0,0,0-.481.146.869.869,0,0,0-.24,1.2l.9,1.348-.9,1.348a.868.868,0,0,0,.24,1.2.865.865,0,0,0,.48.146.886.886,0,0,0,.173-.017.862.862,0,0,0,.551-.37l1.219-1.829A.865.865,0,0,0-1525.616,953.926Z" transform="translate(1528.425 -951.71)" fill="#f6724c"/></g></g><g transform="translate(0.697)"><path d="M-1869.238,825.149l-.252-2.772a2.8,2.8,0,0,0-2.8-2.557h-13.244a2.8,2.8,0,0,0-2.8,2.557l-.252,2.772a.778.778,0,0,0,.2.592.778.778,0,0,0,.572.252.77.77,0,0,0,.771-.7l.252-2.772a1.258,1.258,0,0,1,1.259-1.15h13.244a1.259,1.259,0,0,1,1.259,1.15l.251,2.772a.771.771,0,0,0,.771.7.777.777,0,0,0,.572-.252A.778.778,0,0,0-1869.238,825.149Zm.747,9.565-.124-1.363a.77.77,0,0,0-.771-.7.776.776,0,0,0-.572.252.778.778,0,0,0-.2.592l.124,1.363a2.193,2.193,0,0,1-.571,1.7,2.194,2.194,0,0,1-1.638.722h-13.344a2.2,2.2,0,0,1-1.638-.722,2.194,2.194,0,0,1-.57-1.7l.124-1.363a.778.778,0,0,0-.2-.592.776.776,0,0,0-.572-.252.77.77,0,0,0-.771.7l-.124,1.363a3.767,3.767,0,0,0,.97,2.88,3.772,3.772,0,0,0,2.78,1.227h13.344a3.772,3.772,0,0,0,2.78-1.227A3.768,3.768,0,0,0-1868.49,834.714Z" transform="translate(1889.35 -819.82)" fill="#f6724c"/></g></g></g></svg>